<?xml version="1.0" encoding="UTF-8" standalone="no"?>
<!DOCTYPE svg PUBLIC "-//W3C//DTD SVG 1.1//EN"
 "http://www.w3.org/Graphics/SVG/1.1/DTD/svg11.dtd">
<!-- Generated by graphviz version 2.40.1 (20161225.0304)
 -->
<!-- Title: Git Pages: 1 -->
<svg width="1542pt" height="740pt"
 viewBox="0.00 0.00 1542.00 740.00" xmlns="http://www.w3.org/2000/svg" xmlns:xlink="http://www.w3.org/1999/xlink">
<g id="graph0" class="graph" transform="scale(1 1) rotate(0) translate(4 736)">
<title>Git</title>
<g id="clust1" class="cluster">
<title>cluster_master</title>
<polygon fill="transparent" stroke="transparent" points="1359,-556 1359,-724 1526,-724 1526,-556 1359,-556"/>
</g>
<!-- A -->
<g id="node1" class="node">
<title>A</title>
<path fill="#f0efe8" stroke="#000000" stroke-width="0" d="M139,-622C139,-622 12,-622 12,-622 6,-622 0,-616 0,-610 0,-610 0,-576 0,-576 0,-570 6,-564 12,-564 12,-564 139,-564 139,-564 145,-564 151,-570 151,-576 151,-576 151,-610 151,-610 151,-616 145,-622 139,-622"/>
<text text-anchor="middle" x="75.5" y="-587" font-family="Menlo, Monaco, Consolas, Lucida Console, Courier New, monospace" font-size="20.00" fill="#000000">A</text>
</g>
<!-- B -->
<g id="node2" class="node">
<title>B</title>
<path fill="#f0efe8" stroke="#000000" stroke-width="0" d="M362,-622C362,-622 235,-622 235,-622 229,-622 223,-616 223,-610 223,-610 223,-576 223,-576 223,-570 229,-564 235,-564 235,-564 362,-564 362,-564 368,-564 374,-570 374,-576 374,-576 374,-610 374,-610 374,-616 368,-622 362,-622"/>
<text text-anchor="middle" x="298.5" y="-587" font-family="Menlo, Monaco, Consolas, Lucida Console, Courier New, monospace" font-size="20.00" fill="#000000">B</text>
</g>
<!-- A&#45;&gt;B -->
<g id="edge1" class="edge">
<title>A&#45;&gt;B</title>
<path fill="none" stroke="#8f8a83" stroke-width="2" d="M161.4571,-593C181.7075,-593 203.1458,-593 222.9009,-593"/>
<polygon fill="#8f8a83" stroke="#8f8a83" stroke-width="2" points="161.3088,-589.5001 151.3088,-593 161.3088,-596.5001 161.3088,-589.5001"/>
</g>
<!-- C -->
<g id="node3" class="node">
<title>C</title>
<path fill="#f0efe8" stroke="#000000" stroke-width="0" d="M585,-622C585,-622 458,-622 458,-622 452,-622 446,-616 446,-610 446,-610 446,-576 446,-576 446,-570 452,-564 458,-564 458,-564 585,-564 585,-564 591,-564 597,-570 597,-576 597,-576 597,-610 597,-610 597,-616 591,-622 585,-622"/>
<text text-anchor="middle" x="521.5" y="-587" font-family="Menlo, Monaco, Consolas, Lucida Console, Courier New, monospace" font-size="20.00" fill="#000000">C</text>
</g>
<!-- B&#45;&gt;C -->
<g id="edge2" class="edge">
<title>B&#45;&gt;C</title>
<path fill="none" stroke="#8f8a83" stroke-width="2" d="M384.4571,-593C404.7075,-593 426.1458,-593 445.9009,-593"/>
<polygon fill="#8f8a83" stroke="#8f8a83" stroke-width="2" points="384.3088,-589.5001 374.3088,-593 384.3088,-596.5001 384.3088,-589.5001"/>
</g>
<!-- D -->
<g id="node7" class="node">
<title>D</title>
<path fill="#f0efe8" stroke="#000000" stroke-width="0" d="M585,-528C585,-528 458,-528 458,-528 452,-528 446,-522 446,-516 446,-516 446,-482 446,-482 446,-476 452,-470 458,-470 458,-470 585,-470 585,-470 591,-470 597,-476 597,-482 597,-482 597,-516 597,-516 597,-522 591,-528 585,-528"/>
<text text-anchor="middle" x="521.5" y="-493" font-family="Menlo, Monaco, Consolas, Lucida Console, Courier New, monospace" font-size="20.00" fill="#000000">D</text>
</g>
<!-- B&#45;&gt;D -->
<g id="edge7" class="edge">
<title>B:s&#45;&gt;D:w</title>
<path fill="none" stroke="#8f8a83" stroke-width="2" d="M307.7268,-559.934C340.0181,-545.7039 446,-499 446,-499"/>
<polygon fill="#8f8a83" stroke="#8f8a83" stroke-width="2" points="306.2394,-556.7646 298.5,-564 309.0623,-563.1702 306.2394,-556.7646"/>
</g>
<!-- F -->
<g id="node9" class="node">
<title>F</title>
<path fill="#f0efe8" stroke="#000000" stroke-width="0" d="M585,-340C585,-340 458,-340 458,-340 452,-340 446,-334 446,-328 446,-328 446,-294 446,-294 446,-288 452,-282 458,-282 458,-282 585,-282 585,-282 591,-282 597,-288 597,-294 597,-294 597,-328 597,-328 597,-334 591,-340 585,-340"/>
<text text-anchor="middle" x="521.5" y="-305" font-family="Menlo, Monaco, Consolas, Lucida Console, Courier New, monospace" font-size="20.00" fill="#000000">F</text>
</g>
<!-- B&#45;&gt;F -->
<g id="edge10" class="edge">
<title>B:s&#45;&gt;F:w</title>
<path fill="none" stroke="#8f8a83" stroke-width="2" d="M303.5773,-555.2912C329.5137,-510.8036 446,-311 446,-311"/>
<polygon fill="#8f8a83" stroke="#8f8a83" stroke-width="2" points="300.513,-553.5981 298.5,-564 306.5603,-557.1238 300.513,-553.5981"/>
</g>
<!-- H -->
<g id="node11" class="node">
<title>H</title>
<path fill="#f0efe8" stroke="#000000" stroke-width="0" d="M585,-152C585,-152 458,-152 458,-152 452,-152 446,-146 446,-140 446,-140 446,-106 446,-106 446,-100 452,-94 458,-94 458,-94 585,-94 585,-94 591,-94 597,-100 597,-106 597,-106 597,-140 597,-140 597,-146 591,-152 585,-152"/>
<text text-anchor="middle" x="521.5" y="-117" font-family="Menlo, Monaco, Consolas, Lucida Console, Courier New, monospace" font-size="20.00" fill="#000000">H</text>
</g>
<!-- B&#45;&gt;H -->
<g id="edge13" class="edge">
<title>B:s&#45;&gt;H:w</title>
<path fill="none" stroke="#8f8a83" stroke-width="2" d="M301.7179,-554.379C323.2883,-489.8871 446,-123 446,-123"/>
<polygon fill="#8f8a83" stroke="#8f8a83" stroke-width="2" points="298.3528,-553.4062 298.5,-564 304.9913,-555.6266 298.3528,-553.4062"/>
</g>
<!-- M1 -->
<!-- C&#45;&gt;M1 -->
<g id="edge3" class="edge">
<title>C&#45;&gt;M1</title>
<path fill="none" stroke="#8f8a83" stroke-width="2" d="M607.25,-593C689.6616,-593 812.9955,-593 891.8442,-593"/>
<polygon fill="#8f8a83" stroke="#8f8a83" stroke-width="2" points="607.1579,-589.5001 597.1578,-593 607.1578,-596.5001 607.1579,-589.5001"/>
</g>
<!-- M2 -->
<g id="node5" class="node">
<title>M2</title>
<path fill="#f0efe8" stroke="#000000" stroke-width="0" d="M1268.5,-622C1268.5,-622 1141.5,-622 1141.5,-622 1135.5,-622 1129.5,-616 1129.5,-610 1129.5,-610 1129.5,-576 1129.5,-576 1129.5,-570 1135.5,-564 1141.5,-564 1141.5,-564 1268.5,-564 1268.5,-564 1274.5,-564 1280.5,-570 1280.5,-576 1280.5,-576 1280.5,-610 1280.5,-610 1280.5,-616 1274.5,-622 1268.5,-622"/>
<text text-anchor="middle" x="1205" y="-591.4375" font-family="Menlo, Monaco, Consolas, Lucida Console, Courier New, monospace" font-size="20.00" fill="#000000">️️⚡️ M2&#39;</text>
</g>
<!-- C&#45;&gt;M2 -->
<g id="edge4" class="edge">
<title>C&#45;&gt;M2</title>
<path fill="none" stroke="#8f8a83" stroke-width="2" d="M607.5405,-593C742.395,-593 1001.332,-593 1129.4243,-593"/>
<polygon fill="#8f8a83" stroke="#8f8a83" stroke-width="2" points="607.258,-589.5001 597.258,-593 607.2579,-596.5001 607.258,-589.5001"/>
</g>
<!-- M1&#45;&gt;M2 -->
<!-- M3 -->
<g id="node6" class="node">
<title>M3</title>
<path fill="#f0efe8" stroke="#000000" stroke-width="0" d="M1506,-622C1506,-622 1379,-622 1379,-622 1373,-622 1367,-616 1367,-610 1367,-610 1367,-576 1367,-576 1367,-570 1373,-564 1379,-564 1379,-564 1506,-564 1506,-564 1512,-564 1518,-570 1518,-576 1518,-576 1518,-610 1518,-610 1518,-616 1512,-622 1506,-622"/>
<text text-anchor="middle" x="1442.5" y="-591.4375" font-family="Menlo, Monaco, Consolas, Lucida Console, Courier New, monospace" font-size="20.00" fill="#000000">⚡️ M3&#39;</text>
</g>
<!-- M2&#45;&gt;M3 -->
<g id="edge6" class="edge">
<title>M2&#45;&gt;M3</title>
<path fill="none" stroke="#8f8a83" stroke-width="2" d="M1290.9043,-593C1315.6667,-593 1342.4973,-593 1366.606,-593"/>
<polygon fill="#8f8a83" stroke="#8f8a83" stroke-width="2" points="1290.7995,-589.5001 1280.7995,-593 1290.7994,-596.5001 1290.7995,-589.5001"/>
</g>
<!-- rr_cache -->
<g id="node17" class="node">
<title>rr_cache</title>
<path fill="#3e8f99" stroke="#ffffff" stroke-width="2" d="M1295,-187.6364C1295,-196.6656 1254.6606,-204 1205,-204 1155.3394,-204 1115,-196.6656 1115,-187.6364 1115,-187.6364 1115,-40.3636 1115,-40.3636 1115,-31.3344 1155.3394,-24 1205,-24 1254.6606,-24 1295,-31.3344 1295,-40.3636 1295,-40.3636 1295,-187.6364 1295,-187.6364"/>
<path fill="none" stroke="#ffffff" stroke-width="2" d="M1295,-187.6364C1295,-178.6072 1254.6606,-171.2727 1205,-171.2727 1155.3394,-171.2727 1115,-178.6072 1115,-187.6364"/>
<text text-anchor="middle" x="1205" y="-141.9355" font-family="Menlo, Monaco, Consolas, Lucida Console, Courier New, monospace" font-size="20.00" fill="#ffffff">.git/rr&#45;cache</text>
<text text-anchor="middle" x="1205" y="-97.9355" font-family="Menlo, Monaco, Consolas, Lucida Console, Courier New, monospace" font-size="20.00" fill="#ffffff">pre → post</text>
<text text-anchor="middle" x="1205" y="-74" font-family="Menlo, Monaco, Consolas, Lucida Console, Courier New, monospace" font-size="20.00" fill="#ffffff">pre → post</text>
<text text-anchor="middle" x="1205" y="-50.0645" font-family="Menlo, Monaco, Consolas, Lucida Console, Courier New, monospace" font-size="20.00" fill="#ffffff">...</text>
</g>
<!-- M2&#45;&gt;rr_cache -->
<!-- master -->
<g id="node13" class="node">
<title>master</title>
<polygon fill="#e93a1d" stroke="#000000" stroke-width="0" points="1518,-716 1367,-716 1367,-658 1518,-658 1518,-716"/>
<text text-anchor="middle" x="1442.5" y="-681" font-family="Menlo, Monaco, Consolas, Lucida Console, Courier New, monospace" font-size="20.00" fill="#ffffff">master</text>
</g>
<!-- M3&#45;&gt;master -->
<g id="edge16" class="edge">
<title>M3&#45;&gt;master</title>
<path fill="none" stroke="#8f8a83" stroke-width="2" d="M1442.5,-632.0756C1442.5,-640.6518 1442.5,-649.2281 1442.5,-657.8043"/>
<polygon fill="#8f8a83" stroke="#8f8a83" stroke-width="2" points="1446.0001,-632.0078 1442.5,-622.0078 1439.0001,-632.0078 1446.0001,-632.0078"/>
</g>
<!-- M3&#45;&gt;rr_cache -->
<!-- E -->
<g id="node8" class="node">
<title>E</title>
<path fill="#f0efe8" stroke="#000000" stroke-width="0" d="M808,-528C808,-528 681,-528 681,-528 675,-528 669,-522 669,-516 669,-516 669,-482 669,-482 669,-476 675,-470 681,-470 681,-470 808,-470 808,-470 814,-470 820,-476 820,-482 820,-482 820,-516 820,-516 820,-522 814,-528 808,-528"/>
<text text-anchor="middle" x="744.5" y="-493" font-family="Menlo, Monaco, Consolas, Lucida Console, Courier New, monospace" font-size="20.00" fill="#000000">E</text>
</g>
<!-- D&#45;&gt;E -->
<g id="edge8" class="edge">
<title>D&#45;&gt;E</title>
<path fill="none" stroke="#8f8a83" stroke-width="2" d="M607.4571,-499C627.7075,-499 649.1458,-499 668.9009,-499"/>
<polygon fill="#8f8a83" stroke="#8f8a83" stroke-width="2" points="607.3088,-495.5001 597.3088,-499 607.3088,-502.5001 607.3088,-495.5001"/>
</g>
<!-- E&#45;&gt;M1 -->
<!-- perf -->
<g id="node14" class="node">
<title>perf</title>
<polygon fill="#e93a1d" stroke="#000000" stroke-width="0" points="820,-434 669,-434 669,-376 820,-376 820,-434"/>
<text text-anchor="middle" x="744.5" y="-403.4375" font-family="Menlo, Monaco, Consolas, Lucida Console, Courier New, monospace" font-size="20.00" fill="#ffffff">✅ perf</text>
</g>
<!-- E&#45;&gt;perf -->
<g id="edge17" class="edge">
<title>E&#45;&gt;perf</title>
<path fill="none" stroke="#8f8a83" stroke-width="2" d="M744.5,-459.7365C744.5,-451.1603 744.5,-442.5841 744.5,-434.0078"/>
<polygon fill="#8f8a83" stroke="#8f8a83" stroke-width="2" points="741.0001,-459.8043 744.5,-469.8043 748.0001,-459.8043 741.0001,-459.8043"/>
</g>
<!-- G -->
<g id="node10" class="node">
<title>G</title>
<path fill="#f0efe8" stroke="#000000" stroke-width="0" d="M808,-340C808,-340 681,-340 681,-340 675,-340 669,-334 669,-328 669,-328 669,-294 669,-294 669,-288 675,-282 681,-282 681,-282 808,-282 808,-282 814,-282 820,-288 820,-294 820,-294 820,-328 820,-328 820,-334 814,-340 808,-340"/>
<text text-anchor="middle" x="744.5" y="-305" font-family="Menlo, Monaco, Consolas, Lucida Console, Courier New, monospace" font-size="20.00" fill="#000000">G</text>
</g>
<!-- F&#45;&gt;G -->
<g id="edge11" class="edge">
<title>F&#45;&gt;G</title>
<path fill="none" stroke="#8f8a83" stroke-width="2" d="M607.4571,-311C627.7075,-311 649.1458,-311 668.9009,-311"/>
<polygon fill="#8f8a83" stroke="#8f8a83" stroke-width="2" points="607.3088,-307.5001 597.3088,-311 607.3088,-314.5001 607.3088,-307.5001"/>
</g>
<!-- G&#45;&gt;M2 -->
<g id="edge12" class="edge">
<title>G:e&#45;&gt;M2:s</title>
<path fill="none" stroke="#8f8a83" stroke-width="2" d="M828.8884,-316.5196C885.1177,-353.5183 1205,-564 1205,-564"/>
<polygon fill="#8f8a83" stroke="#8f8a83" stroke-width="2" points="830.7777,-313.573 820.5,-311 826.9299,-319.4206 830.7777,-313.573"/>
</g>
<!-- layout -->
<g id="node15" class="node">
<title>layout</title>
<polygon fill="#e93a1d" stroke="#000000" stroke-width="0" points="820,-246 669,-246 669,-188 820,-188 820,-246"/>
<text text-anchor="middle" x="744.5" y="-215.4375" font-family="Menlo, Monaco, Consolas, Lucida Console, Courier New, monospace" font-size="20.00" fill="#ffffff">✅ css</text>
</g>
<!-- G&#45;&gt;layout -->
<g id="edge18" class="edge">
<title>G&#45;&gt;layout</title>
<path fill="none" stroke="#8f8a83" stroke-width="2" d="M744.5,-271.7365C744.5,-263.1603 744.5,-254.5841 744.5,-246.0078"/>
<polygon fill="#8f8a83" stroke="#8f8a83" stroke-width="2" points="741.0001,-271.8043 744.5,-281.8043 748.0001,-271.8043 741.0001,-271.8043"/>
</g>
<!-- I -->
<g id="node12" class="node">
<title>I</title>
<path fill="#f0efe8" stroke="#000000" stroke-width="0" d="M808,-152C808,-152 681,-152 681,-152 675,-152 669,-146 669,-140 669,-140 669,-106 669,-106 669,-100 675,-94 681,-94 681,-94 808,-94 808,-94 814,-94 820,-100 820,-106 820,-106 820,-140 820,-140 820,-146 814,-152 808,-152"/>
<text text-anchor="middle" x="744.5" y="-117" font-family="Menlo, Monaco, Consolas, Lucida Console, Courier New, monospace" font-size="20.00" fill="#000000">I</text>
</g>
<!-- H&#45;&gt;I -->
<g id="edge14" class="edge">
<title>H&#45;&gt;I</title>
<path fill="none" stroke="#8f8a83" stroke-width="2" d="M607.4571,-123C627.7075,-123 649.1458,-123 668.9009,-123"/>
<polygon fill="#8f8a83" stroke="#8f8a83" stroke-width="2" points="607.3088,-119.5001 597.3088,-123 607.3088,-126.5001 607.3088,-119.5001"/>
</g>
<!-- I&#45;&gt;M3 -->
<g id="edge15" class="edge">
<title>I:e&#45;&gt;M3:s</title>
<path fill="none" stroke="#8f8a83" stroke-width="2" d="M828.8224,-128.9006C902.6325,-181.2322 1442.5,-564 1442.5,-564"/>
<polygon fill="#8f8a83" stroke="#8f8a83" stroke-width="2" points="830.682,-125.9287 820.5,-123 826.6333,-131.639 830.682,-125.9287"/>
</g>
<!-- report -->
<g id="node16" class="node">
<title>report</title>
<polygon fill="#e93a1d" stroke="#000000" stroke-width="0" points="820,-58 669,-58 669,0 820,0 820,-58"/>
<text text-anchor="middle" x="744.5" y="-27.4375" font-family="Menlo, Monaco, Consolas, Lucida Console, Courier New, monospace" font-size="20.00" fill="#ffffff">✅ report</text>
</g>
<!-- I&#45;&gt;report -->
<g id="edge19" class="edge">
<title>I&#45;&gt;report</title>
<path fill="none" stroke="#8f8a83" stroke-width="2" d="M744.5,-83.7365C744.5,-75.1603 744.5,-66.5841 744.5,-58.0078"/>
<polygon fill="#8f8a83" stroke="#8f8a83" stroke-width="2" points="741.0001,-83.8043 744.5,-93.8043 748.0001,-83.8043 741.0001,-83.8043"/>
</g>
<!-- rr_cache&#45;&gt;M1 -->
</g>
</svg>
