<?xml version="1.0" encoding="UTF-8" standalone="no"?>
<!DOCTYPE svg PUBLIC "-//W3C//DTD SVG 1.1//EN"
 "http://www.w3.org/Graphics/SVG/1.1/DTD/svg11.dtd">
<!-- Generated by graphviz version 2.43.0 (0)
 -->
<!-- Title: Git Pages: 1 -->
<svg width="621pt" height="372pt"
 viewBox="0.00 0.00 621.00 372.00" xmlns="http://www.w3.org/2000/svg" xmlns:xlink="http://www.w3.org/1999/xlink">
<g id="graph0" class="graph" transform="scale(1 1) rotate(0) translate(4 368)">
<title>Git</title>
<g id="clust1" class="cluster">
<title>cluster_branches</title>
<polygon fill="transparent" stroke="transparent" points="438,-8 438,-356 605,-356 605,-8 438,-8"/>
</g>
<!-- A -->
<g id="node1" class="node">
<title>A</title>
<path fill="#f0efe8" stroke="black" stroke-width="0" d="M139,-164C139,-164 12,-164 12,-164 6,-164 0,-158 0,-152 0,-152 0,-120 0,-120 0,-114 6,-108 12,-108 12,-108 139,-108 139,-108 145,-108 151,-114 151,-120 151,-120 151,-152 151,-152 151,-158 145,-164 139,-164"/>
<text text-anchor="middle" x="75.5" y="-130" font-family="Menlo, Monaco, Consolas, Lucida Console, Courier New, monospace" font-size="20.00">deadbeef</text>
</g>
<!-- B -->
<g id="node2" class="node">
<title>B</title>
<path fill="#f0efe8" stroke="black" stroke-width="0" d="M362,-164C362,-164 235,-164 235,-164 229,-164 223,-158 223,-152 223,-152 223,-120 223,-120 223,-114 229,-108 235,-108 235,-108 362,-108 362,-108 368,-108 374,-114 374,-120 374,-120 374,-152 374,-152 374,-158 368,-164 362,-164"/>
<text text-anchor="middle" x="298.5" y="-130" font-family="Menlo, Monaco, Consolas, Lucida Console, Courier New, monospace" font-size="20.00">0d06f00d</text>
</g>
<!-- A&#45;&gt;B -->
<g id="edge1" class="edge">
<title>A&#45;&gt;B</title>
<path fill="none" stroke="#8f8a83" stroke-width="2" d="M161.2,-136C181.53,-136 203.1,-136 222.94,-136"/>
<polygon fill="#8f8a83" stroke="#8f8a83" stroke-width="2" points="161.01,-132.5 151.01,-136 161.01,-139.5 161.01,-132.5"/>
</g>
<!-- C -->
<g id="node3" class="node">
<title>C</title>
<path fill="#f0efe8" stroke="black" stroke-width="0" d="M585,-164C585,-164 458,-164 458,-164 452,-164 446,-158 446,-152 446,-152 446,-120 446,-120 446,-114 452,-108 458,-108 458,-108 585,-108 585,-108 591,-108 597,-114 597,-120 597,-120 597,-152 597,-152 597,-158 591,-164 585,-164"/>
<text text-anchor="middle" x="521.5" y="-130" font-family="Menlo, Monaco, Consolas, Lucida Console, Courier New, monospace" font-size="20.00">50fac0de</text>
</g>
<!-- B&#45;&gt;C -->
<g id="edge2" class="edge">
<title>B&#45;&gt;C</title>
<path fill="none" stroke="#8f8a83" stroke-width="2" d="M384.2,-136C404.53,-136 426.1,-136 445.94,-136"/>
<polygon fill="#8f8a83" stroke="#8f8a83" stroke-width="2" points="384.01,-132.5 374.01,-136 384.01,-139.5 384.01,-132.5"/>
</g>
<!-- master -->
<g id="node5" class="node">
<title>master</title>
<polygon fill="#e93a1d" stroke="black" stroke-width="0" points="597,-256 446,-256 446,-200 597,-200 597,-256"/>
<text text-anchor="middle" x="521.5" y="-222" font-family="Menlo, Monaco, Consolas, Lucida Console, Courier New, monospace" font-size="20.00" fill="#ffffff">master</text>
</g>
<!-- C&#45;&gt;master -->
<g id="edge3" class="edge">
<title>C&#45;&gt;master</title>
<path fill="none" stroke="#8f8a83" stroke-width="2" d="M521.5,-174.29C521.5,-182.7 521.5,-191.11 521.5,-199.51"/>
<polygon fill="#8f8a83" stroke="#8f8a83" stroke-width="2" points="525,-174.03 521.5,-164.03 518,-174.03 525,-174.03"/>
</g>
<!-- topic -->
<g id="node6" class="node">
<title>topic</title>
<polygon fill="#e93a1d" stroke="black" stroke-width="0" points="597,-72 446,-72 446,-16 597,-16 597,-72"/>
<text text-anchor="middle" x="521.5" y="-38" font-family="Menlo, Monaco, Consolas, Lucida Console, Courier New, monospace" font-size="20.00" fill="#ffffff">topic</text>
</g>
<!-- C&#45;&gt;topic -->
<g id="edge5" class="edge">
<title>C&#45;&gt;topic</title>
<path fill="none" stroke="#8f8a83" stroke-width="2" d="M521.5,-97.26C521.5,-88.85 521.5,-80.44 521.5,-72.03"/>
<polygon fill="#8f8a83" stroke="#8f8a83" stroke-width="2" points="518,-97.51 521.5,-107.51 525,-97.51 518,-97.51"/>
</g>
<!-- HEAD -->
<g id="node4" class="node">
<title>HEAD</title>
<polygon fill="#c8a036" stroke="black" stroke-width="0" points="597,-348 446,-348 446,-292 597,-292 597,-348"/>
<text text-anchor="middle" x="521.5" y="-314" font-family="Menlo, Monaco, Consolas, Lucida Console, Courier New, monospace" font-size="20.00" fill="#ffffff">HEAD</text>
</g>
<!-- master&#45;&gt;HEAD -->
<g id="edge4" class="edge">
<title>master&#45;&gt;HEAD</title>
<path fill="none" stroke="#8f8a83" stroke-width="2" d="M521.5,-266.29C521.5,-274.7 521.5,-283.11 521.5,-291.51"/>
<polygon fill="#8f8a83" stroke="#8f8a83" stroke-width="2" points="525,-266.03 521.5,-256.03 518,-266.03 525,-266.03"/>
</g>
</g>
</svg>
