<?xml version="1.0" encoding="UTF-8" standalone="no"?>
<!DOCTYPE svg PUBLIC "-//W3C//DTD SVG 1.1//EN"
 "http://www.w3.org/Graphics/SVG/1.1/DTD/svg11.dtd">
<!-- Generated by graphviz version 2.40.1 (20161225.0304)
 -->
<!-- Title: Git Pages: 1 -->
<svg width="830pt" height="356pt"
 viewBox="0.00 0.00 829.98 356.00" xmlns="http://www.w3.org/2000/svg" xmlns:xlink="http://www.w3.org/1999/xlink">
<g id="graph0" class="graph" transform="scale(1 1) rotate(0) translate(4 352)">
<title>Git</title>
<g id="clust1" class="cluster">
<title>cluster_master</title>
</g>
<!-- A -->
<g id="node1" class="node">
<title>A</title>
<path fill="#f0efe8" stroke="#000000" stroke-width="0" d="M139,-148C139,-148 12,-148 12,-148 6,-148 0,-142 0,-136 0,-136 0,-104 0,-104 0,-98 6,-92 12,-92 12,-92 139,-92 139,-92 145,-92 151,-98 151,-104 151,-104 151,-136 151,-136 151,-142 145,-148 139,-148"/>
<text text-anchor="middle" x="75.5" y="-114" font-family="Menlo, Monaco, Consolas, Lucida Console, Courier New, monospace" font-size="20.00" fill="#000000">deadbeef</text>
</g>
<!-- B -->
<g id="node2" class="node">
<title>B</title>
<path fill="#f0efe8" stroke="#000000" stroke-width="0" d="M362,-148C362,-148 235,-148 235,-148 229,-148 223,-142 223,-136 223,-136 223,-104 223,-104 223,-98 229,-92 235,-92 235,-92 362,-92 362,-92 368,-92 374,-98 374,-104 374,-104 374,-136 374,-136 374,-142 368,-148 362,-148"/>
<text text-anchor="middle" x="298.5" y="-114" font-family="Menlo, Monaco, Consolas, Lucida Console, Courier New, monospace" font-size="20.00" fill="#000000">0d06f00d</text>
</g>
<!-- A&#45;&gt;B -->
<g id="edge1" class="edge">
<title>A&#45;&gt;B</title>
<path fill="none" stroke="#8f8a83" stroke-width="2" d="M161.4571,-120C181.7075,-120 203.1458,-120 222.9009,-120"/>
<polygon fill="#8f8a83" stroke="#8f8a83" stroke-width="2" points="161.3088,-116.5001 151.3088,-120 161.3088,-123.5001 161.3088,-116.5001"/>
</g>
<!-- C -->
<g id="node3" class="node">
<title>C</title>
<path fill="#f0efe8" stroke="#000000" stroke-width="0" d="M585,-148C585,-148 458,-148 458,-148 452,-148 446,-142 446,-136 446,-136 446,-104 446,-104 446,-98 452,-92 458,-92 458,-92 585,-92 585,-92 591,-92 597,-98 597,-104 597,-104 597,-136 597,-136 597,-142 591,-148 585,-148"/>
<text text-anchor="middle" x="521.5" y="-114" font-family="Menlo, Monaco, Consolas, Lucida Console, Courier New, monospace" font-size="20.00" fill="#000000">50fac0de</text>
</g>
<!-- B&#45;&gt;C -->
<g id="edge2" class="edge">
<title>B&#45;&gt;C</title>
<path fill="none" stroke="#8f8a83" stroke-width="2" d="M384.4571,-120C404.7075,-120 426.1458,-120 445.9009,-120"/>
<polygon fill="#8f8a83" stroke="#8f8a83" stroke-width="2" points="384.3088,-116.5001 374.3088,-120 384.3088,-123.5001 384.3088,-116.5001"/>
</g>
<!-- D -->
<g id="node4" class="node">
<title>D</title>
<path fill="#f0efe8" stroke="#000000" stroke-width="0" d="M809.9766,-148C809.9766,-148 681.0078,-148 681.0078,-148 675.0078,-148 669.0078,-142 669.0078,-136 669.0078,-136 669.0078,-104 669.0078,-104 669.0078,-98 675.0078,-92 681.0078,-92 681.0078,-92 809.9766,-92 809.9766,-92 815.9766,-92 821.9766,-98 821.9766,-104 821.9766,-104 821.9766,-136 821.9766,-136 821.9766,-142 815.9766,-148 809.9766,-148"/>
<text text-anchor="middle" x="745.4922" y="-114" font-family="Menlo, Monaco, Consolas, Lucida Console, Courier New, monospace" font-size="20.00" fill="#000000">baada555</text>
</g>
<!-- C&#45;&gt;D -->
<g id="edge3" class="edge">
<title>C&#45;&gt;D</title>
<path fill="none" stroke="#8f8a83" stroke-width="2" d="M607.1759,-120C627.4439,-120 648.9309,-120 668.7728,-120"/>
<polygon fill="#8f8a83" stroke="#8f8a83" stroke-width="2" points="607.0213,-116.5001 597.0213,-120 607.0212,-123.5001 607.0213,-116.5001"/>
</g>
<!-- master -->
<g id="node6" class="node">
<title>master</title>
<polygon fill="#e93a1d" stroke="#000000" stroke-width="0" points="597,-240 446,-240 446,-184 597,-184 597,-240"/>
<text text-anchor="middle" x="521.5" y="-206" font-family="Menlo, Monaco, Consolas, Lucida Console, Courier New, monospace" font-size="20.00" fill="#ffffff">master</text>
</g>
<!-- C&#45;&gt;master -->
<g id="edge4" class="edge">
<title>C&#45;&gt;master</title>
<path fill="none" stroke="#8f8a83" stroke-width="2" d="M521.5,-158.288C521.5,-166.6966 521.5,-175.1053 521.5,-183.5139"/>
<polygon fill="#8f8a83" stroke="#8f8a83" stroke-width="2" points="525.0001,-158.0312 521.5,-148.0313 518.0001,-158.0313 525.0001,-158.0312"/>
</g>
<!-- topic -->
<g id="node7" class="node">
<title>topic</title>
<polygon fill="#e93a1d" stroke="#000000" stroke-width="0" points="820.9922,-56 669.9922,-56 669.9922,0 820.9922,0 820.9922,-56"/>
<text text-anchor="middle" x="745.4922" y="-22" font-family="Menlo, Monaco, Consolas, Lucida Console, Courier New, monospace" font-size="20.00" fill="#ffffff">topic</text>
</g>
<!-- D&#45;&gt;topic -->
<g id="edge6" class="edge">
<title>D&#45;&gt;topic</title>
<path fill="none" stroke="#8f8a83" stroke-width="2" d="M745.4922,-81.2572C745.4922,-72.8486 745.4922,-64.4399 745.4922,-56.0313"/>
<polygon fill="#8f8a83" stroke="#8f8a83" stroke-width="2" points="741.9923,-81.5139 745.4922,-91.5139 748.9923,-81.514 741.9923,-81.5139"/>
</g>
<!-- HEAD -->
<g id="node5" class="node">
<title>HEAD</title>
<polygon fill="#c8a036" stroke="#000000" stroke-width="0" points="597,-332 446,-332 446,-276 597,-276 597,-332"/>
<text text-anchor="middle" x="521.5" y="-298" font-family="Menlo, Monaco, Consolas, Lucida Console, Courier New, monospace" font-size="20.00" fill="#ffffff">HEAD</text>
</g>
<!-- master&#45;&gt;HEAD -->
<g id="edge5" class="edge">
<title>master&#45;&gt;HEAD</title>
<path fill="none" stroke="#8f8a83" stroke-width="2" d="M521.5,-250.288C521.5,-258.6966 521.5,-267.1053 521.5,-275.5139"/>
<polygon fill="#8f8a83" stroke="#8f8a83" stroke-width="2" points="525.0001,-250.0312 521.5,-240.0313 518.0001,-250.0313 525.0001,-250.0312"/>
</g>
</g>
</svg>
