<?xml version="1.0" encoding="UTF-8" standalone="no"?>
<!DOCTYPE svg PUBLIC "-//W3C//DTD SVG 1.1//EN"
 "http://www.w3.org/Graphics/SVG/1.1/DTD/svg11.dtd">
<!-- Generated by graphviz version 2.43.0 (0)
 -->
<!-- Title: Git Pages: 1 -->
<svg width="862pt" height="464pt"
 viewBox="0.00 0.00 861.98 464.00" xmlns="http://www.w3.org/2000/svg" xmlns:xlink="http://www.w3.org/1999/xlink">
<g id="graph0" class="graph" transform="scale(1 1) rotate(0) translate(4 460)">
<title>Git</title>
<g id="clust1" class="cluster">
<title>cluster_main</title>
<polygon fill="transparent" stroke="transparent" points="8,-238 8,-310 621,-310 621,-238 8,-238"/>
</g>
<g id="clust2" class="cluster">
<title>cluster_master</title>
<polygon fill="transparent" stroke="transparent" points="677.99,-8 677.99,-264 844.99,-264 844.99,-8 677.99,-8"/>
</g>
<g id="clust4" class="cluster">
<title>cluster_topic</title>
<polygon fill="transparent" stroke="transparent" points="677,-284 677,-448 845.98,-448 845.98,-284 677,-284"/>
</g>
<!-- A -->
<g id="node1" class="node">
<title>A</title>
<path fill="#f0efe8" stroke="black" stroke-width="0" d="M155,-302C155,-302 28,-302 28,-302 22,-302 16,-296 16,-290 16,-290 16,-258 16,-258 16,-252 22,-246 28,-246 28,-246 155,-246 155,-246 161,-246 167,-252 167,-258 167,-258 167,-290 167,-290 167,-296 161,-302 155,-302"/>
<text text-anchor="middle" x="91.5" y="-268" font-family="Menlo, Monaco, Consolas, Lucida Console, Courier New, monospace" font-size="20.00">deadbeef</text>
</g>
<!-- B -->
<g id="node2" class="node">
<title>B</title>
<path fill="#f0efe8" stroke="black" stroke-width="0" d="M378,-302C378,-302 251,-302 251,-302 245,-302 239,-296 239,-290 239,-290 239,-258 239,-258 239,-252 245,-246 251,-246 251,-246 378,-246 378,-246 384,-246 390,-252 390,-258 390,-258 390,-290 390,-290 390,-296 384,-302 378,-302"/>
<text text-anchor="middle" x="314.5" y="-268" font-family="Menlo, Monaco, Consolas, Lucida Console, Courier New, monospace" font-size="20.00">0d06f00d</text>
</g>
<!-- A&#45;&gt;B -->
<g id="edge1" class="edge">
<title>A&#45;&gt;B</title>
<path fill="none" stroke="#8f8a83" stroke-width="2" d="M177.2,-274C197.53,-274 219.1,-274 238.94,-274"/>
<polygon fill="#8f8a83" stroke="#8f8a83" stroke-width="2" points="177.01,-270.5 167.01,-274 177.01,-277.5 177.01,-270.5"/>
</g>
<!-- C -->
<g id="node3" class="node">
<title>C</title>
<path fill="#f0efe8" stroke="black" stroke-width="0" d="M601,-302C601,-302 474,-302 474,-302 468,-302 462,-296 462,-290 462,-290 462,-258 462,-258 462,-252 468,-246 474,-246 474,-246 601,-246 601,-246 607,-246 613,-252 613,-258 613,-258 613,-290 613,-290 613,-296 607,-302 601,-302"/>
<text text-anchor="middle" x="537.5" y="-268" font-family="Menlo, Monaco, Consolas, Lucida Console, Courier New, monospace" font-size="20.00">50fac0de</text>
</g>
<!-- B&#45;&gt;C -->
<g id="edge2" class="edge">
<title>B&#45;&gt;C</title>
<path fill="none" stroke="#8f8a83" stroke-width="2" d="M400.2,-274C420.53,-274 442.1,-274 461.94,-274"/>
<polygon fill="#8f8a83" stroke="#8f8a83" stroke-width="2" points="400.01,-270.5 390.01,-274 400.01,-277.5 400.01,-270.5"/>
</g>
<!-- D -->
<g id="node4" class="node">
<title>D</title>
<path fill="#f0efe8" stroke="black" stroke-width="0" d="M825.98,-348C825.98,-348 697.01,-348 697.01,-348 691.01,-348 685.01,-342 685.01,-336 685.01,-336 685.01,-304 685.01,-304 685.01,-298 691.01,-292 697.01,-292 697.01,-292 825.98,-292 825.98,-292 831.98,-292 837.98,-298 837.98,-304 837.98,-304 837.98,-336 837.98,-336 837.98,-342 831.98,-348 825.98,-348"/>
<text text-anchor="middle" x="761.49" y="-314" font-family="Menlo, Monaco, Consolas, Lucida Console, Courier New, monospace" font-size="20.00">baada555</text>
</g>
<!-- C&#45;&gt;D -->
<g id="edge7" class="edge">
<title>C&#45;&gt;D</title>
<path fill="none" stroke="#8f8a83" stroke-width="2" d="M622.89,-291.49C643.19,-295.69 664.75,-300.16 684.64,-304.28"/>
<polygon fill="#8f8a83" stroke="#8f8a83" stroke-width="2" points="623.54,-288.05 613.04,-289.45 622.12,-294.9 623.54,-288.05"/>
</g>
<!-- E -->
<g id="node5" class="node">
<title>E</title>
<path fill="#f0efe8" stroke="black" stroke-width="0" d="M824.99,-256C824.99,-256 697.99,-256 697.99,-256 691.99,-256 685.99,-250 685.99,-244 685.99,-244 685.99,-212 685.99,-212 685.99,-206 691.99,-200 697.99,-200 697.99,-200 824.99,-200 824.99,-200 830.99,-200 836.99,-206 836.99,-212 836.99,-212 836.99,-244 836.99,-244 836.99,-250 830.99,-256 824.99,-256"/>
<text text-anchor="middle" x="761.49" y="-222" font-family="Menlo, Monaco, Consolas, Lucida Console, Courier New, monospace" font-size="20.00">faceb00c</text>
</g>
<!-- C&#45;&gt;E -->
<g id="edge6" class="edge">
<title>C&#45;&gt;E</title>
<path fill="none" stroke="#8f8a83" stroke-width="2" d="M623.05,-256.48C643.69,-252.2 665.63,-247.66 685.77,-243.48"/>
<polygon fill="#8f8a83" stroke="#8f8a83" stroke-width="2" points="622.12,-253.1 613.04,-258.55 623.54,-259.95 622.12,-253.1"/>
</g>
<!-- topic -->
<g id="node8" class="node">
<title>topic</title>
<polygon fill="#e93a1d" stroke="black" stroke-width="0" points="836.99,-440 685.99,-440 685.99,-384 836.99,-384 836.99,-440"/>
<text text-anchor="middle" x="761.49" y="-406" font-family="Menlo, Monaco, Consolas, Lucida Console, Courier New, monospace" font-size="20.00" fill="#ffffff">topic</text>
</g>
<!-- D&#45;&gt;topic -->
<g id="edge5" class="edge">
<title>D&#45;&gt;topic</title>
<path fill="none" stroke="#8f8a83" stroke-width="2" d="M761.49,-358.29C761.49,-366.7 761.49,-375.11 761.49,-383.51"/>
<polygon fill="#8f8a83" stroke="#8f8a83" stroke-width="2" points="764.99,-358.03 761.49,-348.03 757.99,-358.03 764.99,-358.03"/>
</g>
<!-- HEAD -->
<g id="node6" class="node">
<title>HEAD</title>
<polygon fill="#c8a036" stroke="black" stroke-width="0" points="836.99,-72 685.99,-72 685.99,-16 836.99,-16 836.99,-72"/>
<text text-anchor="middle" x="761.49" y="-38" font-family="Menlo, Monaco, Consolas, Lucida Console, Courier New, monospace" font-size="20.00" fill="#ffffff">HEAD</text>
</g>
<!-- master -->
<g id="node7" class="node">
<title>master</title>
<polygon fill="#e93a1d" stroke="black" stroke-width="0" points="836.99,-164 685.99,-164 685.99,-108 836.99,-108 836.99,-164"/>
<text text-anchor="middle" x="761.49" y="-130" font-family="Menlo, Monaco, Consolas, Lucida Console, Courier New, monospace" font-size="20.00" fill="#ffffff">master</text>
</g>
<!-- HEAD&#45;&gt;master -->
<g id="edge3" class="edge">
<title>HEAD&#45;&gt;master</title>
<path fill="none" stroke="#8f8a83" stroke-width="2" d="M761.49,-72.03C761.49,-80.44 761.49,-88.85 761.49,-97.26"/>
<polygon fill="#8f8a83" stroke="#8f8a83" stroke-width="2" points="757.99,-97.51 761.49,-107.51 764.99,-97.51 757.99,-97.51"/>
</g>
<!-- master&#45;&gt;E -->
<g id="edge4" class="edge">
<title>master&#45;&gt;E</title>
<path fill="none" stroke="#8f8a83" stroke-width="2" d="M761.49,-164.03C761.49,-172.44 761.49,-180.85 761.49,-189.26"/>
<polygon fill="#8f8a83" stroke="#8f8a83" stroke-width="2" points="757.99,-189.51 761.49,-199.51 764.99,-189.51 757.99,-189.51"/>
</g>
</g>
</svg>
