<?xml version="1.0" encoding="UTF-8" standalone="no"?>
<!DOCTYPE svg PUBLIC "-//W3C//DTD SVG 1.1//EN"
 "http://www.w3.org/Graphics/SVG/1.1/DTD/svg11.dtd">
<!-- Generated by graphviz version 2.40.1 (20161225.0304)
 -->
<!-- Title: Git Pages: 1 -->
<svg width="862pt" height="464pt"
 viewBox="0.00 0.00 861.98 464.00" xmlns="http://www.w3.org/2000/svg" xmlns:xlink="http://www.w3.org/1999/xlink">
<g id="graph0" class="graph" transform="scale(1 1) rotate(0) translate(4 460)">
<title>Git</title>
<g id="clust1" class="cluster">
<title>cluster_main</title>
<polygon fill="transparent" stroke="transparent" points="8,-238 8,-310 621,-310 621,-238 8,-238"/>
</g>
<g id="clust2" class="cluster">
<title>cluster_master</title>
<polygon fill="transparent" stroke="transparent" points="677,-8 677,-264 845.9844,-264 845.9844,-8 677,-8"/>
</g>
<g id="clust4" class="cluster">
<title>cluster_topic</title>
<polygon fill="transparent" stroke="transparent" points="677.5615,-284 677.5615,-448 845.4229,-448 845.4229,-284 677.5615,-284"/>
</g>
<!-- A -->
<g id="node1" class="node">
<title>A</title>
<path fill="#f0efe8" stroke="#000000" stroke-width="0" d="M155,-302C155,-302 28,-302 28,-302 22,-302 16,-296 16,-290 16,-290 16,-258 16,-258 16,-252 22,-246 28,-246 28,-246 155,-246 155,-246 161,-246 167,-252 167,-258 167,-258 167,-290 167,-290 167,-296 161,-302 155,-302"/>
<text text-anchor="middle" x="91.5" y="-268" font-family="Menlo, Monaco, Consolas, Lucida Console, Courier New, monospace" font-size="20.00" fill="#000000">deadbeef</text>
</g>
<!-- B -->
<g id="node2" class="node">
<title>B</title>
<path fill="#f0efe8" stroke="#000000" stroke-width="0" d="M378,-302C378,-302 251,-302 251,-302 245,-302 239,-296 239,-290 239,-290 239,-258 239,-258 239,-252 245,-246 251,-246 251,-246 378,-246 378,-246 384,-246 390,-252 390,-258 390,-258 390,-290 390,-290 390,-296 384,-302 378,-302"/>
<text text-anchor="middle" x="314.5" y="-268" font-family="Menlo, Monaco, Consolas, Lucida Console, Courier New, monospace" font-size="20.00" fill="#000000">00cafefe</text>
</g>
<!-- A&#45;&gt;B -->
<g id="edge1" class="edge">
<title>A&#45;&gt;B</title>
<path fill="none" stroke="#8f8a83" stroke-width="2" d="M177.4571,-274C197.7075,-274 219.1458,-274 238.9009,-274"/>
<polygon fill="#8f8a83" stroke="#8f8a83" stroke-width="2" points="177.3088,-270.5001 167.3088,-274 177.3088,-277.5001 177.3088,-270.5001"/>
</g>
<!-- C -->
<g id="node3" class="node">
<title>C</title>
<path fill="#f0efe8" stroke="#000000" stroke-width="0" d="M601,-302C601,-302 474,-302 474,-302 468,-302 462,-296 462,-290 462,-290 462,-258 462,-258 462,-252 468,-246 474,-246 474,-246 601,-246 601,-246 607,-246 613,-252 613,-258 613,-258 613,-290 613,-290 613,-296 607,-302 601,-302"/>
<text text-anchor="middle" x="537.5" y="-268" font-family="Menlo, Monaco, Consolas, Lucida Console, Courier New, monospace" font-size="20.00" fill="#000000">50fac0de</text>
</g>
<!-- B&#45;&gt;C -->
<g id="edge2" class="edge">
<title>B&#45;&gt;C</title>
<path fill="none" stroke="#8f8a83" stroke-width="2" d="M400.4571,-274C420.7075,-274 442.1458,-274 461.9009,-274"/>
<polygon fill="#8f8a83" stroke="#8f8a83" stroke-width="2" points="400.3088,-270.5001 390.3088,-274 400.3088,-277.5001 400.3088,-270.5001"/>
</g>
<!-- D -->
<g id="node4" class="node">
<title>D</title>
<path fill="#f0efe8" stroke="#000000" stroke-width="0" d="M825.3536,-348C825.3536,-348 697.6308,-348 697.6308,-348 691.6308,-348 685.6308,-342 685.6308,-336 685.6308,-336 685.6308,-304 685.6308,-304 685.6308,-298 691.6308,-292 697.6308,-292 697.6308,-292 825.3536,-292 825.3536,-292 831.3536,-292 837.3536,-298 837.3536,-304 837.3536,-304 837.3536,-336 837.3536,-336 837.3536,-342 831.3536,-348 825.3536,-348"/>
<text text-anchor="middle" x="761.4922" y="-314" font-family="Menlo, Monaco, Consolas, Lucida Console, Courier New, monospace" font-size="20.00" fill="#000000">01dec0de</text>
</g>
<!-- C&#45;&gt;D -->
<g id="edge7" class="edge">
<title>C&#45;&gt;D</title>
<path fill="none" stroke="#8f8a83" stroke-width="2" d="M623.0081,-291.5603C643.5855,-295.7862 665.4285,-300.272 685.5366,-304.4014"/>
<polygon fill="#8f8a83" stroke="#8f8a83" stroke-width="2" points="623.5209,-288.0927 613.0213,-289.5094 622.1127,-294.9496 623.5209,-288.0927"/>
</g>
<!-- E -->
<g id="node5" class="node">
<title>E</title>
<path fill="#f0efe8" stroke="#000000" stroke-width="0" d="M825.9766,-256C825.9766,-256 697.0078,-256 697.0078,-256 691.0078,-256 685.0078,-250 685.0078,-244 685.0078,-244 685.0078,-212 685.0078,-212 685.0078,-206 691.0078,-200 697.0078,-200 697.0078,-200 825.9766,-200 825.9766,-200 831.9766,-200 837.9766,-206 837.9766,-212 837.9766,-212 837.9766,-244 837.9766,-244 837.9766,-250 831.9766,-256 825.9766,-256"/>
<text text-anchor="middle" x="761.4922" y="-222" font-family="Menlo, Monaco, Consolas, Lucida Console, Courier New, monospace" font-size="20.00" fill="#000000">42424242</text>
</g>
<!-- C&#45;&gt;E -->
<g id="edge6" class="edge">
<title>C&#45;&gt;E</title>
<path fill="none" stroke="#8f8a83" stroke-width="2" d="M622.8983,-256.4622C643.2476,-252.2832 664.8403,-247.8488 684.7728,-243.7554"/>
<polygon fill="#8f8a83" stroke="#8f8a83" stroke-width="2" points="622.1127,-253.0504 613.0213,-258.4906 623.5209,-259.9073 622.1127,-253.0504"/>
</g>
<!-- topic -->
<g id="node8" class="node">
<title>topic</title>
<polygon fill="#e93a1d" stroke="#000000" stroke-width="0" points="836.9922,-440 685.9922,-440 685.9922,-384 836.9922,-384 836.9922,-440"/>
<text text-anchor="middle" x="761.4922" y="-406" font-family="Menlo, Monaco, Consolas, Lucida Console, Courier New, monospace" font-size="20.00" fill="#ffffff">topic</text>
</g>
<!-- D&#45;&gt;topic -->
<g id="edge5" class="edge">
<title>D&#45;&gt;topic</title>
<path fill="none" stroke="#8f8a83" stroke-width="2" d="M761.4922,-358.288C761.4922,-366.6966 761.4922,-375.1053 761.4922,-383.5139"/>
<polygon fill="#8f8a83" stroke="#8f8a83" stroke-width="2" points="764.9923,-358.0312 761.4922,-348.0313 757.9923,-358.0313 764.9923,-358.0312"/>
</g>
<!-- HEAD -->
<g id="node6" class="node">
<title>HEAD</title>
<polygon fill="#c8a036" stroke="#000000" stroke-width="0" points="836.9922,-72 685.9922,-72 685.9922,-16 836.9922,-16 836.9922,-72"/>
<text text-anchor="middle" x="761.4922" y="-38" font-family="Menlo, Monaco, Consolas, Lucida Console, Courier New, monospace" font-size="20.00" fill="#ffffff">HEAD</text>
</g>
<!-- master -->
<g id="node7" class="node">
<title>master</title>
<polygon fill="#e93a1d" stroke="#000000" stroke-width="0" points="836.9922,-164 685.9922,-164 685.9922,-108 836.9922,-108 836.9922,-164"/>
<text text-anchor="middle" x="761.4922" y="-130" font-family="Menlo, Monaco, Consolas, Lucida Console, Courier New, monospace" font-size="20.00" fill="#ffffff">master</text>
</g>
<!-- HEAD&#45;&gt;master -->
<g id="edge3" class="edge">
<title>HEAD&#45;&gt;master</title>
<path fill="none" stroke="#8f8a83" stroke-width="2" d="M761.4922,-72.0313C761.4922,-80.4399 761.4922,-88.8486 761.4922,-97.2572"/>
<polygon fill="#8f8a83" stroke="#8f8a83" stroke-width="2" points="757.9923,-97.5139 761.4922,-107.5139 764.9923,-97.514 757.9923,-97.5139"/>
</g>
<!-- master&#45;&gt;E -->
<g id="edge4" class="edge">
<title>master&#45;&gt;E</title>
<path fill="none" stroke="#8f8a83" stroke-width="2" d="M761.4922,-164.0313C761.4922,-172.4399 761.4922,-180.8486 761.4922,-189.2572"/>
<polygon fill="#8f8a83" stroke="#8f8a83" stroke-width="2" points="757.9923,-189.5139 761.4922,-199.5139 764.9923,-189.514 757.9923,-189.5139"/>
</g>
</g>
</svg>
