<?xml version="1.0" encoding="UTF-8" standalone="no"?>
<!DOCTYPE svg PUBLIC "-//W3C//DTD SVG 1.1//EN"
 "http://www.w3.org/Graphics/SVG/1.1/DTD/svg11.dtd">
<!-- Generated by graphviz version 2.40.1 (20161225.0304)
 -->
<!-- Title: Git Pages: 1 -->
<svg width="860pt" height="464pt"
 viewBox="0.00 0.00 860.00 464.00" xmlns="http://www.w3.org/2000/svg" xmlns:xlink="http://www.w3.org/1999/xlink">
<g id="graph0" class="graph" transform="scale(1 1) rotate(0) translate(4 460)">
<title>Git</title>
<g id="clust1" class="cluster">
<title>cluster_main</title>
<polygon fill="transparent" stroke="transparent" points="8,-238 8,-310 621,-310 621,-238 8,-238"/>
</g>
<g id="clust2" class="cluster">
<title>cluster_master</title>
<polygon fill="transparent" stroke="transparent" points="677,-8 677,-264 844,-264 844,-8 677,-8"/>
</g>
<g id="clust4" class="cluster">
<title>cluster_topic</title>
<polygon fill="transparent" stroke="transparent" points="677,-284 677,-448 844,-448 844,-284 677,-284"/>
</g>
<!-- A -->
<g id="node1" class="node">
<title>A</title>
<path fill="#f0efe8" stroke="#000000" stroke-width="0" d="M155,-302C155,-302 28,-302 28,-302 22,-302 16,-296 16,-290 16,-290 16,-258 16,-258 16,-252 22,-246 28,-246 28,-246 155,-246 155,-246 161,-246 167,-252 167,-258 167,-258 167,-290 167,-290 167,-296 161,-302 155,-302"/>
<text text-anchor="middle" x="91.5" y="-268" font-family="Menlo, Consolas, Courier New, monospace" font-size="20.00" fill="#000000">8e93a1d</text>
</g>
<!-- B -->
<g id="node2" class="node">
<title>B</title>
<path fill="#f0efe8" stroke="#000000" stroke-width="0" d="M378,-302C378,-302 251,-302 251,-302 245,-302 239,-296 239,-290 239,-290 239,-258 239,-258 239,-252 245,-246 251,-246 251,-246 378,-246 378,-246 384,-246 390,-252 390,-258 390,-258 390,-290 390,-290 390,-296 384,-302 378,-302"/>
<text text-anchor="middle" x="314.5" y="-268" font-family="Menlo, Consolas, Courier New, monospace" font-size="20.00" fill="#000000">b19dc7f</text>
</g>
<!-- A&#45;&gt;B -->
<g id="edge1" class="edge">
<title>A&#45;&gt;B</title>
<path fill="none" stroke="#8f8a83" stroke-width="2" d="M177.4571,-274C197.7075,-274 219.1458,-274 238.9009,-274"/>
<polygon fill="#8f8a83" stroke="#8f8a83" stroke-width="2" points="177.3088,-270.5001 167.3088,-274 177.3088,-277.5001 177.3088,-270.5001"/>
</g>
<!-- C -->
<g id="node3" class="node">
<title>C</title>
<path fill="#f0efe8" stroke="#000000" stroke-width="0" d="M601,-302C601,-302 474,-302 474,-302 468,-302 462,-296 462,-290 462,-290 462,-258 462,-258 462,-252 468,-246 474,-246 474,-246 601,-246 601,-246 607,-246 613,-252 613,-258 613,-258 613,-290 613,-290 613,-296 607,-302 601,-302"/>
<text text-anchor="middle" x="537.5" y="-268" font-family="Menlo, Consolas, Courier New, monospace" font-size="20.00" fill="#000000">caccf61</text>
</g>
<!-- B&#45;&gt;C -->
<g id="edge2" class="edge">
<title>B&#45;&gt;C</title>
<path fill="none" stroke="#8f8a83" stroke-width="2" d="M400.4571,-274C420.7075,-274 442.1458,-274 461.9009,-274"/>
<polygon fill="#8f8a83" stroke="#8f8a83" stroke-width="2" points="400.3088,-270.5001 390.3088,-274 400.3088,-277.5001 400.3088,-270.5001"/>
</g>
<!-- D -->
<g id="node4" class="node">
<title>D</title>
<path fill="#f0efe8" stroke="#000000" stroke-width="0" d="M824,-348C824,-348 697,-348 697,-348 691,-348 685,-342 685,-336 685,-336 685,-304 685,-304 685,-298 691,-292 697,-292 697,-292 824,-292 824,-292 830,-292 836,-298 836,-304 836,-304 836,-336 836,-336 836,-342 830,-348 824,-348"/>
<text text-anchor="middle" x="760.5" y="-314" font-family="Menlo, Consolas, Courier New, monospace" font-size="20.00" fill="#000000">9f4ed56</text>
</g>
<!-- C&#45;&gt;D -->
<g id="edge7" class="edge">
<title>C&#45;&gt;D</title>
<path fill="none" stroke="#8f8a83" stroke-width="2" d="M623.1798,-291.6739C643.5116,-295.8679 665.0556,-300.3119 684.9009,-304.4056"/>
<polygon fill="#8f8a83" stroke="#8f8a83" stroke-width="2" points="623.8097,-288.2302 613.3088,-289.6377 622.3955,-295.0858 623.8097,-288.2302"/>
</g>
<!-- E -->
<g id="node5" class="node">
<title>E</title>
<path fill="#f0efe8" stroke="#000000" stroke-width="0" d="M824,-256C824,-256 697,-256 697,-256 691,-256 685,-250 685,-244 685,-244 685,-212 685,-212 685,-206 691,-200 697,-200 697,-200 824,-200 824,-200 830,-200 836,-206 836,-212 836,-212 836,-244 836,-244 836,-250 830,-256 824,-256"/>
<text text-anchor="middle" x="760.5" y="-222" font-family="Menlo, Consolas, Courier New, monospace" font-size="20.00" fill="#000000">360bc94</text>
</g>
<!-- C&#45;&gt;E -->
<g id="edge6" class="edge">
<title>C&#45;&gt;E</title>
<path fill="none" stroke="#8f8a83" stroke-width="2" d="M623.1798,-256.3261C643.5116,-252.1321 665.0556,-247.6881 684.9009,-243.5944"/>
<polygon fill="#8f8a83" stroke="#8f8a83" stroke-width="2" points="622.3955,-252.9142 613.3088,-258.3623 623.8097,-259.7698 622.3955,-252.9142"/>
</g>
<!-- topic -->
<g id="node8" class="node">
<title>topic</title>
<polygon fill="#e93a1d" stroke="#000000" stroke-width="0" points="836,-440 685,-440 685,-384 836,-384 836,-440"/>
<text text-anchor="middle" x="760.5" y="-406" font-family="Menlo, Consolas, Courier New, monospace" font-size="20.00" fill="#ffffff">topic</text>
</g>
<!-- D&#45;&gt;topic -->
<g id="edge5" class="edge">
<title>D&#45;&gt;topic</title>
<path fill="none" stroke="#8f8a83" stroke-width="2" d="M760.5,-358.288C760.5,-366.6966 760.5,-375.1053 760.5,-383.5139"/>
<polygon fill="#8f8a83" stroke="#8f8a83" stroke-width="2" points="764.0001,-358.0312 760.5,-348.0313 757.0001,-358.0313 764.0001,-358.0312"/>
</g>
<!-- HEAD -->
<g id="node6" class="node">
<title>HEAD</title>
<polygon fill="#c8a036" stroke="#000000" stroke-width="0" points="836,-72 685,-72 685,-16 836,-16 836,-72"/>
<text text-anchor="middle" x="760.5" y="-38" font-family="Menlo, Consolas, Courier New, monospace" font-size="20.00" fill="#ffffff">HEAD</text>
</g>
<!-- master -->
<g id="node7" class="node">
<title>master</title>
<polygon fill="#e93a1d" stroke="#000000" stroke-width="0" points="836,-164 685,-164 685,-108 836,-108 836,-164"/>
<text text-anchor="middle" x="760.5" y="-130" font-family="Menlo, Consolas, Courier New, monospace" font-size="20.00" fill="#ffffff">master</text>
</g>
<!-- HEAD&#45;&gt;master -->
<g id="edge3" class="edge">
<title>HEAD&#45;&gt;master</title>
<path fill="none" stroke="#8f8a83" stroke-width="2" d="M760.5,-72.0313C760.5,-80.4399 760.5,-88.8486 760.5,-97.2572"/>
<polygon fill="#8f8a83" stroke="#8f8a83" stroke-width="2" points="757.0001,-97.5139 760.5,-107.5139 764.0001,-97.514 757.0001,-97.5139"/>
</g>
<!-- master&#45;&gt;E -->
<g id="edge4" class="edge">
<title>master&#45;&gt;E</title>
<path fill="none" stroke="#8f8a83" stroke-width="2" d="M760.5,-164.0313C760.5,-172.4399 760.5,-180.8486 760.5,-189.2572"/>
<polygon fill="#8f8a83" stroke="#8f8a83" stroke-width="2" points="757.0001,-189.5139 760.5,-199.5139 764.0001,-189.514 757.0001,-189.5139"/>
</g>
</g>
</svg>
