<?xml version="1.0" encoding="UTF-8" standalone="no"?>
<!DOCTYPE svg PUBLIC "-//W3C//DTD SVG 1.1//EN"
 "http://www.w3.org/Graphics/SVG/1.1/DTD/svg11.dtd">
<!-- Generated by graphviz version 2.47.2 (20210527.0053)
 -->
<!-- Title: Git Pages: 1 -->
<svg width="637pt" height="188pt"
 viewBox="0.00 0.00 637.00 188.00" xmlns="http://www.w3.org/2000/svg" xmlns:xlink="http://www.w3.org/1999/xlink">
<g id="graph0" class="graph" transform="scale(1 1) rotate(0) translate(4 184)">
<title>Git</title>
<g id="clust1" class="cluster">
<title>cluster_HEAD</title>
<polygon fill="transparent" stroke="transparent" points="8,-8 8,-172 175,-172 175,-8 8,-8"/>
</g>
<g id="clust3" class="cluster">
<title>cluster_master</title>
</g>
<!-- A -->
<g id="node1" class="node">
<title>A</title>
<path fill="#f0efe8" stroke="black" stroke-width="0" d="M155,-72C155,-72 28,-72 28,-72 22,-72 16,-66 16,-60 16,-60 16,-28 16,-28 16,-22 22,-16 28,-16 28,-16 155,-16 155,-16 161,-16 167,-22 167,-28 167,-28 167,-60 167,-60 167,-66 161,-72 155,-72"/>
<text text-anchor="middle" x="91.5" y="-39" font-family="Menlo, Monaco, Consolas, Lucida Console, Courier New, monospace" font-size="20.00">deadbeef</text>
</g>
<!-- B -->
<g id="node2" class="node">
<title>B</title>
<path fill="#f0efe8" stroke="black" stroke-width="0" d="M378,-72C378,-72 251,-72 251,-72 245,-72 239,-66 239,-60 239,-60 239,-28 239,-28 239,-22 245,-16 251,-16 251,-16 378,-16 378,-16 384,-16 390,-22 390,-28 390,-28 390,-60 390,-60 390,-66 384,-72 378,-72"/>
<text text-anchor="middle" x="314.5" y="-39" font-family="Menlo, Monaco, Consolas, Lucida Console, Courier New, monospace" font-size="20.00">0d06f00d</text>
</g>
<!-- A&#45;&gt;B -->
<g id="edge1" class="edge">
<title>A&#45;&gt;B</title>
<path fill="none" stroke="#8f8a83" stroke-width="2" d="M177.2,-44C197.53,-44 219.1,-44 238.94,-44"/>
<polygon fill="#8f8a83" stroke="#8f8a83" stroke-width="2" points="177.01,-40.5 167.01,-44 177.01,-47.5 177.01,-40.5"/>
</g>
<!-- HEAD -->
<g id="node4" class="node">
<title>HEAD</title>
<polygon fill="#c8a036" stroke="black" stroke-width="0" points="167,-164 16,-164 16,-108 167,-108 167,-164"/>
<text text-anchor="middle" x="91.5" y="-131" font-family="Menlo, Monaco, Consolas, Lucida Console, Courier New, monospace" font-size="20.00" fill="#ffffff">HEAD</text>
</g>
<!-- A&#45;&gt;HEAD -->
<g id="edge3" class="edge">
<title>A&#45;&gt;HEAD</title>
<path fill="none" stroke="#8f8a83" stroke-width="2" d="M91.5,-82.29C91.5,-90.7 91.5,-99.11 91.5,-107.51"/>
<polygon fill="#8f8a83" stroke="#8f8a83" stroke-width="2" points="95,-82.03 91.5,-72.03 88,-82.03 95,-82.03"/>
</g>
<!-- C -->
<g id="node3" class="node">
<title>C</title>
<path fill="#f0efe8" stroke="black" stroke-width="0" d="M601,-72C601,-72 474,-72 474,-72 468,-72 462,-66 462,-60 462,-60 462,-28 462,-28 462,-22 468,-16 474,-16 474,-16 601,-16 601,-16 607,-16 613,-22 613,-28 613,-28 613,-60 613,-60 613,-66 607,-72 601,-72"/>
<text text-anchor="middle" x="537.5" y="-39" font-family="Menlo, Monaco, Consolas, Lucida Console, Courier New, monospace" font-size="20.00">50fac0de</text>
</g>
<!-- B&#45;&gt;C -->
<g id="edge2" class="edge">
<title>B&#45;&gt;C</title>
<path fill="none" stroke="#8f8a83" stroke-width="2" d="M400.2,-44C420.53,-44 442.1,-44 461.94,-44"/>
<polygon fill="#8f8a83" stroke="#8f8a83" stroke-width="2" points="400.01,-40.5 390.01,-44 400.01,-47.5 400.01,-40.5"/>
</g>
<!-- master -->
<g id="node5" class="node">
<title>master</title>
<polygon fill="#e93a1d" stroke="black" stroke-width="0" points="613,-164 462,-164 462,-108 613,-108 613,-164"/>
<text text-anchor="middle" x="537.5" y="-131" font-family="Menlo, Monaco, Consolas, Lucida Console, Courier New, monospace" font-size="20.00" fill="#ffffff">master</text>
</g>
<!-- C&#45;&gt;master -->
<g id="edge4" class="edge">
<title>C&#45;&gt;master</title>
<path fill="none" stroke="#8f8a83" stroke-width="2" d="M537.5,-82.29C537.5,-90.7 537.5,-99.11 537.5,-107.51"/>
<polygon fill="#8f8a83" stroke="#8f8a83" stroke-width="2" points="541,-82.03 537.5,-72.03 534,-82.03 541,-82.03"/>
</g>
</g>
</svg>
