<?xml version="1.0" encoding="UTF-8" standalone="no"?>
<!DOCTYPE svg PUBLIC "-//W3C//DTD SVG 1.1//EN"
 "http://www.w3.org/Graphics/SVG/1.1/DTD/svg11.dtd">
<!-- Generated by graphviz version 2.40.1 (20161225.0304)
 -->
<!-- Title: Git Pages: 1 -->
<svg width="637pt" height="188pt"
 viewBox="0.00 0.00 637.00 188.00" xmlns="http://www.w3.org/2000/svg" xmlns:xlink="http://www.w3.org/1999/xlink">
<g id="graph0" class="graph" transform="scale(1 1) rotate(0) translate(4 184)">
<title>Git</title>
<g id="clust1" class="cluster">
<title>cluster_HEAD</title>
<polygon fill="transparent" stroke="transparent" points="8,-8 8,-172 175,-172 175,-8 8,-8"/>
</g>
<g id="clust3" class="cluster">
<title>cluster_master</title>
</g>
<!-- A -->
<g id="node1" class="node">
<title>A</title>
<path fill="#f0efe8" stroke="#000000" stroke-width="0" d="M155,-72C155,-72 28,-72 28,-72 22,-72 16,-66 16,-60 16,-60 16,-28 16,-28 16,-22 22,-16 28,-16 28,-16 155,-16 155,-16 161,-16 167,-22 167,-28 167,-28 167,-60 167,-60 167,-66 161,-72 155,-72"/>
<text text-anchor="middle" x="91.5" y="-38" font-family="Menlo, Monaco, Consolas, Lucida Console, Courier New, monospace" font-size="20.00" fill="#000000">deadbeef</text>
</g>
<!-- B -->
<g id="node2" class="node">
<title>B</title>
<path fill="#f0efe8" stroke="#000000" stroke-width="0" d="M378,-72C378,-72 251,-72 251,-72 245,-72 239,-66 239,-60 239,-60 239,-28 239,-28 239,-22 245,-16 251,-16 251,-16 378,-16 378,-16 384,-16 390,-22 390,-28 390,-28 390,-60 390,-60 390,-66 384,-72 378,-72"/>
<text text-anchor="middle" x="314.5" y="-38" font-family="Menlo, Monaco, Consolas, Lucida Console, Courier New, monospace" font-size="20.00" fill="#000000">0d06f00d</text>
</g>
<!-- A&#45;&gt;B -->
<g id="edge1" class="edge">
<title>A&#45;&gt;B</title>
<path fill="none" stroke="#8f8a83" stroke-width="2" d="M177.4571,-44C197.7075,-44 219.1458,-44 238.9009,-44"/>
<polygon fill="#8f8a83" stroke="#8f8a83" stroke-width="2" points="177.3088,-40.5001 167.3088,-44 177.3088,-47.5001 177.3088,-40.5001"/>
</g>
<!-- HEAD -->
<g id="node4" class="node">
<title>HEAD</title>
<polygon fill="#c8a036" stroke="#000000" stroke-width="0" points="167,-164 16,-164 16,-108 167,-108 167,-164"/>
<text text-anchor="middle" x="91.5" y="-130" font-family="Menlo, Monaco, Consolas, Lucida Console, Courier New, monospace" font-size="20.00" fill="#ffffff">HEAD</text>
</g>
<!-- A&#45;&gt;HEAD -->
<g id="edge3" class="edge">
<title>A&#45;&gt;HEAD</title>
<path fill="none" stroke="#8f8a83" stroke-width="2" d="M91.5,-82.288C91.5,-90.6966 91.5,-99.1053 91.5,-107.5139"/>
<polygon fill="#8f8a83" stroke="#8f8a83" stroke-width="2" points="95.0001,-82.0312 91.5,-72.0313 88.0001,-82.0313 95.0001,-82.0312"/>
</g>
<!-- C -->
<g id="node3" class="node">
<title>C</title>
<path fill="#f0efe8" stroke="#000000" stroke-width="0" d="M601,-72C601,-72 474,-72 474,-72 468,-72 462,-66 462,-60 462,-60 462,-28 462,-28 462,-22 468,-16 474,-16 474,-16 601,-16 601,-16 607,-16 613,-22 613,-28 613,-28 613,-60 613,-60 613,-66 607,-72 601,-72"/>
<text text-anchor="middle" x="537.5" y="-38" font-family="Menlo, Monaco, Consolas, Lucida Console, Courier New, monospace" font-size="20.00" fill="#000000">50fac0de</text>
</g>
<!-- B&#45;&gt;C -->
<g id="edge2" class="edge">
<title>B&#45;&gt;C</title>
<path fill="none" stroke="#8f8a83" stroke-width="2" d="M400.4571,-44C420.7075,-44 442.1458,-44 461.9009,-44"/>
<polygon fill="#8f8a83" stroke="#8f8a83" stroke-width="2" points="400.3088,-40.5001 390.3088,-44 400.3088,-47.5001 400.3088,-40.5001"/>
</g>
<!-- master -->
<g id="node5" class="node">
<title>master</title>
<polygon fill="#e93a1d" stroke="#000000" stroke-width="0" points="613,-164 462,-164 462,-108 613,-108 613,-164"/>
<text text-anchor="middle" x="537.5" y="-130" font-family="Menlo, Monaco, Consolas, Lucida Console, Courier New, monospace" font-size="20.00" fill="#ffffff">master</text>
</g>
<!-- C&#45;&gt;master -->
<g id="edge4" class="edge">
<title>C&#45;&gt;master</title>
<path fill="none" stroke="#8f8a83" stroke-width="2" d="M537.5,-82.288C537.5,-90.6966 537.5,-99.1053 537.5,-107.5139"/>
<polygon fill="#8f8a83" stroke="#8f8a83" stroke-width="2" points="541.0001,-82.0312 537.5,-72.0313 534.0001,-82.0313 541.0001,-82.0312"/>
</g>
</g>
</svg>
