<?xml version="1.0" encoding="UTF-8" standalone="no"?>
<!DOCTYPE svg PUBLIC "-//W3C//DTD SVG 1.1//EN"
 "http://www.w3.org/Graphics/SVG/1.1/DTD/svg11.dtd">
<!-- Generated by graphviz version 2.40.1 (20161225.0304)
 -->
<!-- Title: Git Pages: 1 -->
<svg width="1051pt" height="632pt"
 viewBox="0.00 0.00 1051.00 632.00" xmlns="http://www.w3.org/2000/svg" xmlns:xlink="http://www.w3.org/1999/xlink">
<g id="graph0" class="graph" transform="scale(1 1) rotate(0) translate(4 628)">
<title>Git</title>
<g id="clust1" class="cluster">
<title>cluster_master</title>
<polygon fill="transparent" stroke="transparent" points="661,-452 661,-616 828,-616 828,-452 661,-452"/>
</g>
<!-- A -->
<g id="node1" class="node">
<title>A</title>
<path fill="#f0efe8" stroke="#000000" stroke-width="0" d="M139,-516C139,-516 12,-516 12,-516 6,-516 0,-510 0,-504 0,-504 0,-472 0,-472 0,-466 6,-460 12,-460 12,-460 139,-460 139,-460 145,-460 151,-466 151,-472 151,-472 151,-504 151,-504 151,-510 145,-516 139,-516"/>
<text text-anchor="middle" x="75.5" y="-482" font-family="Menlo, Consolas, Courier New, monospace" font-size="20.00" fill="#000000">A</text>
</g>
<!-- B -->
<g id="node2" class="node">
<title>B</title>
<path fill="#f0efe8" stroke="#000000" stroke-width="0" d="M362,-516C362,-516 235,-516 235,-516 229,-516 223,-510 223,-504 223,-504 223,-472 223,-472 223,-466 229,-460 235,-460 235,-460 362,-460 362,-460 368,-460 374,-466 374,-472 374,-472 374,-504 374,-504 374,-510 368,-516 362,-516"/>
<text text-anchor="middle" x="298.5" y="-482" font-family="Menlo, Consolas, Courier New, monospace" font-size="20.00" fill="#000000">B</text>
</g>
<!-- A&#45;&gt;B -->
<g id="edge1" class="edge">
<title>A&#45;&gt;B</title>
<path fill="none" stroke="#8f8a83" stroke-width="2" d="M161.4571,-488C181.7075,-488 203.1458,-488 222.9009,-488"/>
<polygon fill="#8f8a83" stroke="#8f8a83" stroke-width="2" points="161.3088,-484.5001 151.3088,-488 161.3088,-491.5001 161.3088,-484.5001"/>
</g>
<!-- E -->
<g id="node3" class="node">
<title>E</title>
<path fill="#f0efe8" stroke="#000000" stroke-width="0" d="M585,-516C585,-516 458,-516 458,-516 452,-516 446,-510 446,-504 446,-504 446,-472 446,-472 446,-466 452,-460 458,-460 458,-460 585,-460 585,-460 591,-460 597,-466 597,-472 597,-472 597,-504 597,-504 597,-510 591,-516 585,-516"/>
<text text-anchor="middle" x="521.5" y="-482" font-family="Menlo, Consolas, Courier New, monospace" font-size="20.00" fill="#000000">E</text>
</g>
<!-- B&#45;&gt;E -->
<g id="edge2" class="edge">
<title>B&#45;&gt;E</title>
<path fill="none" stroke="#8f8a83" stroke-width="2" d="M384.4571,-488C404.7075,-488 426.1458,-488 445.9009,-488"/>
<polygon fill="#8f8a83" stroke="#8f8a83" stroke-width="2" points="384.3088,-484.5001 374.3088,-488 384.3088,-491.5001 384.3088,-484.5001"/>
</g>
<!-- C -->
<g id="node5" class="node">
<title>C</title>
<path fill="#f0efe8" stroke="#000000" stroke-width="0" d="M585,-424C585,-424 458,-424 458,-424 452,-424 446,-418 446,-412 446,-412 446,-380 446,-380 446,-374 452,-368 458,-368 458,-368 585,-368 585,-368 591,-368 597,-374 597,-380 597,-380 597,-412 597,-412 597,-418 591,-424 585,-424"/>
<text text-anchor="middle" x="521.5" y="-390" font-family="Menlo, Consolas, Courier New, monospace" font-size="20.00" fill="#000000">C</text>
</g>
<!-- B&#45;&gt;C -->
<g id="edge4" class="edge">
<title>B&#45;&gt;C</title>
<path fill="none" stroke="#8f8a83" stroke-width="2" d="M376.1267,-455.9746C401.2908,-445.593 428.9982,-434.1622 453.4141,-424.0892"/>
<polygon fill="#8f8a83" stroke="#8f8a83" stroke-width="2" points="374.5284,-452.8478 366.6191,-459.8971 377.1981,-459.3187 374.5284,-452.8478"/>
</g>
<!-- Gr -->
<g id="node8" class="node">
<title>Gr</title>
<path fill="#f0efe8" stroke="#000000" stroke-width="0" d="M585,-148C585,-148 458,-148 458,-148 452,-148 446,-142 446,-136 446,-136 446,-104 446,-104 446,-98 452,-92 458,-92 458,-92 585,-92 585,-92 591,-92 597,-98 597,-104 597,-104 597,-136 597,-136 597,-142 591,-148 585,-148"/>
<text text-anchor="middle" x="521.5" y="-114" font-family="Menlo, Consolas, Courier New, monospace" font-size="20.00" fill="#000000">G&#39;</text>
</g>
<!-- B&#45;&gt;Gr -->
<g id="edge7" class="edge">
<title>B&#45;&gt;Gr</title>
<path fill="none" stroke="#8f8a83" stroke-width="2" d="M321.0574,-450.7752C365.7604,-377.0052 464.7043,-213.7257 504.4664,-148.1093"/>
<polygon fill="#8f8a83" stroke="#8f8a83" stroke-width="2" points="317.8174,-449.3685 315.6282,-459.7347 323.804,-452.9963 317.8174,-449.3685"/>
</g>
<!-- F -->
<g id="node4" class="node">
<title>F</title>
<path fill="#f0efe8" stroke="#000000" stroke-width="0" d="M808,-516C808,-516 681,-516 681,-516 675,-516 669,-510 669,-504 669,-504 669,-472 669,-472 669,-466 675,-460 681,-460 681,-460 808,-460 808,-460 814,-460 820,-466 820,-472 820,-472 820,-504 820,-504 820,-510 814,-516 808,-516"/>
<text text-anchor="middle" x="744.5" y="-482" font-family="Menlo, Consolas, Courier New, monospace" font-size="20.00" fill="#000000">F</text>
</g>
<!-- E&#45;&gt;F -->
<g id="edge3" class="edge">
<title>E&#45;&gt;F</title>
<path fill="none" stroke="#8f8a83" stroke-width="2" d="M607.4571,-488C627.7075,-488 649.1458,-488 668.9009,-488"/>
<polygon fill="#8f8a83" stroke="#8f8a83" stroke-width="2" points="607.3088,-484.5001 597.3088,-488 607.3088,-491.5001 607.3088,-484.5001"/>
</g>
<!-- master -->
<g id="node10" class="node">
<title>master</title>
<polygon fill="#e93a1d" stroke="#000000" stroke-width="0" points="820,-608 669,-608 669,-552 820,-552 820,-608"/>
<text text-anchor="middle" x="744.5" y="-574" font-family="Menlo, Consolas, Courier New, monospace" font-size="20.00" fill="#ffffff">master</text>
</g>
<!-- F&#45;&gt;master -->
<g id="edge9" class="edge">
<title>F&#45;&gt;master</title>
<path fill="none" stroke="#8f8a83" stroke-width="2" d="M744.5,-526.288C744.5,-534.6966 744.5,-543.1053 744.5,-551.5139"/>
<polygon fill="#8f8a83" stroke="#8f8a83" stroke-width="2" points="748.0001,-526.0312 744.5,-516.0313 741.0001,-526.0313 748.0001,-526.0312"/>
</g>
<!-- D -->
<g id="node6" class="node">
<title>D</title>
<path fill="#f0efe8" stroke="#000000" stroke-width="0" d="M808,-424C808,-424 681,-424 681,-424 675,-424 669,-418 669,-412 669,-412 669,-380 669,-380 669,-374 675,-368 681,-368 681,-368 808,-368 808,-368 814,-368 820,-374 820,-380 820,-380 820,-412 820,-412 820,-418 814,-424 808,-424"/>
<text text-anchor="middle" x="744.5" y="-390" font-family="Menlo, Consolas, Courier New, monospace" font-size="20.00" fill="#000000">D</text>
</g>
<!-- C&#45;&gt;D -->
<g id="edge5" class="edge">
<title>C&#45;&gt;D</title>
<path fill="none" stroke="#8f8a83" stroke-width="2" d="M607.4571,-396C627.7075,-396 649.1458,-396 668.9009,-396"/>
<polygon fill="#8f8a83" stroke="#8f8a83" stroke-width="2" points="607.3088,-392.5001 597.3088,-396 607.3088,-399.5001 607.3088,-392.5001"/>
</g>
<!-- G -->
<g id="node13" class="node">
<title>G</title>
<path fill="#f0efe8" fill-opacity="0.392157" stroke="#000000" stroke-width="0" d="M808,-240C808,-240 681,-240 681,-240 675,-240 669,-234 669,-228 669,-228 669,-196 669,-196 669,-190 675,-184 681,-184 681,-184 808,-184 808,-184 814,-184 820,-190 820,-196 820,-196 820,-228 820,-228 820,-234 814,-240 808,-240"/>
<text text-anchor="middle" x="744.5" y="-206" font-family="Menlo, Consolas, Courier New, monospace" font-size="20.00" fill="#7f7f7f">G</text>
</g>
<!-- C&#45;&gt;G -->
<g id="edge12" class="edge">
<title>C&#45;&gt;G</title>
<path fill="none" stroke="#8f8a83" stroke-width="2" stroke-opacity="0.392157" d="M563.7917,-361.1046C606.3399,-325.9976 671.1289,-272.5394 710.4719,-240.077"/>
<polygon fill="#8f8a83" fill-opacity="0.392157" stroke="#8f8a83" stroke-width="2" stroke-opacity="0.392157" points="561.3408,-358.5892 555.855,-367.6532 565.7959,-363.9885 561.3408,-358.5892"/>
</g>
<!-- I -->
<g id="node7" class="node">
<title>I</title>
<path fill="#f0efe8" stroke="#000000" stroke-width="0" d="M1031,-424C1031,-424 904,-424 904,-424 898,-424 892,-418 892,-412 892,-412 892,-380 892,-380 892,-374 898,-368 904,-368 904,-368 1031,-368 1031,-368 1037,-368 1043,-374 1043,-380 1043,-380 1043,-412 1043,-412 1043,-418 1037,-424 1031,-424"/>
<text text-anchor="middle" x="967.5" y="-390" font-family="Menlo, Consolas, Courier New, monospace" font-size="20.00" fill="#000000">I</text>
</g>
<!-- D&#45;&gt;I -->
<g id="edge6" class="edge">
<title>D&#45;&gt;I</title>
<path fill="none" stroke="#8f8a83" stroke-width="2" d="M830.4571,-396C850.7075,-396 872.1458,-396 891.9009,-396"/>
<polygon fill="#8f8a83" stroke="#8f8a83" stroke-width="2" points="830.3088,-392.5001 820.3088,-396 830.3088,-399.5001 830.3088,-392.5001"/>
</g>
<!-- server -->
<g id="node11" class="node">
<title>server</title>
<polygon fill="#e93a1d" stroke="#000000" stroke-width="0" points="1043,-332 892,-332 892,-276 1043,-276 1043,-332"/>
<text text-anchor="middle" x="967.5" y="-298" font-family="Menlo, Consolas, Courier New, monospace" font-size="20.00" fill="#ffffff">server</text>
</g>
<!-- I&#45;&gt;server -->
<g id="edge10" class="edge">
<title>I&#45;&gt;server</title>
<path fill="none" stroke="#8f8a83" stroke-width="2" d="M967.5,-357.2572C967.5,-348.8486 967.5,-340.4399 967.5,-332.0313"/>
<polygon fill="#8f8a83" stroke="#8f8a83" stroke-width="2" points="964.0001,-357.5139 967.5,-367.5139 971.0001,-357.514 964.0001,-357.5139"/>
</g>
<!-- Hr -->
<g id="node9" class="node">
<title>Hr</title>
<path fill="#f0efe8" stroke="#000000" stroke-width="0" d="M808,-148C808,-148 681,-148 681,-148 675,-148 669,-142 669,-136 669,-136 669,-104 669,-104 669,-98 675,-92 681,-92 681,-92 808,-92 808,-92 814,-92 820,-98 820,-104 820,-104 820,-136 820,-136 820,-142 814,-148 808,-148"/>
<text text-anchor="middle" x="744.5" y="-114" font-family="Menlo, Consolas, Courier New, monospace" font-size="20.00" fill="#000000">H&#39;</text>
</g>
<!-- Gr&#45;&gt;Hr -->
<g id="edge8" class="edge">
<title>Gr&#45;&gt;Hr</title>
<path fill="none" stroke="#8f8a83" stroke-width="2" d="M607.4571,-120C627.7075,-120 649.1458,-120 668.9009,-120"/>
<polygon fill="#8f8a83" stroke="#8f8a83" stroke-width="2" points="607.3088,-116.5001 597.3088,-120 607.3088,-123.5001 607.3088,-116.5001"/>
</g>
<!-- client -->
<g id="node12" class="node">
<title>client</title>
<polygon fill="#e93a1d" stroke="#000000" stroke-width="0" points="820,-56 669,-56 669,0 820,0 820,-56"/>
<text text-anchor="middle" x="744.5" y="-22" font-family="Menlo, Consolas, Courier New, monospace" font-size="20.00" fill="#ffffff">client</text>
</g>
<!-- Hr&#45;&gt;client -->
<g id="edge11" class="edge">
<title>Hr&#45;&gt;client</title>
<path fill="none" stroke="#8f8a83" stroke-width="2" d="M744.5,-81.2572C744.5,-72.8486 744.5,-64.4399 744.5,-56.0313"/>
<polygon fill="#8f8a83" stroke="#8f8a83" stroke-width="2" points="741.0001,-81.5139 744.5,-91.5139 748.0001,-81.514 741.0001,-81.5139"/>
</g>
<!-- H -->
<g id="node14" class="node">
<title>H</title>
<path fill="#f0efe8" fill-opacity="0.392157" stroke="#000000" stroke-width="0" d="M1031,-240C1031,-240 904,-240 904,-240 898,-240 892,-234 892,-228 892,-228 892,-196 892,-196 892,-190 898,-184 904,-184 904,-184 1031,-184 1031,-184 1037,-184 1043,-190 1043,-196 1043,-196 1043,-228 1043,-228 1043,-234 1037,-240 1031,-240"/>
<text text-anchor="middle" x="967.5" y="-206" font-family="Menlo, Consolas, Courier New, monospace" font-size="20.00" fill="#7f7f7f">H</text>
</g>
<!-- G&#45;&gt;H -->
<g id="edge13" class="edge">
<title>G&#45;&gt;H</title>
<path fill="none" stroke="#8f8a83" stroke-width="2" stroke-opacity="0.392157" d="M830.4571,-212C850.7075,-212 872.1458,-212 891.9009,-212"/>
<polygon fill="#8f8a83" fill-opacity="0.392157" stroke="#8f8a83" stroke-width="2" stroke-opacity="0.392157" points="830.3088,-208.5001 820.3088,-212 830.3088,-215.5001 830.3088,-208.5001"/>
</g>
</g>
</svg>
