<?xml version="1.0" encoding="UTF-8" standalone="no"?>
<!DOCTYPE svg PUBLIC "-//W3C//DTD SVG 1.1//EN"
 "http://www.w3.org/Graphics/SVG/1.1/DTD/svg11.dtd">
<!-- Generated by graphviz version 2.47.2 (20210527.0053)
 -->
<!-- Title: Git Pages: 1 -->
<svg width="1051pt" height="540pt"
 viewBox="0.00 0.00 1051.00 540.00" xmlns="http://www.w3.org/2000/svg" xmlns:xlink="http://www.w3.org/1999/xlink">
<g id="graph0" class="graph" transform="scale(1 1) rotate(0) translate(4 536)">
<title>Git</title>
<g id="clust1" class="cluster">
<title>cluster_master</title>
<polygon fill="transparent" stroke="transparent" points="661,-360 661,-524 828,-524 828,-360 661,-360"/>
</g>
<!-- A -->
<g id="node1" class="node">
<title>A</title>
<path fill="#f0efe8" stroke="black" stroke-width="0" d="M139,-424C139,-424 12,-424 12,-424 6,-424 0,-418 0,-412 0,-412 0,-380 0,-380 0,-374 6,-368 12,-368 12,-368 139,-368 139,-368 145,-368 151,-374 151,-380 151,-380 151,-412 151,-412 151,-418 145,-424 139,-424"/>
<text text-anchor="middle" x="75.5" y="-391" font-family="Menlo, Monaco, Consolas, Lucida Console, Courier New, monospace" font-size="20.00">A</text>
</g>
<!-- B -->
<g id="node2" class="node">
<title>B</title>
<path fill="#f0efe8" stroke="black" stroke-width="0" d="M362,-424C362,-424 235,-424 235,-424 229,-424 223,-418 223,-412 223,-412 223,-380 223,-380 223,-374 229,-368 235,-368 235,-368 362,-368 362,-368 368,-368 374,-374 374,-380 374,-380 374,-412 374,-412 374,-418 368,-424 362,-424"/>
<text text-anchor="middle" x="298.5" y="-391" font-family="Menlo, Monaco, Consolas, Lucida Console, Courier New, monospace" font-size="20.00">B</text>
</g>
<!-- A&#45;&gt;B -->
<g id="edge1" class="edge">
<title>A&#45;&gt;B</title>
<path fill="none" stroke="#8f8a83" stroke-width="2" d="M161.2,-396C181.53,-396 203.1,-396 222.94,-396"/>
<polygon fill="#8f8a83" stroke="#8f8a83" stroke-width="2" points="161.01,-392.5 151.01,-396 161.01,-399.5 161.01,-392.5"/>
</g>
<!-- E -->
<g id="node3" class="node">
<title>E</title>
<path fill="#f0efe8" stroke="black" stroke-width="0" d="M585,-424C585,-424 458,-424 458,-424 452,-424 446,-418 446,-412 446,-412 446,-380 446,-380 446,-374 452,-368 458,-368 458,-368 585,-368 585,-368 591,-368 597,-374 597,-380 597,-380 597,-412 597,-412 597,-418 591,-424 585,-424"/>
<text text-anchor="middle" x="521.5" y="-391" font-family="Menlo, Monaco, Consolas, Lucida Console, Courier New, monospace" font-size="20.00">E</text>
</g>
<!-- B&#45;&gt;E -->
<g id="edge2" class="edge">
<title>B&#45;&gt;E</title>
<path fill="none" stroke="#8f8a83" stroke-width="2" d="M384.2,-396C404.53,-396 426.1,-396 445.94,-396"/>
<polygon fill="#8f8a83" stroke="#8f8a83" stroke-width="2" points="384.01,-392.5 374.01,-396 384.01,-399.5 384.01,-392.5"/>
</g>
<!-- C -->
<g id="node5" class="node">
<title>C</title>
<path fill="#f0efe8" stroke="black" stroke-width="0" d="M585,-332C585,-332 458,-332 458,-332 452,-332 446,-326 446,-320 446,-320 446,-288 446,-288 446,-282 452,-276 458,-276 458,-276 585,-276 585,-276 591,-276 597,-282 597,-288 597,-288 597,-320 597,-320 597,-326 591,-332 585,-332"/>
<text text-anchor="middle" x="521.5" y="-299" font-family="Menlo, Monaco, Consolas, Lucida Console, Courier New, monospace" font-size="20.00">C</text>
</g>
<!-- B&#45;&gt;C -->
<g id="edge4" class="edge">
<title>B&#45;&gt;C</title>
<path fill="none" stroke="#8f8a83" stroke-width="2" d="M376.43,-363.97C401.37,-353.59 428.83,-342.16 453.02,-332.09"/>
<polygon fill="#8f8a83" stroke="#8f8a83" stroke-width="2" points="374.9,-360.82 367.01,-367.9 377.59,-367.29 374.9,-360.82"/>
</g>
<!-- F -->
<g id="node4" class="node">
<title>F</title>
<path fill="#f0efe8" stroke="black" stroke-width="0" d="M808,-424C808,-424 681,-424 681,-424 675,-424 669,-418 669,-412 669,-412 669,-380 669,-380 669,-374 675,-368 681,-368 681,-368 808,-368 808,-368 814,-368 820,-374 820,-380 820,-380 820,-412 820,-412 820,-418 814,-424 808,-424"/>
<text text-anchor="middle" x="744.5" y="-391" font-family="Menlo, Monaco, Consolas, Lucida Console, Courier New, monospace" font-size="20.00">F</text>
</g>
<!-- E&#45;&gt;F -->
<g id="edge3" class="edge">
<title>E&#45;&gt;F</title>
<path fill="none" stroke="#8f8a83" stroke-width="2" d="M607.2,-396C627.53,-396 649.1,-396 668.94,-396"/>
<polygon fill="#8f8a83" stroke="#8f8a83" stroke-width="2" points="607.01,-392.5 597.01,-396 607.01,-399.5 607.01,-392.5"/>
</g>
<!-- master -->
<g id="node10" class="node">
<title>master</title>
<polygon fill="#2c942c" stroke="black" stroke-width="0" points="820,-516 669,-516 669,-460 820,-460 820,-516"/>
<text text-anchor="middle" x="744.5" y="-483" font-family="Menlo, Monaco, Consolas, Lucida Console, Courier New, monospace" font-size="20.00" fill="#ffffff">master</text>
</g>
<!-- F&#45;&gt;master -->
<g id="edge9" class="edge">
<title>F&#45;&gt;master</title>
<path fill="none" stroke="#8f8a83" stroke-width="2" d="M744.5,-434.29C744.5,-442.7 744.5,-451.11 744.5,-459.51"/>
<polygon fill="#8f8a83" stroke="#8f8a83" stroke-width="2" points="748,-434.03 744.5,-424.03 741,-434.03 748,-434.03"/>
</g>
<!-- D -->
<g id="node6" class="node">
<title>D</title>
<path fill="#f0efe8" stroke="black" stroke-width="0" d="M808,-332C808,-332 681,-332 681,-332 675,-332 669,-326 669,-320 669,-320 669,-288 669,-288 669,-282 675,-276 681,-276 681,-276 808,-276 808,-276 814,-276 820,-282 820,-288 820,-288 820,-320 820,-320 820,-326 814,-332 808,-332"/>
<text text-anchor="middle" x="744.5" y="-299" font-family="Menlo, Monaco, Consolas, Lucida Console, Courier New, monospace" font-size="20.00">D</text>
</g>
<!-- C&#45;&gt;D -->
<g id="edge5" class="edge">
<title>C&#45;&gt;D</title>
<path fill="none" stroke="#8f8a83" stroke-width="2" d="M607.2,-304C627.53,-304 649.1,-304 668.94,-304"/>
<polygon fill="#8f8a83" stroke="#8f8a83" stroke-width="2" points="607.01,-300.5 597.01,-304 607.01,-307.5 607.01,-300.5"/>
</g>
<!-- G -->
<g id="node8" class="node">
<title>G</title>
<path fill="#f0efe8" stroke="black" stroke-width="0" d="M808,-148C808,-148 681,-148 681,-148 675,-148 669,-142 669,-136 669,-136 669,-104 669,-104 669,-98 675,-92 681,-92 681,-92 808,-92 808,-92 814,-92 820,-98 820,-104 820,-104 820,-136 820,-136 820,-142 814,-148 808,-148"/>
<text text-anchor="middle" x="744.5" y="-115" font-family="Menlo, Monaco, Consolas, Lucida Console, Courier New, monospace" font-size="20.00">G</text>
</g>
<!-- C&#45;&gt;G -->
<g id="edge7" class="edge">
<title>C&#45;&gt;G</title>
<path fill="none" stroke="#8f8a83" stroke-width="2" d="M564.41,-269.1C606.58,-234 670.79,-180.54 709.78,-148.08"/>
<polygon fill="#8f8a83" stroke="#8f8a83" stroke-width="2" points="561.99,-266.57 556.55,-275.65 566.47,-271.94 561.99,-266.57"/>
</g>
<!-- I -->
<g id="node7" class="node">
<title>I</title>
<path fill="#f0efe8" stroke="black" stroke-width="0" d="M1031,-332C1031,-332 904,-332 904,-332 898,-332 892,-326 892,-320 892,-320 892,-288 892,-288 892,-282 898,-276 904,-276 904,-276 1031,-276 1031,-276 1037,-276 1043,-282 1043,-288 1043,-288 1043,-320 1043,-320 1043,-326 1037,-332 1031,-332"/>
<text text-anchor="middle" x="967.5" y="-299" font-family="Menlo, Monaco, Consolas, Lucida Console, Courier New, monospace" font-size="20.00">I</text>
</g>
<!-- D&#45;&gt;I -->
<g id="edge6" class="edge">
<title>D&#45;&gt;I</title>
<path fill="none" stroke="#8f8a83" stroke-width="2" d="M830.2,-304C850.53,-304 872.1,-304 891.94,-304"/>
<polygon fill="#8f8a83" stroke="#8f8a83" stroke-width="2" points="830.01,-300.5 820.01,-304 830.01,-307.5 830.01,-300.5"/>
</g>
<!-- server -->
<g id="node11" class="node">
<title>server</title>
<polygon fill="#2c942c" stroke="black" stroke-width="0" points="1043,-240 892,-240 892,-184 1043,-184 1043,-240"/>
<text text-anchor="middle" x="967.5" y="-207" font-family="Menlo, Monaco, Consolas, Lucida Console, Courier New, monospace" font-size="20.00" fill="#ffffff">server</text>
</g>
<!-- I&#45;&gt;server -->
<g id="edge10" class="edge">
<title>I&#45;&gt;server</title>
<path fill="none" stroke="#8f8a83" stroke-width="2" d="M967.5,-265.26C967.5,-256.85 967.5,-248.44 967.5,-240.03"/>
<polygon fill="#8f8a83" stroke="#8f8a83" stroke-width="2" points="964,-265.51 967.5,-275.51 971,-265.51 964,-265.51"/>
</g>
<!-- H -->
<g id="node9" class="node">
<title>H</title>
<path fill="#f0efe8" stroke="black" stroke-width="0" d="M1031,-148C1031,-148 904,-148 904,-148 898,-148 892,-142 892,-136 892,-136 892,-104 892,-104 892,-98 898,-92 904,-92 904,-92 1031,-92 1031,-92 1037,-92 1043,-98 1043,-104 1043,-104 1043,-136 1043,-136 1043,-142 1037,-148 1031,-148"/>
<text text-anchor="middle" x="967.5" y="-115" font-family="Menlo, Monaco, Consolas, Lucida Console, Courier New, monospace" font-size="20.00">H</text>
</g>
<!-- G&#45;&gt;H -->
<g id="edge8" class="edge">
<title>G&#45;&gt;H</title>
<path fill="none" stroke="#8f8a83" stroke-width="2" d="M830.2,-120C850.53,-120 872.1,-120 891.94,-120"/>
<polygon fill="#8f8a83" stroke="#8f8a83" stroke-width="2" points="830.01,-116.5 820.01,-120 830.01,-123.5 830.01,-116.5"/>
</g>
<!-- client -->
<g id="node12" class="node">
<title>client</title>
<polygon fill="#2c942c" stroke="black" stroke-width="0" points="1043,-56 892,-56 892,0 1043,0 1043,-56"/>
<text text-anchor="middle" x="967.5" y="-23" font-family="Menlo, Monaco, Consolas, Lucida Console, Courier New, monospace" font-size="20.00" fill="#ffffff">client</text>
</g>
<!-- H&#45;&gt;client -->
<g id="edge11" class="edge">
<title>H&#45;&gt;client</title>
<path fill="none" stroke="#8f8a83" stroke-width="2" d="M967.5,-81.26C967.5,-72.85 967.5,-64.44 967.5,-56.03"/>
<polygon fill="#8f8a83" stroke="#8f8a83" stroke-width="2" points="964,-81.51 967.5,-91.51 971,-81.51 964,-81.51"/>
</g>
</g>
</svg>
