<?xml version="1.0" encoding="UTF-8" standalone="no"?>
<!DOCTYPE svg PUBLIC "-//W3C//DTD SVG 1.1//EN"
 "http://www.w3.org/Graphics/SVG/1.1/DTD/svg11.dtd">
<!-- Generated by graphviz version 2.47.2 (20210527.0053)
 -->
<!-- Title: Git Pages: 1 -->
<svg width="1290pt" height="448pt"
 viewBox="0.00 0.00 1290.00 448.00" xmlns="http://www.w3.org/2000/svg" xmlns:xlink="http://www.w3.org/1999/xlink">
<g id="graph0" class="graph" transform="scale(1 1) rotate(0) translate(4 444)">
<title>Git</title>
<g id="clust1" class="cluster">
<title>cluster_master</title>
<polygon fill="transparent" stroke="transparent" points="661,-268 661,-432 828,-432 828,-268 661,-268"/>
</g>
<g id="clust4" class="cluster">
<title>cluster_client</title>
<polygon fill="transparent" stroke="transparent" points="1107,-268 1107,-432 1274,-432 1274,-268 1107,-268"/>
</g>
<!-- Gr -->
<g id="node1" class="node">
<title>Gr</title>
<path fill="#f0efe8" stroke="black" stroke-width="0" d="M1031,-332C1031,-332 904,-332 904,-332 898,-332 892,-326 892,-320 892,-320 892,-288 892,-288 892,-282 898,-276 904,-276 904,-276 1031,-276 1031,-276 1037,-276 1043,-282 1043,-288 1043,-288 1043,-320 1043,-320 1043,-326 1037,-332 1031,-332"/>
<text text-anchor="middle" x="967.5" y="-299" font-family="Menlo, Monaco, Consolas, Lucida Console, Courier New, monospace" font-size="20.00">G&#39;</text>
</g>
<!-- Hr -->
<g id="node2" class="node">
<title>Hr</title>
<path fill="#f0efe8" stroke="black" stroke-width="0" d="M1254,-332C1254,-332 1127,-332 1127,-332 1121,-332 1115,-326 1115,-320 1115,-320 1115,-288 1115,-288 1115,-282 1121,-276 1127,-276 1127,-276 1254,-276 1254,-276 1260,-276 1266,-282 1266,-288 1266,-288 1266,-320 1266,-320 1266,-326 1260,-332 1254,-332"/>
<text text-anchor="middle" x="1190.5" y="-299" font-family="Menlo, Monaco, Consolas, Lucida Console, Courier New, monospace" font-size="20.00">H&#39;</text>
</g>
<!-- Gr&#45;&gt;Hr -->
<g id="edge5" class="edge">
<title>Gr&#45;&gt;Hr</title>
<path fill="none" stroke="#8f8a83" stroke-width="2" d="M1053.2,-304C1073.53,-304 1095.1,-304 1114.94,-304"/>
<polygon fill="#8f8a83" stroke="#8f8a83" stroke-width="2" points="1053.01,-300.5 1043.01,-304 1053.01,-307.5 1053.01,-300.5"/>
</g>
<!-- client -->
<g id="node12" class="node">
<title>client</title>
<polygon fill="#2c942c" stroke="black" stroke-width="0" points="1266,-424 1115,-424 1115,-368 1266,-368 1266,-424"/>
<text text-anchor="middle" x="1190.5" y="-391" font-family="Menlo, Monaco, Consolas, Lucida Console, Courier New, monospace" font-size="20.00" fill="#ffffff">client</text>
</g>
<!-- Hr&#45;&gt;client -->
<g id="edge11" class="edge">
<title>Hr&#45;&gt;client</title>
<path fill="none" stroke="#8f8a83" stroke-width="2" d="M1190.5,-342.29C1190.5,-350.7 1190.5,-359.11 1190.5,-367.51"/>
<polygon fill="#8f8a83" stroke="#8f8a83" stroke-width="2" points="1194,-342.03 1190.5,-332.03 1187,-342.03 1194,-342.03"/>
</g>
<!-- A -->
<g id="node3" class="node">
<title>A</title>
<path fill="#f0efe8" stroke="black" stroke-width="0" d="M139,-332C139,-332 12,-332 12,-332 6,-332 0,-326 0,-320 0,-320 0,-288 0,-288 0,-282 6,-276 12,-276 12,-276 139,-276 139,-276 145,-276 151,-282 151,-288 151,-288 151,-320 151,-320 151,-326 145,-332 139,-332"/>
<text text-anchor="middle" x="75.5" y="-299" font-family="Menlo, Monaco, Consolas, Lucida Console, Courier New, monospace" font-size="20.00">A</text>
</g>
<!-- B -->
<g id="node4" class="node">
<title>B</title>
<path fill="#f0efe8" stroke="black" stroke-width="0" d="M362,-332C362,-332 235,-332 235,-332 229,-332 223,-326 223,-320 223,-320 223,-288 223,-288 223,-282 229,-276 235,-276 235,-276 362,-276 362,-276 368,-276 374,-282 374,-288 374,-288 374,-320 374,-320 374,-326 368,-332 362,-332"/>
<text text-anchor="middle" x="298.5" y="-299" font-family="Menlo, Monaco, Consolas, Lucida Console, Courier New, monospace" font-size="20.00">B</text>
</g>
<!-- A&#45;&gt;B -->
<g id="edge1" class="edge">
<title>A&#45;&gt;B</title>
<path fill="none" stroke="#8f8a83" stroke-width="2" d="M161.2,-304C181.53,-304 203.1,-304 222.94,-304"/>
<polygon fill="#8f8a83" stroke="#8f8a83" stroke-width="2" points="161.01,-300.5 151.01,-304 161.01,-307.5 161.01,-300.5"/>
</g>
<!-- E -->
<g id="node5" class="node">
<title>E</title>
<path fill="#f0efe8" stroke="black" stroke-width="0" d="M585,-332C585,-332 458,-332 458,-332 452,-332 446,-326 446,-320 446,-320 446,-288 446,-288 446,-282 452,-276 458,-276 458,-276 585,-276 585,-276 591,-276 597,-282 597,-288 597,-288 597,-320 597,-320 597,-326 591,-332 585,-332"/>
<text text-anchor="middle" x="521.5" y="-299" font-family="Menlo, Monaco, Consolas, Lucida Console, Courier New, monospace" font-size="20.00">E</text>
</g>
<!-- B&#45;&gt;E -->
<g id="edge2" class="edge">
<title>B&#45;&gt;E</title>
<path fill="none" stroke="#8f8a83" stroke-width="2" d="M384.2,-304C404.53,-304 426.1,-304 445.94,-304"/>
<polygon fill="#8f8a83" stroke="#8f8a83" stroke-width="2" points="384.01,-300.5 374.01,-304 384.01,-307.5 384.01,-300.5"/>
</g>
<!-- C -->
<g id="node7" class="node">
<title>C</title>
<path fill="#f0efe8" stroke="black" stroke-width="0" d="M585,-240C585,-240 458,-240 458,-240 452,-240 446,-234 446,-228 446,-228 446,-196 446,-196 446,-190 452,-184 458,-184 458,-184 585,-184 585,-184 591,-184 597,-190 597,-196 597,-196 597,-228 597,-228 597,-234 591,-240 585,-240"/>
<text text-anchor="middle" x="521.5" y="-207" font-family="Menlo, Monaco, Consolas, Lucida Console, Courier New, monospace" font-size="20.00">C</text>
</g>
<!-- B&#45;&gt;C -->
<g id="edge6" class="edge">
<title>B&#45;&gt;C</title>
<path fill="none" stroke="#8f8a83" stroke-width="2" d="M376.43,-271.97C401.37,-261.59 428.83,-250.16 453.02,-240.09"/>
<polygon fill="#8f8a83" stroke="#8f8a83" stroke-width="2" points="374.9,-268.82 367.01,-275.9 377.59,-275.29 374.9,-268.82"/>
</g>
<!-- F -->
<g id="node6" class="node">
<title>F</title>
<path fill="#f0efe8" stroke="black" stroke-width="0" d="M808,-332C808,-332 681,-332 681,-332 675,-332 669,-326 669,-320 669,-320 669,-288 669,-288 669,-282 675,-276 681,-276 681,-276 808,-276 808,-276 814,-276 820,-282 820,-288 820,-288 820,-320 820,-320 820,-326 814,-332 808,-332"/>
<text text-anchor="middle" x="744.5" y="-299" font-family="Menlo, Monaco, Consolas, Lucida Console, Courier New, monospace" font-size="20.00">F</text>
</g>
<!-- E&#45;&gt;F -->
<g id="edge3" class="edge">
<title>E&#45;&gt;F</title>
<path fill="none" stroke="#8f8a83" stroke-width="2" d="M607.2,-304C627.53,-304 649.1,-304 668.94,-304"/>
<polygon fill="#8f8a83" stroke="#8f8a83" stroke-width="2" points="607.01,-300.5 597.01,-304 607.01,-307.5 607.01,-300.5"/>
</g>
<!-- F&#45;&gt;Gr -->
<g id="edge4" class="edge">
<title>F&#45;&gt;Gr</title>
<path fill="none" stroke="#8f8a83" stroke-width="2" d="M830.2,-304C850.53,-304 872.1,-304 891.94,-304"/>
<polygon fill="#8f8a83" stroke="#8f8a83" stroke-width="2" points="830.01,-300.5 820.01,-304 830.01,-307.5 830.01,-300.5"/>
</g>
<!-- master -->
<g id="node10" class="node">
<title>master</title>
<polygon fill="#2c942c" stroke="black" stroke-width="0" points="820,-424 669,-424 669,-368 820,-368 820,-424"/>
<text text-anchor="middle" x="744.5" y="-391" font-family="Menlo, Monaco, Consolas, Lucida Console, Courier New, monospace" font-size="20.00" fill="#ffffff">master</text>
</g>
<!-- F&#45;&gt;master -->
<g id="edge9" class="edge">
<title>F&#45;&gt;master</title>
<path fill="none" stroke="#8f8a83" stroke-width="2" d="M744.5,-342.29C744.5,-350.7 744.5,-359.11 744.5,-367.51"/>
<polygon fill="#8f8a83" stroke="#8f8a83" stroke-width="2" points="748,-342.03 744.5,-332.03 741,-342.03 748,-342.03"/>
</g>
<!-- D -->
<g id="node8" class="node">
<title>D</title>
<path fill="#f0efe8" stroke="black" stroke-width="0" d="M808,-240C808,-240 681,-240 681,-240 675,-240 669,-234 669,-228 669,-228 669,-196 669,-196 669,-190 675,-184 681,-184 681,-184 808,-184 808,-184 814,-184 820,-190 820,-196 820,-196 820,-228 820,-228 820,-234 814,-240 808,-240"/>
<text text-anchor="middle" x="744.5" y="-207" font-family="Menlo, Monaco, Consolas, Lucida Console, Courier New, monospace" font-size="20.00">D</text>
</g>
<!-- C&#45;&gt;D -->
<g id="edge7" class="edge">
<title>C&#45;&gt;D</title>
<path fill="none" stroke="#8f8a83" stroke-width="2" d="M607.2,-212C627.53,-212 649.1,-212 668.94,-212"/>
<polygon fill="#8f8a83" stroke="#8f8a83" stroke-width="2" points="607.01,-208.5 597.01,-212 607.01,-215.5 607.01,-208.5"/>
</g>
<!-- G -->
<g id="node13" class="node">
<title>G</title>
<path fill="#f0efe8" fill-opacity="0.392157" stroke="black" stroke-width="0" d="M808,-56C808,-56 681,-56 681,-56 675,-56 669,-50 669,-44 669,-44 669,-12 669,-12 669,-6 675,0 681,0 681,0 808,0 808,0 814,0 820,-6 820,-12 820,-12 820,-44 820,-44 820,-50 814,-56 808,-56"/>
<text text-anchor="middle" x="744.5" y="-23" font-family="Menlo, Monaco, Consolas, Lucida Console, Courier New, monospace" font-size="20.00" fill="#7f7f7f">G</text>
</g>
<!-- C&#45;&gt;G -->
<g id="edge12" class="edge">
<title>C&#45;&gt;G</title>
<path fill="none" stroke="#8f8a83" stroke-width="2" stroke-opacity="0.392157" d="M564.41,-177.1C606.58,-142 670.79,-88.54 709.78,-56.08"/>
<polygon fill="#8f8a83" fill-opacity="0.392157" stroke="#8f8a83" stroke-width="2" stroke-opacity="0.392157" points="561.99,-174.57 556.55,-183.65 566.47,-179.94 561.99,-174.57"/>
</g>
<!-- I -->
<g id="node9" class="node">
<title>I</title>
<path fill="#f0efe8" stroke="black" stroke-width="0" d="M1031,-240C1031,-240 904,-240 904,-240 898,-240 892,-234 892,-228 892,-228 892,-196 892,-196 892,-190 898,-184 904,-184 904,-184 1031,-184 1031,-184 1037,-184 1043,-190 1043,-196 1043,-196 1043,-228 1043,-228 1043,-234 1037,-240 1031,-240"/>
<text text-anchor="middle" x="967.5" y="-207" font-family="Menlo, Monaco, Consolas, Lucida Console, Courier New, monospace" font-size="20.00">I</text>
</g>
<!-- D&#45;&gt;I -->
<g id="edge8" class="edge">
<title>D&#45;&gt;I</title>
<path fill="none" stroke="#8f8a83" stroke-width="2" d="M830.2,-212C850.53,-212 872.1,-212 891.94,-212"/>
<polygon fill="#8f8a83" stroke="#8f8a83" stroke-width="2" points="830.01,-208.5 820.01,-212 830.01,-215.5 830.01,-208.5"/>
</g>
<!-- server -->
<g id="node11" class="node">
<title>server</title>
<polygon fill="#2c942c" stroke="black" stroke-width="0" points="1043,-148 892,-148 892,-92 1043,-92 1043,-148"/>
<text text-anchor="middle" x="967.5" y="-115" font-family="Menlo, Monaco, Consolas, Lucida Console, Courier New, monospace" font-size="20.00" fill="#ffffff">server</text>
</g>
<!-- I&#45;&gt;server -->
<g id="edge10" class="edge">
<title>I&#45;&gt;server</title>
<path fill="none" stroke="#8f8a83" stroke-width="2" d="M967.5,-173.26C967.5,-164.85 967.5,-156.44 967.5,-148.03"/>
<polygon fill="#8f8a83" stroke="#8f8a83" stroke-width="2" points="964,-173.51 967.5,-183.51 971,-173.51 964,-173.51"/>
</g>
<!-- H -->
<g id="node14" class="node">
<title>H</title>
<path fill="#f0efe8" fill-opacity="0.392157" stroke="black" stroke-width="0" d="M1031,-56C1031,-56 904,-56 904,-56 898,-56 892,-50 892,-44 892,-44 892,-12 892,-12 892,-6 898,0 904,0 904,0 1031,0 1031,0 1037,0 1043,-6 1043,-12 1043,-12 1043,-44 1043,-44 1043,-50 1037,-56 1031,-56"/>
<text text-anchor="middle" x="967.5" y="-23" font-family="Menlo, Monaco, Consolas, Lucida Console, Courier New, monospace" font-size="20.00" fill="#7f7f7f">H</text>
</g>
<!-- G&#45;&gt;H -->
<g id="edge13" class="edge">
<title>G&#45;&gt;H</title>
<path fill="none" stroke="#8f8a83" stroke-width="2" stroke-opacity="0.392157" d="M830.2,-28C850.53,-28 872.1,-28 891.94,-28"/>
<polygon fill="#8f8a83" fill-opacity="0.392157" stroke="#8f8a83" stroke-width="2" stroke-opacity="0.392157" points="830.01,-24.5 820.01,-28 830.01,-31.5 830.01,-24.5"/>
</g>
</g>
</svg>
