<?xml version="1.0" encoding="UTF-8" standalone="no"?>
<!DOCTYPE svg PUBLIC "-//W3C//DTD SVG 1.1//EN"
 "http://www.w3.org/Graphics/SVG/1.1/DTD/svg11.dtd">
<!-- Generated by graphviz version 2.47.2 (20210527.0053)
 -->
<!-- Title: Git Pages: 1 -->
<svg width="1051pt" height="632pt"
 viewBox="0.00 0.00 1051.00 632.00" xmlns="http://www.w3.org/2000/svg" xmlns:xlink="http://www.w3.org/1999/xlink">
<g id="graph0" class="graph" transform="scale(1 1) rotate(0) translate(4 628)">
<title>Git</title>
<g id="clust1" class="cluster">
<title>cluster_master</title>
<polygon fill="transparent" stroke="transparent" points="661,-452 661,-616 828,-616 828,-452 661,-452"/>
</g>
<!-- A -->
<g id="node1" class="node">
<title>A</title>
<path fill="#f0efe8" stroke="black" stroke-width="0" d="M139,-516C139,-516 12,-516 12,-516 6,-516 0,-510 0,-504 0,-504 0,-472 0,-472 0,-466 6,-460 12,-460 12,-460 139,-460 139,-460 145,-460 151,-466 151,-472 151,-472 151,-504 151,-504 151,-510 145,-516 139,-516"/>
<text text-anchor="middle" x="75.5" y="-483" font-family="Menlo, Monaco, Consolas, Lucida Console, Courier New, monospace" font-size="20.00">A</text>
</g>
<!-- B -->
<g id="node2" class="node">
<title>B</title>
<path fill="#f0efe8" stroke="black" stroke-width="0" d="M362,-516C362,-516 235,-516 235,-516 229,-516 223,-510 223,-504 223,-504 223,-472 223,-472 223,-466 229,-460 235,-460 235,-460 362,-460 362,-460 368,-460 374,-466 374,-472 374,-472 374,-504 374,-504 374,-510 368,-516 362,-516"/>
<text text-anchor="middle" x="298.5" y="-483" font-family="Menlo, Monaco, Consolas, Lucida Console, Courier New, monospace" font-size="20.00">B</text>
</g>
<!-- A&#45;&gt;B -->
<g id="edge1" class="edge">
<title>A&#45;&gt;B</title>
<path fill="none" stroke="#8f8a83" stroke-width="2" d="M161.2,-488C181.53,-488 203.1,-488 222.94,-488"/>
<polygon fill="#8f8a83" stroke="#8f8a83" stroke-width="2" points="161.01,-484.5 151.01,-488 161.01,-491.5 161.01,-484.5"/>
</g>
<!-- E -->
<g id="node3" class="node">
<title>E</title>
<path fill="#f0efe8" stroke="black" stroke-width="0" d="M585,-516C585,-516 458,-516 458,-516 452,-516 446,-510 446,-504 446,-504 446,-472 446,-472 446,-466 452,-460 458,-460 458,-460 585,-460 585,-460 591,-460 597,-466 597,-472 597,-472 597,-504 597,-504 597,-510 591,-516 585,-516"/>
<text text-anchor="middle" x="521.5" y="-483" font-family="Menlo, Monaco, Consolas, Lucida Console, Courier New, monospace" font-size="20.00">E</text>
</g>
<!-- B&#45;&gt;E -->
<g id="edge2" class="edge">
<title>B&#45;&gt;E</title>
<path fill="none" stroke="#8f8a83" stroke-width="2" d="M384.2,-488C404.53,-488 426.1,-488 445.94,-488"/>
<polygon fill="#8f8a83" stroke="#8f8a83" stroke-width="2" points="384.01,-484.5 374.01,-488 384.01,-491.5 384.01,-484.5"/>
</g>
<!-- C -->
<g id="node5" class="node">
<title>C</title>
<path fill="#f0efe8" stroke="black" stroke-width="0" d="M585,-424C585,-424 458,-424 458,-424 452,-424 446,-418 446,-412 446,-412 446,-380 446,-380 446,-374 452,-368 458,-368 458,-368 585,-368 585,-368 591,-368 597,-374 597,-380 597,-380 597,-412 597,-412 597,-418 591,-424 585,-424"/>
<text text-anchor="middle" x="521.5" y="-391" font-family="Menlo, Monaco, Consolas, Lucida Console, Courier New, monospace" font-size="20.00">C</text>
</g>
<!-- B&#45;&gt;C -->
<g id="edge4" class="edge">
<title>B&#45;&gt;C</title>
<path fill="none" stroke="#8f8a83" stroke-width="2" d="M376.43,-455.97C401.37,-445.59 428.83,-434.16 453.02,-424.09"/>
<polygon fill="#8f8a83" stroke="#8f8a83" stroke-width="2" points="374.9,-452.82 367.01,-459.9 377.59,-459.29 374.9,-452.82"/>
</g>
<!-- Gr -->
<g id="node8" class="node">
<title>Gr</title>
<path fill="#f0efe8" stroke="black" stroke-width="0" d="M585,-148C585,-148 458,-148 458,-148 452,-148 446,-142 446,-136 446,-136 446,-104 446,-104 446,-98 452,-92 458,-92 458,-92 585,-92 585,-92 591,-92 597,-98 597,-104 597,-104 597,-136 597,-136 597,-142 591,-148 585,-148"/>
<text text-anchor="middle" x="521.5" y="-115" font-family="Menlo, Monaco, Consolas, Lucida Console, Courier New, monospace" font-size="20.00">G&#39;</text>
</g>
<!-- B&#45;&gt;Gr -->
<g id="edge7" class="edge">
<title>B&#45;&gt;Gr</title>
<path fill="none" stroke="#8f8a83" stroke-width="2" d="M321.86,-450.78C366.16,-377.01 464.21,-213.73 503.62,-148.11"/>
<polygon fill="#8f8a83" stroke="#8f8a83" stroke-width="2" points="318.62,-449.36 316.47,-459.73 324.62,-452.96 318.62,-449.36"/>
</g>
<!-- F -->
<g id="node4" class="node">
<title>F</title>
<path fill="#f0efe8" stroke="black" stroke-width="0" d="M808,-516C808,-516 681,-516 681,-516 675,-516 669,-510 669,-504 669,-504 669,-472 669,-472 669,-466 675,-460 681,-460 681,-460 808,-460 808,-460 814,-460 820,-466 820,-472 820,-472 820,-504 820,-504 820,-510 814,-516 808,-516"/>
<text text-anchor="middle" x="744.5" y="-483" font-family="Menlo, Monaco, Consolas, Lucida Console, Courier New, monospace" font-size="20.00">F</text>
</g>
<!-- E&#45;&gt;F -->
<g id="edge3" class="edge">
<title>E&#45;&gt;F</title>
<path fill="none" stroke="#8f8a83" stroke-width="2" d="M607.2,-488C627.53,-488 649.1,-488 668.94,-488"/>
<polygon fill="#8f8a83" stroke="#8f8a83" stroke-width="2" points="607.01,-484.5 597.01,-488 607.01,-491.5 607.01,-484.5"/>
</g>
<!-- master -->
<g id="node10" class="node">
<title>master</title>
<polygon fill="#2c942c" stroke="black" stroke-width="0" points="820,-608 669,-608 669,-552 820,-552 820,-608"/>
<text text-anchor="middle" x="744.5" y="-575" font-family="Menlo, Monaco, Consolas, Lucida Console, Courier New, monospace" font-size="20.00" fill="#ffffff">master</text>
</g>
<!-- F&#45;&gt;master -->
<g id="edge9" class="edge">
<title>F&#45;&gt;master</title>
<path fill="none" stroke="#8f8a83" stroke-width="2" d="M744.5,-526.29C744.5,-534.7 744.5,-543.11 744.5,-551.51"/>
<polygon fill="#8f8a83" stroke="#8f8a83" stroke-width="2" points="748,-526.03 744.5,-516.03 741,-526.03 748,-526.03"/>
</g>
<!-- D -->
<g id="node6" class="node">
<title>D</title>
<path fill="#f0efe8" stroke="black" stroke-width="0" d="M808,-424C808,-424 681,-424 681,-424 675,-424 669,-418 669,-412 669,-412 669,-380 669,-380 669,-374 675,-368 681,-368 681,-368 808,-368 808,-368 814,-368 820,-374 820,-380 820,-380 820,-412 820,-412 820,-418 814,-424 808,-424"/>
<text text-anchor="middle" x="744.5" y="-391" font-family="Menlo, Monaco, Consolas, Lucida Console, Courier New, monospace" font-size="20.00">D</text>
</g>
<!-- C&#45;&gt;D -->
<g id="edge5" class="edge">
<title>C&#45;&gt;D</title>
<path fill="none" stroke="#8f8a83" stroke-width="2" d="M607.2,-396C627.53,-396 649.1,-396 668.94,-396"/>
<polygon fill="#8f8a83" stroke="#8f8a83" stroke-width="2" points="607.01,-392.5 597.01,-396 607.01,-399.5 607.01,-392.5"/>
</g>
<!-- G -->
<g id="node13" class="node">
<title>G</title>
<path fill="#f0efe8" fill-opacity="0.392157" stroke="black" stroke-width="0" d="M808,-240C808,-240 681,-240 681,-240 675,-240 669,-234 669,-228 669,-228 669,-196 669,-196 669,-190 675,-184 681,-184 681,-184 808,-184 808,-184 814,-184 820,-190 820,-196 820,-196 820,-228 820,-228 820,-234 814,-240 808,-240"/>
<text text-anchor="middle" x="744.5" y="-207" font-family="Menlo, Monaco, Consolas, Lucida Console, Courier New, monospace" font-size="20.00" fill="#7f7f7f">G</text>
</g>
<!-- C&#45;&gt;G -->
<g id="edge12" class="edge">
<title>C&#45;&gt;G</title>
<path fill="none" stroke="#8f8a83" stroke-width="2" stroke-opacity="0.392157" d="M564.41,-361.1C606.58,-326 670.79,-272.54 709.78,-240.08"/>
<polygon fill="#8f8a83" fill-opacity="0.392157" stroke="#8f8a83" stroke-width="2" stroke-opacity="0.392157" points="561.99,-358.57 556.55,-367.65 566.47,-363.94 561.99,-358.57"/>
</g>
<!-- I -->
<g id="node7" class="node">
<title>I</title>
<path fill="#f0efe8" stroke="black" stroke-width="0" d="M1031,-424C1031,-424 904,-424 904,-424 898,-424 892,-418 892,-412 892,-412 892,-380 892,-380 892,-374 898,-368 904,-368 904,-368 1031,-368 1031,-368 1037,-368 1043,-374 1043,-380 1043,-380 1043,-412 1043,-412 1043,-418 1037,-424 1031,-424"/>
<text text-anchor="middle" x="967.5" y="-391" font-family="Menlo, Monaco, Consolas, Lucida Console, Courier New, monospace" font-size="20.00">I</text>
</g>
<!-- D&#45;&gt;I -->
<g id="edge6" class="edge">
<title>D&#45;&gt;I</title>
<path fill="none" stroke="#8f8a83" stroke-width="2" d="M830.2,-396C850.53,-396 872.1,-396 891.94,-396"/>
<polygon fill="#8f8a83" stroke="#8f8a83" stroke-width="2" points="830.01,-392.5 820.01,-396 830.01,-399.5 830.01,-392.5"/>
</g>
<!-- server -->
<g id="node11" class="node">
<title>server</title>
<polygon fill="#2c942c" stroke="black" stroke-width="0" points="1043,-332 892,-332 892,-276 1043,-276 1043,-332"/>
<text text-anchor="middle" x="967.5" y="-299" font-family="Menlo, Monaco, Consolas, Lucida Console, Courier New, monospace" font-size="20.00" fill="#ffffff">server</text>
</g>
<!-- I&#45;&gt;server -->
<g id="edge10" class="edge">
<title>I&#45;&gt;server</title>
<path fill="none" stroke="#8f8a83" stroke-width="2" d="M967.5,-357.26C967.5,-348.85 967.5,-340.44 967.5,-332.03"/>
<polygon fill="#8f8a83" stroke="#8f8a83" stroke-width="2" points="964,-357.51 967.5,-367.51 971,-357.51 964,-357.51"/>
</g>
<!-- Hr -->
<g id="node9" class="node">
<title>Hr</title>
<path fill="#f0efe8" stroke="black" stroke-width="0" d="M808,-148C808,-148 681,-148 681,-148 675,-148 669,-142 669,-136 669,-136 669,-104 669,-104 669,-98 675,-92 681,-92 681,-92 808,-92 808,-92 814,-92 820,-98 820,-104 820,-104 820,-136 820,-136 820,-142 814,-148 808,-148"/>
<text text-anchor="middle" x="744.5" y="-115" font-family="Menlo, Monaco, Consolas, Lucida Console, Courier New, monospace" font-size="20.00">H&#39;</text>
</g>
<!-- Gr&#45;&gt;Hr -->
<g id="edge8" class="edge">
<title>Gr&#45;&gt;Hr</title>
<path fill="none" stroke="#8f8a83" stroke-width="2" d="M607.2,-120C627.53,-120 649.1,-120 668.94,-120"/>
<polygon fill="#8f8a83" stroke="#8f8a83" stroke-width="2" points="607.01,-116.5 597.01,-120 607.01,-123.5 607.01,-116.5"/>
</g>
<!-- client -->
<g id="node12" class="node">
<title>client</title>
<polygon fill="#2c942c" stroke="black" stroke-width="0" points="820,-56 669,-56 669,0 820,0 820,-56"/>
<text text-anchor="middle" x="744.5" y="-23" font-family="Menlo, Monaco, Consolas, Lucida Console, Courier New, monospace" font-size="20.00" fill="#ffffff">client</text>
</g>
<!-- Hr&#45;&gt;client -->
<g id="edge11" class="edge">
<title>Hr&#45;&gt;client</title>
<path fill="none" stroke="#8f8a83" stroke-width="2" d="M744.5,-81.26C744.5,-72.85 744.5,-64.44 744.5,-56.03"/>
<polygon fill="#8f8a83" stroke="#8f8a83" stroke-width="2" points="741,-81.51 744.5,-91.51 748,-81.51 741,-81.51"/>
</g>
<!-- H -->
<g id="node14" class="node">
<title>H</title>
<path fill="#f0efe8" fill-opacity="0.392157" stroke="black" stroke-width="0" d="M1031,-240C1031,-240 904,-240 904,-240 898,-240 892,-234 892,-228 892,-228 892,-196 892,-196 892,-190 898,-184 904,-184 904,-184 1031,-184 1031,-184 1037,-184 1043,-190 1043,-196 1043,-196 1043,-228 1043,-228 1043,-234 1037,-240 1031,-240"/>
<text text-anchor="middle" x="967.5" y="-207" font-family="Menlo, Monaco, Consolas, Lucida Console, Courier New, monospace" font-size="20.00" fill="#7f7f7f">H</text>
</g>
<!-- G&#45;&gt;H -->
<g id="edge13" class="edge">
<title>G&#45;&gt;H</title>
<path fill="none" stroke="#8f8a83" stroke-width="2" stroke-opacity="0.392157" d="M830.2,-212C850.53,-212 872.1,-212 891.94,-212"/>
<polygon fill="#8f8a83" fill-opacity="0.392157" stroke="#8f8a83" stroke-width="2" stroke-opacity="0.392157" points="830.01,-208.5 820.01,-212 830.01,-215.5 830.01,-208.5"/>
</g>
</g>
</svg>
