<?xml version="1.0" encoding="UTF-8" standalone="no"?>
<!DOCTYPE svg PUBLIC "-//W3C//DTD SVG 1.1//EN"
 "http://www.w3.org/Graphics/SVG/1.1/DTD/svg11.dtd">
<!-- Generated by graphviz version 2.40.1 (20161225.0304)
 -->
<!-- Title: Git Pages: 1 -->
<svg width="1051pt" height="540pt"
 viewBox="0.00 0.00 1051.00 540.00" xmlns="http://www.w3.org/2000/svg" xmlns:xlink="http://www.w3.org/1999/xlink">
<g id="graph0" class="graph" transform="scale(1 1) rotate(0) translate(4 536)">
<title>Git</title>
<g id="clust1" class="cluster">
<title>cluster_master</title>
<polygon fill="transparent" stroke="transparent" points="661,-360 661,-524 828,-524 828,-360 661,-360"/>
</g>
<!-- A -->
<g id="node1" class="node">
<title>A</title>
<path fill="#f0efe8" stroke="#000000" stroke-width="0" d="M139,-424C139,-424 12,-424 12,-424 6,-424 0,-418 0,-412 0,-412 0,-380 0,-380 0,-374 6,-368 12,-368 12,-368 139,-368 139,-368 145,-368 151,-374 151,-380 151,-380 151,-412 151,-412 151,-418 145,-424 139,-424"/>
<text text-anchor="middle" x="75.5" y="-390" font-family="Menlo, Monaco, Consolas, Lucida Console, Courier New, monospace" font-size="20.00" fill="#000000">A</text>
</g>
<!-- B -->
<g id="node2" class="node">
<title>B</title>
<path fill="#f0efe8" stroke="#000000" stroke-width="0" d="M362,-424C362,-424 235,-424 235,-424 229,-424 223,-418 223,-412 223,-412 223,-380 223,-380 223,-374 229,-368 235,-368 235,-368 362,-368 362,-368 368,-368 374,-374 374,-380 374,-380 374,-412 374,-412 374,-418 368,-424 362,-424"/>
<text text-anchor="middle" x="298.5" y="-390" font-family="Menlo, Monaco, Consolas, Lucida Console, Courier New, monospace" font-size="20.00" fill="#000000">B</text>
</g>
<!-- A&#45;&gt;B -->
<g id="edge1" class="edge">
<title>A&#45;&gt;B</title>
<path fill="none" stroke="#8f8a83" stroke-width="2" d="M161.4571,-396C181.7075,-396 203.1458,-396 222.9009,-396"/>
<polygon fill="#8f8a83" stroke="#8f8a83" stroke-width="2" points="161.3088,-392.5001 151.3088,-396 161.3088,-399.5001 161.3088,-392.5001"/>
</g>
<!-- E -->
<g id="node3" class="node">
<title>E</title>
<path fill="#f0efe8" stroke="#000000" stroke-width="0" d="M585,-424C585,-424 458,-424 458,-424 452,-424 446,-418 446,-412 446,-412 446,-380 446,-380 446,-374 452,-368 458,-368 458,-368 585,-368 585,-368 591,-368 597,-374 597,-380 597,-380 597,-412 597,-412 597,-418 591,-424 585,-424"/>
<text text-anchor="middle" x="521.5" y="-390" font-family="Menlo, Monaco, Consolas, Lucida Console, Courier New, monospace" font-size="20.00" fill="#000000">E</text>
</g>
<!-- B&#45;&gt;E -->
<g id="edge2" class="edge">
<title>B&#45;&gt;E</title>
<path fill="none" stroke="#8f8a83" stroke-width="2" d="M384.4571,-396C404.7075,-396 426.1458,-396 445.9009,-396"/>
<polygon fill="#8f8a83" stroke="#8f8a83" stroke-width="2" points="384.3088,-392.5001 374.3088,-396 384.3088,-399.5001 384.3088,-392.5001"/>
</g>
<!-- C -->
<g id="node5" class="node">
<title>C</title>
<path fill="#f0efe8" stroke="#000000" stroke-width="0" d="M585,-332C585,-332 458,-332 458,-332 452,-332 446,-326 446,-320 446,-320 446,-288 446,-288 446,-282 452,-276 458,-276 458,-276 585,-276 585,-276 591,-276 597,-282 597,-288 597,-288 597,-320 597,-320 597,-326 591,-332 585,-332"/>
<text text-anchor="middle" x="521.5" y="-298" font-family="Menlo, Monaco, Consolas, Lucida Console, Courier New, monospace" font-size="20.00" fill="#000000">C</text>
</g>
<!-- B&#45;&gt;C -->
<g id="edge4" class="edge">
<title>B&#45;&gt;C</title>
<path fill="none" stroke="#8f8a83" stroke-width="2" d="M376.1267,-363.9746C401.2908,-353.593 428.9982,-342.1622 453.4141,-332.0892"/>
<polygon fill="#8f8a83" stroke="#8f8a83" stroke-width="2" points="374.5284,-360.8478 366.6191,-367.8971 377.1981,-367.3187 374.5284,-360.8478"/>
</g>
<!-- F -->
<g id="node4" class="node">
<title>F</title>
<path fill="#f0efe8" stroke="#000000" stroke-width="0" d="M808,-424C808,-424 681,-424 681,-424 675,-424 669,-418 669,-412 669,-412 669,-380 669,-380 669,-374 675,-368 681,-368 681,-368 808,-368 808,-368 814,-368 820,-374 820,-380 820,-380 820,-412 820,-412 820,-418 814,-424 808,-424"/>
<text text-anchor="middle" x="744.5" y="-390" font-family="Menlo, Monaco, Consolas, Lucida Console, Courier New, monospace" font-size="20.00" fill="#000000">F</text>
</g>
<!-- E&#45;&gt;F -->
<g id="edge3" class="edge">
<title>E&#45;&gt;F</title>
<path fill="none" stroke="#8f8a83" stroke-width="2" d="M607.4571,-396C627.7075,-396 649.1458,-396 668.9009,-396"/>
<polygon fill="#8f8a83" stroke="#8f8a83" stroke-width="2" points="607.3088,-392.5001 597.3088,-396 607.3088,-399.5001 607.3088,-392.5001"/>
</g>
<!-- master -->
<g id="node10" class="node">
<title>master</title>
<polygon fill="#e93a1d" stroke="#000000" stroke-width="0" points="820,-516 669,-516 669,-460 820,-460 820,-516"/>
<text text-anchor="middle" x="744.5" y="-482" font-family="Menlo, Monaco, Consolas, Lucida Console, Courier New, monospace" font-size="20.00" fill="#ffffff">master</text>
</g>
<!-- F&#45;&gt;master -->
<g id="edge9" class="edge">
<title>F&#45;&gt;master</title>
<path fill="none" stroke="#8f8a83" stroke-width="2" d="M744.5,-434.288C744.5,-442.6966 744.5,-451.1053 744.5,-459.5139"/>
<polygon fill="#8f8a83" stroke="#8f8a83" stroke-width="2" points="748.0001,-434.0312 744.5,-424.0313 741.0001,-434.0313 748.0001,-434.0312"/>
</g>
<!-- D -->
<g id="node6" class="node">
<title>D</title>
<path fill="#f0efe8" stroke="#000000" stroke-width="0" d="M808,-332C808,-332 681,-332 681,-332 675,-332 669,-326 669,-320 669,-320 669,-288 669,-288 669,-282 675,-276 681,-276 681,-276 808,-276 808,-276 814,-276 820,-282 820,-288 820,-288 820,-320 820,-320 820,-326 814,-332 808,-332"/>
<text text-anchor="middle" x="744.5" y="-298" font-family="Menlo, Monaco, Consolas, Lucida Console, Courier New, monospace" font-size="20.00" fill="#000000">D</text>
</g>
<!-- C&#45;&gt;D -->
<g id="edge5" class="edge">
<title>C&#45;&gt;D</title>
<path fill="none" stroke="#8f8a83" stroke-width="2" d="M607.4571,-304C627.7075,-304 649.1458,-304 668.9009,-304"/>
<polygon fill="#8f8a83" stroke="#8f8a83" stroke-width="2" points="607.3088,-300.5001 597.3088,-304 607.3088,-307.5001 607.3088,-300.5001"/>
</g>
<!-- G -->
<g id="node8" class="node">
<title>G</title>
<path fill="#f0efe8" stroke="#000000" stroke-width="0" d="M808,-148C808,-148 681,-148 681,-148 675,-148 669,-142 669,-136 669,-136 669,-104 669,-104 669,-98 675,-92 681,-92 681,-92 808,-92 808,-92 814,-92 820,-98 820,-104 820,-104 820,-136 820,-136 820,-142 814,-148 808,-148"/>
<text text-anchor="middle" x="744.5" y="-114" font-family="Menlo, Monaco, Consolas, Lucida Console, Courier New, monospace" font-size="20.00" fill="#000000">G</text>
</g>
<!-- C&#45;&gt;G -->
<g id="edge7" class="edge">
<title>C&#45;&gt;G</title>
<path fill="none" stroke="#8f8a83" stroke-width="2" d="M563.7917,-269.1046C606.3399,-233.9976 671.1289,-180.5394 710.4719,-148.077"/>
<polygon fill="#8f8a83" stroke="#8f8a83" stroke-width="2" points="561.3408,-266.5892 555.855,-275.6532 565.7959,-271.9885 561.3408,-266.5892"/>
</g>
<!-- I -->
<g id="node7" class="node">
<title>I</title>
<path fill="#f0efe8" stroke="#000000" stroke-width="0" d="M1031,-332C1031,-332 904,-332 904,-332 898,-332 892,-326 892,-320 892,-320 892,-288 892,-288 892,-282 898,-276 904,-276 904,-276 1031,-276 1031,-276 1037,-276 1043,-282 1043,-288 1043,-288 1043,-320 1043,-320 1043,-326 1037,-332 1031,-332"/>
<text text-anchor="middle" x="967.5" y="-298" font-family="Menlo, Monaco, Consolas, Lucida Console, Courier New, monospace" font-size="20.00" fill="#000000">I</text>
</g>
<!-- D&#45;&gt;I -->
<g id="edge6" class="edge">
<title>D&#45;&gt;I</title>
<path fill="none" stroke="#8f8a83" stroke-width="2" d="M830.4571,-304C850.7075,-304 872.1458,-304 891.9009,-304"/>
<polygon fill="#8f8a83" stroke="#8f8a83" stroke-width="2" points="830.3088,-300.5001 820.3088,-304 830.3088,-307.5001 830.3088,-300.5001"/>
</g>
<!-- server -->
<g id="node11" class="node">
<title>server</title>
<polygon fill="#e93a1d" stroke="#000000" stroke-width="0" points="1043,-240 892,-240 892,-184 1043,-184 1043,-240"/>
<text text-anchor="middle" x="967.5" y="-206" font-family="Menlo, Monaco, Consolas, Lucida Console, Courier New, monospace" font-size="20.00" fill="#ffffff">server</text>
</g>
<!-- I&#45;&gt;server -->
<g id="edge10" class="edge">
<title>I&#45;&gt;server</title>
<path fill="none" stroke="#8f8a83" stroke-width="2" d="M967.5,-265.2572C967.5,-256.8486 967.5,-248.4399 967.5,-240.0313"/>
<polygon fill="#8f8a83" stroke="#8f8a83" stroke-width="2" points="964.0001,-265.5139 967.5,-275.5139 971.0001,-265.514 964.0001,-265.5139"/>
</g>
<!-- H -->
<g id="node9" class="node">
<title>H</title>
<path fill="#f0efe8" stroke="#000000" stroke-width="0" d="M1031,-148C1031,-148 904,-148 904,-148 898,-148 892,-142 892,-136 892,-136 892,-104 892,-104 892,-98 898,-92 904,-92 904,-92 1031,-92 1031,-92 1037,-92 1043,-98 1043,-104 1043,-104 1043,-136 1043,-136 1043,-142 1037,-148 1031,-148"/>
<text text-anchor="middle" x="967.5" y="-114" font-family="Menlo, Monaco, Consolas, Lucida Console, Courier New, monospace" font-size="20.00" fill="#000000">H</text>
</g>
<!-- G&#45;&gt;H -->
<g id="edge8" class="edge">
<title>G&#45;&gt;H</title>
<path fill="none" stroke="#8f8a83" stroke-width="2" d="M830.4571,-120C850.7075,-120 872.1458,-120 891.9009,-120"/>
<polygon fill="#8f8a83" stroke="#8f8a83" stroke-width="2" points="830.3088,-116.5001 820.3088,-120 830.3088,-123.5001 830.3088,-116.5001"/>
</g>
<!-- client -->
<g id="node12" class="node">
<title>client</title>
<polygon fill="#e93a1d" stroke="#000000" stroke-width="0" points="1043,-56 892,-56 892,0 1043,0 1043,-56"/>
<text text-anchor="middle" x="967.5" y="-22" font-family="Menlo, Monaco, Consolas, Lucida Console, Courier New, monospace" font-size="20.00" fill="#ffffff">client</text>
</g>
<!-- H&#45;&gt;client -->
<g id="edge11" class="edge">
<title>H&#45;&gt;client</title>
<path fill="none" stroke="#8f8a83" stroke-width="2" d="M967.5,-81.2572C967.5,-72.8486 967.5,-64.4399 967.5,-56.0313"/>
<polygon fill="#8f8a83" stroke="#8f8a83" stroke-width="2" points="964.0001,-81.5139 967.5,-91.5139 971.0001,-81.514 964.0001,-81.5139"/>
</g>
</g>
</svg>
