<?xml version="1.0" encoding="UTF-8" standalone="no"?>
<!DOCTYPE svg PUBLIC "-//W3C//DTD SVG 1.1//EN"
 "http://www.w3.org/Graphics/SVG/1.1/DTD/svg11.dtd">
<!-- Generated by graphviz version 2.40.1 (20161225.0304)
 -->
<!-- Title: Git Pages: 1 -->
<svg width="1051pt" height="461pt"
 viewBox="0.00 0.00 1051.00 461.00" xmlns="http://www.w3.org/2000/svg" xmlns:xlink="http://www.w3.org/1999/xlink">
<g id="graph0" class="graph" transform="scale(1 1) rotate(0) translate(4 457)">
<title>Git</title>
<g id="clust1" class="cluster">
<title>cluster_master</title>
<polygon fill="transparent" stroke="transparent" points="661,-181 661,-445 828,-445 828,-181 661,-181"/>
</g>
<!-- Dr -->
<g id="node1" class="node">
<title>Dr</title>
<path fill="#f0efe8" stroke="#000000" stroke-width="0" d="M808,-253.3751C808,-253.3751 681,-253.3751 681,-253.3751 675,-253.3751 669,-247.3751 669,-241.3751 669,-241.3751 669,-200.6249 669,-200.6249 669,-194.6249 675,-188.6249 681,-188.6249 681,-188.6249 808,-188.6249 808,-188.6249 814,-188.6249 820,-194.6249 820,-200.6249 820,-200.6249 820,-241.3751 820,-241.3751 820,-247.3751 814,-253.3751 808,-253.3751"/>
<text text-anchor="middle" x="744.5" y="-219.4375" font-family="Menlo, Monaco, Consolas, Lucida Console, Courier New, monospace" font-size="20.00" fill="#000000">🍒 D&#39;</text>
</g>
<!-- master -->
<g id="node9" class="node">
<title>master</title>
<polygon fill="#e93a1d" stroke="#000000" stroke-width="0" points="820,-345 669,-345 669,-289 820,-289 820,-345"/>
<text text-anchor="middle" x="744.5" y="-311" font-family="Menlo, Monaco, Consolas, Lucida Console, Courier New, monospace" font-size="20.00" fill="#ffffff">master</text>
</g>
<!-- Dr&#45;&gt;master -->
<g id="edge7" class="edge">
<title>Dr&#45;&gt;master</title>
<path fill="none" stroke="#8f8a83" stroke-width="2" d="M744.5,-263.7865C744.5,-272.1171 744.5,-280.4477 744.5,-288.7783"/>
<polygon fill="#8f8a83" stroke="#8f8a83" stroke-width="2" points="748.0001,-263.625 744.5,-253.625 741.0001,-263.625 748.0001,-263.625"/>
</g>
<!-- A -->
<g id="node2" class="node">
<title>A</title>
<path fill="#f0efe8" stroke="#000000" stroke-width="0" d="M139,-249C139,-249 12,-249 12,-249 6,-249 0,-243 0,-237 0,-237 0,-205 0,-205 0,-199 6,-193 12,-193 12,-193 139,-193 139,-193 145,-193 151,-199 151,-205 151,-205 151,-237 151,-237 151,-243 145,-249 139,-249"/>
<text text-anchor="middle" x="75.5" y="-215" font-family="Menlo, Monaco, Consolas, Lucida Console, Courier New, monospace" font-size="20.00" fill="#000000">A</text>
</g>
<!-- B -->
<g id="node3" class="node">
<title>B</title>
<path fill="#f0efe8" stroke="#000000" stroke-width="0" d="M362,-249C362,-249 235,-249 235,-249 229,-249 223,-243 223,-237 223,-237 223,-205 223,-205 223,-199 229,-193 235,-193 235,-193 362,-193 362,-193 368,-193 374,-199 374,-205 374,-205 374,-237 374,-237 374,-243 368,-249 362,-249"/>
<text text-anchor="middle" x="298.5" y="-215" font-family="Menlo, Monaco, Consolas, Lucida Console, Courier New, monospace" font-size="20.00" fill="#000000">B</text>
</g>
<!-- A&#45;&gt;B -->
<g id="edge1" class="edge">
<title>A&#45;&gt;B</title>
<path fill="none" stroke="#8f8a83" stroke-width="2" d="M161.4571,-221C181.7075,-221 203.1458,-221 222.9009,-221"/>
<polygon fill="#8f8a83" stroke="#8f8a83" stroke-width="2" points="161.3088,-217.5001 151.3088,-221 161.3088,-224.5001 161.3088,-217.5001"/>
</g>
<!-- F -->
<g id="node4" class="node">
<title>F</title>
<path fill="#f0efe8" stroke="#000000" stroke-width="0" d="M585,-249C585,-249 458,-249 458,-249 452,-249 446,-243 446,-237 446,-237 446,-205 446,-205 446,-199 452,-193 458,-193 458,-193 585,-193 585,-193 591,-193 597,-199 597,-205 597,-205 597,-237 597,-237 597,-243 591,-249 585,-249"/>
<text text-anchor="middle" x="521.5" y="-215" font-family="Menlo, Monaco, Consolas, Lucida Console, Courier New, monospace" font-size="20.00" fill="#000000">F</text>
</g>
<!-- B&#45;&gt;F -->
<g id="edge2" class="edge">
<title>B&#45;&gt;F</title>
<path fill="none" stroke="#8f8a83" stroke-width="2" d="M384.4571,-221C404.7075,-221 426.1458,-221 445.9009,-221"/>
<polygon fill="#8f8a83" stroke="#8f8a83" stroke-width="2" points="384.3088,-217.5001 374.3088,-221 384.3088,-224.5001 384.3088,-217.5001"/>
</g>
<!-- C -->
<g id="node6" class="node">
<title>C</title>
<path fill="#f0efe8" stroke="#000000" stroke-width="0" d="M585,-148C585,-148 458,-148 458,-148 452,-148 446,-142 446,-136 446,-136 446,-104 446,-104 446,-98 452,-92 458,-92 458,-92 585,-92 585,-92 591,-92 597,-98 597,-104 597,-104 597,-136 597,-136 597,-142 591,-148 585,-148"/>
<text text-anchor="middle" x="521.5" y="-114" font-family="Menlo, Monaco, Consolas, Lucida Console, Courier New, monospace" font-size="20.00" fill="#000000">C</text>
</g>
<!-- B&#45;&gt;C -->
<g id="edge4" class="edge">
<title>B&#45;&gt;C</title>
<path fill="none" stroke="#8f8a83" stroke-width="2" d="M369.5565,-188.8175C398.4909,-175.7126 431.6285,-160.7041 459.5579,-148.0545"/>
<polygon fill="#8f8a83" stroke="#8f8a83" stroke-width="2" points="367.987,-185.686 360.3218,-193 370.8751,-192.0625 367.987,-185.686"/>
</g>
<!-- F&#45;&gt;Dr -->
<g id="edge3" class="edge">
<title>F&#45;&gt;Dr</title>
<path fill="none" stroke="#8f8a83" stroke-width="2" d="M607.4571,-221C627.7075,-221 649.1458,-221 668.9009,-221"/>
<polygon fill="#8f8a83" stroke="#8f8a83" stroke-width="2" points="607.3088,-217.5001 597.3088,-221 607.3088,-224.5001 607.3088,-217.5001"/>
</g>
<!-- D -->
<g id="node5" class="node">
<title>D</title>
<path fill="#f0efe8" stroke="#000000" stroke-width="0" d="M808,-152.3751C808,-152.3751 681,-152.3751 681,-152.3751 675,-152.3751 669,-146.3751 669,-140.3751 669,-140.3751 669,-99.6249 669,-99.6249 669,-93.6249 675,-87.6249 681,-87.6249 681,-87.6249 808,-87.6249 808,-87.6249 814,-87.6249 820,-93.6249 820,-99.6249 820,-99.6249 820,-140.3751 820,-140.3751 820,-146.3751 814,-152.3751 808,-152.3751"/>
<text text-anchor="middle" x="744.5" y="-118.4375" font-family="Menlo, Monaco, Consolas, Lucida Console, Courier New, monospace" font-size="20.00" fill="#000000">🍒 D</text>
</g>
<!-- E -->
<g id="node7" class="node">
<title>E</title>
<path fill="#f0efe8" stroke="#000000" stroke-width="0" d="M1031,-148C1031,-148 904,-148 904,-148 898,-148 892,-142 892,-136 892,-136 892,-104 892,-104 892,-98 898,-92 904,-92 904,-92 1031,-92 1031,-92 1037,-92 1043,-98 1043,-104 1043,-104 1043,-136 1043,-136 1043,-142 1037,-148 1031,-148"/>
<text text-anchor="middle" x="967.5" y="-114" font-family="Menlo, Monaco, Consolas, Lucida Console, Courier New, monospace" font-size="20.00" fill="#000000">E</text>
</g>
<!-- D&#45;&gt;E -->
<g id="edge6" class="edge">
<title>D&#45;&gt;E</title>
<path fill="none" stroke="#8f8a83" stroke-width="2" d="M830.4571,-120C850.7075,-120 872.1458,-120 891.9009,-120"/>
<polygon fill="#8f8a83" stroke="#8f8a83" stroke-width="2" points="830.3088,-116.5001 820.3088,-120 830.3088,-123.5001 830.3088,-116.5001"/>
</g>
<!-- C&#45;&gt;D -->
<g id="edge5" class="edge">
<title>C&#45;&gt;D</title>
<path fill="none" stroke="#8f8a83" stroke-width="2" d="M607.4571,-120C627.7075,-120 649.1458,-120 668.9009,-120"/>
<polygon fill="#8f8a83" stroke="#8f8a83" stroke-width="2" points="607.3088,-116.5001 597.3088,-120 607.3088,-123.5001 607.3088,-116.5001"/>
</g>
<!-- topic -->
<g id="node10" class="node">
<title>topic</title>
<polygon fill="#e93a1d" stroke="#000000" stroke-width="0" points="1043,-56 892,-56 892,0 1043,0 1043,-56"/>
<text text-anchor="middle" x="967.5" y="-22" font-family="Menlo, Monaco, Consolas, Lucida Console, Courier New, monospace" font-size="20.00" fill="#ffffff">topic</text>
</g>
<!-- E&#45;&gt;topic -->
<g id="edge9" class="edge">
<title>E&#45;&gt;topic</title>
<path fill="none" stroke="#8f8a83" stroke-width="2" d="M967.5,-81.2572C967.5,-72.8486 967.5,-64.4399 967.5,-56.0313"/>
<polygon fill="#8f8a83" stroke="#8f8a83" stroke-width="2" points="964.0001,-81.5139 967.5,-91.5139 971.0001,-81.514 964.0001,-81.5139"/>
</g>
<!-- HEAD -->
<g id="node8" class="node">
<title>HEAD</title>
<polygon fill="#c8a036" stroke="#000000" stroke-width="0" points="820,-437 669,-437 669,-381 820,-381 820,-437"/>
<text text-anchor="middle" x="744.5" y="-403" font-family="Menlo, Monaco, Consolas, Lucida Console, Courier New, monospace" font-size="20.00" fill="#ffffff">HEAD</text>
</g>
<!-- master&#45;&gt;HEAD -->
<g id="edge8" class="edge">
<title>master&#45;&gt;HEAD</title>
<path fill="none" stroke="#8f8a83" stroke-width="2" d="M744.5,-355.288C744.5,-363.6966 744.5,-372.1053 744.5,-380.5139"/>
<polygon fill="#8f8a83" stroke="#8f8a83" stroke-width="2" points="748.0001,-355.0312 744.5,-345.0313 741.0001,-355.0313 748.0001,-355.0312"/>
</g>
</g>
</svg>
