<?xml version="1.0" encoding="UTF-8" standalone="no"?>
<!DOCTYPE svg PUBLIC "-//W3C//DTD SVG 1.1//EN"
 "http://www.w3.org/Graphics/SVG/1.1/DTD/svg11.dtd">
<!-- Generated by graphviz version 2.43.0 (0)
 -->
<!-- Title: Git Pages: 1 -->
<svg width="1051pt" height="461pt"
 viewBox="0.00 0.00 1051.00 461.00" xmlns="http://www.w3.org/2000/svg" xmlns:xlink="http://www.w3.org/1999/xlink">
<g id="graph0" class="graph" transform="scale(1 1) rotate(0) translate(4 457)">
<title>Git</title>
<g id="clust1" class="cluster">
<title>cluster_master</title>
<polygon fill="transparent" stroke="transparent" points="661,-181 661,-445 828,-445 828,-181 661,-181"/>
</g>
<!-- Dr -->
<g id="node1" class="node">
<title>Dr</title>
<path fill="#f0efe8" stroke="black" stroke-width="0" d="M808,-253.38C808,-253.38 681,-253.38 681,-253.38 675,-253.38 669,-247.38 669,-241.38 669,-241.38 669,-200.62 669,-200.62 669,-194.62 675,-188.62 681,-188.62 681,-188.62 808,-188.62 808,-188.62 814,-188.62 820,-194.62 820,-200.62 820,-200.62 820,-241.38 820,-241.38 820,-247.38 814,-253.38 808,-253.38"/>
<text text-anchor="middle" x="744.5" y="-219.44" font-family="Menlo, Monaco, Consolas, Lucida Console, Courier New, monospace" font-size="20.00">🍒 D&#39;</text>
</g>
<!-- master -->
<g id="node9" class="node">
<title>master</title>
<polygon fill="#e93a1d" stroke="black" stroke-width="0" points="820,-345 669,-345 669,-289 820,-289 820,-345"/>
<text text-anchor="middle" x="744.5" y="-311" font-family="Menlo, Monaco, Consolas, Lucida Console, Courier New, monospace" font-size="20.00" fill="#ffffff">master</text>
</g>
<!-- Dr&#45;&gt;master -->
<g id="edge7" class="edge">
<title>Dr&#45;&gt;master</title>
<path fill="none" stroke="#8f8a83" stroke-width="2" d="M744.5,-263.79C744.5,-272.12 744.5,-280.45 744.5,-288.78"/>
<polygon fill="#8f8a83" stroke="#8f8a83" stroke-width="2" points="748,-263.62 744.5,-253.62 741,-263.63 748,-263.62"/>
</g>
<!-- A -->
<g id="node2" class="node">
<title>A</title>
<path fill="#f0efe8" stroke="black" stroke-width="0" d="M139,-249C139,-249 12,-249 12,-249 6,-249 0,-243 0,-237 0,-237 0,-205 0,-205 0,-199 6,-193 12,-193 12,-193 139,-193 139,-193 145,-193 151,-199 151,-205 151,-205 151,-237 151,-237 151,-243 145,-249 139,-249"/>
<text text-anchor="middle" x="75.5" y="-215" font-family="Menlo, Monaco, Consolas, Lucida Console, Courier New, monospace" font-size="20.00">A</text>
</g>
<!-- B -->
<g id="node3" class="node">
<title>B</title>
<path fill="#f0efe8" stroke="black" stroke-width="0" d="M362,-249C362,-249 235,-249 235,-249 229,-249 223,-243 223,-237 223,-237 223,-205 223,-205 223,-199 229,-193 235,-193 235,-193 362,-193 362,-193 368,-193 374,-199 374,-205 374,-205 374,-237 374,-237 374,-243 368,-249 362,-249"/>
<text text-anchor="middle" x="298.5" y="-215" font-family="Menlo, Monaco, Consolas, Lucida Console, Courier New, monospace" font-size="20.00">B</text>
</g>
<!-- A&#45;&gt;B -->
<g id="edge1" class="edge">
<title>A&#45;&gt;B</title>
<path fill="none" stroke="#8f8a83" stroke-width="2" d="M161.2,-221C181.53,-221 203.1,-221 222.94,-221"/>
<polygon fill="#8f8a83" stroke="#8f8a83" stroke-width="2" points="161.01,-217.5 151.01,-221 161.01,-224.5 161.01,-217.5"/>
</g>
<!-- F -->
<g id="node4" class="node">
<title>F</title>
<path fill="#f0efe8" stroke="black" stroke-width="0" d="M585,-249C585,-249 458,-249 458,-249 452,-249 446,-243 446,-237 446,-237 446,-205 446,-205 446,-199 452,-193 458,-193 458,-193 585,-193 585,-193 591,-193 597,-199 597,-205 597,-205 597,-237 597,-237 597,-243 591,-249 585,-249"/>
<text text-anchor="middle" x="521.5" y="-215" font-family="Menlo, Monaco, Consolas, Lucida Console, Courier New, monospace" font-size="20.00">F</text>
</g>
<!-- B&#45;&gt;F -->
<g id="edge2" class="edge">
<title>B&#45;&gt;F</title>
<path fill="none" stroke="#8f8a83" stroke-width="2" d="M384.2,-221C404.53,-221 426.1,-221 445.94,-221"/>
<polygon fill="#8f8a83" stroke="#8f8a83" stroke-width="2" points="384.01,-217.5 374.01,-221 384.01,-224.5 384.01,-217.5"/>
</g>
<!-- C -->
<g id="node6" class="node">
<title>C</title>
<path fill="#f0efe8" stroke="black" stroke-width="0" d="M585,-148C585,-148 458,-148 458,-148 452,-148 446,-142 446,-136 446,-136 446,-104 446,-104 446,-98 452,-92 458,-92 458,-92 585,-92 585,-92 591,-92 597,-98 597,-104 597,-104 597,-136 597,-136 597,-142 591,-148 585,-148"/>
<text text-anchor="middle" x="521.5" y="-114" font-family="Menlo, Monaco, Consolas, Lucida Console, Courier New, monospace" font-size="20.00">C</text>
</g>
<!-- B&#45;&gt;C -->
<g id="edge4" class="edge">
<title>B&#45;&gt;C</title>
<path fill="none" stroke="#8f8a83" stroke-width="2" d="M369.92,-188.82C398.59,-175.71 431.43,-160.7 459.11,-148.05"/>
<polygon fill="#8f8a83" stroke="#8f8a83" stroke-width="2" points="368.41,-185.66 360.77,-193 371.32,-192.03 368.41,-185.66"/>
</g>
<!-- F&#45;&gt;Dr -->
<g id="edge3" class="edge">
<title>F&#45;&gt;Dr</title>
<path fill="none" stroke="#8f8a83" stroke-width="2" d="M607.2,-221C627.53,-221 649.1,-221 668.94,-221"/>
<polygon fill="#8f8a83" stroke="#8f8a83" stroke-width="2" points="607.01,-217.5 597.01,-221 607.01,-224.5 607.01,-217.5"/>
</g>
<!-- D -->
<g id="node5" class="node">
<title>D</title>
<path fill="#f0efe8" stroke="black" stroke-width="0" d="M808,-152.38C808,-152.38 681,-152.38 681,-152.38 675,-152.38 669,-146.38 669,-140.38 669,-140.38 669,-99.62 669,-99.62 669,-93.62 675,-87.62 681,-87.62 681,-87.62 808,-87.62 808,-87.62 814,-87.62 820,-93.62 820,-99.62 820,-99.62 820,-140.38 820,-140.38 820,-146.38 814,-152.38 808,-152.38"/>
<text text-anchor="middle" x="744.5" y="-118.44" font-family="Menlo, Monaco, Consolas, Lucida Console, Courier New, monospace" font-size="20.00">🍒 D</text>
</g>
<!-- E -->
<g id="node7" class="node">
<title>E</title>
<path fill="#f0efe8" stroke="black" stroke-width="0" d="M1031,-148C1031,-148 904,-148 904,-148 898,-148 892,-142 892,-136 892,-136 892,-104 892,-104 892,-98 898,-92 904,-92 904,-92 1031,-92 1031,-92 1037,-92 1043,-98 1043,-104 1043,-104 1043,-136 1043,-136 1043,-142 1037,-148 1031,-148"/>
<text text-anchor="middle" x="967.5" y="-114" font-family="Menlo, Monaco, Consolas, Lucida Console, Courier New, monospace" font-size="20.00">E</text>
</g>
<!-- D&#45;&gt;E -->
<g id="edge6" class="edge">
<title>D&#45;&gt;E</title>
<path fill="none" stroke="#8f8a83" stroke-width="2" d="M830.2,-120C850.53,-120 872.1,-120 891.94,-120"/>
<polygon fill="#8f8a83" stroke="#8f8a83" stroke-width="2" points="830.01,-116.5 820.01,-120 830.01,-123.5 830.01,-116.5"/>
</g>
<!-- C&#45;&gt;D -->
<g id="edge5" class="edge">
<title>C&#45;&gt;D</title>
<path fill="none" stroke="#8f8a83" stroke-width="2" d="M607.2,-120C627.53,-120 649.1,-120 668.94,-120"/>
<polygon fill="#8f8a83" stroke="#8f8a83" stroke-width="2" points="607.01,-116.5 597.01,-120 607.01,-123.5 607.01,-116.5"/>
</g>
<!-- topic -->
<g id="node10" class="node">
<title>topic</title>
<polygon fill="#e93a1d" stroke="black" stroke-width="0" points="1043,-56 892,-56 892,0 1043,0 1043,-56"/>
<text text-anchor="middle" x="967.5" y="-22" font-family="Menlo, Monaco, Consolas, Lucida Console, Courier New, monospace" font-size="20.00" fill="#ffffff">topic</text>
</g>
<!-- E&#45;&gt;topic -->
<g id="edge9" class="edge">
<title>E&#45;&gt;topic</title>
<path fill="none" stroke="#8f8a83" stroke-width="2" d="M967.5,-81.26C967.5,-72.85 967.5,-64.44 967.5,-56.03"/>
<polygon fill="#8f8a83" stroke="#8f8a83" stroke-width="2" points="964,-81.51 967.5,-91.51 971,-81.51 964,-81.51"/>
</g>
<!-- HEAD -->
<g id="node8" class="node">
<title>HEAD</title>
<polygon fill="#c8a036" stroke="black" stroke-width="0" points="820,-437 669,-437 669,-381 820,-381 820,-437"/>
<text text-anchor="middle" x="744.5" y="-403" font-family="Menlo, Monaco, Consolas, Lucida Console, Courier New, monospace" font-size="20.00" fill="#ffffff">HEAD</text>
</g>
<!-- master&#45;&gt;HEAD -->
<g id="edge8" class="edge">
<title>master&#45;&gt;HEAD</title>
<path fill="none" stroke="#8f8a83" stroke-width="2" d="M744.5,-355.29C744.5,-363.7 744.5,-372.11 744.5,-380.51"/>
<polygon fill="#8f8a83" stroke="#8f8a83" stroke-width="2" points="748,-355.03 744.5,-345.03 741,-355.03 748,-355.03"/>
</g>
</g>
</svg>
