<?xml version="1.0" encoding="UTF-8" standalone="no"?>
<!DOCTYPE svg PUBLIC "-//W3C//DTD SVG 1.1//EN"
 "http://www.w3.org/Graphics/SVG/1.1/DTD/svg11.dtd">
<!-- Generated by graphviz version 2.47.2 (20210527.0053)
 -->
<!-- Title: Git Pages: 1 -->
<svg width="1067pt" height="511pt"
 viewBox="0.00 0.00 1067.00 511.00" xmlns="http://www.w3.org/2000/svg" xmlns:xlink="http://www.w3.org/1999/xlink">
<g id="graph0" class="graph" transform="scale(1 1) rotate(0) translate(4 507)">
<title>Git</title>
<g id="clust1" class="cluster">
<title>cluster_master</title>
</g>
<!-- A -->
<g id="node1" class="node">
<title>A</title>
<path fill="#f0efe8" stroke="black" stroke-width="0" d="M139,-303C139,-303 12,-303 12,-303 6,-303 0,-297 0,-291 0,-291 0,-259 0,-259 0,-253 6,-247 12,-247 12,-247 139,-247 139,-247 145,-247 151,-253 151,-259 151,-259 151,-291 151,-291 151,-297 145,-303 139,-303"/>
<text text-anchor="middle" x="75.5" y="-270" font-family="Menlo, Monaco, Consolas, Lucida Console, Courier New, monospace" font-size="20.00">A</text>
</g>
<!-- B -->
<g id="node2" class="node">
<title>B</title>
<path fill="#f0efe8" stroke="black" stroke-width="0" d="M362,-303C362,-303 235,-303 235,-303 229,-303 223,-297 223,-291 223,-291 223,-259 223,-259 223,-253 229,-247 235,-247 235,-247 362,-247 362,-247 368,-247 374,-253 374,-259 374,-259 374,-291 374,-291 374,-297 368,-303 362,-303"/>
<text text-anchor="middle" x="298.5" y="-270" font-family="Menlo, Monaco, Consolas, Lucida Console, Courier New, monospace" font-size="20.00">B</text>
</g>
<!-- A&#45;&gt;B -->
<g id="edge1" class="edge">
<title>A&#45;&gt;B</title>
<path fill="none" stroke="#8f8a83" stroke-width="2" d="M161.2,-275C181.53,-275 203.1,-275 222.94,-275"/>
<polygon fill="#8f8a83" stroke="#8f8a83" stroke-width="2" points="161.01,-271.5 151.01,-275 161.01,-278.5 161.01,-271.5"/>
</g>
<!-- E -->
<g id="node3" class="node">
<title>E</title>
<path fill="#f0efe8" stroke="black" stroke-width="0" d="M585,-303C585,-303 458,-303 458,-303 452,-303 446,-297 446,-291 446,-291 446,-259 446,-259 446,-253 452,-247 458,-247 458,-247 585,-247 585,-247 591,-247 597,-253 597,-259 597,-259 597,-291 597,-291 597,-297 591,-303 585,-303"/>
<text text-anchor="middle" x="521.5" y="-270" font-family="Menlo, Monaco, Consolas, Lucida Console, Courier New, monospace" font-size="20.00">E</text>
</g>
<!-- B&#45;&gt;E -->
<g id="edge2" class="edge">
<title>B&#45;&gt;E</title>
<path fill="none" stroke="#8f8a83" stroke-width="2" d="M384.2,-275C404.53,-275 426.1,-275 445.94,-275"/>
<polygon fill="#8f8a83" stroke="#8f8a83" stroke-width="2" points="384.01,-271.5 374.01,-275 384.01,-278.5 384.01,-271.5"/>
</g>
<!-- C -->
<g id="node6" class="node">
<title>C</title>
<path fill="#f0efe8" stroke="black" stroke-width="0" d="M585,-148C585,-148 458,-148 458,-148 452,-148 446,-142 446,-136 446,-136 446,-104 446,-104 446,-98 452,-92 458,-92 458,-92 585,-92 585,-92 591,-92 597,-98 597,-104 597,-104 597,-136 597,-136 597,-142 591,-148 585,-148"/>
<text text-anchor="middle" x="521.5" y="-115" font-family="Menlo, Monaco, Consolas, Lucida Console, Courier New, monospace" font-size="20.00">C</text>
</g>
<!-- B&#45;&gt;C -->
<g id="edge6" class="edge">
<title>B&#45;&gt;C</title>
<path fill="none" stroke="#8f8a83" stroke-width="2" d="M347.74,-241.16C387.46,-213.31 443.1,-174.28 480.4,-148.12"/>
<polygon fill="#8f8a83" stroke="#8f8a83" stroke-width="2" points="345.7,-238.32 339.52,-246.93 349.72,-244.05 345.7,-238.32"/>
</g>
<!-- F -->
<g id="node4" class="node">
<title>F</title>
<path fill="#f0efe8" stroke="black" stroke-width="0" d="M1031,-303C1031,-303 904,-303 904,-303 898,-303 892,-297 892,-291 892,-291 892,-259 892,-259 892,-253 898,-247 904,-247 904,-247 1031,-247 1031,-247 1037,-247 1043,-253 1043,-259 1043,-259 1043,-291 1043,-291 1043,-297 1037,-303 1031,-303"/>
<text text-anchor="middle" x="967.5" y="-270" font-family="Menlo, Monaco, Consolas, Lucida Console, Courier New, monospace" font-size="20.00">F</text>
</g>
<!-- E&#45;&gt;F -->
<g id="edge3" class="edge">
<title>E&#45;&gt;F</title>
<path fill="none" stroke="#8f8a83" stroke-width="2" d="M607.25,-275C689.66,-275 813,-275 891.84,-275"/>
<polygon fill="#8f8a83" stroke="#8f8a83" stroke-width="2" points="607.16,-271.5 597.16,-275 607.16,-278.5 607.16,-271.5"/>
</g>
<!-- X -->
<g id="node5" class="node">
<title>X</title>
<path fill="transparent" stroke="black" stroke-width="0" d="M808,-220C808,-220 681,-220 681,-220 675,-220 669,-214 669,-208 669,-208 669,-196 669,-196 669,-190 675,-184 681,-184 681,-184 808,-184 808,-184 814,-184 820,-190 820,-196 820,-196 820,-208 820,-208 820,-214 814,-220 808,-220"/>
</g>
<!-- E&#45;&gt;X -->
<!-- master -->
<g id="node9" class="node">
<title>master</title>
<polygon fill="#e93a1d" stroke="black" stroke-width="0" points="1043,-395 892,-395 892,-339 1043,-339 1043,-395"/>
<text text-anchor="middle" x="967.5" y="-362" font-family="Menlo, Monaco, Consolas, Lucida Console, Courier New, monospace" font-size="20.00" fill="#ffffff">master</text>
</g>
<!-- F&#45;&gt;master -->
<g id="edge9" class="edge">
<title>F&#45;&gt;master</title>
<path fill="none" stroke="#8f8a83" stroke-width="2" d="M967.5,-313.29C967.5,-321.7 967.5,-330.11 967.5,-338.51"/>
<polygon fill="#8f8a83" stroke="#8f8a83" stroke-width="2" points="971,-313.03 967.5,-303.03 964,-313.03 971,-313.03"/>
</g>
<!-- X&#45;&gt;F -->
<!-- D -->
<g id="node7" class="node">
<title>D</title>
<path fill="#f0efe8" stroke="black" stroke-width="0" d="M808,-148C808,-148 681,-148 681,-148 675,-148 669,-142 669,-136 669,-136 669,-104 669,-104 669,-98 675,-92 681,-92 681,-92 808,-92 808,-92 814,-92 820,-98 820,-104 820,-104 820,-136 820,-136 820,-142 814,-148 808,-148"/>
<text text-anchor="middle" x="744.5" y="-115" font-family="Menlo, Monaco, Consolas, Lucida Console, Courier New, monospace" font-size="20.00">D</text>
</g>
<!-- C&#45;&gt;D -->
<g id="edge7" class="edge">
<title>C&#45;&gt;D</title>
<path fill="none" stroke="#8f8a83" stroke-width="2" d="M607.2,-120C627.53,-120 649.1,-120 668.94,-120"/>
<polygon fill="#8f8a83" stroke="#8f8a83" stroke-width="2" points="607.01,-116.5 597.01,-120 607.01,-123.5 607.01,-116.5"/>
</g>
<!-- D&#45;&gt;F -->
<g id="edge8" class="edge">
<title>D&#45;&gt;F</title>
<path fill="none" stroke="#8f8a83" stroke-width="2" d="M793.74,-153.84C833.46,-181.69 889.1,-220.72 926.4,-246.88"/>
<polygon fill="#8f8a83" stroke="#8f8a83" stroke-width="2" points="795.72,-150.95 785.52,-148.07 791.7,-156.68 795.72,-150.95"/>
</g>
<!-- topic -->
<g id="node10" class="node">
<title>topic</title>
<polygon fill="#e93a1d" stroke="black" stroke-width="0" points="820,-56 669,-56 669,0 820,0 820,-56"/>
<text text-anchor="middle" x="744.5" y="-23" font-family="Menlo, Monaco, Consolas, Lucida Console, Courier New, monospace" font-size="20.00" fill="#ffffff">topic</text>
</g>
<!-- D&#45;&gt;topic -->
<g id="edge11" class="edge">
<title>D&#45;&gt;topic</title>
<path fill="none" stroke="#8f8a83" stroke-width="2" d="M744.5,-81.26C744.5,-72.85 744.5,-64.44 744.5,-56.03"/>
<polygon fill="#8f8a83" stroke="#8f8a83" stroke-width="2" points="741,-81.51 744.5,-91.51 748,-81.51 741,-81.51"/>
</g>
<!-- HEAD -->
<g id="node8" class="node">
<title>HEAD</title>
<polygon fill="#c8a036" stroke="black" stroke-width="0" points="1043,-487 892,-487 892,-431 1043,-431 1043,-487"/>
<text text-anchor="middle" x="967.5" y="-454" font-family="Menlo, Monaco, Consolas, Lucida Console, Courier New, monospace" font-size="20.00" fill="#ffffff">HEAD</text>
</g>
<!-- master&#45;&gt;HEAD -->
<g id="edge10" class="edge">
<title>master&#45;&gt;HEAD</title>
<path fill="none" stroke="#8f8a83" stroke-width="2" d="M967.5,-405.29C967.5,-413.7 967.5,-422.11 967.5,-430.51"/>
<polygon fill="#8f8a83" stroke="#8f8a83" stroke-width="2" points="971,-405.03 967.5,-395.03 964,-405.03 971,-405.03"/>
</g>
</g>
</svg>
