<?xml version="1.0" encoding="UTF-8" standalone="no"?>
<!DOCTYPE svg PUBLIC "-//W3C//DTD SVG 1.1//EN"
 "http://www.w3.org/Graphics/SVG/1.1/DTD/svg11.dtd">
<!-- Generated by graphviz version 2.47.2 (20210527.0053)
 -->
<!-- Title: Git Pages: 1 -->
<svg width="1290pt" height="356pt"
 viewBox="0.00 0.00 1290.00 356.00" xmlns="http://www.w3.org/2000/svg" xmlns:xlink="http://www.w3.org/1999/xlink">
<g id="graph0" class="graph" transform="scale(1 1) rotate(0) translate(4 352)">
<title>Git</title>
<g id="clust1" class="cluster">
<title>cluster_topic</title>
<polygon fill="transparent" stroke="transparent" points="1107,-84 1107,-340 1274,-340 1274,-84 1107,-84"/>
</g>
<g id="clust3" class="cluster">
<title>cluster_master</title>
<polygon fill="transparent" stroke="transparent" points="438,-84 438,-248 605,-248 605,-84 438,-84"/>
</g>
<!-- Cr -->
<g id="node1" class="node">
<title>Cr</title>
<path fill="#f0efe8" stroke="black" stroke-width="0" d="M808,-148C808,-148 681,-148 681,-148 675,-148 669,-142 669,-136 669,-136 669,-104 669,-104 669,-98 675,-92 681,-92 681,-92 808,-92 808,-92 814,-92 820,-98 820,-104 820,-104 820,-136 820,-136 820,-142 814,-148 808,-148"/>
<text text-anchor="middle" x="744.5" y="-115" font-family="Menlo, Monaco, Consolas, Lucida Console, Courier New, monospace" font-size="20.00">C&#39;</text>
</g>
<!-- Dr -->
<g id="node2" class="node">
<title>Dr</title>
<path fill="#f0efe8" stroke="black" stroke-width="0" d="M1031,-148C1031,-148 904,-148 904,-148 898,-148 892,-142 892,-136 892,-136 892,-104 892,-104 892,-98 898,-92 904,-92 904,-92 1031,-92 1031,-92 1037,-92 1043,-98 1043,-104 1043,-104 1043,-136 1043,-136 1043,-142 1037,-148 1031,-148"/>
<text text-anchor="middle" x="967.5" y="-115" font-family="Menlo, Monaco, Consolas, Lucida Console, Courier New, monospace" font-size="20.00">D&#39;</text>
</g>
<!-- Cr&#45;&gt;Dr -->
<g id="edge4" class="edge">
<title>Cr&#45;&gt;Dr</title>
<path fill="none" stroke="#8f8a83" stroke-width="2" d="M830.2,-120C850.53,-120 872.1,-120 891.94,-120"/>
<polygon fill="#8f8a83" stroke="#8f8a83" stroke-width="2" points="830.01,-116.5 820.01,-120 830.01,-123.5 830.01,-116.5"/>
</g>
<!-- Er -->
<g id="node3" class="node">
<title>Er</title>
<path fill="#f0efe8" stroke="black" stroke-width="0" d="M1254,-148C1254,-148 1127,-148 1127,-148 1121,-148 1115,-142 1115,-136 1115,-136 1115,-104 1115,-104 1115,-98 1121,-92 1127,-92 1127,-92 1254,-92 1254,-92 1260,-92 1266,-98 1266,-104 1266,-104 1266,-136 1266,-136 1266,-142 1260,-148 1254,-148"/>
<text text-anchor="middle" x="1190.5" y="-115" font-family="Menlo, Monaco, Consolas, Lucida Console, Courier New, monospace" font-size="20.00">E&#39;</text>
</g>
<!-- Dr&#45;&gt;Er -->
<g id="edge5" class="edge">
<title>Dr&#45;&gt;Er</title>
<path fill="none" stroke="#8f8a83" stroke-width="2" d="M1053.2,-120C1073.53,-120 1095.1,-120 1114.94,-120"/>
<polygon fill="#8f8a83" stroke="#8f8a83" stroke-width="2" points="1053.01,-116.5 1043.01,-120 1053.01,-123.5 1053.01,-116.5"/>
</g>
<!-- topic -->
<g id="node8" class="node">
<title>topic</title>
<polygon fill="#e93a1d" stroke="black" stroke-width="0" points="1266,-240 1115,-240 1115,-184 1266,-184 1266,-240"/>
<text text-anchor="middle" x="1190.5" y="-207" font-family="Menlo, Monaco, Consolas, Lucida Console, Courier New, monospace" font-size="20.00" fill="#ffffff">topic</text>
</g>
<!-- Er&#45;&gt;topic -->
<g id="edge6" class="edge">
<title>Er&#45;&gt;topic</title>
<path fill="none" stroke="#8f8a83" stroke-width="2" d="M1190.5,-158.29C1190.5,-166.7 1190.5,-175.11 1190.5,-183.51"/>
<polygon fill="#8f8a83" stroke="#8f8a83" stroke-width="2" points="1194,-158.03 1190.5,-148.03 1187,-158.03 1194,-158.03"/>
</g>
<!-- A -->
<g id="node4" class="node">
<title>A</title>
<path fill="#f0efe8" stroke="black" stroke-width="0" d="M139,-148C139,-148 12,-148 12,-148 6,-148 0,-142 0,-136 0,-136 0,-104 0,-104 0,-98 6,-92 12,-92 12,-92 139,-92 139,-92 145,-92 151,-98 151,-104 151,-104 151,-136 151,-136 151,-142 145,-148 139,-148"/>
<text text-anchor="middle" x="75.5" y="-115" font-family="Menlo, Monaco, Consolas, Lucida Console, Courier New, monospace" font-size="20.00">A</text>
</g>
<!-- B -->
<g id="node5" class="node">
<title>B</title>
<path fill="#f0efe8" stroke="black" stroke-width="0" d="M362,-148C362,-148 235,-148 235,-148 229,-148 223,-142 223,-136 223,-136 223,-104 223,-104 223,-98 229,-92 235,-92 235,-92 362,-92 362,-92 368,-92 374,-98 374,-104 374,-104 374,-136 374,-136 374,-142 368,-148 362,-148"/>
<text text-anchor="middle" x="298.5" y="-115" font-family="Menlo, Monaco, Consolas, Lucida Console, Courier New, monospace" font-size="20.00">B</text>
</g>
<!-- A&#45;&gt;B -->
<g id="edge1" class="edge">
<title>A&#45;&gt;B</title>
<path fill="none" stroke="#8f8a83" stroke-width="2" d="M161.2,-120C181.53,-120 203.1,-120 222.94,-120"/>
<polygon fill="#8f8a83" stroke="#8f8a83" stroke-width="2" points="161.01,-116.5 151.01,-120 161.01,-123.5 161.01,-116.5"/>
</g>
<!-- F -->
<g id="node6" class="node">
<title>F</title>
<path fill="#f0efe8" stroke="black" stroke-width="0" d="M585,-148C585,-148 458,-148 458,-148 452,-148 446,-142 446,-136 446,-136 446,-104 446,-104 446,-98 452,-92 458,-92 458,-92 585,-92 585,-92 591,-92 597,-98 597,-104 597,-104 597,-136 597,-136 597,-142 591,-148 585,-148"/>
<text text-anchor="middle" x="521.5" y="-115" font-family="Menlo, Monaco, Consolas, Lucida Console, Courier New, monospace" font-size="20.00">F</text>
</g>
<!-- B&#45;&gt;F -->
<g id="edge2" class="edge">
<title>B&#45;&gt;F</title>
<path fill="none" stroke="#8f8a83" stroke-width="2" d="M384.2,-120C404.53,-120 426.1,-120 445.94,-120"/>
<polygon fill="#8f8a83" stroke="#8f8a83" stroke-width="2" points="384.01,-116.5 374.01,-120 384.01,-123.5 384.01,-116.5"/>
</g>
<!-- C -->
<g id="node10" class="node">
<title>C</title>
<path fill="#f0efe8" fill-opacity="0.392157" stroke="black" stroke-width="0" d="M585,-56C585,-56 458,-56 458,-56 452,-56 446,-50 446,-44 446,-44 446,-12 446,-12 446,-6 452,0 458,0 458,0 585,0 585,0 591,0 597,-6 597,-12 597,-12 597,-44 597,-44 597,-50 591,-56 585,-56"/>
<text text-anchor="middle" x="521.5" y="-23" font-family="Menlo, Monaco, Consolas, Lucida Console, Courier New, monospace" font-size="20.00" fill="#7f7f7f">C</text>
</g>
<!-- B&#45;&gt;C -->
<g id="edge9" class="edge">
<title>B&#45;&gt;C</title>
<path fill="none" stroke="#8f8a83" stroke-width="2" stroke-opacity="0.392157" d="M376.43,-87.97C401.37,-77.59 428.83,-66.16 453.02,-56.09"/>
<polygon fill="#8f8a83" fill-opacity="0.392157" stroke="#8f8a83" stroke-width="2" stroke-opacity="0.392157" points="374.9,-84.82 367.01,-91.9 377.59,-91.29 374.9,-84.82"/>
</g>
<!-- F&#45;&gt;Cr -->
<g id="edge3" class="edge">
<title>F&#45;&gt;Cr</title>
<path fill="none" stroke="#8f8a83" stroke-width="2" d="M607.2,-120C627.53,-120 649.1,-120 668.94,-120"/>
<polygon fill="#8f8a83" stroke="#8f8a83" stroke-width="2" points="607.01,-116.5 597.01,-120 607.01,-123.5 607.01,-116.5"/>
</g>
<!-- master -->
<g id="node9" class="node">
<title>master</title>
<polygon fill="#e93a1d" stroke="black" stroke-width="0" points="597,-240 446,-240 446,-184 597,-184 597,-240"/>
<text text-anchor="middle" x="521.5" y="-207" font-family="Menlo, Monaco, Consolas, Lucida Console, Courier New, monospace" font-size="20.00" fill="#ffffff">master</text>
</g>
<!-- F&#45;&gt;master -->
<g id="edge8" class="edge">
<title>F&#45;&gt;master</title>
<path fill="none" stroke="#8f8a83" stroke-width="2" d="M521.5,-158.29C521.5,-166.7 521.5,-175.11 521.5,-183.51"/>
<polygon fill="#8f8a83" stroke="#8f8a83" stroke-width="2" points="525,-158.03 521.5,-148.03 518,-158.03 525,-158.03"/>
</g>
<!-- HEAD -->
<g id="node7" class="node">
<title>HEAD</title>
<polygon fill="#c8a036" stroke="black" stroke-width="0" points="1266,-332 1115,-332 1115,-276 1266,-276 1266,-332"/>
<text text-anchor="middle" x="1190.5" y="-299" font-family="Menlo, Monaco, Consolas, Lucida Console, Courier New, monospace" font-size="20.00" fill="#ffffff">HEAD</text>
</g>
<!-- topic&#45;&gt;HEAD -->
<g id="edge7" class="edge">
<title>topic&#45;&gt;HEAD</title>
<path fill="none" stroke="#8f8a83" stroke-width="2" d="M1190.5,-250.29C1190.5,-258.7 1190.5,-267.11 1190.5,-275.51"/>
<polygon fill="#8f8a83" stroke="#8f8a83" stroke-width="2" points="1194,-250.03 1190.5,-240.03 1187,-250.03 1194,-250.03"/>
</g>
<!-- D -->
<g id="node11" class="node">
<title>D</title>
<path fill="#f0efe8" fill-opacity="0.392157" stroke="black" stroke-width="0" d="M808,-56C808,-56 681,-56 681,-56 675,-56 669,-50 669,-44 669,-44 669,-12 669,-12 669,-6 675,0 681,0 681,0 808,0 808,0 814,0 820,-6 820,-12 820,-12 820,-44 820,-44 820,-50 814,-56 808,-56"/>
<text text-anchor="middle" x="744.5" y="-23" font-family="Menlo, Monaco, Consolas, Lucida Console, Courier New, monospace" font-size="20.00" fill="#7f7f7f">D</text>
</g>
<!-- C&#45;&gt;D -->
<g id="edge10" class="edge">
<title>C&#45;&gt;D</title>
<path fill="none" stroke="#8f8a83" stroke-width="2" stroke-opacity="0.392157" d="M607.2,-28C627.53,-28 649.1,-28 668.94,-28"/>
<polygon fill="#8f8a83" fill-opacity="0.392157" stroke="#8f8a83" stroke-width="2" stroke-opacity="0.392157" points="607.01,-24.5 597.01,-28 607.01,-31.5 607.01,-24.5"/>
</g>
<!-- E -->
<g id="node12" class="node">
<title>E</title>
<path fill="#f0efe8" fill-opacity="0.392157" stroke="black" stroke-width="0" d="M1031,-56C1031,-56 904,-56 904,-56 898,-56 892,-50 892,-44 892,-44 892,-12 892,-12 892,-6 898,0 904,0 904,0 1031,0 1031,0 1037,0 1043,-6 1043,-12 1043,-12 1043,-44 1043,-44 1043,-50 1037,-56 1031,-56"/>
<text text-anchor="middle" x="967.5" y="-23" font-family="Menlo, Monaco, Consolas, Lucida Console, Courier New, monospace" font-size="20.00" fill="#7f7f7f">E</text>
</g>
<!-- D&#45;&gt;E -->
<g id="edge11" class="edge">
<title>D&#45;&gt;E</title>
<path fill="none" stroke="#8f8a83" stroke-width="2" stroke-opacity="0.392157" d="M830.2,-28C850.53,-28 872.1,-28 891.94,-28"/>
<polygon fill="#8f8a83" fill-opacity="0.392157" stroke="#8f8a83" stroke-width="2" stroke-opacity="0.392157" points="830.01,-24.5 820.01,-28 830.01,-31.5 830.01,-24.5"/>
</g>
</g>
</svg>
