<?xml version="1.0" encoding="UTF-8" standalone="no"?>
<!DOCTYPE svg PUBLIC "-//W3C//DTD SVG 1.1//EN"
 "http://www.w3.org/Graphics/SVG/1.1/DTD/svg11.dtd">
<!-- Generated by graphviz version 2.40.1 (20161225.0304)
 -->
<!-- Title: Git Pages: 1 -->
<svg width="1067pt" height="356pt"
 viewBox="0.00 0.00 1067.00 356.00" xmlns="http://www.w3.org/2000/svg" xmlns:xlink="http://www.w3.org/1999/xlink">
<g id="graph0" class="graph" transform="scale(1 1) rotate(0) translate(4 352)">
<title>Git</title>
<g id="clust1" class="cluster">
<title>cluster_topic</title>
<polygon fill="transparent" stroke="transparent" points="884,-84 884,-340 1051,-340 1051,-84 884,-84"/>
</g>
<g id="clust3" class="cluster">
<title>cluster_master</title>
<polygon fill="transparent" stroke="transparent" points="438,-84 438,-248 605,-248 605,-84 438,-84"/>
</g>
<!-- Cr -->
<g id="node1" class="node">
<title>Cr</title>
<path fill="#f0efe8" stroke="#000000" stroke-width="0" d="M808,-148C808,-148 681,-148 681,-148 675,-148 669,-142 669,-136 669,-136 669,-104 669,-104 669,-98 675,-92 681,-92 681,-92 808,-92 808,-92 814,-92 820,-98 820,-104 820,-104 820,-136 820,-136 820,-142 814,-148 808,-148"/>
<text text-anchor="middle" x="744.5" y="-114" font-family="Menlo, Consolas, Courier New, monospace" font-size="20.00" fill="#000000">C&#39;</text>
</g>
<!-- Dr -->
<g id="node2" class="node">
<title>Dr</title>
<path fill="#f0efe8" stroke="#000000" stroke-width="0" d="M1031,-148C1031,-148 904,-148 904,-148 898,-148 892,-142 892,-136 892,-136 892,-104 892,-104 892,-98 898,-92 904,-92 904,-92 1031,-92 1031,-92 1037,-92 1043,-98 1043,-104 1043,-104 1043,-136 1043,-136 1043,-142 1037,-148 1031,-148"/>
<text text-anchor="middle" x="967.5" y="-114" font-family="Menlo, Consolas, Courier New, monospace" font-size="20.00" fill="#000000">D&#39;</text>
</g>
<!-- Cr&#45;&gt;Dr -->
<g id="edge4" class="edge">
<title>Cr&#45;&gt;Dr</title>
<path fill="none" stroke="#8f8a83" stroke-width="2" d="M830.4571,-120C850.7075,-120 872.1458,-120 891.9009,-120"/>
<polygon fill="#8f8a83" stroke="#8f8a83" stroke-width="2" points="830.3088,-116.5001 820.3088,-120 830.3088,-123.5001 830.3088,-116.5001"/>
</g>
<!-- topic -->
<g id="node7" class="node">
<title>topic</title>
<polygon fill="#e93a1d" stroke="#000000" stroke-width="0" points="1043,-240 892,-240 892,-184 1043,-184 1043,-240"/>
<text text-anchor="middle" x="967.5" y="-206" font-family="Menlo, Consolas, Courier New, monospace" font-size="20.00" fill="#ffffff">topic</text>
</g>
<!-- Dr&#45;&gt;topic -->
<g id="edge5" class="edge">
<title>Dr&#45;&gt;topic</title>
<path fill="none" stroke="#8f8a83" stroke-width="2" d="M967.5,-158.288C967.5,-166.6966 967.5,-175.1053 967.5,-183.5139"/>
<polygon fill="#8f8a83" stroke="#8f8a83" stroke-width="2" points="971.0001,-158.0312 967.5,-148.0313 964.0001,-158.0313 971.0001,-158.0312"/>
</g>
<!-- A -->
<g id="node3" class="node">
<title>A</title>
<path fill="#f0efe8" stroke="#000000" stroke-width="0" d="M139,-148C139,-148 12,-148 12,-148 6,-148 0,-142 0,-136 0,-136 0,-104 0,-104 0,-98 6,-92 12,-92 12,-92 139,-92 139,-92 145,-92 151,-98 151,-104 151,-104 151,-136 151,-136 151,-142 145,-148 139,-148"/>
<text text-anchor="middle" x="75.5" y="-114" font-family="Menlo, Consolas, Courier New, monospace" font-size="20.00" fill="#000000">A</text>
</g>
<!-- B -->
<g id="node4" class="node">
<title>B</title>
<path fill="#f0efe8" stroke="#000000" stroke-width="0" d="M362,-148C362,-148 235,-148 235,-148 229,-148 223,-142 223,-136 223,-136 223,-104 223,-104 223,-98 229,-92 235,-92 235,-92 362,-92 362,-92 368,-92 374,-98 374,-104 374,-104 374,-136 374,-136 374,-142 368,-148 362,-148"/>
<text text-anchor="middle" x="298.5" y="-114" font-family="Menlo, Consolas, Courier New, monospace" font-size="20.00" fill="#000000">B</text>
</g>
<!-- A&#45;&gt;B -->
<g id="edge1" class="edge">
<title>A&#45;&gt;B</title>
<path fill="none" stroke="#8f8a83" stroke-width="2" d="M161.4571,-120C181.7075,-120 203.1458,-120 222.9009,-120"/>
<polygon fill="#8f8a83" stroke="#8f8a83" stroke-width="2" points="161.3088,-116.5001 151.3088,-120 161.3088,-123.5001 161.3088,-116.5001"/>
</g>
<!-- E -->
<g id="node5" class="node">
<title>E</title>
<path fill="#f0efe8" stroke="#000000" stroke-width="0" d="M585,-148C585,-148 458,-148 458,-148 452,-148 446,-142 446,-136 446,-136 446,-104 446,-104 446,-98 452,-92 458,-92 458,-92 585,-92 585,-92 591,-92 597,-98 597,-104 597,-104 597,-136 597,-136 597,-142 591,-148 585,-148"/>
<text text-anchor="middle" x="521.5" y="-114" font-family="Menlo, Consolas, Courier New, monospace" font-size="20.00" fill="#000000">E</text>
</g>
<!-- B&#45;&gt;E -->
<g id="edge2" class="edge">
<title>B&#45;&gt;E</title>
<path fill="none" stroke="#8f8a83" stroke-width="2" d="M384.4571,-120C404.7075,-120 426.1458,-120 445.9009,-120"/>
<polygon fill="#8f8a83" stroke="#8f8a83" stroke-width="2" points="384.3088,-116.5001 374.3088,-120 384.3088,-123.5001 384.3088,-116.5001"/>
</g>
<!-- C -->
<g id="node9" class="node">
<title>C</title>
<path fill="#f0efe8" fill-opacity="0.392157" stroke="#000000" stroke-width="0" d="M585,-56C585,-56 458,-56 458,-56 452,-56 446,-50 446,-44 446,-44 446,-12 446,-12 446,-6 452,0 458,0 458,0 585,0 585,0 591,0 597,-6 597,-12 597,-12 597,-44 597,-44 597,-50 591,-56 585,-56"/>
<text text-anchor="middle" x="521.5" y="-22" font-family="Menlo, Consolas, Courier New, monospace" font-size="20.00" fill="#7f7f7f">C</text>
</g>
<!-- B&#45;&gt;C -->
<g id="edge8" class="edge">
<title>B&#45;&gt;C</title>
<path fill="none" stroke="#8f8a83" stroke-width="2" stroke-opacity="0.392157" d="M376.1267,-87.9746C401.2908,-77.593 428.9982,-66.1622 453.4141,-56.0892"/>
<polygon fill="#8f8a83" fill-opacity="0.392157" stroke="#8f8a83" stroke-width="2" stroke-opacity="0.392157" points="374.5284,-84.8478 366.6191,-91.8971 377.1981,-91.3187 374.5284,-84.8478"/>
</g>
<!-- E&#45;&gt;Cr -->
<g id="edge3" class="edge">
<title>E&#45;&gt;Cr</title>
<path fill="none" stroke="#8f8a83" stroke-width="2" d="M607.4571,-120C627.7075,-120 649.1458,-120 668.9009,-120"/>
<polygon fill="#8f8a83" stroke="#8f8a83" stroke-width="2" points="607.3088,-116.5001 597.3088,-120 607.3088,-123.5001 607.3088,-116.5001"/>
</g>
<!-- master -->
<g id="node8" class="node">
<title>master</title>
<polygon fill="#e93a1d" stroke="#000000" stroke-width="0" points="597,-240 446,-240 446,-184 597,-184 597,-240"/>
<text text-anchor="middle" x="521.5" y="-206" font-family="Menlo, Consolas, Courier New, monospace" font-size="20.00" fill="#ffffff">master</text>
</g>
<!-- E&#45;&gt;master -->
<g id="edge7" class="edge">
<title>E&#45;&gt;master</title>
<path fill="none" stroke="#8f8a83" stroke-width="2" d="M521.5,-158.288C521.5,-166.6966 521.5,-175.1053 521.5,-183.5139"/>
<polygon fill="#8f8a83" stroke="#8f8a83" stroke-width="2" points="525.0001,-158.0312 521.5,-148.0313 518.0001,-158.0313 525.0001,-158.0312"/>
</g>
<!-- HEAD -->
<g id="node6" class="node">
<title>HEAD</title>
<polygon fill="#c8a036" stroke="#000000" stroke-width="0" points="1043,-332 892,-332 892,-276 1043,-276 1043,-332"/>
<text text-anchor="middle" x="967.5" y="-298" font-family="Menlo, Consolas, Courier New, monospace" font-size="20.00" fill="#ffffff">HEAD</text>
</g>
<!-- topic&#45;&gt;HEAD -->
<g id="edge6" class="edge">
<title>topic&#45;&gt;HEAD</title>
<path fill="none" stroke="#8f8a83" stroke-width="2" d="M967.5,-250.288C967.5,-258.6966 967.5,-267.1053 967.5,-275.5139"/>
<polygon fill="#8f8a83" stroke="#8f8a83" stroke-width="2" points="971.0001,-250.0312 967.5,-240.0313 964.0001,-250.0313 971.0001,-250.0312"/>
</g>
<!-- D -->
<g id="node10" class="node">
<title>D</title>
<path fill="#f0efe8" fill-opacity="0.392157" stroke="#000000" stroke-width="0" d="M808,-56C808,-56 681,-56 681,-56 675,-56 669,-50 669,-44 669,-44 669,-12 669,-12 669,-6 675,0 681,0 681,0 808,0 808,0 814,0 820,-6 820,-12 820,-12 820,-44 820,-44 820,-50 814,-56 808,-56"/>
<text text-anchor="middle" x="744.5" y="-22" font-family="Menlo, Consolas, Courier New, monospace" font-size="20.00" fill="#7f7f7f">D</text>
</g>
<!-- C&#45;&gt;D -->
<g id="edge9" class="edge">
<title>C&#45;&gt;D</title>
<path fill="none" stroke="#8f8a83" stroke-width="2" stroke-opacity="0.392157" d="M607.4571,-28C627.7075,-28 649.1458,-28 668.9009,-28"/>
<polygon fill="#8f8a83" fill-opacity="0.392157" stroke="#8f8a83" stroke-width="2" stroke-opacity="0.392157" points="607.3088,-24.5001 597.3088,-28 607.3088,-31.5001 607.3088,-24.5001"/>
</g>
</g>
</svg>
