<?xml version="1.0" encoding="UTF-8" standalone="no"?>
<!DOCTYPE svg PUBLIC "-//W3C//DTD SVG 1.1//EN"
 "http://www.w3.org/Graphics/SVG/1.1/DTD/svg11.dtd">
<!-- Generated by graphviz version 2.47.2 (20210527.0053)
 -->
<!-- Title: Git Pages: 1 -->
<svg width="1051pt" height="356pt"
 viewBox="0.00 0.00 1051.00 356.00" xmlns="http://www.w3.org/2000/svg" xmlns:xlink="http://www.w3.org/1999/xlink">
<g id="graph0" class="graph" transform="scale(1 1) rotate(0) translate(4 352)">
<title>Git</title>
<g id="clust1" class="cluster">
<title>cluster_master</title>
<polygon fill="transparent" stroke="transparent" points="438,-84 438,-340 605,-340 605,-84 438,-84"/>
</g>
<!-- A -->
<g id="node1" class="node">
<title>A</title>
<path fill="#f0efe8" stroke="black" stroke-width="0" d="M139,-148C139,-148 12,-148 12,-148 6,-148 0,-142 0,-136 0,-136 0,-104 0,-104 0,-98 6,-92 12,-92 12,-92 139,-92 139,-92 145,-92 151,-98 151,-104 151,-104 151,-136 151,-136 151,-142 145,-148 139,-148"/>
<text text-anchor="middle" x="75.5" y="-115" font-family="Menlo, Monaco, Consolas, Lucida Console, Courier New, monospace" font-size="20.00">A</text>
</g>
<!-- B -->
<g id="node2" class="node">
<title>B</title>
<path fill="#f0efe8" stroke="black" stroke-width="0" d="M362,-148C362,-148 235,-148 235,-148 229,-148 223,-142 223,-136 223,-136 223,-104 223,-104 223,-98 229,-92 235,-92 235,-92 362,-92 362,-92 368,-92 374,-98 374,-104 374,-104 374,-136 374,-136 374,-142 368,-148 362,-148"/>
<text text-anchor="middle" x="298.5" y="-115" font-family="Menlo, Monaco, Consolas, Lucida Console, Courier New, monospace" font-size="20.00">B</text>
</g>
<!-- A&#45;&gt;B -->
<g id="edge1" class="edge">
<title>A&#45;&gt;B</title>
<path fill="none" stroke="#8f8a83" stroke-width="2" d="M161.2,-120C181.53,-120 203.1,-120 222.94,-120"/>
<polygon fill="#8f8a83" stroke="#8f8a83" stroke-width="2" points="161.01,-116.5 151.01,-120 161.01,-123.5 161.01,-116.5"/>
</g>
<!-- C -->
<g id="node3" class="node">
<title>C</title>
<path fill="#f0efe8" stroke="black" stroke-width="0" d="M585,-148C585,-148 458,-148 458,-148 452,-148 446,-142 446,-136 446,-136 446,-104 446,-104 446,-98 452,-92 458,-92 458,-92 585,-92 585,-92 591,-92 597,-98 597,-104 597,-104 597,-136 597,-136 597,-142 591,-148 585,-148"/>
<text text-anchor="middle" x="521.5" y="-115" font-family="Menlo, Monaco, Consolas, Lucida Console, Courier New, monospace" font-size="20.00">C</text>
</g>
<!-- B&#45;&gt;C -->
<g id="edge2" class="edge">
<title>B&#45;&gt;C</title>
<path fill="none" stroke="#8f8a83" stroke-width="2" d="M384.2,-120C404.53,-120 426.1,-120 445.94,-120"/>
<polygon fill="#8f8a83" stroke="#8f8a83" stroke-width="2" points="384.01,-116.5 374.01,-120 384.01,-123.5 384.01,-116.5"/>
</g>
<!-- D -->
<g id="node4" class="node">
<title>D</title>
<path fill="#f0efe8" stroke="black" stroke-width="0" d="M808,-148C808,-148 681,-148 681,-148 675,-148 669,-142 669,-136 669,-136 669,-104 669,-104 669,-98 675,-92 681,-92 681,-92 808,-92 808,-92 814,-92 820,-98 820,-104 820,-104 820,-136 820,-136 820,-142 814,-148 808,-148"/>
<text text-anchor="middle" x="744.5" y="-115" font-family="Menlo, Monaco, Consolas, Lucida Console, Courier New, monospace" font-size="20.00">D</text>
</g>
<!-- C&#45;&gt;D -->
<g id="edge3" class="edge">
<title>C&#45;&gt;D</title>
<path fill="none" stroke="#8f8a83" stroke-width="2" d="M607.2,-120C627.53,-120 649.1,-120 668.94,-120"/>
<polygon fill="#8f8a83" stroke="#8f8a83" stroke-width="2" points="607.01,-116.5 597.01,-120 607.01,-123.5 607.01,-116.5"/>
</g>
<!-- master -->
<g id="node7" class="node">
<title>master</title>
<polygon fill="#2c942c" stroke="black" stroke-width="0" points="597,-240 446,-240 446,-184 597,-184 597,-240"/>
<text text-anchor="middle" x="521.5" y="-207" font-family="Menlo, Monaco, Consolas, Lucida Console, Courier New, monospace" font-size="20.00" fill="#ffffff">master</text>
</g>
<!-- C&#45;&gt;master -->
<g id="edge5" class="edge">
<title>C&#45;&gt;master</title>
<path fill="none" stroke="#8f8a83" stroke-width="2" d="M521.5,-158.29C521.5,-166.7 521.5,-175.11 521.5,-183.51"/>
<polygon fill="#8f8a83" stroke="#8f8a83" stroke-width="2" points="525,-158.03 521.5,-148.03 518,-158.03 525,-158.03"/>
</g>
<!-- E -->
<g id="node5" class="node">
<title>E</title>
<path fill="#f0efe8" stroke="black" stroke-width="0" d="M1031,-148C1031,-148 904,-148 904,-148 898,-148 892,-142 892,-136 892,-136 892,-104 892,-104 892,-98 898,-92 904,-92 904,-92 1031,-92 1031,-92 1037,-92 1043,-98 1043,-104 1043,-104 1043,-136 1043,-136 1043,-142 1037,-148 1031,-148"/>
<text text-anchor="middle" x="967.5" y="-115" font-family="Menlo, Monaco, Consolas, Lucida Console, Courier New, monospace" font-size="20.00">E</text>
</g>
<!-- D&#45;&gt;E -->
<g id="edge4" class="edge">
<title>D&#45;&gt;E</title>
<path fill="none" stroke="#8f8a83" stroke-width="2" d="M830.2,-120C850.53,-120 872.1,-120 891.94,-120"/>
<polygon fill="#8f8a83" stroke="#8f8a83" stroke-width="2" points="830.01,-116.5 820.01,-120 830.01,-123.5 830.01,-116.5"/>
</g>
<!-- topic -->
<g id="node8" class="node">
<title>topic</title>
<polygon fill="#2c942c" stroke="black" stroke-width="0" points="1043,-56 892,-56 892,0 1043,0 1043,-56"/>
<text text-anchor="middle" x="967.5" y="-23" font-family="Menlo, Monaco, Consolas, Lucida Console, Courier New, monospace" font-size="20.00" fill="#ffffff">topic</text>
</g>
<!-- E&#45;&gt;topic -->
<g id="edge7" class="edge">
<title>E&#45;&gt;topic</title>
<path fill="none" stroke="#8f8a83" stroke-width="2" d="M967.5,-81.26C967.5,-72.85 967.5,-64.44 967.5,-56.03"/>
<polygon fill="#8f8a83" stroke="#8f8a83" stroke-width="2" points="964,-81.51 967.5,-91.51 971,-81.51 964,-81.51"/>
</g>
<!-- HEAD -->
<g id="node6" class="node">
<title>HEAD</title>
<polygon fill="#3e8f99" stroke="black" stroke-width="0" points="597,-332 446,-332 446,-276 597,-276 597,-332"/>
<text text-anchor="middle" x="521.5" y="-299" font-family="Menlo, Monaco, Consolas, Lucida Console, Courier New, monospace" font-size="20.00" fill="#ffffff">HEAD</text>
</g>
<!-- master&#45;&gt;HEAD -->
<g id="edge6" class="edge">
<title>master&#45;&gt;HEAD</title>
<path fill="none" stroke="#8f8a83" stroke-width="2" d="M521.5,-250.29C521.5,-258.7 521.5,-267.11 521.5,-275.51"/>
<polygon fill="#8f8a83" stroke="#8f8a83" stroke-width="2" points="525,-250.03 521.5,-240.03 518,-250.03 525,-250.03"/>
</g>
</g>
</svg>
