<?xml version="1.0" encoding="UTF-8" standalone="no"?>
<!DOCTYPE svg PUBLIC "-//W3C//DTD SVG 1.1//EN"
 "http://www.w3.org/Graphics/SVG/1.1/DTD/svg11.dtd">
<!-- Generated by graphviz version 2.47.2 (20210527.0053)
 -->
<!-- Title: Git Pages: 1 -->
<svg width="1067pt" height="372pt"
 viewBox="0.00 0.00 1067.00 372.00" xmlns="http://www.w3.org/2000/svg" xmlns:xlink="http://www.w3.org/1999/xlink">
<g id="graph0" class="graph" transform="scale(1 1) rotate(0) translate(4 368)">
<title>Git</title>
<g id="clust1" class="cluster">
<title>cluster_branches</title>
<polygon fill="transparent" stroke="transparent" points="884,-8 884,-356 1051,-356 1051,-8 884,-8"/>
</g>
<!-- A -->
<g id="node1" class="node">
<title>A</title>
<path fill="#f0efe8" stroke="black" stroke-width="0" d="M139,-164C139,-164 12,-164 12,-164 6,-164 0,-158 0,-152 0,-152 0,-120 0,-120 0,-114 6,-108 12,-108 12,-108 139,-108 139,-108 145,-108 151,-114 151,-120 151,-120 151,-152 151,-152 151,-158 145,-164 139,-164"/>
<text text-anchor="middle" x="75.5" y="-131" font-family="Menlo, Monaco, Consolas, Lucida Console, Courier New, monospace" font-size="20.00">A</text>
</g>
<!-- B -->
<g id="node2" class="node">
<title>B</title>
<path fill="#f0efe8" stroke="black" stroke-width="0" d="M362,-164C362,-164 235,-164 235,-164 229,-164 223,-158 223,-152 223,-152 223,-120 223,-120 223,-114 229,-108 235,-108 235,-108 362,-108 362,-108 368,-108 374,-114 374,-120 374,-120 374,-152 374,-152 374,-158 368,-164 362,-164"/>
<text text-anchor="middle" x="298.5" y="-131" font-family="Menlo, Monaco, Consolas, Lucida Console, Courier New, monospace" font-size="20.00">B</text>
</g>
<!-- A&#45;&gt;B -->
<g id="edge1" class="edge">
<title>A&#45;&gt;B</title>
<path fill="none" stroke="#8f8a83" stroke-width="2" d="M161.2,-136C181.53,-136 203.1,-136 222.94,-136"/>
<polygon fill="#8f8a83" stroke="#8f8a83" stroke-width="2" points="161.01,-132.5 151.01,-136 161.01,-139.5 161.01,-132.5"/>
</g>
<!-- C -->
<g id="node3" class="node">
<title>C</title>
<path fill="#f0efe8" stroke="black" stroke-width="0" d="M585,-164C585,-164 458,-164 458,-164 452,-164 446,-158 446,-152 446,-152 446,-120 446,-120 446,-114 452,-108 458,-108 458,-108 585,-108 585,-108 591,-108 597,-114 597,-120 597,-120 597,-152 597,-152 597,-158 591,-164 585,-164"/>
<text text-anchor="middle" x="521.5" y="-131" font-family="Menlo, Monaco, Consolas, Lucida Console, Courier New, monospace" font-size="20.00">C</text>
</g>
<!-- B&#45;&gt;C -->
<g id="edge2" class="edge">
<title>B&#45;&gt;C</title>
<path fill="none" stroke="#8f8a83" stroke-width="2" d="M384.2,-136C404.53,-136 426.1,-136 445.94,-136"/>
<polygon fill="#8f8a83" stroke="#8f8a83" stroke-width="2" points="384.01,-132.5 374.01,-136 384.01,-139.5 384.01,-132.5"/>
</g>
<!-- D -->
<g id="node4" class="node">
<title>D</title>
<path fill="#f0efe8" stroke="black" stroke-width="0" d="M808,-164C808,-164 681,-164 681,-164 675,-164 669,-158 669,-152 669,-152 669,-120 669,-120 669,-114 675,-108 681,-108 681,-108 808,-108 808,-108 814,-108 820,-114 820,-120 820,-120 820,-152 820,-152 820,-158 814,-164 808,-164"/>
<text text-anchor="middle" x="744.5" y="-131" font-family="Menlo, Monaco, Consolas, Lucida Console, Courier New, monospace" font-size="20.00">D</text>
</g>
<!-- C&#45;&gt;D -->
<g id="edge3" class="edge">
<title>C&#45;&gt;D</title>
<path fill="none" stroke="#8f8a83" stroke-width="2" d="M607.2,-136C627.53,-136 649.1,-136 668.94,-136"/>
<polygon fill="#8f8a83" stroke="#8f8a83" stroke-width="2" points="607.01,-132.5 597.01,-136 607.01,-139.5 607.01,-132.5"/>
</g>
<!-- E -->
<g id="node5" class="node">
<title>E</title>
<path fill="#f0efe8" stroke="black" stroke-width="0" d="M1031,-164C1031,-164 904,-164 904,-164 898,-164 892,-158 892,-152 892,-152 892,-120 892,-120 892,-114 898,-108 904,-108 904,-108 1031,-108 1031,-108 1037,-108 1043,-114 1043,-120 1043,-120 1043,-152 1043,-152 1043,-158 1037,-164 1031,-164"/>
<text text-anchor="middle" x="967.5" y="-131" font-family="Menlo, Monaco, Consolas, Lucida Console, Courier New, monospace" font-size="20.00">E</text>
</g>
<!-- D&#45;&gt;E -->
<g id="edge4" class="edge">
<title>D&#45;&gt;E</title>
<path fill="none" stroke="#8f8a83" stroke-width="2" d="M830.2,-136C850.53,-136 872.1,-136 891.94,-136"/>
<polygon fill="#8f8a83" stroke="#8f8a83" stroke-width="2" points="830.01,-132.5 820.01,-136 830.01,-139.5 830.01,-132.5"/>
</g>
<!-- master -->
<g id="node7" class="node">
<title>master</title>
<polygon fill="#2c942c" stroke="black" stroke-width="0" points="1043,-256 892,-256 892,-200 1043,-200 1043,-256"/>
<text text-anchor="middle" x="967.5" y="-223" font-family="Menlo, Monaco, Consolas, Lucida Console, Courier New, monospace" font-size="20.00" fill="#ffffff">master</text>
</g>
<!-- E&#45;&gt;master -->
<g id="edge5" class="edge">
<title>E&#45;&gt;master</title>
<path fill="none" stroke="#8f8a83" stroke-width="2" d="M967.5,-174.29C967.5,-182.7 967.5,-191.11 967.5,-199.51"/>
<polygon fill="#8f8a83" stroke="#8f8a83" stroke-width="2" points="971,-174.03 967.5,-164.03 964,-174.03 971,-174.03"/>
</g>
<!-- topic -->
<g id="node8" class="node">
<title>topic</title>
<polygon fill="#2c942c" stroke="black" stroke-width="0" points="1043,-72 892,-72 892,-16 1043,-16 1043,-72"/>
<text text-anchor="middle" x="967.5" y="-39" font-family="Menlo, Monaco, Consolas, Lucida Console, Courier New, monospace" font-size="20.00" fill="#ffffff">topic</text>
</g>
<!-- E&#45;&gt;topic -->
<g id="edge7" class="edge">
<title>E&#45;&gt;topic</title>
<path fill="none" stroke="#8f8a83" stroke-width="2" d="M967.5,-97.26C967.5,-88.85 967.5,-80.44 967.5,-72.03"/>
<polygon fill="#8f8a83" stroke="#8f8a83" stroke-width="2" points="964,-97.51 967.5,-107.51 971,-97.51 964,-97.51"/>
</g>
<!-- HEAD -->
<g id="node6" class="node">
<title>HEAD</title>
<polygon fill="#3e8f99" stroke="black" stroke-width="0" points="1043,-348 892,-348 892,-292 1043,-292 1043,-348"/>
<text text-anchor="middle" x="967.5" y="-315" font-family="Menlo, Monaco, Consolas, Lucida Console, Courier New, monospace" font-size="20.00" fill="#ffffff">HEAD</text>
</g>
<!-- master&#45;&gt;HEAD -->
<g id="edge6" class="edge">
<title>master&#45;&gt;HEAD</title>
<path fill="none" stroke="#8f8a83" stroke-width="2" d="M967.5,-266.29C967.5,-274.7 967.5,-283.11 967.5,-291.51"/>
<polygon fill="#8f8a83" stroke="#8f8a83" stroke-width="2" points="971,-266.03 967.5,-256.03 964,-266.03 971,-266.03"/>
</g>
</g>
</svg>
