<?xml version="1.0" encoding="UTF-8" standalone="no"?>
<!DOCTYPE svg PUBLIC "-//W3C//DTD SVG 1.1//EN"
 "http://www.w3.org/Graphics/SVG/1.1/DTD/svg11.dtd">
<!-- Generated by graphviz version 2.40.1 (20161225.0304)
 -->
<!-- Title: Git Pages: 1 -->
<svg width="863pt" height="456pt"
 viewBox="0.00 0.00 862.77 456.00" xmlns="http://www.w3.org/2000/svg" xmlns:xlink="http://www.w3.org/1999/xlink">
<g id="graph0" class="graph" transform="scale(1 1) rotate(0) translate(4 452)">
<title>Git</title>
<g id="clust1" class="cluster">
<title>cluster_master</title>
<polygon fill="transparent" stroke="transparent" points="661,-176 661,-440 846.7734,-440 846.7734,-176 661,-176"/>
</g>
<!-- F -->
<g id="node1" class="node">
<title>F</title>
<path fill="#f0efe8" stroke="#000000" stroke-width="0" d="M826.6603,-248.3751C826.6603,-248.3751 681.1131,-248.3751 681.1131,-248.3751 675.1131,-248.3751 669.1131,-242.3751 669.1131,-236.3751 669.1131,-236.3751 669.1131,-195.6249 669.1131,-195.6249 669.1131,-189.6249 675.1131,-183.6249 681.1131,-183.6249 681.1131,-183.6249 826.6603,-183.6249 826.6603,-183.6249 832.6603,-183.6249 838.6603,-189.6249 838.6603,-195.6249 838.6603,-195.6249 838.6603,-236.3751 838.6603,-236.3751 838.6603,-242.3751 832.6603,-248.3751 826.6603,-248.3751"/>
<text text-anchor="middle" x="753.8867" y="-214.4375" font-family="Menlo, Monaco, Consolas, Lucida Console, Courier New, monospace" font-size="20.00" fill="#000000">🍋 F (= CD)</text>
</g>
<!-- master -->
<g id="node8" class="node">
<title>master</title>
<polygon fill="#e93a1d" stroke="#000000" stroke-width="0" points="829.3867,-340 678.3867,-340 678.3867,-284 829.3867,-284 829.3867,-340"/>
<text text-anchor="middle" x="753.8867" y="-306" font-family="Menlo, Monaco, Consolas, Lucida Console, Courier New, monospace" font-size="20.00" fill="#ffffff">master</text>
</g>
<!-- F&#45;&gt;master -->
<g id="edge6" class="edge">
<title>F&#45;&gt;master</title>
<path fill="none" stroke="#8f8a83" stroke-width="2" d="M753.8867,-258.7865C753.8867,-267.1171 753.8867,-275.4477 753.8867,-283.7783"/>
<polygon fill="#8f8a83" stroke="#8f8a83" stroke-width="2" points="757.3868,-258.625 753.8867,-248.625 750.3868,-258.625 757.3868,-258.625"/>
</g>
<!-- A -->
<g id="node2" class="node">
<title>A</title>
<path fill="#f0efe8" stroke="#000000" stroke-width="0" d="M139,-244C139,-244 12,-244 12,-244 6,-244 0,-238 0,-232 0,-232 0,-200 0,-200 0,-194 6,-188 12,-188 12,-188 139,-188 139,-188 145,-188 151,-194 151,-200 151,-200 151,-232 151,-232 151,-238 145,-244 139,-244"/>
<text text-anchor="middle" x="75.5" y="-210" font-family="Menlo, Monaco, Consolas, Lucida Console, Courier New, monospace" font-size="20.00" fill="#000000">A</text>
</g>
<!-- B -->
<g id="node3" class="node">
<title>B</title>
<path fill="#f0efe8" stroke="#000000" stroke-width="0" d="M362,-244C362,-244 235,-244 235,-244 229,-244 223,-238 223,-232 223,-232 223,-200 223,-200 223,-194 229,-188 235,-188 235,-188 362,-188 362,-188 368,-188 374,-194 374,-200 374,-200 374,-232 374,-232 374,-238 368,-244 362,-244"/>
<text text-anchor="middle" x="298.5" y="-210" font-family="Menlo, Monaco, Consolas, Lucida Console, Courier New, monospace" font-size="20.00" fill="#000000">B</text>
</g>
<!-- A&#45;&gt;B -->
<g id="edge1" class="edge">
<title>A&#45;&gt;B</title>
<path fill="none" stroke="#8f8a83" stroke-width="2" d="M161.4571,-216C181.7075,-216 203.1458,-216 222.9009,-216"/>
<polygon fill="#8f8a83" stroke="#8f8a83" stroke-width="2" points="161.3088,-212.5001 151.3088,-216 161.3088,-219.5001 161.3088,-212.5001"/>
</g>
<!-- E -->
<g id="node4" class="node">
<title>E</title>
<path fill="#f0efe8" stroke="#000000" stroke-width="0" d="M585,-244C585,-244 458,-244 458,-244 452,-244 446,-238 446,-232 446,-232 446,-200 446,-200 446,-194 452,-188 458,-188 458,-188 585,-188 585,-188 591,-188 597,-194 597,-200 597,-200 597,-232 597,-232 597,-238 591,-244 585,-244"/>
<text text-anchor="middle" x="521.5" y="-210" font-family="Menlo, Monaco, Consolas, Lucida Console, Courier New, monospace" font-size="20.00" fill="#000000">E</text>
</g>
<!-- B&#45;&gt;E -->
<g id="edge2" class="edge">
<title>B&#45;&gt;E</title>
<path fill="none" stroke="#8f8a83" stroke-width="2" d="M384.4571,-216C404.7075,-216 426.1458,-216 445.9009,-216"/>
<polygon fill="#8f8a83" stroke="#8f8a83" stroke-width="2" points="384.3088,-212.5001 374.3088,-216 384.3088,-219.5001 384.3088,-212.5001"/>
</g>
<!-- C -->
<g id="node5" class="node">
<title>C</title>
<path fill="#f0efe8" stroke="#000000" stroke-width="0" d="M585,-148C585,-148 458,-148 458,-148 452,-148 446,-142 446,-136 446,-136 446,-104 446,-104 446,-98 452,-92 458,-92 458,-92 585,-92 585,-92 591,-92 597,-98 597,-104 597,-104 597,-136 597,-136 597,-142 591,-148 585,-148"/>
<text text-anchor="middle" x="521.5" y="-114" font-family="Menlo, Monaco, Consolas, Lucida Console, Courier New, monospace" font-size="20.00" fill="#000000">C</text>
</g>
<!-- B&#45;&gt;C -->
<g id="edge4" class="edge">
<title>B&#45;&gt;C</title>
<path fill="none" stroke="#8f8a83" stroke-width="2" d="M372.994,-183.9308C399.97,-172.3179 430.2055,-159.3017 456.3188,-148.0601"/>
<polygon fill="#8f8a83" stroke="#8f8a83" stroke-width="2" points="371.4014,-180.8058 363.6003,-187.9748 374.1693,-187.2354 371.4014,-180.8058"/>
</g>
<!-- E&#45;&gt;F -->
<g id="edge3" class="edge">
<title>E&#45;&gt;F</title>
<path fill="none" stroke="#8f8a83" stroke-width="2" d="M607.3433,-216C627.4624,-216 648.8869,-216 668.9654,-216"/>
<polygon fill="#8f8a83" stroke="#8f8a83" stroke-width="2" points="607.2706,-212.5001 597.2705,-216 607.2705,-219.5001 607.2706,-212.5001"/>
</g>
<!-- D -->
<g id="node6" class="node">
<title>D</title>
<path fill="#f0efe8" stroke="#000000" stroke-width="0" d="M817.3867,-148C817.3867,-148 690.3867,-148 690.3867,-148 684.3867,-148 678.3867,-142 678.3867,-136 678.3867,-136 678.3867,-104 678.3867,-104 678.3867,-98 684.3867,-92 690.3867,-92 690.3867,-92 817.3867,-92 817.3867,-92 823.3867,-92 829.3867,-98 829.3867,-104 829.3867,-104 829.3867,-136 829.3867,-136 829.3867,-142 823.3867,-148 817.3867,-148"/>
<text text-anchor="middle" x="753.8867" y="-114" font-family="Menlo, Monaco, Consolas, Lucida Console, Courier New, monospace" font-size="20.00" fill="#000000">D</text>
</g>
<!-- C&#45;&gt;D -->
<g id="edge5" class="edge">
<title>C&#45;&gt;D</title>
<path fill="none" stroke="#8f8a83" stroke-width="2" d="M607.45,-120C630.6655,-120 655.6122,-120 678.2191,-120"/>
<polygon fill="#8f8a83" stroke="#8f8a83" stroke-width="2" points="607.2706,-116.5001 597.2705,-120 607.2705,-123.5001 607.2706,-116.5001"/>
</g>
<!-- topic -->
<g id="node9" class="node">
<title>topic</title>
<polygon fill="#e93a1d" stroke="#000000" stroke-width="0" points="829.3867,-56 678.3867,-56 678.3867,0 829.3867,0 829.3867,-56"/>
<text text-anchor="middle" x="753.8867" y="-22" font-family="Menlo, Monaco, Consolas, Lucida Console, Courier New, monospace" font-size="20.00" fill="#ffffff">topic</text>
</g>
<!-- D&#45;&gt;topic -->
<g id="edge8" class="edge">
<title>D&#45;&gt;topic</title>
<path fill="none" stroke="#8f8a83" stroke-width="2" d="M753.8867,-81.2572C753.8867,-72.8486 753.8867,-64.4399 753.8867,-56.0313"/>
<polygon fill="#8f8a83" stroke="#8f8a83" stroke-width="2" points="750.3868,-81.5139 753.8867,-91.5139 757.3868,-81.514 750.3868,-81.5139"/>
</g>
<!-- HEAD -->
<g id="node7" class="node">
<title>HEAD</title>
<polygon fill="#c8a036" stroke="#000000" stroke-width="0" points="829.3867,-432 678.3867,-432 678.3867,-376 829.3867,-376 829.3867,-432"/>
<text text-anchor="middle" x="753.8867" y="-398" font-family="Menlo, Monaco, Consolas, Lucida Console, Courier New, monospace" font-size="20.00" fill="#ffffff">HEAD</text>
</g>
<!-- master&#45;&gt;HEAD -->
<g id="edge7" class="edge">
<title>master&#45;&gt;HEAD</title>
<path fill="none" stroke="#8f8a83" stroke-width="2" d="M753.8867,-350.288C753.8867,-358.6966 753.8867,-367.1053 753.8867,-375.5139"/>
<polygon fill="#8f8a83" stroke="#8f8a83" stroke-width="2" points="757.3868,-350.0312 753.8867,-340.0313 750.3868,-350.0313 757.3868,-350.0312"/>
</g>
</g>
</svg>
