<?xml version="1.0" encoding="UTF-8" standalone="no"?>
<!DOCTYPE svg PUBLIC "-//W3C//DTD SVG 1.1//EN"
 "http://www.w3.org/Graphics/SVG/1.1/DTD/svg11.dtd">
<!-- Generated by graphviz version 2.47.2 (20210527.0053)
 -->
<!-- Title: Git Pages: 1 -->
<svg width="850pt" height="448pt"
 viewBox="0.00 0.00 850.00 448.00" xmlns="http://www.w3.org/2000/svg" xmlns:xlink="http://www.w3.org/1999/xlink">
<g id="graph0" class="graph" transform="scale(1 1) rotate(0) translate(4 444)">
<title>Git</title>
<g id="clust1" class="cluster">
<title>cluster_master</title>
<polygon fill="transparent" stroke="transparent" points="661,-176 661,-432 834,-432 834,-176 661,-176"/>
</g>
<!-- F -->
<g id="node1" class="node">
<title>F</title>
<path fill="#f0efe8" stroke="black" stroke-width="0" d="M814,-240C814,-240 681,-240 681,-240 675,-240 669,-234 669,-228 669,-228 669,-196 669,-196 669,-190 675,-184 681,-184 681,-184 814,-184 814,-184 820,-184 826,-190 826,-196 826,-196 826,-228 826,-228 826,-234 820,-240 814,-240"/>
<text text-anchor="middle" x="747.5" y="-207" font-family="Menlo, Monaco, Consolas, Lucida Console, Courier New, monospace" font-size="20.00">🍋 F (= CD)</text>
</g>
<!-- master -->
<g id="node8" class="node">
<title>master</title>
<polygon fill="#e93a1d" stroke="black" stroke-width="0" points="823,-332 672,-332 672,-276 823,-276 823,-332"/>
<text text-anchor="middle" x="747.5" y="-299" font-family="Menlo, Monaco, Consolas, Lucida Console, Courier New, monospace" font-size="20.00" fill="#ffffff">master</text>
</g>
<!-- F&#45;&gt;master -->
<g id="edge6" class="edge">
<title>F&#45;&gt;master</title>
<path fill="none" stroke="#8f8a83" stroke-width="2" d="M747.5,-250.29C747.5,-258.7 747.5,-267.11 747.5,-275.51"/>
<polygon fill="#8f8a83" stroke="#8f8a83" stroke-width="2" points="751,-250.03 747.5,-240.03 744,-250.03 751,-250.03"/>
</g>
<!-- A -->
<g id="node2" class="node">
<title>A</title>
<path fill="#f0efe8" stroke="black" stroke-width="0" d="M139,-240C139,-240 12,-240 12,-240 6,-240 0,-234 0,-228 0,-228 0,-196 0,-196 0,-190 6,-184 12,-184 12,-184 139,-184 139,-184 145,-184 151,-190 151,-196 151,-196 151,-228 151,-228 151,-234 145,-240 139,-240"/>
<text text-anchor="middle" x="75.5" y="-207" font-family="Menlo, Monaco, Consolas, Lucida Console, Courier New, monospace" font-size="20.00">A</text>
</g>
<!-- B -->
<g id="node3" class="node">
<title>B</title>
<path fill="#f0efe8" stroke="black" stroke-width="0" d="M362,-240C362,-240 235,-240 235,-240 229,-240 223,-234 223,-228 223,-228 223,-196 223,-196 223,-190 229,-184 235,-184 235,-184 362,-184 362,-184 368,-184 374,-190 374,-196 374,-196 374,-228 374,-228 374,-234 368,-240 362,-240"/>
<text text-anchor="middle" x="298.5" y="-207" font-family="Menlo, Monaco, Consolas, Lucida Console, Courier New, monospace" font-size="20.00">B</text>
</g>
<!-- A&#45;&gt;B -->
<g id="edge1" class="edge">
<title>A&#45;&gt;B</title>
<path fill="none" stroke="#8f8a83" stroke-width="2" d="M161.2,-212C181.53,-212 203.1,-212 222.94,-212"/>
<polygon fill="#8f8a83" stroke="#8f8a83" stroke-width="2" points="161.01,-208.5 151.01,-212 161.01,-215.5 161.01,-208.5"/>
</g>
<!-- E -->
<g id="node4" class="node">
<title>E</title>
<path fill="#f0efe8" stroke="black" stroke-width="0" d="M585,-240C585,-240 458,-240 458,-240 452,-240 446,-234 446,-228 446,-228 446,-196 446,-196 446,-190 452,-184 458,-184 458,-184 585,-184 585,-184 591,-184 597,-190 597,-196 597,-196 597,-228 597,-228 597,-234 591,-240 585,-240"/>
<text text-anchor="middle" x="521.5" y="-207" font-family="Menlo, Monaco, Consolas, Lucida Console, Courier New, monospace" font-size="20.00">E</text>
</g>
<!-- B&#45;&gt;E -->
<g id="edge2" class="edge">
<title>B&#45;&gt;E</title>
<path fill="none" stroke="#8f8a83" stroke-width="2" d="M384.2,-212C404.53,-212 426.1,-212 445.94,-212"/>
<polygon fill="#8f8a83" stroke="#8f8a83" stroke-width="2" points="384.01,-208.5 374.01,-212 384.01,-215.5 384.01,-208.5"/>
</g>
<!-- C -->
<g id="node5" class="node">
<title>C</title>
<path fill="#f0efe8" stroke="black" stroke-width="0" d="M585,-148C585,-148 458,-148 458,-148 452,-148 446,-142 446,-136 446,-136 446,-104 446,-104 446,-98 452,-92 458,-92 458,-92 585,-92 585,-92 591,-92 597,-98 597,-104 597,-104 597,-136 597,-136 597,-142 591,-148 585,-148"/>
<text text-anchor="middle" x="521.5" y="-115" font-family="Menlo, Monaco, Consolas, Lucida Console, Courier New, monospace" font-size="20.00">C</text>
</g>
<!-- B&#45;&gt;C -->
<g id="edge4" class="edge">
<title>B&#45;&gt;C</title>
<path fill="none" stroke="#8f8a83" stroke-width="2" d="M376.43,-179.97C401.37,-169.59 428.83,-158.16 453.02,-148.09"/>
<polygon fill="#8f8a83" stroke="#8f8a83" stroke-width="2" points="374.9,-176.82 367.01,-183.9 377.59,-183.29 374.9,-176.82"/>
</g>
<!-- E&#45;&gt;F -->
<g id="edge3" class="edge">
<title>E&#45;&gt;F</title>
<path fill="none" stroke="#8f8a83" stroke-width="2" d="M607.21,-212C627.43,-212 648.9,-212 668.79,-212"/>
<polygon fill="#8f8a83" stroke="#8f8a83" stroke-width="2" points="607.09,-208.5 597.09,-212 607.09,-215.5 607.09,-208.5"/>
</g>
<!-- D -->
<g id="node6" class="node">
<title>D</title>
<path fill="#f0efe8" stroke="black" stroke-width="0" d="M811,-148C811,-148 684,-148 684,-148 678,-148 672,-142 672,-136 672,-136 672,-104 672,-104 672,-98 678,-92 684,-92 684,-92 811,-92 811,-92 817,-92 823,-98 823,-104 823,-104 823,-136 823,-136 823,-142 817,-148 811,-148"/>
<text text-anchor="middle" x="747.5" y="-115" font-family="Menlo, Monaco, Consolas, Lucida Console, Courier New, monospace" font-size="20.00">D</text>
</g>
<!-- C&#45;&gt;D -->
<g id="edge5" class="edge">
<title>C&#45;&gt;D</title>
<path fill="none" stroke="#8f8a83" stroke-width="2" d="M607.38,-120C628.59,-120 651.18,-120 671.86,-120"/>
<polygon fill="#8f8a83" stroke="#8f8a83" stroke-width="2" points="607.09,-116.5 597.09,-120 607.09,-123.5 607.09,-116.5"/>
</g>
<!-- topic -->
<g id="node9" class="node">
<title>topic</title>
<polygon fill="#e93a1d" stroke="black" stroke-width="0" points="823,-56 672,-56 672,0 823,0 823,-56"/>
<text text-anchor="middle" x="747.5" y="-23" font-family="Menlo, Monaco, Consolas, Lucida Console, Courier New, monospace" font-size="20.00" fill="#ffffff">topic</text>
</g>
<!-- D&#45;&gt;topic -->
<g id="edge8" class="edge">
<title>D&#45;&gt;topic</title>
<path fill="none" stroke="#8f8a83" stroke-width="2" d="M747.5,-81.26C747.5,-72.85 747.5,-64.44 747.5,-56.03"/>
<polygon fill="#8f8a83" stroke="#8f8a83" stroke-width="2" points="744,-81.51 747.5,-91.51 751,-81.51 744,-81.51"/>
</g>
<!-- HEAD -->
<g id="node7" class="node">
<title>HEAD</title>
<polygon fill="#c8a036" stroke="black" stroke-width="0" points="823,-424 672,-424 672,-368 823,-368 823,-424"/>
<text text-anchor="middle" x="747.5" y="-391" font-family="Menlo, Monaco, Consolas, Lucida Console, Courier New, monospace" font-size="20.00" fill="#ffffff">HEAD</text>
</g>
<!-- master&#45;&gt;HEAD -->
<g id="edge7" class="edge">
<title>master&#45;&gt;HEAD</title>
<path fill="none" stroke="#8f8a83" stroke-width="2" d="M747.5,-342.29C747.5,-350.7 747.5,-359.11 747.5,-367.51"/>
<polygon fill="#8f8a83" stroke="#8f8a83" stroke-width="2" points="751,-342.03 747.5,-332.03 744,-342.03 751,-342.03"/>
</g>
</g>
</svg>
