<?xml version="1.0" encoding="UTF-8" standalone="no"?>
<!DOCTYPE svg PUBLIC "-//W3C//DTD SVG 1.1//EN"
 "http://www.w3.org/Graphics/SVG/1.1/DTD/svg11.dtd">
<!-- Generated by graphviz version 2.43.0 (0)
 -->
<!-- Title: Git Pages: 1 -->
<svg width="863pt" height="456pt"
 viewBox="0.00 0.00 862.77 456.00" xmlns="http://www.w3.org/2000/svg" xmlns:xlink="http://www.w3.org/1999/xlink">
<g id="graph0" class="graph" transform="scale(1 1) rotate(0) translate(4 452)">
<title>Git</title>
<g id="clust1" class="cluster">
<title>cluster_master</title>
<polygon fill="transparent" stroke="transparent" points="661,-176 661,-440 846.77,-440 846.77,-176 661,-176"/>
</g>
<!-- F -->
<g id="node1" class="node">
<title>F</title>
<path fill="#f0efe8" stroke="black" stroke-width="0" d="M826.66,-248.38C826.66,-248.38 681.11,-248.38 681.11,-248.38 675.11,-248.38 669.11,-242.38 669.11,-236.38 669.11,-236.38 669.11,-195.62 669.11,-195.62 669.11,-189.62 675.11,-183.62 681.11,-183.62 681.11,-183.62 826.66,-183.62 826.66,-183.62 832.66,-183.62 838.66,-189.62 838.66,-195.62 838.66,-195.62 838.66,-236.38 838.66,-236.38 838.66,-242.38 832.66,-248.38 826.66,-248.38"/>
<text text-anchor="middle" x="753.89" y="-214.44" font-family="Menlo, Monaco, Consolas, Lucida Console, Courier New, monospace" font-size="20.00">🍋 F (= CD)</text>
</g>
<!-- master -->
<g id="node8" class="node">
<title>master</title>
<polygon fill="#e93a1d" stroke="black" stroke-width="0" points="829.39,-340 678.39,-340 678.39,-284 829.39,-284 829.39,-340"/>
<text text-anchor="middle" x="753.89" y="-306" font-family="Menlo, Monaco, Consolas, Lucida Console, Courier New, monospace" font-size="20.00" fill="#ffffff">master</text>
</g>
<!-- F&#45;&gt;master -->
<g id="edge6" class="edge">
<title>F&#45;&gt;master</title>
<path fill="none" stroke="#8f8a83" stroke-width="2" d="M753.89,-258.79C753.89,-267.12 753.89,-275.45 753.89,-283.78"/>
<polygon fill="#8f8a83" stroke="#8f8a83" stroke-width="2" points="757.39,-258.62 753.89,-248.62 750.39,-258.63 757.39,-258.62"/>
</g>
<!-- A -->
<g id="node2" class="node">
<title>A</title>
<path fill="#f0efe8" stroke="black" stroke-width="0" d="M139,-244C139,-244 12,-244 12,-244 6,-244 0,-238 0,-232 0,-232 0,-200 0,-200 0,-194 6,-188 12,-188 12,-188 139,-188 139,-188 145,-188 151,-194 151,-200 151,-200 151,-232 151,-232 151,-238 145,-244 139,-244"/>
<text text-anchor="middle" x="75.5" y="-210" font-family="Menlo, Monaco, Consolas, Lucida Console, Courier New, monospace" font-size="20.00">A</text>
</g>
<!-- B -->
<g id="node3" class="node">
<title>B</title>
<path fill="#f0efe8" stroke="black" stroke-width="0" d="M362,-244C362,-244 235,-244 235,-244 229,-244 223,-238 223,-232 223,-232 223,-200 223,-200 223,-194 229,-188 235,-188 235,-188 362,-188 362,-188 368,-188 374,-194 374,-200 374,-200 374,-232 374,-232 374,-238 368,-244 362,-244"/>
<text text-anchor="middle" x="298.5" y="-210" font-family="Menlo, Monaco, Consolas, Lucida Console, Courier New, monospace" font-size="20.00">B</text>
</g>
<!-- A&#45;&gt;B -->
<g id="edge1" class="edge">
<title>A&#45;&gt;B</title>
<path fill="none" stroke="#8f8a83" stroke-width="2" d="M161.2,-216C181.53,-216 203.1,-216 222.94,-216"/>
<polygon fill="#8f8a83" stroke="#8f8a83" stroke-width="2" points="161.01,-212.5 151.01,-216 161.01,-219.5 161.01,-212.5"/>
</g>
<!-- E -->
<g id="node4" class="node">
<title>E</title>
<path fill="#f0efe8" stroke="black" stroke-width="0" d="M585,-244C585,-244 458,-244 458,-244 452,-244 446,-238 446,-232 446,-232 446,-200 446,-200 446,-194 452,-188 458,-188 458,-188 585,-188 585,-188 591,-188 597,-194 597,-200 597,-200 597,-232 597,-232 597,-238 591,-244 585,-244"/>
<text text-anchor="middle" x="521.5" y="-210" font-family="Menlo, Monaco, Consolas, Lucida Console, Courier New, monospace" font-size="20.00">E</text>
</g>
<!-- B&#45;&gt;E -->
<g id="edge2" class="edge">
<title>B&#45;&gt;E</title>
<path fill="none" stroke="#8f8a83" stroke-width="2" d="M384.2,-216C404.53,-216 426.1,-216 445.94,-216"/>
<polygon fill="#8f8a83" stroke="#8f8a83" stroke-width="2" points="384.01,-212.5 374.01,-216 384.01,-219.5 384.01,-212.5"/>
</g>
<!-- C -->
<g id="node5" class="node">
<title>C</title>
<path fill="#f0efe8" stroke="black" stroke-width="0" d="M585,-148C585,-148 458,-148 458,-148 452,-148 446,-142 446,-136 446,-136 446,-104 446,-104 446,-98 452,-92 458,-92 458,-92 585,-92 585,-92 591,-92 597,-98 597,-104 597,-104 597,-136 597,-136 597,-142 591,-148 585,-148"/>
<text text-anchor="middle" x="521.5" y="-114" font-family="Menlo, Monaco, Consolas, Lucida Console, Courier New, monospace" font-size="20.00">C</text>
</g>
<!-- B&#45;&gt;C -->
<g id="edge4" class="edge">
<title>B&#45;&gt;C</title>
<path fill="none" stroke="#8f8a83" stroke-width="2" d="M373.33,-183.93C400.06,-172.32 430.02,-159.3 455.9,-148.06"/>
<polygon fill="#8f8a83" stroke="#8f8a83" stroke-width="2" points="371.79,-180.78 364.02,-187.97 374.58,-187.2 371.79,-180.78"/>
</g>
<!-- E&#45;&gt;F -->
<g id="edge3" class="edge">
<title>E&#45;&gt;F</title>
<path fill="none" stroke="#8f8a83" stroke-width="2" d="M607.35,-216C627.43,-216 648.84,-216 668.88,-216"/>
<polygon fill="#8f8a83" stroke="#8f8a83" stroke-width="2" points="607.3,-212.5 597.3,-216 607.3,-219.5 607.3,-212.5"/>
</g>
<!-- D -->
<g id="node6" class="node">
<title>D</title>
<path fill="#f0efe8" stroke="black" stroke-width="0" d="M817.39,-148C817.39,-148 690.39,-148 690.39,-148 684.39,-148 678.39,-142 678.39,-136 678.39,-136 678.39,-104 678.39,-104 678.39,-98 684.39,-92 690.39,-92 690.39,-92 817.39,-92 817.39,-92 823.39,-92 829.39,-98 829.39,-104 829.39,-104 829.39,-136 829.39,-136 829.39,-142 823.39,-148 817.39,-148"/>
<text text-anchor="middle" x="753.89" y="-114" font-family="Menlo, Monaco, Consolas, Lucida Console, Courier New, monospace" font-size="20.00">D</text>
</g>
<!-- C&#45;&gt;D -->
<g id="edge5" class="edge">
<title>C&#45;&gt;D</title>
<path fill="none" stroke="#8f8a83" stroke-width="2" d="M607.45,-120C630.61,-120 655.52,-120 678.07,-120"/>
<polygon fill="#8f8a83" stroke="#8f8a83" stroke-width="2" points="607.3,-116.5 597.3,-120 607.3,-123.5 607.3,-116.5"/>
</g>
<!-- topic -->
<g id="node9" class="node">
<title>topic</title>
<polygon fill="#e93a1d" stroke="black" stroke-width="0" points="829.39,-56 678.39,-56 678.39,0 829.39,0 829.39,-56"/>
<text text-anchor="middle" x="753.89" y="-22" font-family="Menlo, Monaco, Consolas, Lucida Console, Courier New, monospace" font-size="20.00" fill="#ffffff">topic</text>
</g>
<!-- D&#45;&gt;topic -->
<g id="edge8" class="edge">
<title>D&#45;&gt;topic</title>
<path fill="none" stroke="#8f8a83" stroke-width="2" d="M753.89,-81.26C753.89,-72.85 753.89,-64.44 753.89,-56.03"/>
<polygon fill="#8f8a83" stroke="#8f8a83" stroke-width="2" points="750.39,-81.51 753.89,-91.51 757.39,-81.51 750.39,-81.51"/>
</g>
<!-- HEAD -->
<g id="node7" class="node">
<title>HEAD</title>
<polygon fill="#c8a036" stroke="black" stroke-width="0" points="829.39,-432 678.39,-432 678.39,-376 829.39,-376 829.39,-432"/>
<text text-anchor="middle" x="753.89" y="-398" font-family="Menlo, Monaco, Consolas, Lucida Console, Courier New, monospace" font-size="20.00" fill="#ffffff">HEAD</text>
</g>
<!-- master&#45;&gt;HEAD -->
<g id="edge7" class="edge">
<title>master&#45;&gt;HEAD</title>
<path fill="none" stroke="#8f8a83" stroke-width="2" d="M753.89,-350.29C753.89,-358.7 753.89,-367.11 753.89,-375.51"/>
<polygon fill="#8f8a83" stroke="#8f8a83" stroke-width="2" points="757.39,-350.03 753.89,-340.03 750.39,-350.03 757.39,-350.03"/>
</g>
</g>
</svg>
