<?xml version="1.0" encoding="UTF-8" standalone="no"?>
<!DOCTYPE svg PUBLIC "-//W3C//DTD SVG 1.1//EN"
 "http://www.w3.org/Graphics/SVG/1.1/DTD/svg11.dtd">
<!-- Generated by graphviz version 2.47.2 (20210527.0053)
 -->
<!-- Title: Git Pages: 1 -->
<svg width="1332pt" height="511pt"
 viewBox="0.00 0.00 1332.00 511.00" xmlns="http://www.w3.org/2000/svg" xmlns:xlink="http://www.w3.org/1999/xlink">
<g id="graph0" class="graph" transform="scale(1 1) rotate(0) translate(4 507)">
<title>Git</title>
<g id="clust1" class="cluster">
<title>cluster_master</title>
<polygon fill="transparent" stroke="transparent" points="1107,-239 1107,-495 1316,-495 1316,-239 1107,-239"/>
</g>
<!-- G -->
<g id="node1" class="node">
<title>G</title>
<path fill="#f0efe8" stroke="black" stroke-width="0" d="M1296,-303C1296,-303 1127,-303 1127,-303 1121,-303 1115,-297 1115,-291 1115,-291 1115,-259 1115,-259 1115,-253 1121,-247 1127,-247 1127,-247 1296,-247 1296,-247 1302,-247 1308,-253 1308,-259 1308,-259 1308,-291 1308,-291 1308,-297 1302,-303 1296,-303"/>
<text text-anchor="middle" x="1211.5" y="-270" font-family="Menlo, Monaco, Consolas, Lucida Console, Courier New, monospace" font-size="20.00">🍋 G (= E + F)</text>
</g>
<!-- master -->
<g id="node11" class="node">
<title>master</title>
<polygon fill="#2c942c" stroke="black" stroke-width="0" points="1287,-395 1136,-395 1136,-339 1287,-339 1287,-395"/>
<text text-anchor="middle" x="1211.5" y="-362" font-family="Menlo, Monaco, Consolas, Lucida Console, Courier New, monospace" font-size="20.00" fill="#ffffff">master</text>
</g>
<!-- G&#45;&gt;master -->
<g id="edge10" class="edge">
<title>G&#45;&gt;master</title>
<path fill="none" stroke="#8f8a83" stroke-width="2" d="M1211.5,-313.29C1211.5,-321.7 1211.5,-330.11 1211.5,-338.51"/>
<polygon fill="#8f8a83" stroke="#8f8a83" stroke-width="2" points="1215,-313.03 1211.5,-303.03 1208,-313.03 1215,-313.03"/>
</g>
<!-- A -->
<g id="node2" class="node">
<title>A</title>
<path fill="#f0efe8" stroke="black" stroke-width="0" d="M139,-303C139,-303 12,-303 12,-303 6,-303 0,-297 0,-291 0,-291 0,-259 0,-259 0,-253 6,-247 12,-247 12,-247 139,-247 139,-247 145,-247 151,-253 151,-259 151,-259 151,-291 151,-291 151,-297 145,-303 139,-303"/>
<text text-anchor="middle" x="75.5" y="-270" font-family="Menlo, Monaco, Consolas, Lucida Console, Courier New, monospace" font-size="20.00">A</text>
</g>
<!-- B -->
<g id="node3" class="node">
<title>B</title>
<path fill="#f0efe8" stroke="black" stroke-width="0" d="M362,-303C362,-303 235,-303 235,-303 229,-303 223,-297 223,-291 223,-291 223,-259 223,-259 223,-253 229,-247 235,-247 235,-247 362,-247 362,-247 368,-247 374,-253 374,-259 374,-259 374,-291 374,-291 374,-297 368,-303 362,-303"/>
<text text-anchor="middle" x="298.5" y="-270" font-family="Menlo, Monaco, Consolas, Lucida Console, Courier New, monospace" font-size="20.00">B</text>
</g>
<!-- A&#45;&gt;B -->
<g id="edge1" class="edge">
<title>A&#45;&gt;B</title>
<path fill="none" stroke="#8f8a83" stroke-width="2" d="M161.2,-275C181.53,-275 203.1,-275 222.94,-275"/>
<polygon fill="#8f8a83" stroke="#8f8a83" stroke-width="2" points="161.01,-271.5 151.01,-275 161.01,-278.5 161.01,-271.5"/>
</g>
<!-- F -->
<g id="node4" class="node">
<title>F</title>
<path fill="#f0efe8" stroke="black" stroke-width="0" d="M585,-303C585,-303 458,-303 458,-303 452,-303 446,-297 446,-291 446,-291 446,-259 446,-259 446,-253 452,-247 458,-247 458,-247 585,-247 585,-247 591,-247 597,-253 597,-259 597,-259 597,-291 597,-291 597,-297 591,-303 585,-303"/>
<text text-anchor="middle" x="521.5" y="-270" font-family="Menlo, Monaco, Consolas, Lucida Console, Courier New, monospace" font-size="20.00">F</text>
</g>
<!-- B&#45;&gt;F -->
<g id="edge2" class="edge">
<title>B&#45;&gt;F</title>
<path fill="none" stroke="#8f8a83" stroke-width="2" d="M384.2,-275C404.53,-275 426.1,-275 445.94,-275"/>
<polygon fill="#8f8a83" stroke="#8f8a83" stroke-width="2" points="384.01,-271.5 374.01,-275 384.01,-278.5 384.01,-271.5"/>
</g>
<!-- C -->
<g id="node7" class="node">
<title>C</title>
<path fill="#f0efe8" stroke="black" stroke-width="0" d="M585,-148C585,-148 458,-148 458,-148 452,-148 446,-142 446,-136 446,-136 446,-104 446,-104 446,-98 452,-92 458,-92 458,-92 585,-92 585,-92 591,-92 597,-98 597,-104 597,-104 597,-136 597,-136 597,-142 591,-148 585,-148"/>
<text text-anchor="middle" x="521.5" y="-115" font-family="Menlo, Monaco, Consolas, Lucida Console, Courier New, monospace" font-size="20.00">C</text>
</g>
<!-- B&#45;&gt;C -->
<g id="edge7" class="edge">
<title>B&#45;&gt;C</title>
<path fill="none" stroke="#8f8a83" stroke-width="2" d="M347.74,-241.16C387.46,-213.31 443.1,-174.28 480.4,-148.12"/>
<polygon fill="#8f8a83" stroke="#8f8a83" stroke-width="2" points="345.7,-238.32 339.52,-246.93 349.72,-244.05 345.7,-238.32"/>
</g>
<!-- F&#45;&gt;G -->
<g id="edge3" class="edge">
<title>F&#45;&gt;G</title>
<path fill="none" stroke="#8f8a83" stroke-width="2" d="M607.31,-275C736.08,-275 980.12,-275 1114.97,-275"/>
<polygon fill="#8f8a83" stroke="#8f8a83" stroke-width="2" points="607.11,-271.5 597.11,-275 607.11,-278.5 607.11,-271.5"/>
</g>
<!-- X -->
<g id="node5" class="node">
<title>X</title>
<path fill="transparent" stroke="black" stroke-width="0" d="M808,-220C808,-220 681,-220 681,-220 675,-220 669,-214 669,-208 669,-208 669,-196 669,-196 669,-190 675,-184 681,-184 681,-184 808,-184 808,-184 814,-184 820,-190 820,-196 820,-196 820,-208 820,-208 820,-214 814,-220 808,-220"/>
</g>
<!-- F&#45;&gt;X -->
<!-- Y -->
<g id="node6" class="node">
<title>Y</title>
<path fill="transparent" stroke="black" stroke-width="0" d="M1031,-220C1031,-220 904,-220 904,-220 898,-220 892,-214 892,-208 892,-208 892,-196 892,-196 892,-190 898,-184 904,-184 904,-184 1031,-184 1031,-184 1037,-184 1043,-190 1043,-196 1043,-196 1043,-208 1043,-208 1043,-214 1037,-220 1031,-220"/>
</g>
<!-- X&#45;&gt;Y -->
<!-- Y&#45;&gt;G -->
<!-- D -->
<g id="node8" class="node">
<title>D</title>
<path fill="#f0efe8" stroke="black" stroke-width="0" d="M808,-148C808,-148 681,-148 681,-148 675,-148 669,-142 669,-136 669,-136 669,-104 669,-104 669,-98 675,-92 681,-92 681,-92 808,-92 808,-92 814,-92 820,-98 820,-104 820,-104 820,-136 820,-136 820,-142 814,-148 808,-148"/>
<text text-anchor="middle" x="744.5" y="-115" font-family="Menlo, Monaco, Consolas, Lucida Console, Courier New, monospace" font-size="20.00">D</text>
</g>
<!-- C&#45;&gt;D -->
<g id="edge8" class="edge">
<title>C&#45;&gt;D</title>
<path fill="none" stroke="#8f8a83" stroke-width="2" d="M607.2,-120C627.53,-120 649.1,-120 668.94,-120"/>
<polygon fill="#8f8a83" stroke="#8f8a83" stroke-width="2" points="607.01,-116.5 597.01,-120 607.01,-123.5 607.01,-116.5"/>
</g>
<!-- E -->
<g id="node9" class="node">
<title>E</title>
<path fill="#f0efe8" stroke="black" stroke-width="0" d="M1031,-148C1031,-148 904,-148 904,-148 898,-148 892,-142 892,-136 892,-136 892,-104 892,-104 892,-98 898,-92 904,-92 904,-92 1031,-92 1031,-92 1037,-92 1043,-98 1043,-104 1043,-104 1043,-136 1043,-136 1043,-142 1037,-148 1031,-148"/>
<text text-anchor="middle" x="967.5" y="-115" font-family="Menlo, Monaco, Consolas, Lucida Console, Courier New, monospace" font-size="20.00">E</text>
</g>
<!-- D&#45;&gt;E -->
<g id="edge9" class="edge">
<title>D&#45;&gt;E</title>
<path fill="none" stroke="#8f8a83" stroke-width="2" d="M830.2,-120C850.53,-120 872.1,-120 891.94,-120"/>
<polygon fill="#8f8a83" stroke="#8f8a83" stroke-width="2" points="830.01,-116.5 820.01,-120 830.01,-123.5 830.01,-116.5"/>
</g>
<!-- topic -->
<g id="node12" class="node">
<title>topic</title>
<polygon fill="#2c942c" stroke="black" stroke-width="0" points="1043,-56 892,-56 892,0 1043,0 1043,-56"/>
<text text-anchor="middle" x="967.5" y="-23" font-family="Menlo, Monaco, Consolas, Lucida Console, Courier New, monospace" font-size="20.00" fill="#ffffff">topic</text>
</g>
<!-- E&#45;&gt;topic -->
<g id="edge12" class="edge">
<title>E&#45;&gt;topic</title>
<path fill="none" stroke="#8f8a83" stroke-width="2" d="M967.5,-81.26C967.5,-72.85 967.5,-64.44 967.5,-56.03"/>
<polygon fill="#8f8a83" stroke="#8f8a83" stroke-width="2" points="964,-81.51 967.5,-91.51 971,-81.51 964,-81.51"/>
</g>
<!-- HEAD -->
<g id="node10" class="node">
<title>HEAD</title>
<polygon fill="#3e8f99" stroke="black" stroke-width="0" points="1287,-487 1136,-487 1136,-431 1287,-431 1287,-487"/>
<text text-anchor="middle" x="1211.5" y="-454" font-family="Menlo, Monaco, Consolas, Lucida Console, Courier New, monospace" font-size="20.00" fill="#ffffff">HEAD</text>
</g>
<!-- master&#45;&gt;HEAD -->
<g id="edge11" class="edge">
<title>master&#45;&gt;HEAD</title>
<path fill="none" stroke="#8f8a83" stroke-width="2" d="M1211.5,-405.29C1211.5,-413.7 1211.5,-422.11 1211.5,-430.51"/>
<polygon fill="#8f8a83" stroke="#8f8a83" stroke-width="2" points="1215,-405.03 1211.5,-395.03 1208,-405.03 1215,-405.03"/>
</g>
</g>
</svg>
