<?xml version="1.0" encoding="UTF-8" standalone="no"?>
<!DOCTYPE svg PUBLIC "-//W3C//DTD SVG 1.1//EN"
 "http://www.w3.org/Graphics/SVG/1.1/DTD/svg11.dtd">
<!-- Generated by graphviz version 2.43.0 (0)
 -->
<!-- Title: Git Pages: 1 -->
<svg width="614pt" height="372pt"
 viewBox="0.00 0.00 613.84 372.00" xmlns="http://www.w3.org/2000/svg" xmlns:xlink="http://www.w3.org/1999/xlink">
<g id="graph0" class="graph" transform="scale(1 1) rotate(0) translate(4 368)">
<title>Git</title>
<!-- blessed -->
<g id="node1" class="node">
<title>blessed</title>
<polygon fill="#c8a036" stroke="black" stroke-width="0" points="605.73,-364 432.11,-364 432.11,-288 605.73,-288 605.73,-364"/>
<text text-anchor="middle" x="518.92" y="-330" font-family="Menlo, Monaco, Consolas, Lucida Console, Courier New, monospace" font-size="20.00" fill="#ffffff">blessed</text>
<text text-anchor="middle" x="518.92" y="-310" font-family="Menlo, Monaco, Consolas, Lucida Console, Courier New, monospace" font-size="20.00" fill="#ffffff">repository</text>
</g>
<!-- lt1 -->
<g id="node3" class="node">
<title>lt1</title>
<polygon fill="#3e8f99" stroke="black" stroke-width="0" points="173.42,-210 0.42,-210 0.42,-154 173.42,-154 173.42,-210"/>
<text text-anchor="middle" x="86.92" y="-176" font-family="Menlo, Monaco, Consolas, Lucida Console, Courier New, monospace" font-size="20.00" fill="#ffffff">lieutenant</text>
</g>
<!-- blessed&#45;&#45;lt1 -->
<g id="edge10" class="edge">
<title>blessed:s&#45;&#45;lt1:ne</title>
<path fill="none" stroke="#8f8a83" stroke-width="2" stroke-opacity="0.392157" d="M518.92,-288C518.92,-288 240.44,-225.04 183.87,-212.25"/>
<polygon fill="#8f8a83" fill-opacity="0.392157" stroke="#8f8a83" stroke-width="2" stroke-opacity="0.392157" points="184.45,-208.79 173.92,-210 182.9,-215.62 184.45,-208.79"/>
</g>
<!-- lt2 -->
<g id="node4" class="node">
<title>lt2</title>
<polygon fill="#3e8f99" stroke="black" stroke-width="0" points="389.42,-210 216.42,-210 216.42,-154 389.42,-154 389.42,-210"/>
<text text-anchor="middle" x="302.92" y="-176" font-family="Menlo, Monaco, Consolas, Lucida Console, Courier New, monospace" font-size="20.00" fill="#ffffff">lieutenant</text>
</g>
<!-- blessed&#45;&#45;lt2 -->
<g id="edge11" class="edge">
<title>blessed:s&#45;&#45;lt2:ne</title>
<path fill="none" stroke="#8f8a83" stroke-width="2" stroke-opacity="0.392157" d="M518.92,-288C518.92,-288 427.93,-232.98 398.79,-215.36"/>
<polygon fill="#8f8a83" fill-opacity="0.392157" stroke="#8f8a83" stroke-width="2" stroke-opacity="0.392157" points="400.29,-212.18 389.92,-210 396.67,-218.17 400.29,-212.18"/>
</g>
<!-- dev1 -->
<g id="node5" class="node">
<title>dev1</title>
<polygon fill="#f0efe8" stroke="black" stroke-width="0" points="173.76,-76 0.08,-76 0.08,0 173.76,0 173.76,-76"/>
<text text-anchor="middle" x="86.92" y="-42" font-family="Menlo, Monaco, Consolas, Lucida Console, Courier New, monospace" font-size="20.00" fill="#000000">developer</text>
<text text-anchor="middle" x="86.92" y="-22" font-family="Menlo, Monaco, Consolas, Lucida Console, Courier New, monospace" font-size="20.00" fill="#000000">public</text>
</g>
<!-- blessed&#45;&#45;dev1 -->
<g id="edge7" class="edge">
<title>blessed:s&#45;&#45;dev1:ne</title>
<path fill="none" stroke="#8f8a83" stroke-width="2" stroke-opacity="0.392157" d="M518.92,-288C518.92,-288 263.63,-261.68 213.22,-213.2 176.79,-178.16 173.46,-111.84 173.62,-86.35"/>
<polygon fill="#8f8a83" fill-opacity="0.392157" stroke="#8f8a83" stroke-width="2" stroke-opacity="0.392157" points="177.13,-86.1 173.92,-76 170.13,-85.89 177.13,-86.1"/>
</g>
<!-- dev2 -->
<g id="node6" class="node">
<title>dev2</title>
<polygon fill="#f0efe8" stroke="black" stroke-width="0" points="389.76,-76 216.08,-76 216.08,0 389.76,0 389.76,-76"/>
<text text-anchor="middle" x="302.92" y="-42" font-family="Menlo, Monaco, Consolas, Lucida Console, Courier New, monospace" font-size="20.00" fill="#000000">developer</text>
<text text-anchor="middle" x="302.92" y="-22" font-family="Menlo, Monaco, Consolas, Lucida Console, Courier New, monospace" font-size="20.00" fill="#000000">public</text>
</g>
<!-- blessed&#45;&#45;dev2 -->
<g id="edge8" class="edge">
<title>blessed:s&#45;&#45;dev2:ne</title>
<path fill="none" stroke="#8f8a83" stroke-width="2" stroke-opacity="0.392157" d="M518.92,-288C518.92,-288 419.27,-124.24 395.14,-84.57"/>
<polygon fill="#8f8a83" fill-opacity="0.392157" stroke="#8f8a83" stroke-width="2" stroke-opacity="0.392157" points="398.11,-82.72 389.92,-76 392.13,-86.36 398.11,-82.72"/>
</g>
<!-- dev3 -->
<g id="node7" class="node">
<title>dev3</title>
<polygon fill="#f0efe8" stroke="black" stroke-width="0" points="605.76,-76 432.08,-76 432.08,0 605.76,0 605.76,-76"/>
<text text-anchor="middle" x="518.92" y="-42" font-family="Menlo, Monaco, Consolas, Lucida Console, Courier New, monospace" font-size="20.00" fill="#000000">developer</text>
<text text-anchor="middle" x="518.92" y="-22" font-family="Menlo, Monaco, Consolas, Lucida Console, Courier New, monospace" font-size="20.00" fill="#000000">public</text>
</g>
<!-- blessed&#45;&#45;dev3 -->
<g id="edge9" class="edge">
<title>blessed:s&#45;&#45;dev3</title>
<path fill="none" stroke="#8f8a83" stroke-width="2" stroke-opacity="0.392157" d="M518.92,-288C518.92,-288 518.92,-159.25 518.92,-86.54"/>
<polygon fill="#8f8a83" fill-opacity="0.392157" stroke="#8f8a83" stroke-width="2" stroke-opacity="0.392157" points="522.42,-86.24 518.92,-76.24 515.42,-86.24 522.42,-86.24"/>
</g>
<!-- dictator -->
<g id="node2" class="node">
<title>dictator</title>
<polygon fill="#e93a1d" stroke="black" stroke-width="0" points="173.42,-354 0.42,-354 0.42,-298 173.42,-298 173.42,-354"/>
<text text-anchor="middle" x="86.92" y="-320" font-family="Menlo, Monaco, Consolas, Lucida Console, Courier New, monospace" font-size="20.00" fill="#ffffff">dictator</text>
</g>
<!-- dictator&#45;&#45;blessed -->
<g id="edge1" class="edge">
<title>dictator&#45;&#45;blessed</title>
<path fill="none" stroke="#8f8a83" stroke-width="2" d="M173.56,-326C245.31,-326 347.21,-326 421.73,-326"/>
<polygon fill="#8f8a83" stroke="#8f8a83" stroke-width="2" points="422.05,-329.5 432.05,-326 422.05,-322.5 422.05,-329.5"/>
</g>
<!-- lt1&#45;&#45;dictator -->
<g id="edge2" class="edge">
<title>lt1&#45;&#45;dictator</title>
<path fill="none" stroke="#8f8a83" stroke-width="2" d="M86.92,-210.11C86.92,-232.31 86.92,-263.51 86.92,-287.95"/>
<polygon fill="#8f8a83" stroke="#8f8a83" stroke-width="2" points="83.42,-287.96 86.92,-297.96 90.42,-287.96 83.42,-287.96"/>
</g>
<!-- lt2&#45;&#45;dictator -->
<g id="edge3" class="edge">
<title>lt2&#45;&#45;dictator</title>
<path fill="none" stroke="#8f8a83" stroke-width="2" d="M260.76,-210.11C225.53,-233.6 175.17,-267.17 137.72,-292.13"/>
<polygon fill="#8f8a83" stroke="#8f8a83" stroke-width="2" points="135.35,-289.51 128.97,-297.96 139.24,-295.33 135.35,-289.51"/>
</g>
<!-- dev1&#45;&#45;lt1 -->
<g id="edge4" class="edge">
<title>dev1&#45;&#45;lt1</title>
<path fill="none" stroke="#8f8a83" stroke-width="2" d="M86.92,-76.21C86.92,-97.02 86.92,-122.71 86.92,-143.56"/>
<polygon fill="#8f8a83" stroke="#8f8a83" stroke-width="2" points="83.42,-143.67 86.92,-153.67 90.42,-143.67 83.42,-143.67"/>
</g>
<!-- dev2&#45;&#45;lt1 -->
<g id="edge5" class="edge">
<title>dev2&#45;&#45;lt1</title>
<path fill="none" stroke="#8f8a83" stroke-width="2" d="M245.89,-76.02C212.27,-98.43 170.1,-126.55 137.65,-148.18"/>
<polygon fill="#8f8a83" stroke="#8f8a83" stroke-width="2" points="135.57,-145.36 129.19,-153.82 139.45,-151.18 135.57,-145.36"/>
</g>
<!-- dev3&#45;&#45;lt2 -->
<g id="edge6" class="edge">
<title>dev3&#45;&#45;lt2</title>
<path fill="none" stroke="#8f8a83" stroke-width="2" d="M461.89,-76.02C428.27,-98.43 386.1,-126.55 353.65,-148.18"/>
<polygon fill="#8f8a83" stroke="#8f8a83" stroke-width="2" points="351.57,-145.36 345.19,-153.82 355.45,-151.18 351.57,-145.36"/>
</g>
</g>
</svg>
