<?xml version="1.0" encoding="UTF-8" standalone="no"?>
<!DOCTYPE svg PUBLIC "-//W3C//DTD SVG 1.1//EN"
 "http://www.w3.org/Graphics/SVG/1.1/DTD/svg11.dtd">
<!-- Generated by graphviz version 2.47.2 (20210527.0053)
 -->
<!-- Title: Git Pages: 1 -->
<svg width="619pt" height="376pt"
 viewBox="0.00 0.00 619.00 376.00" xmlns="http://www.w3.org/2000/svg" xmlns:xlink="http://www.w3.org/1999/xlink">
<g id="graph0" class="graph" transform="scale(1 1) rotate(0) translate(4 372)">
<title>Git</title>
<!-- blessed -->
<g id="node1" class="node">
<title>blessed</title>
<polygon fill="#c8a036" stroke="black" stroke-width="0" points="611,-368 432,-368 432,-288 611,-288 611,-368"/>
<text text-anchor="middle" x="521.5" y="-334" font-family="Menlo, Monaco, Consolas, Lucida Console, Courier New, monospace" font-size="20.00" fill="#ffffff">blessed</text>
<text text-anchor="middle" x="521.5" y="-312" font-family="Menlo, Monaco, Consolas, Lucida Console, Courier New, monospace" font-size="20.00" fill="#ffffff">repository</text>
</g>
<!-- lt1 -->
<g id="node3" class="node">
<title>lt1</title>
<polygon fill="#3e8f99" stroke="black" stroke-width="0" points="179,-213 0,-213 0,-155 179,-155 179,-213"/>
<text text-anchor="middle" x="89.5" y="-179" font-family="Menlo, Monaco, Consolas, Lucida Console, Courier New, monospace" font-size="20.00" fill="#ffffff">lieutenant</text>
</g>
<!-- blessed&#45;&#45;lt1 -->
<g id="edge10" class="edge">
<title>blessed:s&#45;&#45;lt1:ne</title>
<path fill="none" stroke="#8f8a83" stroke-width="2" stroke-opacity="0.392157" d="M521.5,-288C521.5,-288 245.44,-227.46 189.37,-215.16"/>
<polygon fill="#8f8a83" fill-opacity="0.392157" stroke="#8f8a83" stroke-width="2" stroke-opacity="0.392157" points="190.02,-211.72 179.5,-213 188.52,-218.56 190.02,-211.72"/>
</g>
<!-- lt2 -->
<g id="node4" class="node">
<title>lt2</title>
<polygon fill="#3e8f99" stroke="black" stroke-width="0" points="395,-213 216,-213 216,-155 395,-155 395,-213"/>
<text text-anchor="middle" x="305.5" y="-179" font-family="Menlo, Monaco, Consolas, Lucida Console, Courier New, monospace" font-size="20.00" fill="#ffffff">lieutenant</text>
</g>
<!-- blessed&#45;&#45;lt2 -->
<g id="edge11" class="edge">
<title>blessed:s&#45;&#45;lt2:ne</title>
<path fill="none" stroke="#8f8a83" stroke-width="2" stroke-opacity="0.392157" d="M521.5,-288C521.5,-288 454.49,-259.65 403.44,-219.54"/>
<polygon fill="#8f8a83" fill-opacity="0.392157" stroke="#8f8a83" stroke-width="2" stroke-opacity="0.392157" points="405.37,-216.59 395.4,-213 400.95,-222.03 405.37,-216.59"/>
</g>
<!-- dev1 -->
<g id="node5" class="node">
<title>dev1</title>
<polygon fill="#f0efe8" stroke="black" stroke-width="0" points="176,-80 3,-80 3,0 176,0 176,-80"/>
<text text-anchor="middle" x="89.5" y="-46" font-family="Menlo, Monaco, Consolas, Lucida Console, Courier New, monospace" font-size="20.00" fill="#000000">developer</text>
<text text-anchor="middle" x="89.5" y="-24" font-family="Menlo, Monaco, Consolas, Lucida Console, Courier New, monospace" font-size="20.00" fill="#000000">public</text>
</g>
<!-- blessed&#45;&#45;dev1 -->
<g id="edge7" class="edge">
<title>blessed:s&#45;&#45;dev1:ne</title>
<path fill="none" stroke="#8f8a83" stroke-width="2" stroke-opacity="0.392157" d="M521.5,-288C521.5,-288 263.39,-265.2 212.8,-216.2 194.43,-198.41 181.86,-118.89 177.86,-90.29"/>
<polygon fill="#8f8a83" fill-opacity="0.392157" stroke="#8f8a83" stroke-width="2" stroke-opacity="0.392157" points="181.28,-89.45 176.5,-80 174.34,-90.37 181.28,-89.45"/>
</g>
<!-- dev2 -->
<g id="node6" class="node">
<title>dev2</title>
<polygon fill="#f0efe8" stroke="black" stroke-width="0" points="392,-80 219,-80 219,0 392,0 392,-80"/>
<text text-anchor="middle" x="305.5" y="-46" font-family="Menlo, Monaco, Consolas, Lucida Console, Courier New, monospace" font-size="20.00" fill="#000000">developer</text>
<text text-anchor="middle" x="305.5" y="-24" font-family="Menlo, Monaco, Consolas, Lucida Console, Courier New, monospace" font-size="20.00" fill="#000000">public</text>
</g>
<!-- blessed&#45;&#45;dev2 -->
<g id="edge8" class="edge">
<title>blessed:s&#45;&#45;dev2:ne</title>
<path fill="none" stroke="#8f8a83" stroke-width="2" stroke-opacity="0.392157" d="M521.5,-288C521.5,-288 422.29,-128.04 397.88,-88.67"/>
<polygon fill="#8f8a83" fill-opacity="0.392157" stroke="#8f8a83" stroke-width="2" stroke-opacity="0.392157" points="400.75,-86.65 392.5,-80 394.8,-90.34 400.75,-86.65"/>
</g>
<!-- dev3 -->
<g id="node7" class="node">
<title>dev3</title>
<polygon fill="#f0efe8" stroke="black" stroke-width="0" points="608,-80 435,-80 435,0 608,0 608,-80"/>
<text text-anchor="middle" x="521.5" y="-46" font-family="Menlo, Monaco, Consolas, Lucida Console, Courier New, monospace" font-size="20.00" fill="#000000">developer</text>
<text text-anchor="middle" x="521.5" y="-24" font-family="Menlo, Monaco, Consolas, Lucida Console, Courier New, monospace" font-size="20.00" fill="#000000">public</text>
</g>
<!-- blessed&#45;&#45;dev3 -->
<g id="edge9" class="edge">
<title>blessed:s&#45;&#45;dev3</title>
<path fill="none" stroke="#8f8a83" stroke-width="2" stroke-opacity="0.392157" d="M521.5,-288C521.5,-288 521.5,-162.92 521.5,-90.42"/>
<polygon fill="#8f8a83" fill-opacity="0.392157" stroke="#8f8a83" stroke-width="2" stroke-opacity="0.392157" points="525,-90.12 521.5,-80.12 518,-90.12 525,-90.12"/>
</g>
<!-- dictator -->
<g id="node2" class="node">
<title>dictator</title>
<polygon fill="#e93a1d" stroke="black" stroke-width="0" points="176,-357 3,-357 3,-299 176,-299 176,-357"/>
<text text-anchor="middle" x="89.5" y="-323" font-family="Menlo, Monaco, Consolas, Lucida Console, Courier New, monospace" font-size="20.00" fill="#ffffff">dictator</text>
</g>
<!-- dictator&#45;&#45;blessed -->
<g id="edge1" class="edge">
<title>dictator&#45;&#45;blessed</title>
<path fill="none" stroke="#8f8a83" stroke-width="2" d="M176.14,-328C246.95,-328 347.12,-328 421.36,-328"/>
<polygon fill="#8f8a83" stroke="#8f8a83" stroke-width="2" points="421.66,-331.5 431.66,-328 421.66,-324.5 421.66,-331.5"/>
</g>
<!-- lt1&#45;&#45;dictator -->
<g id="edge2" class="edge">
<title>lt1&#45;&#45;dictator</title>
<path fill="none" stroke="#8f8a83" stroke-width="2" d="M89.5,-213.14C89.5,-234.9 89.5,-264.88 89.5,-288.75"/>
<polygon fill="#8f8a83" stroke="#8f8a83" stroke-width="2" points="86,-288.9 89.5,-298.9 93,-288.9 86,-288.9"/>
</g>
<!-- lt2&#45;&#45;dictator -->
<g id="edge3" class="edge">
<title>lt2&#45;&#45;dictator</title>
<path fill="none" stroke="#8f8a83" stroke-width="2" d="M261.79,-213.14C227.1,-236.27 178.49,-268.68 141.74,-293.17"/>
<polygon fill="#8f8a83" stroke="#8f8a83" stroke-width="2" points="139.52,-290.44 133.15,-298.9 143.41,-296.27 139.52,-290.44"/>
</g>
<!-- dev1&#45;&#45;lt1 -->
<g id="edge4" class="edge">
<title>dev1&#45;&#45;lt1</title>
<path fill="none" stroke="#8f8a83" stroke-width="2" d="M89.5,-80.11C89.5,-100.24 89.5,-124.53 89.5,-144.56"/>
<polygon fill="#8f8a83" stroke="#8f8a83" stroke-width="2" points="86,-144.6 89.5,-154.6 93,-144.6 86,-144.6"/>
</g>
<!-- dev2&#45;&#45;lt1 -->
<g id="edge5" class="edge">
<title>dev2&#45;&#45;lt1</title>
<path fill="none" stroke="#8f8a83" stroke-width="2" d="M245.33,-80.11C212.81,-101.79 173.04,-128.3 141.82,-149.12"/>
<polygon fill="#8f8a83" stroke="#8f8a83" stroke-width="2" points="139.63,-146.37 133.25,-154.83 143.52,-152.2 139.63,-146.37"/>
</g>
<!-- dev3&#45;&#45;lt2 -->
<g id="edge6" class="edge">
<title>dev3&#45;&#45;lt2</title>
<path fill="none" stroke="#8f8a83" stroke-width="2" d="M461.33,-80.11C428.81,-101.79 389.04,-128.3 357.82,-149.12"/>
<polygon fill="#8f8a83" stroke="#8f8a83" stroke-width="2" points="355.63,-146.37 349.25,-154.83 359.52,-152.2 355.63,-146.37"/>
</g>
</g>
</svg>
