<?xml version="1.0" encoding="UTF-8" standalone="no"?>
<!DOCTYPE svg PUBLIC "-//W3C//DTD SVG 1.1//EN"
 "http://www.w3.org/Graphics/SVG/1.1/DTD/svg11.dtd">
<!-- Generated by graphviz version 2.40.1 (20161225.0304)
 -->
<!-- Title: Git Pages: 1 -->
<svg width="614pt" height="372pt"
 viewBox="0.00 0.00 613.84 372.00" xmlns="http://www.w3.org/2000/svg" xmlns:xlink="http://www.w3.org/1999/xlink">
<g id="graph0" class="graph" transform="scale(1 1) rotate(0) translate(4 368)">
<title>Git</title>
<!-- blessed -->
<g id="node1" class="node">
<title>blessed</title>
<polygon fill="#c8a036" stroke="#000000" stroke-width="0" points="605.7335,-364 432.1083,-364 432.1083,-288 605.7335,-288 605.7335,-364"/>
<text text-anchor="middle" x="518.9209" y="-330" font-family="Menlo, Consolas, Courier New, monospace" font-size="20.00" fill="#ffffff">blessed</text>
<text text-anchor="middle" x="518.9209" y="-310" font-family="Menlo, Consolas, Courier New, monospace" font-size="20.00" fill="#ffffff">repository</text>
</g>
<!-- lt1 -->
<g id="node3" class="node">
<title>lt1</title>
<polygon fill="#3e8f99" stroke="#000000" stroke-width="0" points="173.4209,-210 .4209,-210 .4209,-154 173.4209,-154 173.4209,-210"/>
<text text-anchor="middle" x="86.9209" y="-176" font-family="Menlo, Consolas, Courier New, monospace" font-size="20.00" fill="#ffffff">lieutenant</text>
</g>
<!-- blessed&#45;&#45;lt1 -->
<g id="edge10" class="edge">
<title>blessed:s&#45;&#45;lt1:ne</title>
<path fill="none" stroke="#8f8a83" stroke-width="2" stroke-opacity="0.392157" d="M518.9209,-288C518.9209,-288 240.4404,-225.0392 183.874,-212.2503"/>
<polygon fill="#8f8a83" fill-opacity="0.392157" stroke="#8f8a83" stroke-width="2" stroke-opacity="0.392157" points="184.4466,-208.7915 173.9209,-210 182.9029,-215.6191 184.4466,-208.7915"/>
</g>
<!-- lt2 -->
<g id="node4" class="node">
<title>lt2</title>
<polygon fill="#3e8f99" stroke="#000000" stroke-width="0" points="389.4209,-210 216.4209,-210 216.4209,-154 389.4209,-154 389.4209,-210"/>
<text text-anchor="middle" x="302.9209" y="-176" font-family="Menlo, Consolas, Courier New, monospace" font-size="20.00" fill="#ffffff">lieutenant</text>
</g>
<!-- blessed&#45;&#45;lt2 -->
<g id="edge11" class="edge">
<title>blessed:s&#45;&#45;lt2:ne</title>
<path fill="none" stroke="#8f8a83" stroke-width="2" stroke-opacity="0.392157" d="M518.9209,-288C518.9209,-288 427.9324,-232.9837 398.7876,-215.3613"/>
<polygon fill="#8f8a83" fill-opacity="0.392157" stroke="#8f8a83" stroke-width="2" stroke-opacity="0.392157" points="400.2892,-212.1792 389.9209,-210 396.6672,-218.1693 400.2892,-212.1792"/>
</g>
<!-- dev1 -->
<g id="node5" class="node">
<title>dev1</title>
<polygon fill="#f0efe8" stroke="#000000" stroke-width="0" points="173.7628,-76 .079,-76 .079,0 173.7628,0 173.7628,-76"/>
<text text-anchor="middle" x="86.9209" y="-42" font-family="Menlo, Consolas, Courier New, monospace" font-size="20.00" fill="#000000">developer</text>
<text text-anchor="middle" x="86.9209" y="-22" font-family="Menlo, Consolas, Courier New, monospace" font-size="20.00" fill="#000000">public</text>
</g>
<!-- blessed&#45;&#45;dev1 -->
<g id="edge7" class="edge">
<title>blessed:s&#45;&#45;dev1:ne</title>
<path fill="none" stroke="#8f8a83" stroke-width="2" stroke-opacity="0.392157" d="M518.9209,-288C518.9209,-288 462.0318,-196.092 392.6209,-150.8 320.7032,-103.8722 216.1972,-83.1322 183.8419,-77.59"/>
<polygon fill="#8f8a83" fill-opacity="0.392157" stroke="#8f8a83" stroke-width="2" stroke-opacity="0.392157" points="184.3488,-74.1267 173.9209,-76 183.241,-81.0385 184.3488,-74.1267"/>
</g>
<!-- dev2 -->
<g id="node6" class="node">
<title>dev2</title>
<polygon fill="#f0efe8" stroke="#000000" stroke-width="0" points="389.7628,-76 216.079,-76 216.079,0 389.7628,0 389.7628,-76"/>
<text text-anchor="middle" x="302.9209" y="-42" font-family="Menlo, Consolas, Courier New, monospace" font-size="20.00" fill="#000000">developer</text>
<text text-anchor="middle" x="302.9209" y="-22" font-family="Menlo, Consolas, Courier New, monospace" font-size="20.00" fill="#000000">public</text>
</g>
<!-- blessed&#45;&#45;dev2 -->
<g id="edge8" class="edge">
<title>blessed:s&#45;&#45;dev2:ne</title>
<path fill="none" stroke="#8f8a83" stroke-width="2" stroke-opacity="0.392157" d="M518.9209,-288C518.9209,-288 419.2715,-124.235 395.1376,-84.5732"/>
<polygon fill="#8f8a83" fill-opacity="0.392157" stroke="#8f8a83" stroke-width="2" stroke-opacity="0.392157" points="398.1091,-82.7234 389.9209,-76 392.1292,-86.3622 398.1091,-82.7234"/>
</g>
<!-- dev3 -->
<g id="node7" class="node">
<title>dev3</title>
<polygon fill="#f0efe8" stroke="#000000" stroke-width="0" points="605.7628,-76 432.079,-76 432.079,0 605.7628,0 605.7628,-76"/>
<text text-anchor="middle" x="518.9209" y="-42" font-family="Menlo, Consolas, Courier New, monospace" font-size="20.00" fill="#000000">developer</text>
<text text-anchor="middle" x="518.9209" y="-22" font-family="Menlo, Consolas, Courier New, monospace" font-size="20.00" fill="#000000">public</text>
</g>
<!-- blessed&#45;&#45;dev3 -->
<g id="edge9" class="edge">
<title>blessed:s&#45;&#45;dev3</title>
<path fill="none" stroke="#8f8a83" stroke-width="2" stroke-opacity="0.392157" d="M518.9209,-288C518.9209,-288 518.9209,-159.2496 518.9209,-86.5407"/>
<polygon fill="#8f8a83" fill-opacity="0.392157" stroke="#8f8a83" stroke-width="2" stroke-opacity="0.392157" points="522.421,-86.2417 518.9209,-76.2418 515.421,-86.2418 522.421,-86.2417"/>
</g>
<!-- dictator -->
<g id="node2" class="node">
<title>dictator</title>
<polygon fill="#e93a1d" stroke="#000000" stroke-width="0" points="173.4209,-354 .4209,-354 .4209,-298 173.4209,-298 173.4209,-354"/>
<text text-anchor="middle" x="86.9209" y="-320" font-family="Menlo, Consolas, Courier New, monospace" font-size="20.00" fill="#ffffff">dictator</text>
</g>
<!-- dictator&#45;&#45;blessed -->
<g id="edge1" class="edge">
<title>dictator&#45;&#45;blessed</title>
<path fill="none" stroke="#8f8a83" stroke-width="2" d="M173.5634,-326C245.3129,-326 347.2105,-326 421.7261,-326"/>
<polygon fill="#8f8a83" stroke="#8f8a83" stroke-width="2" points="422.0529,-329.5001 432.0529,-326 422.0528,-322.5001 422.0529,-329.5001"/>
</g>
<!-- lt1&#45;&#45;dictator -->
<g id="edge2" class="edge">
<title>lt1&#45;&#45;dictator</title>
<path fill="none" stroke="#8f8a83" stroke-width="2" d="M86.9209,-210.1065C86.9209,-232.308 86.9209,-263.5136 86.9209,-287.9514"/>
<polygon fill="#8f8a83" stroke="#8f8a83" stroke-width="2" points="83.421,-287.9644 86.9209,-297.9644 90.421,-287.9644 83.421,-287.9644"/>
</g>
<!-- lt2&#45;&#45;dictator -->
<g id="edge3" class="edge">
<title>lt2&#45;&#45;dictator</title>
<path fill="none" stroke="#8f8a83" stroke-width="2" d="M260.7612,-210.1065C225.5262,-233.5965 175.172,-267.166 137.7188,-292.1347"/>
<polygon fill="#8f8a83" stroke="#8f8a83" stroke-width="2" points="135.3534,-289.5052 128.9743,-297.9644 139.2363,-295.3295 135.3534,-289.5052"/>
</g>
<!-- dev1&#45;&#45;lt1 -->
<g id="edge4" class="edge">
<title>dev1&#45;&#45;lt1</title>
<path fill="none" stroke="#8f8a83" stroke-width="2" d="M86.9209,-76.2113C86.9209,-97.0248 86.9209,-122.7102 86.9209,-143.5593"/>
<polygon fill="#8f8a83" stroke="#8f8a83" stroke-width="2" points="83.421,-143.6657 86.9209,-153.6657 90.421,-143.6657 83.421,-143.6657"/>
</g>
<!-- dev2&#45;&#45;lt1 -->
<g id="edge5" class="edge">
<title>dev2&#45;&#45;lt1</title>
<path fill="none" stroke="#8f8a83" stroke-width="2" d="M245.8869,-76.0227C212.2692,-98.4345 170.103,-126.5453 137.6469,-148.1827"/>
<polygon fill="#8f8a83" stroke="#8f8a83" stroke-width="2" points="135.5706,-145.3603 129.1916,-153.8195 139.4536,-151.1847 135.5706,-145.3603"/>
</g>
<!-- dev3&#45;&#45;lt2 -->
<g id="edge6" class="edge">
<title>dev3&#45;&#45;lt2</title>
<path fill="none" stroke="#8f8a83" stroke-width="2" d="M461.8869,-76.0227C428.2692,-98.4345 386.103,-126.5453 353.6469,-148.1827"/>
<polygon fill="#8f8a83" stroke="#8f8a83" stroke-width="2" points="351.5706,-145.3603 345.1916,-153.8195 355.4536,-151.1847 351.5706,-145.3603"/>
</g>
</g>
</svg>
