<?xml version="1.0" encoding="UTF-8" standalone="no"?>
<!DOCTYPE svg PUBLIC "-//W3C//DTD SVG 1.1//EN"
 "http://www.w3.org/Graphics/SVG/1.1/DTD/svg11.dtd">
<!-- Generated by graphviz version 2.47.2 (20210527.0053)
 -->
<!-- Title: Git Pages: 1 -->
<svg width="533pt" height="238pt"
 viewBox="0.00 0.00 533.00 238.00" xmlns="http://www.w3.org/2000/svg" xmlns:xlink="http://www.w3.org/1999/xlink">
<g id="graph0" class="graph" transform="scale(1 1) rotate(0) translate(4 234)">
<title>Git</title>
<!-- repo -->
<g id="node1" class="node">
<title>repo</title>
<polygon fill="#c8a036" stroke="black" stroke-width="0" points="355,-230 170,-230 170,-128 355,-128 355,-230"/>
<text text-anchor="middle" x="262.5" y="-185" font-family="Menlo, Monaco, Consolas, Lucida Console, Courier New, monospace" font-size="20.00" fill="#ffffff">shared</text>
<text text-anchor="middle" x="262.5" y="-163" font-family="Menlo, Monaco, Consolas, Lucida Console, Courier New, monospace" font-size="20.00" fill="#ffffff">repository</text>
</g>
<!-- dev1 -->
<g id="node2" class="node">
<title>dev1</title>
<polygon fill="#e93a1d" stroke="black" stroke-width="0" points="151,-56 0,-56 0,0 151,0 151,-56"/>
<text text-anchor="middle" x="75.5" y="-23" font-family="Menlo, Monaco, Consolas, Lucida Console, Courier New, monospace" font-size="20.00" fill="#ffffff">developer</text>
</g>
<!-- repo&#45;&#45;dev1 -->
<g id="edge1" class="edge">
<title>repo&#45;&#45;dev1</title>
<path fill="none" stroke="#8f8a83" stroke-width="2" d="M191.85,-121.7C166.84,-101.78 139.52,-80.01 117.63,-62.57"/>
<polygon fill="#8f8a83" stroke="#8f8a83" stroke-width="2" points="189.71,-124.48 199.71,-127.97 194.07,-119 189.71,-124.48"/>
<polygon fill="#8f8a83" stroke="#8f8a83" stroke-width="2" points="119.53,-59.61 109.53,-56.12 115.17,-65.08 119.53,-59.61"/>
</g>
<!-- dev2 -->
<g id="node3" class="node">
<title>dev2</title>
<polygon fill="#e93a1d" stroke="black" stroke-width="0" points="338,-56 187,-56 187,0 338,0 338,-56"/>
<text text-anchor="middle" x="262.5" y="-23" font-family="Menlo, Monaco, Consolas, Lucida Console, Courier New, monospace" font-size="20.00" fill="#ffffff">developer</text>
</g>
<!-- repo&#45;&#45;dev2 -->
<g id="edge2" class="edge">
<title>repo&#45;&#45;dev2</title>
<path fill="none" stroke="#8f8a83" stroke-width="2" d="M262.5,-117.94C262.5,-100.52 262.5,-82 262.5,-66.4"/>
<polygon fill="#8f8a83" stroke="#8f8a83" stroke-width="2" points="259,-117.97 262.5,-127.97 266,-117.97 259,-117.97"/>
<polygon fill="#8f8a83" stroke="#8f8a83" stroke-width="2" points="266,-66.12 262.5,-56.12 259,-66.12 266,-66.12"/>
</g>
<!-- dev3 -->
<g id="node4" class="node">
<title>dev3</title>
<polygon fill="#e93a1d" stroke="black" stroke-width="0" points="525,-56 374,-56 374,0 525,0 525,-56"/>
<text text-anchor="middle" x="449.5" y="-23" font-family="Menlo, Monaco, Consolas, Lucida Console, Courier New, monospace" font-size="20.00" fill="#ffffff">developer</text>
</g>
<!-- repo&#45;&#45;dev3 -->
<g id="edge3" class="edge">
<title>repo&#45;&#45;dev3</title>
<path fill="none" stroke="#8f8a83" stroke-width="2" d="M333.15,-121.7C358.16,-101.78 385.48,-80.01 407.37,-62.57"/>
<polygon fill="#8f8a83" stroke="#8f8a83" stroke-width="2" points="330.93,-119 325.29,-127.97 335.29,-124.48 330.93,-119"/>
<polygon fill="#8f8a83" stroke="#8f8a83" stroke-width="2" points="409.83,-65.08 415.47,-56.12 405.47,-59.61 409.83,-65.08"/>
</g>
</g>
</svg>
