<?xml version="1.0" encoding="UTF-8" standalone="no"?>
<!DOCTYPE svg PUBLIC "-//W3C//DTD SVG 1.1//EN"
 "http://www.w3.org/Graphics/SVG/1.1/DTD/svg11.dtd">
<!-- Generated by graphviz version 2.43.0 (0)
 -->
<!-- Title: Git Pages: 1 -->
<svg width="536pt" height="234pt"
 viewBox="0.00 0.00 535.84 234.00" xmlns="http://www.w3.org/2000/svg" xmlns:xlink="http://www.w3.org/1999/xlink">
<g id="graph0" class="graph" transform="scale(1 1) rotate(0) translate(4 230)">
<title>Git</title>
<!-- repo -->
<g id="node1" class="node">
<title>repo</title>
<polygon fill="#c8a036" stroke="black" stroke-width="0" points="357.73,-226 170.11,-226 170.11,-128 357.73,-128 357.73,-226"/>
<text text-anchor="middle" x="263.92" y="-181" font-family="Menlo, Monaco, Consolas, Lucida Console, Courier New, monospace" font-size="20.00" fill="#ffffff">shared</text>
<text text-anchor="middle" x="263.92" y="-161" font-family="Menlo, Monaco, Consolas, Lucida Console, Courier New, monospace" font-size="20.00" fill="#ffffff">repository</text>
</g>
<!-- dev1 -->
<g id="node2" class="node">
<title>dev1</title>
<polygon fill="#e93a1d" stroke="black" stroke-width="0" points="151.76,-56 0.08,-56 0.08,0 151.76,0 151.76,-56"/>
<text text-anchor="middle" x="75.92" y="-22" font-family="Menlo, Monaco, Consolas, Lucida Console, Courier New, monospace" font-size="20.00" fill="#ffffff">developer</text>
</g>
<!-- repo&#45;&#45;dev1 -->
<g id="edge1" class="edge">
<title>repo&#45;&#45;dev1</title>
<path fill="none" stroke="#8f8a83" stroke-width="2" d="M194.42,-121.65C169.03,-101.8 141.07,-79.94 118.7,-62.45"/>
<polygon fill="#8f8a83" stroke="#8f8a83" stroke-width="2" points="192.33,-124.46 202.36,-127.87 196.64,-118.95 192.33,-124.46"/>
<polygon fill="#8f8a83" stroke="#8f8a83" stroke-width="2" points="120.75,-59.61 110.72,-56.21 116.44,-65.13 120.75,-59.61"/>
</g>
<!-- dev2 -->
<g id="node3" class="node">
<title>dev2</title>
<polygon fill="#e93a1d" stroke="black" stroke-width="0" points="339.76,-56 188.08,-56 188.08,0 339.76,0 339.76,-56"/>
<text text-anchor="middle" x="263.92" y="-22" font-family="Menlo, Monaco, Consolas, Lucida Console, Courier New, monospace" font-size="20.00" fill="#ffffff">developer</text>
</g>
<!-- repo&#45;&#45;dev2 -->
<g id="edge2" class="edge">
<title>repo&#45;&#45;dev2</title>
<path fill="none" stroke="#8f8a83" stroke-width="2" d="M263.92,-117.63C263.92,-100.39 263.92,-82 263.92,-66.46"/>
<polygon fill="#8f8a83" stroke="#8f8a83" stroke-width="2" points="260.42,-117.87 263.92,-127.87 267.42,-117.87 260.42,-117.87"/>
<polygon fill="#8f8a83" stroke="#8f8a83" stroke-width="2" points="267.42,-66.21 263.92,-56.21 260.42,-66.21 267.42,-66.21"/>
</g>
<!-- dev3 -->
<g id="node4" class="node">
<title>dev3</title>
<polygon fill="#e93a1d" stroke="black" stroke-width="0" points="527.76,-56 376.08,-56 376.08,0 527.76,0 527.76,-56"/>
<text text-anchor="middle" x="451.92" y="-22" font-family="Menlo, Monaco, Consolas, Lucida Console, Courier New, monospace" font-size="20.00" fill="#ffffff">developer</text>
</g>
<!-- repo&#45;&#45;dev3 -->
<g id="edge3" class="edge">
<title>repo&#45;&#45;dev3</title>
<path fill="none" stroke="#8f8a83" stroke-width="2" d="M333.42,-121.65C358.82,-101.8 386.77,-79.94 409.15,-62.45"/>
<polygon fill="#8f8a83" stroke="#8f8a83" stroke-width="2" points="331.2,-118.95 325.48,-127.87 335.51,-124.46 331.2,-118.95"/>
<polygon fill="#8f8a83" stroke="#8f8a83" stroke-width="2" points="411.4,-65.13 417.12,-56.21 407.09,-59.61 411.4,-65.13"/>
</g>
</g>
</svg>
