<?xml version="1.0" encoding="UTF-8" standalone="no"?>
<!DOCTYPE svg PUBLIC "-//W3C//DTD SVG 1.1//EN"
 "http://www.w3.org/Graphics/SVG/1.1/DTD/svg11.dtd">
<!-- Generated by graphviz version 2.40.1 (20161225.0304)
 -->
<!-- Title: Git Pages: 1 -->
<svg width="536pt" height="234pt"
 viewBox="0.00 0.00 535.84 234.00" xmlns="http://www.w3.org/2000/svg" xmlns:xlink="http://www.w3.org/1999/xlink">
<g id="graph0" class="graph" transform="scale(1 1) rotate(0) translate(4 230)">
<title>Git</title>
<!-- repo -->
<g id="node1" class="node">
<title>repo</title>
<polygon fill="#c8a036" stroke="#000000" stroke-width="0" points="357.7335,-226 170.1083,-226 170.1083,-128 357.7335,-128 357.7335,-226"/>
<text text-anchor="middle" x="263.9209" y="-181" font-family="Menlo, Consolas, Courier New, monospace" font-size="20.00" fill="#ffffff">shared</text>
<text text-anchor="middle" x="263.9209" y="-161" font-family="Menlo, Consolas, Courier New, monospace" font-size="20.00" fill="#ffffff">repository</text>
</g>
<!-- dev1 -->
<g id="node2" class="node">
<title>dev1</title>
<polygon fill="#e93a1d" stroke="#000000" stroke-width="0" points="151.7628,-56 .079,-56 .079,0 151.7628,0 151.7628,-56"/>
<text text-anchor="middle" x="75.9209" y="-22" font-family="Menlo, Consolas, Courier New, monospace" font-size="20.00" fill="#ffffff">developer</text>
</g>
<!-- repo&#45;&#45;dev1 -->
<g id="edge1" class="edge">
<title>repo&#45;&#45;dev1</title>
<path fill="none" stroke="#8f8a83" stroke-width="2" d="M193.9931,-121.5785C168.9224,-101.7086 141.4022,-79.8974 119.2421,-62.3344"/>
<polygon fill="#8f8a83" stroke="#8f8a83" stroke-width="2" points="191.8306,-124.3305 201.8416,-127.7989 196.1785,-118.8446 191.8306,-124.3305"/>
<polygon fill="#8f8a83" stroke="#8f8a83" stroke-width="2" points="121.3459,-59.5358 111.3349,-56.0675 116.998,-65.0218 121.3459,-59.5358"/>
</g>
<!-- dev2 -->
<g id="node3" class="node">
<title>dev2</title>
<polygon fill="#e93a1d" stroke="#000000" stroke-width="0" points="339.7628,-56 188.079,-56 188.079,0 339.7628,0 339.7628,-56"/>
<text text-anchor="middle" x="263.9209" y="-22" font-family="Menlo, Consolas, Courier New, monospace" font-size="20.00" fill="#ffffff">developer</text>
</g>
<!-- repo&#45;&#45;dev2 -->
<g id="edge2" class="edge">
<title>repo&#45;&#45;dev2</title>
<path fill="none" stroke="#8f8a83" stroke-width="2" d="M263.9209,-117.5868C263.9209,-100.4076 263.9209,-82.1114 263.9209,-66.5619"/>
<polygon fill="#8f8a83" stroke="#8f8a83" stroke-width="2" points="260.421,-117.7989 263.9209,-127.7989 267.421,-117.7989 260.421,-117.7989"/>
<polygon fill="#8f8a83" stroke="#8f8a83" stroke-width="2" points="267.421,-66.2831 263.9209,-56.2832 260.421,-66.2832 267.421,-66.2831"/>
</g>
<!-- dev3 -->
<g id="node4" class="node">
<title>dev3</title>
<polygon fill="#e93a1d" stroke="#000000" stroke-width="0" points="527.7628,-56 376.079,-56 376.079,0 527.7628,0 527.7628,-56"/>
<text text-anchor="middle" x="451.9209" y="-22" font-family="Menlo, Consolas, Courier New, monospace" font-size="20.00" fill="#ffffff">developer</text>
</g>
<!-- repo&#45;&#45;dev3 -->
<g id="edge3" class="edge">
<title>repo&#45;&#45;dev3</title>
<path fill="none" stroke="#8f8a83" stroke-width="2" d="M333.8487,-121.5785C358.9194,-101.7086 386.4396,-79.8974 408.5997,-62.3344"/>
<polygon fill="#8f8a83" stroke="#8f8a83" stroke-width="2" points="331.6633,-118.8446 326.0002,-127.7989 336.0112,-124.3305 331.6633,-118.8446"/>
<polygon fill="#8f8a83" stroke="#8f8a83" stroke-width="2" points="410.8438,-65.0218 416.5069,-56.0675 406.4958,-59.5358 410.8438,-65.0218"/>
</g>
</g>
</svg>
