<?xml version="1.0" encoding="UTF-8" standalone="no"?>
<!DOCTYPE svg PUBLIC "-//W3C//DTD SVG 1.1//EN"
 "http://www.w3.org/Graphics/SVG/1.1/DTD/svg11.dtd">
<!-- Generated by graphviz version 2.47.2 (20210527.0053)
 -->
<!-- Title: Git Pages: 1 -->
<svg width="605pt" height="240pt"
 viewBox="0.00 0.00 605.00 240.00" xmlns="http://www.w3.org/2000/svg" xmlns:xlink="http://www.w3.org/1999/xlink">
<g id="graph0" class="graph" transform="scale(1 1) rotate(0) translate(4 236)">
<title>Git</title>
<!-- blessed -->
<g id="node1" class="node">
<title>blessed</title>
<polygon fill="#c8a036" stroke="black" stroke-width="0" points="185,-232 6,-232 6,-152 185,-152 185,-232"/>
<text text-anchor="middle" x="95.5" y="-198" font-family="Menlo, Monaco, Consolas, Lucida Console, Courier New, monospace" font-size="20.00" fill="#ffffff">blessed</text>
<text text-anchor="middle" x="95.5" y="-176" font-family="Menlo, Monaco, Consolas, Lucida Console, Courier New, monospace" font-size="20.00" fill="#ffffff">repository</text>
</g>
<!-- manager -->
<g id="node2" class="node">
<title>manager</title>
<polygon fill="#e93a1d" stroke="black" stroke-width="0" points="191,-80 0,-80 0,0 191,0 191,-80"/>
<text text-anchor="middle" x="95.5" y="-46" font-family="Menlo, Monaco, Consolas, Lucida Console, Courier New, monospace" font-size="20.00" fill="#ffffff">integration</text>
<text text-anchor="middle" x="95.5" y="-24" font-family="Menlo, Monaco, Consolas, Lucida Console, Courier New, monospace" font-size="20.00" fill="#ffffff">manager</text>
</g>
<!-- blessed&#45;&#45;manager -->
<g id="edge1" class="edge">
<title>blessed&#45;&#45;manager</title>
<path fill="none" stroke="#8f8a83" stroke-width="2" d="M95.5,-141.8C95.5,-121.77 95.5,-98.94 95.5,-80.08"/>
<polygon fill="#8f8a83" stroke="#8f8a83" stroke-width="2" points="92,-141.98 95.5,-151.98 99,-141.98 92,-141.98"/>
</g>
<!-- devpub1 -->
<g id="node3" class="node">
<title>devpub1</title>
<polygon fill="#3e8f99" stroke="black" stroke-width="0" points="394,-232 227,-232 227,-152 394,-152 394,-232"/>
<text text-anchor="middle" x="310.5" y="-198" font-family="Menlo, Monaco, Consolas, Lucida Console, Courier New, monospace" font-size="20.00" fill="#ffffff">developer</text>
<text text-anchor="middle" x="310.5" y="-176" font-family="Menlo, Monaco, Consolas, Lucida Console, Courier New, monospace" font-size="20.00" fill="#ffffff">public</text>
</g>
<!-- manager&#45;&#45;devpub1 -->
<g id="edge6" class="edge">
<title>manager&#45;&#45;devpub1</title>
<path fill="none" stroke="#8f8a83" stroke-width="2" stroke-opacity="0.392157" d="M159.87,-85.91C190.01,-106.94 225.57,-131.75 254.57,-151.98"/>
<polygon fill="#8f8a83" fill-opacity="0.392157" stroke="#8f8a83" stroke-width="2" stroke-opacity="0.392157" points="161.72,-82.94 151.52,-80.08 157.72,-88.68 161.72,-82.94"/>
</g>
<!-- devpub2 -->
<g id="node4" class="node">
<title>devpub2</title>
<polygon fill="#3e8f99" stroke="black" stroke-width="0" points="597,-232 430,-232 430,-152 597,-152 597,-232"/>
<text text-anchor="middle" x="513.5" y="-198" font-family="Menlo, Monaco, Consolas, Lucida Console, Courier New, monospace" font-size="20.00" fill="#ffffff">developer</text>
<text text-anchor="middle" x="513.5" y="-176" font-family="Menlo, Monaco, Consolas, Lucida Console, Courier New, monospace" font-size="20.00" fill="#ffffff">public</text>
</g>
<!-- manager&#45;&#45;devpub2 -->
<g id="edge7" class="edge">
<title>manager&#45;&#45;devpub2</title>
<path fill="none" stroke="#8f8a83" stroke-width="2" stroke-opacity="0.392157" d="M200.92,-77.51C276.97,-103.93 372.94,-137.44 412.5,-152 418.14,-154.08 423.96,-156.25 429.81,-158.45"/>
<polygon fill="#8f8a83" fill-opacity="0.392157" stroke="#8f8a83" stroke-width="2" stroke-opacity="0.392157" points="201.87,-74.14 191.27,-74.16 199.57,-80.75 201.87,-74.14"/>
</g>
<!-- devpriv1 -->
<g id="node5" class="node">
<title>devpriv1</title>
<polygon fill="#f0efe8" stroke="black" stroke-width="0" points="394,-80 227,-80 227,0 394,0 394,-80"/>
<text text-anchor="middle" x="310.5" y="-46" font-family="Menlo, Monaco, Consolas, Lucida Console, Courier New, monospace" font-size="20.00" fill="#000000">developer</text>
<text text-anchor="middle" x="310.5" y="-24" font-family="Menlo, Monaco, Consolas, Lucida Console, Courier New, monospace" font-size="20.00" fill="#000000">private</text>
</g>
<!-- devpub1&#45;&#45;devpriv1 -->
<g id="edge2" class="edge">
<title>devpub1&#45;&#45;devpriv1</title>
<path fill="none" stroke="#8f8a83" stroke-width="2" d="M310.5,-141.8C310.5,-121.77 310.5,-98.94 310.5,-80.08"/>
<polygon fill="#8f8a83" stroke="#8f8a83" stroke-width="2" points="307,-141.98 310.5,-151.98 314,-141.98 307,-141.98"/>
</g>
<!-- devpriv2 -->
<g id="node6" class="node">
<title>devpriv2</title>
<polygon fill="#f0efe8" stroke="black" stroke-width="0" points="597,-80 430,-80 430,0 597,0 597,-80"/>
<text text-anchor="middle" x="513.5" y="-46" font-family="Menlo, Monaco, Consolas, Lucida Console, Courier New, monospace" font-size="20.00" fill="#000000">developer</text>
<text text-anchor="middle" x="513.5" y="-24" font-family="Menlo, Monaco, Consolas, Lucida Console, Courier New, monospace" font-size="20.00" fill="#000000">private</text>
</g>
<!-- devpub2&#45;&#45;devpriv2 -->
<g id="edge3" class="edge">
<title>devpub2&#45;&#45;devpriv2</title>
<path fill="none" stroke="#8f8a83" stroke-width="2" d="M513.5,-141.8C513.5,-121.77 513.5,-98.94 513.5,-80.08"/>
<polygon fill="#8f8a83" stroke="#8f8a83" stroke-width="2" points="510,-141.98 513.5,-151.98 517,-141.98 510,-141.98"/>
</g>
<!-- devpriv1&#45;&#45;blessed -->
<g id="edge4" class="edge">
<title>devpriv1&#45;&#45;blessed</title>
<path fill="none" stroke="#8f8a83" stroke-width="2" stroke-opacity="0.392157" d="M246.13,-85.91C215.99,-106.94 180.43,-131.75 151.43,-151.98"/>
<polygon fill="#8f8a83" fill-opacity="0.392157" stroke="#8f8a83" stroke-width="2" stroke-opacity="0.392157" points="248.28,-88.68 254.48,-80.08 244.28,-82.94 248.28,-88.68"/>
</g>
<!-- devpriv2&#45;&#45;blessed -->
<g id="edge5" class="edge">
<title>devpriv2&#45;&#45;blessed</title>
<path fill="none" stroke="#8f8a83" stroke-width="2" stroke-opacity="0.392157" d="M420.26,-77.13C417.65,-78.1 415.06,-79.06 412.5,-80 370.16,-95.58 263.17,-132.89 185.17,-159.96"/>
<polygon fill="#8f8a83" fill-opacity="0.392157" stroke="#8f8a83" stroke-width="2" stroke-opacity="0.392157" points="421.67,-80.34 429.81,-73.55 419.21,-73.78 421.67,-80.34"/>
</g>
</g>
</svg>
