<?xml version="1.0" encoding="UTF-8" standalone="no"?>
<!DOCTYPE svg PUBLIC "-//W3C//DTD SVG 1.1//EN"
 "http://www.w3.org/Graphics/SVG/1.1/DTD/svg11.dtd">
<!-- Generated by graphviz version 2.43.0 (0)
 -->
<!-- Title: Git Pages: 1 -->
<svg width="608pt" height="232pt"
 viewBox="0.00 0.00 607.62 232.00" xmlns="http://www.w3.org/2000/svg" xmlns:xlink="http://www.w3.org/1999/xlink">
<g id="graph0" class="graph" transform="scale(1 1) rotate(0) translate(4 228)">
<title>Git</title>
<!-- blessed -->
<g id="node1" class="node">
<title>blessed</title>
<polygon fill="#c8a036" stroke="black" stroke-width="0" points="176.51,-224 2.89,-224 2.89,-148 176.51,-148 176.51,-224"/>
<text text-anchor="middle" x="89.7" y="-190" font-family="Menlo, Monaco, Consolas, Lucida Console, Courier New, monospace" font-size="20.00" fill="#ffffff">blessed</text>
<text text-anchor="middle" x="89.7" y="-170" font-family="Menlo, Monaco, Consolas, Lucida Console, Courier New, monospace" font-size="20.00" fill="#ffffff">repository</text>
</g>
<!-- manager -->
<g id="node2" class="node">
<title>manager</title>
<polygon fill="#e93a1d" stroke="black" stroke-width="0" points="179.6,-76 -0.2,-76 -0.2,0 179.6,0 179.6,-76"/>
<text text-anchor="middle" x="89.7" y="-42" font-family="Menlo, Monaco, Consolas, Lucida Console, Courier New, monospace" font-size="20.00" fill="#ffffff">integration</text>
<text text-anchor="middle" x="89.7" y="-22" font-family="Menlo, Monaco, Consolas, Lucida Console, Courier New, monospace" font-size="20.00" fill="#ffffff">manager</text>
</g>
<!-- blessed&#45;&#45;manager -->
<g id="edge1" class="edge">
<title>blessed&#45;&#45;manager</title>
<path fill="none" stroke="#8f8a83" stroke-width="2" d="M89.7,-137.66C89.7,-117.72 89.7,-94.85 89.7,-76.15"/>
<polygon fill="#8f8a83" stroke="#8f8a83" stroke-width="2" points="86.2,-137.78 89.7,-147.78 93.2,-137.78 86.2,-137.78"/>
</g>
<!-- devpub1 -->
<g id="node3" class="node">
<title>devpub1</title>
<polygon fill="#3e8f99" stroke="black" stroke-width="0" points="389.54,-224 215.86,-224 215.86,-148 389.54,-148 389.54,-224"/>
<text text-anchor="middle" x="302.7" y="-190" font-family="Menlo, Monaco, Consolas, Lucida Console, Courier New, monospace" font-size="20.00" fill="#ffffff">developer</text>
<text text-anchor="middle" x="302.7" y="-170" font-family="Menlo, Monaco, Consolas, Lucida Console, Courier New, monospace" font-size="20.00" fill="#ffffff">public</text>
</g>
<!-- manager&#45;&#45;devpub1 -->
<g id="edge6" class="edge">
<title>manager&#45;&#45;devpub1</title>
<path fill="none" stroke="#8f8a83" stroke-width="2" stroke-opacity="0.392157" d="M152.49,-82.04C183.03,-102.98 219.38,-127.89 248.67,-147.97"/>
<polygon fill="#8f8a83" fill-opacity="0.392157" stroke="#8f8a83" stroke-width="2" stroke-opacity="0.392157" points="154.26,-79.01 144.04,-76.24 150.31,-84.79 154.26,-79.01"/>
</g>
<!-- devpub2 -->
<g id="node4" class="node">
<title>devpub2</title>
<polygon fill="#3e8f99" stroke="black" stroke-width="0" points="599.54,-224 425.86,-224 425.86,-148 599.54,-148 599.54,-224"/>
<text text-anchor="middle" x="512.7" y="-190" font-family="Menlo, Monaco, Consolas, Lucida Console, Courier New, monospace" font-size="20.00" fill="#ffffff">developer</text>
<text text-anchor="middle" x="512.7" y="-170" font-family="Menlo, Monaco, Consolas, Lucida Console, Courier New, monospace" font-size="20.00" fill="#ffffff">public</text>
</g>
<!-- manager&#45;&#45;devpub2 -->
<g id="edge7" class="edge">
<title>manager&#45;&#45;devpub2</title>
<path fill="none" stroke="#8f8a83" stroke-width="2" stroke-opacity="0.392157" d="M189.05,-73.03C278.24,-103.59 396.81,-144.22 407.7,-148 413.54,-150.03 419.56,-152.13 425.63,-154.25"/>
<polygon fill="#8f8a83" fill-opacity="0.392157" stroke="#8f8a83" stroke-width="2" stroke-opacity="0.392157" points="190.02,-69.66 179.42,-69.73 187.75,-76.29 190.02,-69.66"/>
</g>
<!-- devpriv1 -->
<g id="node5" class="node">
<title>devpriv1</title>
<polygon fill="#f0efe8" stroke="black" stroke-width="0" points="389.54,-76 215.86,-76 215.86,0 389.54,0 389.54,-76"/>
<text text-anchor="middle" x="302.7" y="-42" font-family="Menlo, Monaco, Consolas, Lucida Console, Courier New, monospace" font-size="20.00" fill="#000000">developer</text>
<text text-anchor="middle" x="302.7" y="-22" font-family="Menlo, Monaco, Consolas, Lucida Console, Courier New, monospace" font-size="20.00" fill="#000000">private</text>
</g>
<!-- devpub1&#45;&#45;devpriv1 -->
<g id="edge2" class="edge">
<title>devpub1&#45;&#45;devpriv1</title>
<path fill="none" stroke="#8f8a83" stroke-width="2" d="M302.7,-137.66C302.7,-117.72 302.7,-94.85 302.7,-76.15"/>
<polygon fill="#8f8a83" stroke="#8f8a83" stroke-width="2" points="299.2,-137.78 302.7,-147.78 306.2,-137.78 299.2,-137.78"/>
</g>
<!-- devpriv2 -->
<g id="node6" class="node">
<title>devpriv2</title>
<polygon fill="#f0efe8" stroke="black" stroke-width="0" points="599.54,-76 425.86,-76 425.86,0 599.54,0 599.54,-76"/>
<text text-anchor="middle" x="512.7" y="-42" font-family="Menlo, Monaco, Consolas, Lucida Console, Courier New, monospace" font-size="20.00" fill="#000000">developer</text>
<text text-anchor="middle" x="512.7" y="-22" font-family="Menlo, Monaco, Consolas, Lucida Console, Courier New, monospace" font-size="20.00" fill="#000000">private</text>
</g>
<!-- devpub2&#45;&#45;devpriv2 -->
<g id="edge3" class="edge">
<title>devpub2&#45;&#45;devpriv2</title>
<path fill="none" stroke="#8f8a83" stroke-width="2" d="M512.7,-137.66C512.7,-117.72 512.7,-94.85 512.7,-76.15"/>
<polygon fill="#8f8a83" stroke="#8f8a83" stroke-width="2" points="509.2,-137.78 512.7,-147.78 516.2,-137.78 509.2,-137.78"/>
</g>
<!-- devpriv1&#45;&#45;blessed -->
<g id="edge4" class="edge">
<title>devpriv1&#45;&#45;blessed</title>
<path fill="none" stroke="#8f8a83" stroke-width="2" stroke-opacity="0.392157" d="M239.91,-82.04C209.37,-102.98 173.01,-127.89 143.72,-147.97"/>
<polygon fill="#8f8a83" fill-opacity="0.392157" stroke="#8f8a83" stroke-width="2" stroke-opacity="0.392157" points="242.09,-84.79 248.36,-76.24 238.14,-79.01 242.09,-84.79"/>
</g>
<!-- devpriv2&#45;&#45;blessed -->
<g id="edge5" class="edge">
<title>devpriv2&#45;&#45;blessed</title>
<path fill="none" stroke="#8f8a83" stroke-width="2" stroke-opacity="0.392157" d="M416.02,-73.1C413.22,-74.08 410.44,-75.05 407.7,-76 396.29,-79.96 266.73,-124.36 176.55,-155.25"/>
<polygon fill="#8f8a83" fill-opacity="0.392157" stroke="#8f8a83" stroke-width="2" stroke-opacity="0.392157" points="417.34,-76.35 425.63,-69.75 415.03,-69.74 417.34,-76.35"/>
</g>
</g>
</svg>
