<?xml version="1.0" encoding="UTF-8" standalone="no"?>
<!DOCTYPE svg PUBLIC "-//W3C//DTD SVG 1.1//EN"
 "http://www.w3.org/Graphics/SVG/1.1/DTD/svg11.dtd">
<!-- Generated by graphviz version 2.40.1 (20161225.0304)
 -->
<!-- Title: Git Pages: 1 -->
<svg width="608pt" height="232pt"
 viewBox="0.00 0.00 607.62 232.00" xmlns="http://www.w3.org/2000/svg" xmlns:xlink="http://www.w3.org/1999/xlink">
<g id="graph0" class="graph" transform="scale(1 1) rotate(0) translate(4 228)">
<title>Git</title>
<!-- blessed -->
<g id="node1" class="node">
<title>blessed</title>
<polygon fill="#c8a036" stroke="#000000" stroke-width="0" points="176.5118,-224 2.8866,-224 2.8866,-148 176.5118,-148 176.5118,-224"/>
<text text-anchor="middle" x="89.6992" y="-190" font-family="Menlo, Monaco, Consolas, Lucida Console, Courier New, monospace" font-size="20.00" fill="#ffffff">blessed</text>
<text text-anchor="middle" x="89.6992" y="-170" font-family="Menlo, Monaco, Consolas, Lucida Console, Courier New, monospace" font-size="20.00" fill="#ffffff">repository</text>
</g>
<!-- manager -->
<g id="node2" class="node">
<title>manager</title>
<polygon fill="#e93a1d" stroke="#000000" stroke-width="0" points="179.5981,-76 -.1997,-76 -.1997,0 179.5981,0 179.5981,-76"/>
<text text-anchor="middle" x="89.6992" y="-42" font-family="Menlo, Monaco, Consolas, Lucida Console, Courier New, monospace" font-size="20.00" fill="#ffffff">integration</text>
<text text-anchor="middle" x="89.6992" y="-22" font-family="Menlo, Monaco, Consolas, Lucida Console, Courier New, monospace" font-size="20.00" fill="#ffffff">manager</text>
</g>
<!-- blessed&#45;&#45;manager -->
<g id="edge1" class="edge">
<title>blessed&#45;&#45;manager</title>
<path fill="none" stroke="#8f8a83" stroke-width="2" d="M89.6992,-137.7514C89.6992,-117.8037 89.6992,-95.0039 89.6992,-76.2415"/>
<polygon fill="#8f8a83" stroke="#8f8a83" stroke-width="2" points="86.1993,-137.8863 89.6992,-147.8863 93.1993,-137.8864 86.1993,-137.8863"/>
</g>
<!-- devpub1 -->
<g id="node3" class="node">
<title>devpub1</title>
<polygon fill="#3e8f99" stroke="#000000" stroke-width="0" points="389.5411,-224 215.8573,-224 215.8573,-148 389.5411,-148 389.5411,-224"/>
<text text-anchor="middle" x="302.6992" y="-190" font-family="Menlo, Monaco, Consolas, Lucida Console, Courier New, monospace" font-size="20.00" fill="#ffffff">developer</text>
<text text-anchor="middle" x="302.6992" y="-170" font-family="Menlo, Monaco, Consolas, Lucida Console, Courier New, monospace" font-size="20.00" fill="#ffffff">public</text>
</g>
<!-- manager&#45;&#45;devpub1 -->
<g id="edge6" class="edge">
<title>manager&#45;&#45;devpub1</title>
<path fill="none" stroke="#8f8a83" stroke-width="2" stroke-opacity="0.392157" d="M153.0784,-82.0381C183.2133,-102.9769 218.8903,-127.7666 247.8464,-147.8863"/>
<polygon fill="#8f8a83" fill-opacity="0.392157" stroke="#8f8a83" stroke-width="2" stroke-opacity="0.392157" points="154.9453,-79.0734 144.7359,-76.2415 150.951,-84.8219 154.9453,-79.0734"/>
</g>
<!-- devpub2 -->
<g id="node4" class="node">
<title>devpub2</title>
<polygon fill="#3e8f99" stroke="#000000" stroke-width="0" points="599.5411,-224 425.8573,-224 425.8573,-148 599.5411,-148 599.5411,-224"/>
<text text-anchor="middle" x="512.6992" y="-190" font-family="Menlo, Monaco, Consolas, Lucida Console, Courier New, monospace" font-size="20.00" fill="#ffffff">developer</text>
<text text-anchor="middle" x="512.6992" y="-170" font-family="Menlo, Monaco, Consolas, Lucida Console, Courier New, monospace" font-size="20.00" fill="#ffffff">public</text>
</g>
<!-- manager&#45;&#45;devpub2 -->
<g id="edge7" class="edge">
<title>manager&#45;&#45;devpub2</title>
<path fill="none" stroke="#8f8a83" stroke-width="2" stroke-opacity="0.392157" d="M188.9934,-72.9711C191.9274,-73.9934 194.8344,-75.0049 197.6992,-76 290.9034,-108.3743 314.6403,-115.2105 407.6992,-148 413.5502,-150.0616 419.5791,-152.2016 425.65,-154.3681"/>
<polygon fill="#8f8a83" fill-opacity="0.392157" stroke="#8f8a83" stroke-width="2" stroke-opacity="0.392157" points="190.1452,-69.6661 179.5504,-69.6758 187.8388,-76.2752 190.1452,-69.6661"/>
</g>
<!-- devpriv1 -->
<g id="node5" class="node">
<title>devpriv1</title>
<polygon fill="#f0efe8" stroke="#000000" stroke-width="0" points="389.5411,-76 215.8573,-76 215.8573,0 389.5411,0 389.5411,-76"/>
<text text-anchor="middle" x="302.6992" y="-42" font-family="Menlo, Monaco, Consolas, Lucida Console, Courier New, monospace" font-size="20.00" fill="#000000">developer</text>
<text text-anchor="middle" x="302.6992" y="-22" font-family="Menlo, Monaco, Consolas, Lucida Console, Courier New, monospace" font-size="20.00" fill="#000000">private</text>
</g>
<!-- devpub1&#45;&#45;devpriv1 -->
<g id="edge2" class="edge">
<title>devpub1&#45;&#45;devpriv1</title>
<path fill="none" stroke="#8f8a83" stroke-width="2" d="M302.6992,-137.7514C302.6992,-117.8037 302.6992,-95.0039 302.6992,-76.2415"/>
<polygon fill="#8f8a83" stroke="#8f8a83" stroke-width="2" points="299.1993,-137.8863 302.6992,-147.8863 306.1993,-137.8864 299.1993,-137.8863"/>
</g>
<!-- devpriv2 -->
<g id="node6" class="node">
<title>devpriv2</title>
<polygon fill="#f0efe8" stroke="#000000" stroke-width="0" points="599.5411,-76 425.8573,-76 425.8573,0 599.5411,0 599.5411,-76"/>
<text text-anchor="middle" x="512.6992" y="-42" font-family="Menlo, Monaco, Consolas, Lucida Console, Courier New, monospace" font-size="20.00" fill="#000000">developer</text>
<text text-anchor="middle" x="512.6992" y="-22" font-family="Menlo, Monaco, Consolas, Lucida Console, Courier New, monospace" font-size="20.00" fill="#000000">private</text>
</g>
<!-- devpub2&#45;&#45;devpriv2 -->
<g id="edge3" class="edge">
<title>devpub2&#45;&#45;devpriv2</title>
<path fill="none" stroke="#8f8a83" stroke-width="2" d="M512.6992,-137.7514C512.6992,-117.8037 512.6992,-95.0039 512.6992,-76.2415"/>
<polygon fill="#8f8a83" stroke="#8f8a83" stroke-width="2" points="509.1993,-137.8863 512.6992,-147.8863 516.1993,-137.8864 509.1993,-137.8863"/>
</g>
<!-- devpriv1&#45;&#45;blessed -->
<g id="edge4" class="edge">
<title>devpriv1&#45;&#45;blessed</title>
<path fill="none" stroke="#8f8a83" stroke-width="2" stroke-opacity="0.392157" d="M239.3201,-82.0381C209.1851,-102.9769 173.5081,-127.7666 144.552,-147.8863"/>
<polygon fill="#8f8a83" fill-opacity="0.392157" stroke="#8f8a83" stroke-width="2" stroke-opacity="0.392157" points="241.4475,-84.8219 247.6625,-76.2415 237.4532,-79.0734 241.4475,-84.8219"/>
</g>
<!-- devpriv2&#45;&#45;blessed -->
<g id="edge5" class="edge">
<title>devpriv2&#45;&#45;blessed</title>
<path fill="none" stroke="#8f8a83" stroke-width="2" stroke-opacity="0.392157" d="M416.0305,-73.0545C413.2236,-74.05 410.4419,-75.0336 407.6992,-76 314.6403,-108.7895 290.9034,-115.6257 197.6992,-148 190.8459,-150.3805 183.7513,-152.8547 176.6236,-155.3474"/>
<polygon fill="#8f8a83" fill-opacity="0.392157" stroke="#8f8a83" stroke-width="2" stroke-opacity="0.392157" points="417.4018,-76.2816 425.65,-69.6319 415.0553,-69.6866 417.4018,-76.2816"/>
</g>
</g>
</svg>
