<?xml version="1.0" encoding="UTF-8" standalone="no"?>
<!DOCTYPE svg PUBLIC "-//W3C//DTD SVG 1.1//EN"
 "http://www.w3.org/Graphics/SVG/1.1/DTD/svg11.dtd">
<!-- Generated by graphviz version 2.40.1 (20161225.0304)
 -->
<!-- Title: Git Pages: 1 -->
<svg width="838pt" height="356pt"
 viewBox="0.00 0.00 837.72 356.00" xmlns="http://www.w3.org/2000/svg" xmlns:xlink="http://www.w3.org/1999/xlink">
<g id="graph0" class="graph" transform="scale(1 1) rotate(0) translate(4 352)">
<title>Git</title>
<g id="clust1" class="cluster">
<title>cluster_master</title>
<polygon fill="transparent" stroke="transparent" points="215,-176 215,-340 382,-340 382,-176 215,-176"/>
</g>
<g id="clust3" class="cluster">
<title>cluster_develop</title>
<polygon fill="transparent" stroke="transparent" points="438,-176 438,-340 605,-340 605,-176 438,-176"/>
</g>
<!-- A -->
<g id="node1" class="node">
<title>A</title>
<path fill="#f0efe8" stroke="#000000" stroke-width="0" d="M139,-240C139,-240 12,-240 12,-240 6,-240 0,-234 0,-228 0,-228 0,-196 0,-196 0,-190 6,-184 12,-184 12,-184 139,-184 139,-184 145,-184 151,-190 151,-196 151,-196 151,-228 151,-228 151,-234 145,-240 139,-240"/>
<text text-anchor="middle" x="75.5" y="-206" font-family="Menlo, Monaco, Consolas, Lucida Console, Courier New, monospace" font-size="20.00" fill="#000000">A</text>
</g>
<!-- B -->
<g id="node2" class="node">
<title>B</title>
<path fill="#f0efe8" stroke="#000000" stroke-width="0" d="M362,-240C362,-240 235,-240 235,-240 229,-240 223,-234 223,-228 223,-228 223,-196 223,-196 223,-190 229,-184 235,-184 235,-184 362,-184 362,-184 368,-184 374,-190 374,-196 374,-196 374,-228 374,-228 374,-234 368,-240 362,-240"/>
<text text-anchor="middle" x="298.5" y="-206" font-family="Menlo, Monaco, Consolas, Lucida Console, Courier New, monospace" font-size="20.00" fill="#000000">B</text>
</g>
<!-- A&#45;&gt;B -->
<g id="edge1" class="edge">
<title>A&#45;&gt;B</title>
<path fill="none" stroke="#8f8a83" stroke-width="2" d="M161.4571,-212C181.7075,-212 203.1458,-212 222.9009,-212"/>
<polygon fill="#8f8a83" stroke="#8f8a83" stroke-width="2" points="161.3088,-208.5001 151.3088,-212 161.3088,-215.5001 161.3088,-208.5001"/>
</g>
<!-- E -->
<g id="node3" class="node">
<title>E</title>
<path fill="#f0efe8" stroke="#000000" stroke-width="0" d="M585,-240C585,-240 458,-240 458,-240 452,-240 446,-234 446,-228 446,-228 446,-196 446,-196 446,-190 452,-184 458,-184 458,-184 585,-184 585,-184 591,-184 597,-190 597,-196 597,-196 597,-228 597,-228 597,-234 591,-240 585,-240"/>
<text text-anchor="middle" x="521.5" y="-206" font-family="Menlo, Monaco, Consolas, Lucida Console, Courier New, monospace" font-size="20.00" fill="#000000">E</text>
</g>
<!-- B&#45;&gt;E -->
<g id="edge2" class="edge">
<title>B&#45;&gt;E</title>
<path fill="none" stroke="#8f8a83" stroke-width="2" d="M384.4571,-212C404.7075,-212 426.1458,-212 445.9009,-212"/>
<polygon fill="#8f8a83" stroke="#8f8a83" stroke-width="2" points="384.3088,-208.5001 374.3088,-212 384.3088,-215.5001 384.3088,-208.5001"/>
</g>
<!-- C -->
<g id="node4" class="node">
<title>C</title>
<path fill="#f0efe8" stroke="#000000" stroke-width="0" d="M585,-148C585,-148 458,-148 458,-148 452,-148 446,-142 446,-136 446,-136 446,-104 446,-104 446,-98 452,-92 458,-92 458,-92 585,-92 585,-92 591,-92 597,-98 597,-104 597,-104 597,-136 597,-136 597,-142 591,-148 585,-148"/>
<text text-anchor="middle" x="521.5" y="-114" font-family="Menlo, Monaco, Consolas, Lucida Console, Courier New, monospace" font-size="20.00" fill="#000000">C</text>
</g>
<!-- B&#45;&gt;C -->
<g id="edge3" class="edge">
<title>B&#45;&gt;C</title>
<path fill="none" stroke="#8f8a83" stroke-width="2" d="M376.1267,-179.9746C401.2908,-169.593 428.9982,-158.1622 453.4141,-148.0892"/>
<polygon fill="#8f8a83" stroke="#8f8a83" stroke-width="2" points="374.5284,-176.8478 366.6191,-183.8971 377.1981,-183.3187 374.5284,-176.8478"/>
</g>
<!-- master -->
<g id="node6" class="node">
<title>master</title>
<polygon fill="#e93a1d" stroke="#000000" stroke-width="0" points="374,-332 223,-332 223,-276 374,-276 374,-332"/>
<text text-anchor="middle" x="298.5" y="-298" font-family="Menlo, Monaco, Consolas, Lucida Console, Courier New, monospace" font-size="20.00" fill="#ffffff">master</text>
</g>
<!-- B&#45;&gt;master -->
<g id="edge5" class="edge">
<title>B&#45;&gt;master</title>
<path fill="none" stroke="#8f8a83" stroke-width="2" d="M298.5,-250.288C298.5,-258.6966 298.5,-267.1053 298.5,-275.5139"/>
<polygon fill="#8f8a83" stroke="#8f8a83" stroke-width="2" points="302.0001,-250.0312 298.5,-240.0313 295.0001,-250.0313 302.0001,-250.0312"/>
</g>
<!-- develop -->
<g id="node7" class="node">
<title>develop</title>
<polygon fill="#e93a1d" stroke="#000000" stroke-width="0" points="597,-332 446,-332 446,-276 597,-276 597,-332"/>
<text text-anchor="middle" x="521.5" y="-298" font-family="Menlo, Monaco, Consolas, Lucida Console, Courier New, monospace" font-size="20.00" fill="#ffffff">develop</text>
</g>
<!-- E&#45;&gt;develop -->
<g id="edge6" class="edge">
<title>E&#45;&gt;develop</title>
<path fill="none" stroke="#8f8a83" stroke-width="2" d="M521.5,-250.288C521.5,-258.6966 521.5,-267.1053 521.5,-275.5139"/>
<polygon fill="#8f8a83" stroke="#8f8a83" stroke-width="2" points="525.0001,-250.0312 521.5,-240.0313 518.0001,-250.0313 525.0001,-250.0312"/>
</g>
<!-- D -->
<g id="node5" class="node">
<title>D</title>
<path fill="#f0efe8" stroke="#000000" stroke-width="0" d="M812.8594,-148C812.8594,-148 685.8594,-148 685.8594,-148 679.8594,-148 673.8594,-142 673.8594,-136 673.8594,-136 673.8594,-104 673.8594,-104 673.8594,-98 679.8594,-92 685.8594,-92 685.8594,-92 812.8594,-92 812.8594,-92 818.8594,-92 824.8594,-98 824.8594,-104 824.8594,-104 824.8594,-136 824.8594,-136 824.8594,-142 818.8594,-148 812.8594,-148"/>
<text text-anchor="middle" x="749.3594" y="-114" font-family="Menlo, Monaco, Consolas, Lucida Console, Courier New, monospace" font-size="20.00" fill="#000000">D</text>
</g>
<!-- C&#45;&gt;D -->
<g id="edge4" class="edge">
<title>C&#45;&gt;D</title>
<path fill="none" stroke="#8f8a83" stroke-width="2" d="M607.2908,-120C629.091,-120 652.3576,-120 673.6178,-120"/>
<polygon fill="#8f8a83" stroke="#8f8a83" stroke-width="2" points="607.0574,-116.5001 597.0574,-120 607.0573,-123.5001 607.0574,-116.5001"/>
</g>
<!-- ruby_client -->
<g id="node8" class="node">
<title>ruby_client</title>
<polygon fill="#e93a1d" stroke="#000000" stroke-width="0" points="829.5784,-56 669.1404,-56 669.1404,0 829.5784,0 829.5784,-56"/>
<text text-anchor="middle" x="749.3594" y="-22" font-family="Menlo, Monaco, Consolas, Lucida Console, Courier New, monospace" font-size="20.00" fill="#ffffff">ruby_client</text>
</g>
<!-- D&#45;&gt;ruby_client -->
<g id="edge7" class="edge">
<title>D&#45;&gt;ruby_client</title>
<path fill="none" stroke="#8f8a83" stroke-width="2" d="M749.3594,-81.2572C749.3594,-72.8486 749.3594,-64.4399 749.3594,-56.0313"/>
<polygon fill="#8f8a83" stroke="#8f8a83" stroke-width="2" points="745.8595,-81.5139 749.3594,-91.5139 752.8595,-81.514 745.8595,-81.5139"/>
</g>
</g>
</svg>
