<?xml version="1.0" encoding="UTF-8" standalone="no"?>
<!DOCTYPE svg PUBLIC "-//W3C//DTD SVG 1.1//EN"
 "http://www.w3.org/Graphics/SVG/1.1/DTD/svg11.dtd">
<!-- Generated by graphviz version 2.47.2 (20210527.0053)
 -->
<!-- Title: Git Pages: 1 -->
<svg width="838pt" height="356pt"
 viewBox="0.00 0.00 838.00 356.00" xmlns="http://www.w3.org/2000/svg" xmlns:xlink="http://www.w3.org/1999/xlink">
<g id="graph0" class="graph" transform="scale(1 1) rotate(0) translate(4 352)">
<title>Git</title>
<g id="clust1" class="cluster">
<title>cluster_master</title>
<polygon fill="transparent" stroke="transparent" points="215,-176 215,-340 382,-340 382,-176 215,-176"/>
</g>
<g id="clust3" class="cluster">
<title>cluster_develop</title>
<polygon fill="transparent" stroke="transparent" points="438,-176 438,-340 605,-340 605,-176 438,-176"/>
</g>
<!-- A -->
<g id="node1" class="node">
<title>A</title>
<path fill="#f0efe8" stroke="black" stroke-width="0" d="M139,-240C139,-240 12,-240 12,-240 6,-240 0,-234 0,-228 0,-228 0,-196 0,-196 0,-190 6,-184 12,-184 12,-184 139,-184 139,-184 145,-184 151,-190 151,-196 151,-196 151,-228 151,-228 151,-234 145,-240 139,-240"/>
<text text-anchor="middle" x="75.5" y="-207" font-family="Menlo, Monaco, Consolas, Lucida Console, Courier New, monospace" font-size="20.00">A</text>
</g>
<!-- B -->
<g id="node2" class="node">
<title>B</title>
<path fill="#f0efe8" stroke="black" stroke-width="0" d="M362,-240C362,-240 235,-240 235,-240 229,-240 223,-234 223,-228 223,-228 223,-196 223,-196 223,-190 229,-184 235,-184 235,-184 362,-184 362,-184 368,-184 374,-190 374,-196 374,-196 374,-228 374,-228 374,-234 368,-240 362,-240"/>
<text text-anchor="middle" x="298.5" y="-207" font-family="Menlo, Monaco, Consolas, Lucida Console, Courier New, monospace" font-size="20.00">B</text>
</g>
<!-- A&#45;&gt;B -->
<g id="edge1" class="edge">
<title>A&#45;&gt;B</title>
<path fill="none" stroke="#8f8a83" stroke-width="2" d="M161.2,-212C181.53,-212 203.1,-212 222.94,-212"/>
<polygon fill="#8f8a83" stroke="#8f8a83" stroke-width="2" points="161.01,-208.5 151.01,-212 161.01,-215.5 161.01,-208.5"/>
</g>
<!-- E -->
<g id="node3" class="node">
<title>E</title>
<path fill="#f0efe8" stroke="black" stroke-width="0" d="M585,-240C585,-240 458,-240 458,-240 452,-240 446,-234 446,-228 446,-228 446,-196 446,-196 446,-190 452,-184 458,-184 458,-184 585,-184 585,-184 591,-184 597,-190 597,-196 597,-196 597,-228 597,-228 597,-234 591,-240 585,-240"/>
<text text-anchor="middle" x="521.5" y="-207" font-family="Menlo, Monaco, Consolas, Lucida Console, Courier New, monospace" font-size="20.00">E</text>
</g>
<!-- B&#45;&gt;E -->
<g id="edge2" class="edge">
<title>B&#45;&gt;E</title>
<path fill="none" stroke="#8f8a83" stroke-width="2" d="M384.2,-212C404.53,-212 426.1,-212 445.94,-212"/>
<polygon fill="#8f8a83" stroke="#8f8a83" stroke-width="2" points="384.01,-208.5 374.01,-212 384.01,-215.5 384.01,-208.5"/>
</g>
<!-- C -->
<g id="node4" class="node">
<title>C</title>
<path fill="#f0efe8" stroke="black" stroke-width="0" d="M585,-148C585,-148 458,-148 458,-148 452,-148 446,-142 446,-136 446,-136 446,-104 446,-104 446,-98 452,-92 458,-92 458,-92 585,-92 585,-92 591,-92 597,-98 597,-104 597,-104 597,-136 597,-136 597,-142 591,-148 585,-148"/>
<text text-anchor="middle" x="521.5" y="-115" font-family="Menlo, Monaco, Consolas, Lucida Console, Courier New, monospace" font-size="20.00">C</text>
</g>
<!-- B&#45;&gt;C -->
<g id="edge3" class="edge">
<title>B&#45;&gt;C</title>
<path fill="none" stroke="#8f8a83" stroke-width="2" d="M376.43,-179.97C401.37,-169.59 428.83,-158.16 453.02,-148.09"/>
<polygon fill="#8f8a83" stroke="#8f8a83" stroke-width="2" points="374.9,-176.82 367.01,-183.9 377.59,-183.29 374.9,-176.82"/>
</g>
<!-- master -->
<g id="node6" class="node">
<title>master</title>
<polygon fill="#2c942c" stroke="black" stroke-width="0" points="374,-332 223,-332 223,-276 374,-276 374,-332"/>
<text text-anchor="middle" x="298.5" y="-299" font-family="Menlo, Monaco, Consolas, Lucida Console, Courier New, monospace" font-size="20.00" fill="#ffffff">master</text>
</g>
<!-- B&#45;&gt;master -->
<g id="edge5" class="edge">
<title>B&#45;&gt;master</title>
<path fill="none" stroke="#8f8a83" stroke-width="2" d="M298.5,-250.29C298.5,-258.7 298.5,-267.11 298.5,-275.51"/>
<polygon fill="#8f8a83" stroke="#8f8a83" stroke-width="2" points="302,-250.03 298.5,-240.03 295,-250.03 302,-250.03"/>
</g>
<!-- develop -->
<g id="node7" class="node">
<title>develop</title>
<polygon fill="#2c942c" stroke="black" stroke-width="0" points="597,-332 446,-332 446,-276 597,-276 597,-332"/>
<text text-anchor="middle" x="521.5" y="-299" font-family="Menlo, Monaco, Consolas, Lucida Console, Courier New, monospace" font-size="20.00" fill="#ffffff">develop</text>
</g>
<!-- E&#45;&gt;develop -->
<g id="edge6" class="edge">
<title>E&#45;&gt;develop</title>
<path fill="none" stroke="#8f8a83" stroke-width="2" d="M521.5,-250.29C521.5,-258.7 521.5,-267.11 521.5,-275.51"/>
<polygon fill="#8f8a83" stroke="#8f8a83" stroke-width="2" points="525,-250.03 521.5,-240.03 518,-250.03 525,-250.03"/>
</g>
<!-- D -->
<g id="node5" class="node">
<title>D</title>
<path fill="#f0efe8" stroke="black" stroke-width="0" d="M813,-148C813,-148 686,-148 686,-148 680,-148 674,-142 674,-136 674,-136 674,-104 674,-104 674,-98 680,-92 686,-92 686,-92 813,-92 813,-92 819,-92 825,-98 825,-104 825,-104 825,-136 825,-136 825,-142 819,-148 813,-148"/>
<text text-anchor="middle" x="749.5" y="-115" font-family="Menlo, Monaco, Consolas, Lucida Console, Courier New, monospace" font-size="20.00">D</text>
</g>
<!-- C&#45;&gt;D -->
<g id="edge4" class="edge">
<title>C&#45;&gt;D</title>
<path fill="none" stroke="#8f8a83" stroke-width="2" d="M607.39,-120C629.27,-120 652.65,-120 673.95,-120"/>
<polygon fill="#8f8a83" stroke="#8f8a83" stroke-width="2" points="607.13,-116.5 597.13,-120 607.13,-123.5 607.13,-116.5"/>
</g>
<!-- ruby_client -->
<g id="node8" class="node">
<title>ruby_client</title>
<polygon fill="#2c942c" stroke="black" stroke-width="0" points="830,-56 669,-56 669,0 830,0 830,-56"/>
<text text-anchor="middle" x="749.5" y="-23" font-family="Menlo, Monaco, Consolas, Lucida Console, Courier New, monospace" font-size="20.00" fill="#ffffff">ruby_client</text>
</g>
<!-- D&#45;&gt;ruby_client -->
<g id="edge7" class="edge">
<title>D&#45;&gt;ruby_client</title>
<path fill="none" stroke="#8f8a83" stroke-width="2" d="M749.5,-81.26C749.5,-72.85 749.5,-64.44 749.5,-56.03"/>
<polygon fill="#8f8a83" stroke="#8f8a83" stroke-width="2" points="746,-81.51 749.5,-91.51 753,-81.51 746,-81.51"/>
</g>
</g>
</svg>
