<?xml version="1.0" encoding="UTF-8" standalone="no"?>
<!DOCTYPE svg PUBLIC "-//W3C//DTD SVG 1.1//EN"
 "http://www.w3.org/Graphics/SVG/1.1/DTD/svg11.dtd">
<!-- Generated by graphviz version 2.40.1 (20161225.0304)
 -->
<!-- Title: Git Pages: 1 -->
<svg width="1529pt" height="270pt"
 viewBox="0.00 0.00 1529.00 270.00" xmlns="http://www.w3.org/2000/svg" xmlns:xlink="http://www.w3.org/1999/xlink">
<g id="graph0" class="graph" transform="scale(1 1) rotate(0) translate(4 266)">
<title>Git</title>
<g id="clust1" class="cluster">
<title>cluster_v1_0</title>
</g>
<g id="clust3" class="cluster">
<title>cluster_v1_1</title>
</g>
<!-- A -->
<g id="node1" class="node">
<title>A</title>
<path fill="#f0efe8" stroke="#000000" stroke-width="0" d="M155,-152C155,-152 28,-152 28,-152 22,-152 16,-146 16,-140 16,-140 16,-106 16,-106 16,-100 22,-94 28,-94 28,-94 155,-94 155,-94 161,-94 167,-100 167,-106 167,-106 167,-140 167,-140 167,-146 161,-152 155,-152"/>
<text text-anchor="middle" x="91.5" y="-121.4375" font-family="Menlo, Monaco, Consolas, Lucida Console, Courier New, monospace" font-size="20.00" fill="#000000">✅ A</text>
</g>
<!-- B -->
<g id="node2" class="node">
<title>B</title>
<path fill="#f0efe8" stroke="#000000" stroke-width="0" d="M378,-152C378,-152 251,-152 251,-152 245,-152 239,-146 239,-140 239,-140 239,-106 239,-106 239,-100 245,-94 251,-94 251,-94 378,-94 378,-94 384,-94 390,-100 390,-106 390,-106 390,-140 390,-140 390,-146 384,-152 378,-152"/>
<text text-anchor="middle" x="314.5" y="-121.4375" font-family="Menlo, Monaco, Consolas, Lucida Console, Courier New, monospace" font-size="20.00" fill="#000000">✅ B</text>
</g>
<!-- A&#45;&gt;B -->
<g id="edge1" class="edge">
<title>A&#45;&gt;B</title>
<path fill="none" stroke="#8f8a83" stroke-width="2" d="M177.4571,-123C197.7075,-123 219.1458,-123 238.9009,-123"/>
<polygon fill="#8f8a83" stroke="#8f8a83" stroke-width="2" points="177.3088,-119.5001 167.3088,-123 177.3088,-126.5001 177.3088,-119.5001"/>
</g>
<!-- v1_0 -->
<g id="node8" class="node">
<title>v1_0</title>
<polygon fill="#e93a1d" stroke="#000000" stroke-width="0" points="167,-246 16,-246 16,-188 167,-188 167,-246"/>
<text text-anchor="middle" x="91.5" y="-211" font-family="Menlo, Monaco, Consolas, Lucida Console, Courier New, monospace" font-size="20.00" fill="#ffffff">v1.0</text>
</g>
<!-- A&#45;&gt;v1_0 -->
<g id="edge7" class="edge">
<title>A&#45;&gt;v1_0</title>
<path fill="none" stroke="#8f8a83" stroke-width="2" d="M91.5,-162.0756C91.5,-170.6518 91.5,-179.2281 91.5,-187.8043"/>
<polygon fill="#8f8a83" stroke="#8f8a83" stroke-width="2" points="95.0001,-162.0078 91.5,-152.0078 88.0001,-162.0078 95.0001,-162.0078"/>
</g>
<!-- C -->
<g id="node3" class="node">
<title>C</title>
<path fill="#f0efe8" stroke="#000000" stroke-width="0" d="M601,-152C601,-152 474,-152 474,-152 468,-152 462,-146 462,-140 462,-140 462,-106 462,-106 462,-100 468,-94 474,-94 474,-94 601,-94 601,-94 607,-94 613,-100 613,-106 613,-106 613,-140 613,-140 613,-146 607,-152 601,-152"/>
<text text-anchor="middle" x="537.5" y="-121.4375" font-family="Menlo, Monaco, Consolas, Lucida Console, Courier New, monospace" font-size="20.00" fill="#000000">✅ C</text>
</g>
<!-- B&#45;&gt;C -->
<g id="edge2" class="edge">
<title>B&#45;&gt;C</title>
<path fill="none" stroke="#8f8a83" stroke-width="2" d="M400.4571,-123C420.7075,-123 442.1458,-123 461.9009,-123"/>
<polygon fill="#8f8a83" stroke="#8f8a83" stroke-width="2" points="400.3088,-119.5001 390.3088,-123 400.3088,-126.5001 400.3088,-119.5001"/>
</g>
<!-- D -->
<g id="node4" class="node">
<title>D</title>
<path fill="#f0efe8" stroke="#000000" stroke-width="0" d="M824,-152C824,-152 697,-152 697,-152 691,-152 685,-146 685,-140 685,-140 685,-106 685,-106 685,-100 691,-94 697,-94 697,-94 824,-94 824,-94 830,-94 836,-100 836,-106 836,-106 836,-140 836,-140 836,-146 830,-152 824,-152"/>
<text text-anchor="middle" x="760.5" y="-121.4375" font-family="Menlo, Monaco, Consolas, Lucida Console, Courier New, monospace" font-size="20.00" fill="#000000">💩 D</text>
</g>
<!-- C&#45;&gt;D -->
<g id="edge3" class="edge">
<title>C&#45;&gt;D</title>
<path fill="none" stroke="#8f8a83" stroke-width="2" d="M623.4571,-123C643.7075,-123 665.1458,-123 684.9009,-123"/>
<polygon fill="#8f8a83" stroke="#8f8a83" stroke-width="2" points="623.3088,-119.5001 613.3088,-123 623.3088,-126.5001 623.3088,-119.5001"/>
</g>
<!-- HEAD -->
<g id="node10" class="node">
<title>HEAD</title>
<polygon fill="#c8a036" stroke="#000000" stroke-width="0" points="613,-58 462,-58 462,0 613,0 613,-58"/>
<text text-anchor="middle" x="537.5" y="-23" font-family="Menlo, Monaco, Consolas, Lucida Console, Courier New, monospace" font-size="20.00" fill="#ffffff">HEAD</text>
</g>
<!-- C&#45;&gt;HEAD -->
<g id="edge9" class="edge">
<title>C&#45;&gt;HEAD</title>
<path fill="none" stroke="#8f8a83" stroke-width="2" d="M537.5,-83.7365C537.5,-75.1603 537.5,-66.5841 537.5,-58.0078"/>
<polygon fill="#8f8a83" stroke="#8f8a83" stroke-width="2" points="534.0001,-83.8043 537.5,-93.8043 541.0001,-83.8043 534.0001,-83.8043"/>
</g>
<!-- E -->
<g id="node5" class="node">
<title>E</title>
<path fill="#f0efe8" stroke="#000000" stroke-width="0" d="M1047,-152C1047,-152 920,-152 920,-152 914,-152 908,-146 908,-140 908,-140 908,-106 908,-106 908,-100 914,-94 920,-94 920,-94 1047,-94 1047,-94 1053,-94 1059,-100 1059,-106 1059,-106 1059,-140 1059,-140 1059,-146 1053,-152 1047,-152"/>
<text text-anchor="middle" x="983.5" y="-121.4375" font-family="Menlo, Monaco, Consolas, Lucida Console, Courier New, monospace" font-size="20.00" fill="#000000">💩 E</text>
</g>
<!-- D&#45;&gt;E -->
<g id="edge4" class="edge">
<title>D&#45;&gt;E</title>
<path fill="none" stroke="#8f8a83" stroke-width="2" d="M846.4571,-123C866.7075,-123 888.1458,-123 907.9009,-123"/>
<polygon fill="#8f8a83" stroke="#8f8a83" stroke-width="2" points="846.3088,-119.5001 836.3088,-123 846.3088,-126.5001 846.3088,-119.5001"/>
</g>
<!-- F -->
<g id="node6" class="node">
<title>F</title>
<path fill="#f0efe8" stroke="#000000" stroke-width="0" d="M1270,-152C1270,-152 1143,-152 1143,-152 1137,-152 1131,-146 1131,-140 1131,-140 1131,-106 1131,-106 1131,-100 1137,-94 1143,-94 1143,-94 1270,-94 1270,-94 1276,-94 1282,-100 1282,-106 1282,-106 1282,-140 1282,-140 1282,-146 1276,-152 1270,-152"/>
<text text-anchor="middle" x="1206.5" y="-121.4375" font-family="Menlo, Monaco, Consolas, Lucida Console, Courier New, monospace" font-size="20.00" fill="#000000">💩 F</text>
</g>
<!-- E&#45;&gt;F -->
<g id="edge5" class="edge">
<title>E&#45;&gt;F</title>
<path fill="none" stroke="#8f8a83" stroke-width="2" d="M1069.4571,-123C1089.7075,-123 1111.1458,-123 1130.9009,-123"/>
<polygon fill="#8f8a83" stroke="#8f8a83" stroke-width="2" points="1069.3088,-119.5001 1059.3088,-123 1069.3088,-126.5001 1069.3088,-119.5001"/>
</g>
<!-- G -->
<g id="node7" class="node">
<title>G</title>
<path fill="#f0efe8" stroke="#000000" stroke-width="0" d="M1493,-152C1493,-152 1366,-152 1366,-152 1360,-152 1354,-146 1354,-140 1354,-140 1354,-106 1354,-106 1354,-100 1360,-94 1366,-94 1366,-94 1493,-94 1493,-94 1499,-94 1505,-100 1505,-106 1505,-106 1505,-140 1505,-140 1505,-146 1499,-152 1493,-152"/>
<text text-anchor="middle" x="1429.5" y="-121.4375" font-family="Menlo, Monaco, Consolas, Lucida Console, Courier New, monospace" font-size="20.00" fill="#000000">💩 G</text>
</g>
<!-- F&#45;&gt;G -->
<g id="edge6" class="edge">
<title>F&#45;&gt;G</title>
<path fill="none" stroke="#8f8a83" stroke-width="2" d="M1292.4571,-123C1312.7075,-123 1334.1458,-123 1353.9009,-123"/>
<polygon fill="#8f8a83" stroke="#8f8a83" stroke-width="2" points="1292.3088,-119.5001 1282.3088,-123 1292.3088,-126.5001 1292.3088,-119.5001"/>
</g>
<!-- v1_1 -->
<g id="node9" class="node">
<title>v1_1</title>
<polygon fill="#e93a1d" stroke="#000000" stroke-width="0" points="1505,-246 1354,-246 1354,-188 1505,-188 1505,-246"/>
<text text-anchor="middle" x="1429.5" y="-211" font-family="Menlo, Monaco, Consolas, Lucida Console, Courier New, monospace" font-size="20.00" fill="#ffffff">v1.1</text>
</g>
<!-- G&#45;&gt;v1_1 -->
<g id="edge8" class="edge">
<title>G&#45;&gt;v1_1</title>
<path fill="none" stroke="#8f8a83" stroke-width="2" d="M1429.5,-162.0756C1429.5,-170.6518 1429.5,-179.2281 1429.5,-187.8043"/>
<polygon fill="#8f8a83" stroke="#8f8a83" stroke-width="2" points="1433.0001,-162.0078 1429.5,-152.0078 1426.0001,-162.0078 1433.0001,-162.0078"/>
</g>
</g>
</svg>
