<?xml version="1.0" encoding="UTF-8" standalone="no"?>
<!DOCTYPE svg PUBLIC "-//W3C//DTD SVG 1.1//EN"
 "http://www.w3.org/Graphics/SVG/1.1/DTD/svg11.dtd">
<!-- Generated by graphviz version 2.43.0 (0)
 -->
<!-- Title: Git Pages: 1 -->
<svg width="605pt" height="357pt"
 viewBox="0.00 0.00 605.00 357.44" xmlns="http://www.w3.org/2000/svg" xmlns:xlink="http://www.w3.org/1999/xlink">
<g id="graph0" class="graph" transform="scale(1 1) rotate(0) translate(4 353.44)">
<title>Git</title>
<!-- HEAD -->
<g id="node1" class="node">
<title>HEAD</title>
<polygon fill="#c8a036" stroke="black" stroke-width="0" points="597,-56 446,-56 446,0 597,0 597,-56"/>
<text text-anchor="middle" x="521.5" y="-22" font-family="Menlo, Monaco, Consolas, Lucida Console, Courier New, monospace" font-size="20.00" fill="#ffffff">HEAD</text>
</g>
<!-- master -->
<g id="node2" class="node">
<title>master</title>
<polygon fill="#e93a1d" stroke="black" stroke-width="0" points="597,-148 446,-148 446,-92 597,-92 597,-148"/>
<text text-anchor="middle" x="521.5" y="-114" font-family="Menlo, Monaco, Consolas, Lucida Console, Courier New, monospace" font-size="20.00" fill="#ffffff">master</text>
</g>
<!-- master&#45;&gt;HEAD -->
<g id="edge4" class="edge">
<title>master&#45;&gt;HEAD</title>
<path fill="none" stroke="#8f8a83" stroke-width="2" d="M521.5,-81.26C521.5,-72.85 521.5,-64.44 521.5,-56.03"/>
<polygon fill="#8f8a83" stroke="#8f8a83" stroke-width="2" points="518,-81.51 521.5,-91.51 525,-81.51 518,-81.51"/>
</g>
<!-- A -->
<g id="node3" class="node">
<title>A</title>
<path fill="#f0efe8" stroke="black" stroke-width="0" d="M139,-345C139,-345 12,-345 12,-345 6,-345 0,-339 0,-333 0,-333 0,-301 0,-301 0,-295 6,-289 12,-289 12,-289 139,-289 139,-289 145,-289 151,-295 151,-301 151,-301 151,-333 151,-333 151,-339 145,-345 139,-345"/>
<text text-anchor="middle" x="75.5" y="-311" font-family="Menlo, Monaco, Consolas, Lucida Console, Courier New, monospace" font-size="20.00">A</text>
</g>
<!-- B -->
<g id="node4" class="node">
<title>B</title>
<path fill="#f0efe8" stroke="black" stroke-width="0" d="M362,-345C362,-345 235,-345 235,-345 229,-345 223,-339 223,-333 223,-333 223,-301 223,-301 223,-295 229,-289 235,-289 235,-289 362,-289 362,-289 368,-289 374,-295 374,-301 374,-301 374,-333 374,-333 374,-339 368,-345 362,-345"/>
<text text-anchor="middle" x="298.5" y="-311" font-family="Menlo, Monaco, Consolas, Lucida Console, Courier New, monospace" font-size="20.00">B</text>
</g>
<!-- A&#45;&gt;B -->
<g id="edge1" class="edge">
<title>A&#45;&gt;B</title>
<path fill="none" stroke="#8f8a83" stroke-width="2" d="M161.2,-317C181.53,-317 203.1,-317 222.94,-317"/>
<polygon fill="#8f8a83" stroke="#8f8a83" stroke-width="2" points="161.01,-313.5 151.01,-317 161.01,-320.5 161.01,-313.5"/>
</g>
<!-- C -->
<g id="node5" class="node">
<title>C</title>
<path fill="#f0efe8" fill-opacity="0.392157" stroke="black" stroke-width="0" d="M585,-349.38C585,-349.38 458,-349.38 458,-349.38 452,-349.38 446,-343.38 446,-337.38 446,-337.38 446,-296.62 446,-296.62 446,-290.62 452,-284.62 458,-284.62 458,-284.62 585,-284.62 585,-284.62 591,-284.62 597,-290.62 597,-296.62 597,-296.62 597,-337.38 597,-337.38 597,-343.38 591,-349.38 585,-349.38"/>
<text text-anchor="middle" x="521.5" y="-315.44" font-family="Menlo, Monaco, Consolas, Lucida Console, Courier New, monospace" font-size="20.00" fill="#7f7f7f">💩 C</text>
</g>
<!-- B&#45;&gt;C -->
<g id="edge2" class="edge">
<title>B&#45;&gt;C</title>
<path fill="none" stroke="#8f8a83" stroke-width="2" stroke-opacity="0.392157" d="M384.2,-317C404.53,-317 426.1,-317 445.94,-317"/>
<polygon fill="#8f8a83" fill-opacity="0.392157" stroke="#8f8a83" stroke-width="2" stroke-opacity="0.392157" points="384.01,-313.5 374.01,-317 384.01,-320.5 384.01,-313.5"/>
</g>
<!-- Cr -->
<g id="node6" class="node">
<title>Cr</title>
<path fill="#f0efe8" stroke="black" stroke-width="0" d="M585,-248.38C585,-248.38 458,-248.38 458,-248.38 452,-248.38 446,-242.38 446,-236.38 446,-236.38 446,-195.62 446,-195.62 446,-189.62 452,-183.62 458,-183.62 458,-183.62 585,-183.62 585,-183.62 591,-183.62 597,-189.62 597,-195.62 597,-195.62 597,-236.38 597,-236.38 597,-242.38 591,-248.38 585,-248.38"/>
<text text-anchor="middle" x="521.5" y="-214.44" font-family="Menlo, Monaco, Consolas, Lucida Console, Courier New, monospace" font-size="20.00">✅ C&#39;</text>
</g>
<!-- B&#45;&gt;Cr -->
<g id="edge5" class="edge">
<title>B&#45;&gt;Cr</title>
<path fill="none" stroke="#8f8a83" stroke-width="2" d="M369.95,-284.8C395.31,-273.21 423.92,-260.14 449.34,-248.52"/>
<polygon fill="#8f8a83" stroke="#8f8a83" stroke-width="2" points="368.41,-281.66 360.77,-289 371.32,-288.03 368.41,-281.66"/>
</g>
<!-- B_ -->
<!-- B&#45;&gt;B_ -->
<!-- Cr&#45;&gt;master -->
<g id="edge3" class="edge">
<title>Cr&#45;&gt;master</title>
<path fill="none" stroke="#8f8a83" stroke-width="2" d="M521.5,-173.19C521.5,-164.84 521.5,-156.48 521.5,-148.12"/>
<polygon fill="#8f8a83" stroke="#8f8a83" stroke-width="2" points="518,-173.39 521.5,-183.39 525,-173.39 518,-173.39"/>
</g>
<!-- B_&#45;&gt;Cr -->
</g>
</svg>
