<?xml version="1.0" encoding="UTF-8" standalone="no"?>
<!DOCTYPE svg PUBLIC "-//W3C//DTD SVG 1.1//EN"
 "http://www.w3.org/Graphics/SVG/1.1/DTD/svg11.dtd">
<!-- Generated by graphviz version 2.47.2 (20210527.0053)
 -->
<!-- Title: Git Pages: 1 -->
<svg width="605pt" height="340pt"
 viewBox="0.00 0.00 605.00 340.00" xmlns="http://www.w3.org/2000/svg" xmlns:xlink="http://www.w3.org/1999/xlink">
<g id="graph0" class="graph" transform="scale(1 1) rotate(0) translate(4 336)">
<title>Git</title>
<!-- HEAD -->
<g id="node1" class="node">
<title>HEAD</title>
<polygon fill="#c8a036" stroke="black" stroke-width="0" points="597,-56 446,-56 446,0 597,0 597,-56"/>
<text text-anchor="middle" x="521.5" y="-23" font-family="Menlo, Monaco, Consolas, Lucida Console, Courier New, monospace" font-size="20.00" fill="#ffffff">HEAD</text>
</g>
<!-- master -->
<g id="node2" class="node">
<title>master</title>
<polygon fill="#e93a1d" stroke="black" stroke-width="0" points="597,-148 446,-148 446,-92 597,-92 597,-148"/>
<text text-anchor="middle" x="521.5" y="-115" font-family="Menlo, Monaco, Consolas, Lucida Console, Courier New, monospace" font-size="20.00" fill="#ffffff">master</text>
</g>
<!-- master&#45;&gt;HEAD -->
<g id="edge4" class="edge">
<title>master&#45;&gt;HEAD</title>
<path fill="none" stroke="#8f8a83" stroke-width="2" d="M521.5,-81.26C521.5,-72.85 521.5,-64.44 521.5,-56.03"/>
<polygon fill="#8f8a83" stroke="#8f8a83" stroke-width="2" points="518,-81.51 521.5,-91.51 525,-81.51 518,-81.51"/>
</g>
<!-- A -->
<g id="node3" class="node">
<title>A</title>
<path fill="#f0efe8" stroke="black" stroke-width="0" d="M139,-332C139,-332 12,-332 12,-332 6,-332 0,-326 0,-320 0,-320 0,-288 0,-288 0,-282 6,-276 12,-276 12,-276 139,-276 139,-276 145,-276 151,-282 151,-288 151,-288 151,-320 151,-320 151,-326 145,-332 139,-332"/>
<text text-anchor="middle" x="75.5" y="-299" font-family="Menlo, Monaco, Consolas, Lucida Console, Courier New, monospace" font-size="20.00">A</text>
</g>
<!-- B -->
<g id="node4" class="node">
<title>B</title>
<path fill="#f0efe8" stroke="black" stroke-width="0" d="M362,-332C362,-332 235,-332 235,-332 229,-332 223,-326 223,-320 223,-320 223,-288 223,-288 223,-282 229,-276 235,-276 235,-276 362,-276 362,-276 368,-276 374,-282 374,-288 374,-288 374,-320 374,-320 374,-326 368,-332 362,-332"/>
<text text-anchor="middle" x="298.5" y="-299" font-family="Menlo, Monaco, Consolas, Lucida Console, Courier New, monospace" font-size="20.00">B</text>
</g>
<!-- A&#45;&gt;B -->
<g id="edge1" class="edge">
<title>A&#45;&gt;B</title>
<path fill="none" stroke="#8f8a83" stroke-width="2" d="M161.2,-304C181.53,-304 203.1,-304 222.94,-304"/>
<polygon fill="#8f8a83" stroke="#8f8a83" stroke-width="2" points="161.01,-300.5 151.01,-304 161.01,-307.5 161.01,-300.5"/>
</g>
<!-- C -->
<g id="node5" class="node">
<title>C</title>
<path fill="#f0efe8" fill-opacity="0.392157" stroke="black" stroke-width="0" d="M585,-332C585,-332 458,-332 458,-332 452,-332 446,-326 446,-320 446,-320 446,-288 446,-288 446,-282 452,-276 458,-276 458,-276 585,-276 585,-276 591,-276 597,-282 597,-288 597,-288 597,-320 597,-320 597,-326 591,-332 585,-332"/>
<text text-anchor="middle" x="521.5" y="-299" font-family="Menlo, Monaco, Consolas, Lucida Console, Courier New, monospace" font-size="20.00" fill="#7f7f7f">💩 C</text>
</g>
<!-- B&#45;&gt;C -->
<g id="edge2" class="edge">
<title>B&#45;&gt;C</title>
<path fill="none" stroke="#8f8a83" stroke-width="2" stroke-opacity="0.392157" d="M384.2,-304C404.53,-304 426.1,-304 445.94,-304"/>
<polygon fill="#8f8a83" fill-opacity="0.392157" stroke="#8f8a83" stroke-width="2" stroke-opacity="0.392157" points="384.01,-300.5 374.01,-304 384.01,-307.5 384.01,-300.5"/>
</g>
<!-- Cr -->
<g id="node6" class="node">
<title>Cr</title>
<path fill="#f0efe8" stroke="black" stroke-width="0" d="M585,-240C585,-240 458,-240 458,-240 452,-240 446,-234 446,-228 446,-228 446,-196 446,-196 446,-190 452,-184 458,-184 458,-184 585,-184 585,-184 591,-184 597,-190 597,-196 597,-196 597,-228 597,-228 597,-234 591,-240 585,-240"/>
<text text-anchor="middle" x="521.5" y="-207" font-family="Menlo, Monaco, Consolas, Lucida Console, Courier New, monospace" font-size="20.00">✅ C&#39;</text>
</g>
<!-- B&#45;&gt;Cr -->
<g id="edge5" class="edge">
<title>B&#45;&gt;Cr</title>
<path fill="none" stroke="#8f8a83" stroke-width="2" d="M376.43,-271.97C401.37,-261.59 428.83,-250.16 453.02,-240.09"/>
<polygon fill="#8f8a83" stroke="#8f8a83" stroke-width="2" points="374.9,-268.82 367.01,-275.9 377.59,-275.29 374.9,-268.82"/>
</g>
<!-- B_ -->
<!-- B&#45;&gt;B_ -->
<!-- Cr&#45;&gt;master -->
<g id="edge3" class="edge">
<title>Cr&#45;&gt;master</title>
<path fill="none" stroke="#8f8a83" stroke-width="2" d="M521.5,-173.26C521.5,-164.85 521.5,-156.44 521.5,-148.03"/>
<polygon fill="#8f8a83" stroke="#8f8a83" stroke-width="2" points="518,-173.51 521.5,-183.51 525,-173.51 518,-173.51"/>
</g>
<!-- B_&#45;&gt;Cr -->
</g>
</svg>
