<?xml version="1.0" encoding="UTF-8" standalone="no"?>
<!DOCTYPE svg PUBLIC "-//W3C//DTD SVG 1.1//EN"
 "http://www.w3.org/Graphics/SVG/1.1/DTD/svg11.dtd">
<!-- Generated by graphviz version 2.40.1 (20161225.0304)
 -->
<!-- Title: Git Pages: 1 -->
<svg width="605pt" height="357pt"
 viewBox="0.00 0.00 605.00 357.44" xmlns="http://www.w3.org/2000/svg" xmlns:xlink="http://www.w3.org/1999/xlink">
<g id="graph0" class="graph" transform="scale(1 1) rotate(0) translate(4 353.4375)">
<title>Git</title>
<!-- HEAD -->
<g id="node1" class="node">
<title>HEAD</title>
<polygon fill="#c8a036" stroke="#000000" stroke-width="0" points="597,-56 446,-56 446,0 597,0 597,-56"/>
<text text-anchor="middle" x="521.5" y="-22" font-family="Menlo, Monaco, Consolas, Lucida Console, Courier New, monospace" font-size="20.00" fill="#ffffff">HEAD</text>
</g>
<!-- master -->
<g id="node2" class="node">
<title>master</title>
<polygon fill="#e93a1d" stroke="#000000" stroke-width="0" points="597,-148 446,-148 446,-92 597,-92 597,-148"/>
<text text-anchor="middle" x="521.5" y="-114" font-family="Menlo, Monaco, Consolas, Lucida Console, Courier New, monospace" font-size="20.00" fill="#ffffff">master</text>
</g>
<!-- master&#45;&gt;HEAD -->
<g id="edge4" class="edge">
<title>master&#45;&gt;HEAD</title>
<path fill="none" stroke="#8f8a83" stroke-width="2" d="M521.5,-81.2572C521.5,-72.8486 521.5,-64.4399 521.5,-56.0313"/>
<polygon fill="#8f8a83" stroke="#8f8a83" stroke-width="2" points="518.0001,-81.5139 521.5,-91.5139 525.0001,-81.514 518.0001,-81.5139"/>
</g>
<!-- A -->
<g id="node3" class="node">
<title>A</title>
<path fill="#f0efe8" stroke="#000000" stroke-width="0" d="M139,-345C139,-345 12,-345 12,-345 6,-345 0,-339 0,-333 0,-333 0,-301 0,-301 0,-295 6,-289 12,-289 12,-289 139,-289 139,-289 145,-289 151,-295 151,-301 151,-301 151,-333 151,-333 151,-339 145,-345 139,-345"/>
<text text-anchor="middle" x="75.5" y="-311" font-family="Menlo, Monaco, Consolas, Lucida Console, Courier New, monospace" font-size="20.00" fill="#000000">A</text>
</g>
<!-- B -->
<g id="node4" class="node">
<title>B</title>
<path fill="#f0efe8" stroke="#000000" stroke-width="0" d="M362,-345C362,-345 235,-345 235,-345 229,-345 223,-339 223,-333 223,-333 223,-301 223,-301 223,-295 229,-289 235,-289 235,-289 362,-289 362,-289 368,-289 374,-295 374,-301 374,-301 374,-333 374,-333 374,-339 368,-345 362,-345"/>
<text text-anchor="middle" x="298.5" y="-311" font-family="Menlo, Monaco, Consolas, Lucida Console, Courier New, monospace" font-size="20.00" fill="#000000">B</text>
</g>
<!-- A&#45;&gt;B -->
<g id="edge1" class="edge">
<title>A&#45;&gt;B</title>
<path fill="none" stroke="#8f8a83" stroke-width="2" d="M161.4571,-317C181.7075,-317 203.1458,-317 222.9009,-317"/>
<polygon fill="#8f8a83" stroke="#8f8a83" stroke-width="2" points="161.3088,-313.5001 151.3088,-317 161.3088,-320.5001 161.3088,-313.5001"/>
</g>
<!-- C -->
<g id="node5" class="node">
<title>C</title>
<path fill="#f0efe8" fill-opacity="0.392157" stroke="#000000" stroke-width="0" d="M585,-349.3751C585,-349.3751 458,-349.3751 458,-349.3751 452,-349.3751 446,-343.3751 446,-337.3751 446,-337.3751 446,-296.6249 446,-296.6249 446,-290.6249 452,-284.6249 458,-284.6249 458,-284.6249 585,-284.6249 585,-284.6249 591,-284.6249 597,-290.6249 597,-296.6249 597,-296.6249 597,-337.3751 597,-337.3751 597,-343.3751 591,-349.3751 585,-349.3751"/>
<text text-anchor="middle" x="521.5" y="-315.4375" font-family="Menlo, Monaco, Consolas, Lucida Console, Courier New, monospace" font-size="20.00" fill="#7f7f7f">💩 C</text>
</g>
<!-- B&#45;&gt;C -->
<g id="edge2" class="edge">
<title>B&#45;&gt;C</title>
<path fill="none" stroke="#8f8a83" stroke-width="2" stroke-opacity="0.392157" d="M384.4571,-317C404.7075,-317 426.1458,-317 445.9009,-317"/>
<polygon fill="#8f8a83" fill-opacity="0.392157" stroke="#8f8a83" stroke-width="2" stroke-opacity="0.392157" points="384.3088,-313.5001 374.3088,-317 384.3088,-320.5001 384.3088,-313.5001"/>
</g>
<!-- Cr -->
<g id="node6" class="node">
<title>Cr</title>
<path fill="#f0efe8" stroke="#000000" stroke-width="0" d="M585,-248.3751C585,-248.3751 458,-248.3751 458,-248.3751 452,-248.3751 446,-242.3751 446,-236.3751 446,-236.3751 446,-195.6249 446,-195.6249 446,-189.6249 452,-183.6249 458,-183.6249 458,-183.6249 585,-183.6249 585,-183.6249 591,-183.6249 597,-189.6249 597,-195.6249 597,-195.6249 597,-236.3751 597,-236.3751 597,-242.3751 591,-248.3751 585,-248.3751"/>
<text text-anchor="middle" x="521.5" y="-214.4375" font-family="Menlo, Monaco, Consolas, Lucida Console, Courier New, monospace" font-size="20.00" fill="#000000">✅ C&#39;</text>
</g>
<!-- B&#45;&gt;Cr -->
<g id="edge5" class="edge">
<title>B&#45;&gt;Cr</title>
<path fill="none" stroke="#8f8a83" stroke-width="2" d="M369.5878,-284.8033C395.1743,-273.2148 424.0442,-260.1392 449.6917,-248.523"/>
<polygon fill="#8f8a83" stroke="#8f8a83" stroke-width="2" points="367.987,-281.686 360.3218,-289 370.8751,-288.0625 367.987,-281.686"/>
</g>
<!-- B_ -->
<!-- B&#45;&gt;B_ -->
<!-- Cr&#45;&gt;master -->
<g id="edge3" class="edge">
<title>Cr&#45;&gt;master</title>
<path fill="none" stroke="#8f8a83" stroke-width="2" d="M521.5,-173.1949C521.5,-164.8383 521.5,-156.4816 521.5,-148.125"/>
<polygon fill="#8f8a83" stroke="#8f8a83" stroke-width="2" points="518.0001,-173.3881 521.5,-183.3882 525.0001,-173.3882 518.0001,-173.3881"/>
</g>
<!-- B_&#45;&gt;Cr -->
</g>
</svg>
