<?xml version="1.0" encoding="UTF-8" standalone="no"?>
<!DOCTYPE svg PUBLIC "-//W3C//DTD SVG 1.1//EN"
 "http://www.w3.org/Graphics/SVG/1.1/DTD/svg11.dtd">
<!-- Generated by graphviz version 2.40.1 (20161225.0304)
 -->
<!-- Title: Git Pages: 1 -->
<svg width="605pt" height="280pt"
 viewBox="0.00 0.00 605.00 280.00" xmlns="http://www.w3.org/2000/svg" xmlns:xlink="http://www.w3.org/1999/xlink">
<g id="graph0" class="graph" transform="scale(1 1) rotate(0) translate(4 276)">
<title>Git</title>
<g id="clust1" class="cluster">
<title>cluster_master</title>
<polygon fill="transparent" stroke="transparent" points="215,-8 215,-264 382,-264 382,-8 215,-8"/>
</g>
<!-- A -->
<g id="node1" class="node">
<title>A</title>
<path fill="#f0efe8" stroke="#000000" stroke-width="0" d="M139,-72C139,-72 12,-72 12,-72 6,-72 0,-66 0,-60 0,-60 0,-28 0,-28 0,-22 6,-16 12,-16 12,-16 139,-16 139,-16 145,-16 151,-22 151,-28 151,-28 151,-60 151,-60 151,-66 145,-72 139,-72"/>
<text text-anchor="middle" x="75.5" y="-38" font-family="Menlo, Monaco, Consolas, Lucida Console, Courier New, monospace" font-size="20.00" fill="#000000">A</text>
</g>
<!-- B -->
<g id="node2" class="node">
<title>B</title>
<path fill="#f0efe8" stroke="#000000" stroke-width="0" d="M362,-72C362,-72 235,-72 235,-72 229,-72 223,-66 223,-60 223,-60 223,-28 223,-28 223,-22 229,-16 235,-16 235,-16 362,-16 362,-16 368,-16 374,-22 374,-28 374,-28 374,-60 374,-60 374,-66 368,-72 362,-72"/>
<text text-anchor="middle" x="298.5" y="-38" font-family="Menlo, Monaco, Consolas, Lucida Console, Courier New, monospace" font-size="20.00" fill="#000000">B</text>
</g>
<!-- A&#45;&gt;B -->
<g id="edge1" class="edge">
<title>A&#45;&gt;B</title>
<path fill="none" stroke="#8f8a83" stroke-width="2" d="M161.4571,-44C181.7075,-44 203.1458,-44 222.9009,-44"/>
<polygon fill="#8f8a83" stroke="#8f8a83" stroke-width="2" points="161.3088,-40.5001 151.3088,-44 161.3088,-47.5001 161.3088,-40.5001"/>
</g>
<!-- master -->
<g id="node4" class="node">
<title>master</title>
<polygon fill="#e93a1d" stroke="#000000" stroke-width="0" points="374,-164 223,-164 223,-108 374,-108 374,-164"/>
<text text-anchor="middle" x="298.5" y="-130" font-family="Menlo, Monaco, Consolas, Lucida Console, Courier New, monospace" font-size="20.00" fill="#ffffff">master</text>
</g>
<!-- B&#45;&gt;master -->
<g id="edge2" class="edge">
<title>B&#45;&gt;master</title>
<path fill="none" stroke="#8f8a83" stroke-width="2" d="M298.5,-82.288C298.5,-90.6966 298.5,-99.1053 298.5,-107.5139"/>
<polygon fill="#8f8a83" stroke="#8f8a83" stroke-width="2" points="302.0001,-82.0312 298.5,-72.0313 295.0001,-82.0313 302.0001,-82.0312"/>
</g>
<!-- C -->
<g id="node5" class="node">
<title>C</title>
<path fill="#f0efe8" fill-opacity="0.392157" stroke="#000000" stroke-width="0" d="M585,-72C585,-72 458,-72 458,-72 452,-72 446,-66 446,-60 446,-60 446,-28 446,-28 446,-22 452,-16 458,-16 458,-16 585,-16 585,-16 591,-16 597,-22 597,-28 597,-28 597,-60 597,-60 597,-66 591,-72 585,-72"/>
<text text-anchor="middle" x="521.5" y="-38" font-family="Menlo, Monaco, Consolas, Lucida Console, Courier New, monospace" font-size="20.00" fill="#7f7f7f">C</text>
</g>
<!-- B&#45;&gt;C -->
<g id="edge4" class="edge">
<title>B&#45;&gt;C</title>
<path fill="none" stroke="#8f8a83" stroke-width="2" stroke-opacity="0.392157" d="M384.4571,-44C404.7075,-44 426.1458,-44 445.9009,-44"/>
<polygon fill="#8f8a83" fill-opacity="0.392157" stroke="#8f8a83" stroke-width="2" stroke-opacity="0.392157" points="384.3088,-40.5001 374.3088,-44 384.3088,-47.5001 384.3088,-40.5001"/>
</g>
<!-- HEAD -->
<g id="node3" class="node">
<title>HEAD</title>
<polygon fill="#c8a036" stroke="#000000" stroke-width="0" points="374,-256 223,-256 223,-200 374,-200 374,-256"/>
<text text-anchor="middle" x="298.5" y="-222" font-family="Menlo, Monaco, Consolas, Lucida Console, Courier New, monospace" font-size="20.00" fill="#ffffff">HEAD</text>
</g>
<!-- master&#45;&gt;HEAD -->
<g id="edge3" class="edge">
<title>master&#45;&gt;HEAD</title>
<path fill="none" stroke="#8f8a83" stroke-width="2" d="M298.5,-174.288C298.5,-182.6966 298.5,-191.1053 298.5,-199.5139"/>
<polygon fill="#8f8a83" stroke="#8f8a83" stroke-width="2" points="302.0001,-174.0312 298.5,-164.0313 295.0001,-174.0313 302.0001,-174.0312"/>
</g>
</g>
</svg>
