<?xml version="1.0" encoding="UTF-8" standalone="no"?>
<!DOCTYPE svg PUBLIC "-//W3C//DTD SVG 1.1//EN"
 "http://www.w3.org/Graphics/SVG/1.1/DTD/svg11.dtd">
<!-- Generated by graphviz version 2.47.2 (20210527.0053)
 -->
<!-- Title: Git Pages: 1 -->
<svg width="1290pt" height="364pt"
 viewBox="0.00 0.00 1290.00 364.00" xmlns="http://www.w3.org/2000/svg" xmlns:xlink="http://www.w3.org/1999/xlink">
<g id="graph0" class="graph" transform="scale(1 1) rotate(0) translate(4 360)">
<title>Git</title>
<g id="clust1" class="cluster">
<title>cluster_v1_0</title>
</g>
<g id="clust3" class="cluster">
<title>cluster_v1_1</title>
</g>
<!-- B -->
<g id="node1" class="node">
<title>B</title>
<path fill="#f0efe8" stroke="black" stroke-width="0" d="M378,-246C378,-246 251,-246 251,-246 245,-246 239,-240 239,-234 239,-234 239,-200 239,-200 239,-194 245,-188 251,-188 251,-188 378,-188 378,-188 384,-188 390,-194 390,-200 390,-200 390,-234 390,-234 390,-240 384,-246 378,-246"/>
<text text-anchor="middle" x="314.5" y="-212" font-family="Menlo, Monaco, Consolas, Lucida Console, Courier New, monospace" font-size="20.00">💩 B</text>
</g>
<!-- C -->
<g id="node4" class="node">
<title>C</title>
<path fill="#f0efe8" stroke="black" stroke-width="0" d="M601,-246C601,-246 474,-246 474,-246 468,-246 462,-240 462,-234 462,-234 462,-200 462,-200 462,-194 468,-188 474,-188 474,-188 601,-188 601,-188 607,-188 613,-194 613,-200 613,-200 613,-234 613,-234 613,-240 607,-246 601,-246"/>
<text text-anchor="middle" x="537.5" y="-212" font-family="Menlo, Monaco, Consolas, Lucida Console, Courier New, monospace" font-size="20.00">C</text>
</g>
<!-- B&#45;&gt;C -->
<g id="edge2" class="edge">
<title>B&#45;&gt;C</title>
<path fill="none" stroke="#8f8a83" stroke-width="2" d="M400.2,-217C420.53,-217 442.1,-217 461.94,-217"/>
<polygon fill="#8f8a83" stroke="#8f8a83" stroke-width="2" points="400.01,-213.5 390.01,-217 400.01,-220.5 400.01,-213.5"/>
</g>
<!-- Br -->
<g id="node2" class="node">
<title>Br</title>
<path fill="#f0efe8" stroke="black" stroke-width="0" d="M1270,-246C1270,-246 1143,-246 1143,-246 1137,-246 1131,-240 1131,-234 1131,-234 1131,-200 1131,-200 1131,-194 1137,-188 1143,-188 1143,-188 1270,-188 1270,-188 1276,-188 1282,-194 1282,-200 1282,-200 1282,-234 1282,-234 1282,-240 1276,-246 1270,-246"/>
<text text-anchor="middle" x="1206.5" y="-212" font-family="Menlo, Monaco, Consolas, Lucida Console, Courier New, monospace" font-size="20.00">!B</text>
</g>
<!-- master -->
<g id="node9" class="node">
<title>master</title>
<polygon fill="#e93a1d" stroke="black" stroke-width="0" points="1282,-152 1131,-152 1131,-94 1282,-94 1282,-152"/>
<text text-anchor="middle" x="1206.5" y="-118" font-family="Menlo, Monaco, Consolas, Lucida Console, Courier New, monospace" font-size="20.00" fill="#ffffff">master</text>
</g>
<!-- Br&#45;&gt;master -->
<g id="edge8" class="edge">
<title>Br&#45;&gt;master</title>
<path fill="none" stroke="#8f8a83" stroke-width="2" d="M1206.5,-177.74C1206.5,-169.16 1206.5,-160.58 1206.5,-152.01"/>
<polygon fill="#8f8a83" stroke="#8f8a83" stroke-width="2" points="1203,-177.8 1206.5,-187.8 1210,-177.8 1203,-177.8"/>
</g>
<!-- A -->
<g id="node3" class="node">
<title>A</title>
<path fill="#f0efe8" stroke="black" stroke-width="0" d="M155,-246C155,-246 28,-246 28,-246 22,-246 16,-240 16,-234 16,-234 16,-200 16,-200 16,-194 22,-188 28,-188 28,-188 155,-188 155,-188 161,-188 167,-194 167,-200 167,-200 167,-234 167,-234 167,-240 161,-246 155,-246"/>
<text text-anchor="middle" x="91.5" y="-212" font-family="Menlo, Monaco, Consolas, Lucida Console, Courier New, monospace" font-size="20.00">A</text>
</g>
<!-- A&#45;&gt;B -->
<g id="edge1" class="edge">
<title>A&#45;&gt;B</title>
<path fill="none" stroke="#8f8a83" stroke-width="2" d="M177.2,-217C197.53,-217 219.1,-217 238.94,-217"/>
<polygon fill="#8f8a83" stroke="#8f8a83" stroke-width="2" points="177.01,-213.5 167.01,-217 177.01,-220.5 177.01,-213.5"/>
</g>
<!-- v1_0 -->
<g id="node7" class="node">
<title>v1_0</title>
<polygon fill="#e93a1d" stroke="black" stroke-width="0" points="167,-340 16,-340 16,-282 167,-282 167,-340"/>
<text text-anchor="middle" x="91.5" y="-306" font-family="Menlo, Monaco, Consolas, Lucida Console, Courier New, monospace" font-size="20.00" fill="#ffffff">v1.0</text>
</g>
<!-- A&#45;&gt;v1_0 -->
<g id="edge6" class="edge">
<title>A&#45;&gt;v1_0</title>
<path fill="none" stroke="#8f8a83" stroke-width="2" d="M91.5,-256.08C91.5,-264.65 91.5,-273.23 91.5,-281.8"/>
<polygon fill="#8f8a83" stroke="#8f8a83" stroke-width="2" points="95,-256.01 91.5,-246.01 88,-256.01 95,-256.01"/>
</g>
<!-- D -->
<g id="node5" class="node">
<title>D</title>
<path fill="#f0efe8" stroke="black" stroke-width="0" d="M824,-246C824,-246 697,-246 697,-246 691,-246 685,-240 685,-234 685,-234 685,-200 685,-200 685,-194 691,-188 697,-188 697,-188 824,-188 824,-188 830,-188 836,-194 836,-200 836,-200 836,-234 836,-234 836,-240 830,-246 824,-246"/>
<text text-anchor="middle" x="760.5" y="-212" font-family="Menlo, Monaco, Consolas, Lucida Console, Courier New, monospace" font-size="20.00">D</text>
</g>
<!-- C&#45;&gt;D -->
<g id="edge3" class="edge">
<title>C&#45;&gt;D</title>
<path fill="none" stroke="#8f8a83" stroke-width="2" d="M623.2,-217C643.53,-217 665.1,-217 684.94,-217"/>
<polygon fill="#8f8a83" stroke="#8f8a83" stroke-width="2" points="623.01,-213.5 613.01,-217 623.01,-220.5 623.01,-213.5"/>
</g>
<!-- E -->
<g id="node6" class="node">
<title>E</title>
<path fill="#f0efe8" stroke="black" stroke-width="0" d="M1047,-246C1047,-246 920,-246 920,-246 914,-246 908,-240 908,-234 908,-234 908,-200 908,-200 908,-194 914,-188 920,-188 920,-188 1047,-188 1047,-188 1053,-188 1059,-194 1059,-200 1059,-200 1059,-234 1059,-234 1059,-240 1053,-246 1047,-246"/>
<text text-anchor="middle" x="983.5" y="-212" font-family="Menlo, Monaco, Consolas, Lucida Console, Courier New, monospace" font-size="20.00">E</text>
</g>
<!-- D&#45;&gt;E -->
<g id="edge4" class="edge">
<title>D&#45;&gt;E</title>
<path fill="none" stroke="#8f8a83" stroke-width="2" d="M846.2,-217C866.53,-217 888.1,-217 907.94,-217"/>
<polygon fill="#8f8a83" stroke="#8f8a83" stroke-width="2" points="846.01,-213.5 836.01,-217 846.01,-220.5 846.01,-213.5"/>
</g>
<!-- E&#45;&gt;Br -->
<g id="edge5" class="edge">
<title>E&#45;&gt;Br</title>
<path fill="none" stroke="#8f8a83" stroke-width="2" d="M1069.2,-217C1089.53,-217 1111.1,-217 1130.94,-217"/>
<polygon fill="#8f8a83" stroke="#8f8a83" stroke-width="2" points="1069.01,-213.5 1059.01,-217 1069.01,-220.5 1069.01,-213.5"/>
</g>
<!-- v1_1 -->
<g id="node8" class="node">
<title>v1_1</title>
<polygon fill="#e93a1d" stroke="black" stroke-width="0" points="1059,-340 908,-340 908,-282 1059,-282 1059,-340"/>
<text text-anchor="middle" x="983.5" y="-306" font-family="Menlo, Monaco, Consolas, Lucida Console, Courier New, monospace" font-size="20.00" fill="#ffffff">v1.1</text>
</g>
<!-- E&#45;&gt;v1_1 -->
<g id="edge7" class="edge">
<title>E&#45;&gt;v1_1</title>
<path fill="none" stroke="#8f8a83" stroke-width="2" d="M983.5,-256.08C983.5,-264.65 983.5,-273.23 983.5,-281.8"/>
<polygon fill="#8f8a83" stroke="#8f8a83" stroke-width="2" points="987,-256.01 983.5,-246.01 980,-256.01 987,-256.01"/>
</g>
<!-- HEAD -->
<g id="node10" class="node">
<title>HEAD</title>
<polygon fill="#c8a036" stroke="black" stroke-width="0" points="1282,-58 1131,-58 1131,0 1282,0 1282,-58"/>
<text text-anchor="middle" x="1206.5" y="-24" font-family="Menlo, Monaco, Consolas, Lucida Console, Courier New, monospace" font-size="20.00" fill="#ffffff">HEAD</text>
</g>
<!-- master&#45;&gt;HEAD -->
<g id="edge9" class="edge">
<title>master&#45;&gt;HEAD</title>
<path fill="none" stroke="#8f8a83" stroke-width="2" d="M1206.5,-83.74C1206.5,-75.16 1206.5,-66.58 1206.5,-58.01"/>
<polygon fill="#8f8a83" stroke="#8f8a83" stroke-width="2" points="1203,-83.8 1206.5,-93.8 1210,-83.8 1203,-83.8"/>
</g>
</g>
</svg>
