<?xml version="1.0" encoding="UTF-8" standalone="no"?>
<!DOCTYPE svg PUBLIC "-//W3C//DTD SVG 1.1//EN"
 "http://www.w3.org/Graphics/SVG/1.1/DTD/svg11.dtd">
<!-- Generated by graphviz version 2.43.0 (0)
 -->
<!-- Title: Git Pages: 1 -->
<svg width="682pt" height="339pt"
 viewBox="0.00 0.00 682.20 339.00" xmlns="http://www.w3.org/2000/svg" xmlns:xlink="http://www.w3.org/1999/xlink">
<g id="graph0" class="graph" transform="scale(1 1) rotate(0) translate(4 335)">
<title>Git</title>
<!-- working -->
<g id="node1" class="node">
<title>working</title>
<polygon fill="#e93a1d" stroke="black" stroke-width="0" points="180,-331 0,-331 0,-252 180,-252 180,-331"/>
<text text-anchor="middle" x="90" y="-295.5" font-family="Menlo, Monaco, Consolas, Lucida Console, Courier New, monospace" font-size="20.00" fill="#ffffff">Working</text>
<text text-anchor="middle" x="90" y="-275.5" font-family="Menlo, Monaco, Consolas, Lucida Console, Courier New, monospace" font-size="20.00" fill="#ffffff">Copy</text>
</g>
<!-- working_h -->
<!-- working&#45;&#45;working_h -->
<g id="edge1" class="edge">
<title>working&#45;&#45;working_h</title>
<path fill="none" stroke="#8f8a83" stroke-width="2" d="M90,-251.76C90,-175.22 90,-13.99 90,-3.99"/>
</g>
<!-- index -->
<g id="node2" class="node">
<title>index</title>
<polygon fill="#3e8f99" stroke="black" stroke-width="0" points="396,-331 216,-331 216,-252 396,-252 396,-331"/>
<text text-anchor="middle" x="306" y="-285.5" font-family="Menlo, Monaco, Consolas, Lucida Console, Courier New, monospace" font-size="20.00" fill="#ffffff">Index</text>
</g>
<!-- index_h -->
<!-- index&#45;&#45;index_h -->
<g id="edge2" class="edge">
<title>index&#45;&#45;index_h</title>
<path fill="none" stroke="#8f8a83" stroke-width="2" d="M306,-251.76C306,-175.22 306,-13.99 306,-3.99"/>
</g>
<!-- repo -->
<g id="node3" class="node">
<title>repo</title>
<polygon fill="#f0efe8" stroke="black" stroke-width="0" points="612,-331 432,-331 432,-252 612,-252 612,-331"/>
<text text-anchor="middle" x="522" y="-295.5" font-family="Menlo, Monaco, Consolas, Lucida Console, Courier New, monospace" font-size="20.00" fill="#000000">Local</text>
<text text-anchor="middle" x="522" y="-275.5" font-family="Menlo, Monaco, Consolas, Lucida Console, Courier New, monospace" font-size="20.00" fill="#000000">History</text>
</g>
<!-- repo_h -->
<!-- repo&#45;&#45;repo_h -->
<g id="edge3" class="edge">
<title>repo&#45;&#45;repo_h</title>
<path fill="none" stroke="#8f8a83" stroke-width="2" d="M522,-251.76C522,-175.22 522,-13.99 522,-3.99"/>
</g>
<!-- checkout_repo -->
<g id="node4" class="node">
<title>checkout_repo</title>
<polygon fill="#8f8a83" stroke="#8f8a83" points="522.5,-223 521.5,-223 521.5,-144 522.5,-144 522.5,-223"/>
</g>
<!-- checkout_working -->
<g id="node9" class="node">
<title>checkout_working</title>
<polygon fill="#8f8a83" stroke="#8f8a83" points="90,-183.5 144,-147.5 144,-219.5 90,-183.5"/>
</g>
<!-- checkout_repo&#45;&#45;checkout_working -->
<g id="edge4" class="edge">
<title>checkout_repo&#45;&#45;checkout_working</title>
<path fill="none" stroke="#8f8a83" stroke-width="40" d="M521.36,-183.5C505.99,-183.5 219.32,-183.5 144,-183.5"/>
<text text-anchor="middle" x="521.36" y="-177.5" font-family="Menlo, Monaco, Consolas, Lucida Console, Courier New, monospace" font-size="20.00" fill="#ffffff">Checkout the project &#160;&#160;&#160;&#160;&#160;&#160;&#160;&#160;&#160;&#160;&#160;&#160;&#160;&#160;&#160;&#160;&#160;&#160;&#160;&#160;&#160;</text>
</g>
<!-- stage_working -->
<g id="node5" class="node">
<title>stage_working</title>
<polygon fill="#8f8a83" stroke="#8f8a83" points="90.5,-151 89.5,-151 89.5,-72 90.5,-72 90.5,-151"/>
</g>
<!-- stage_index -->
<g id="node7" class="node">
<title>stage_index</title>
<polygon fill="#8f8a83" stroke="#8f8a83" points="306,-111.5 252,-147.5 252,-75.5 306,-111.5"/>
</g>
<!-- stage_working&#45;&#45;stage_index -->
<g id="edge5" class="edge">
<title>stage_working&#45;&#45;stage_index</title>
<path fill="none" stroke="#8f8a83" stroke-width="40" d="M90.52,-111.5C98.93,-111.5 207.91,-111.5 251.83,-111.5"/>
<text text-anchor="middle" x="90.52" y="-105.5" font-family="Menlo, Monaco, Consolas, Lucida Console, Courier New, monospace" font-size="20.00" fill="#ffffff"> &#160;&#160;&#160;&#160;&#160;&#160;&#160;&#160;&#160;&#160;&#160;&#160;&#160;Stage fixes</text>
</g>
<!-- commit_index -->
<g id="node6" class="node">
<title>commit_index</title>
<polygon fill="#8f8a83" stroke="#8f8a83" points="306.5,-79 305.5,-79 305.5,0 306.5,0 306.5,-79"/>
</g>
<!-- commit_repo -->
<g id="node8" class="node">
<title>commit_repo</title>
<polygon fill="#8f8a83" stroke="#8f8a83" points="522,-39.5 468,-75.5 468,-3.5 522,-39.5"/>
</g>
<!-- commit_index&#45;&#45;commit_repo -->
<g id="edge6" class="edge">
<title>commit_index&#45;&#45;commit_repo</title>
<path fill="none" stroke="#8f8a83" stroke-width="40" d="M306.52,-39.5C314.93,-39.5 423.91,-39.5 467.83,-39.5"/>
<text text-anchor="middle" x="306.52" y="-33.5" font-family="Menlo, Monaco, Consolas, Lucida Console, Courier New, monospace" font-size="20.00" fill="#ffffff"> &#160;&#160;&#160;&#160;&#160;&#160;&#160;&#160;Commit</text>
</g>
</g>
</svg>
