<?xml version="1.0" encoding="UTF-8" standalone="no"?>
<!DOCTYPE svg PUBLIC "-//W3C//DTD SVG 1.1//EN"
 "http://www.w3.org/Graphics/SVG/1.1/DTD/svg11.dtd">
<!-- Generated by graphviz version 2.47.2 (20210527.0053)
 -->
<!-- Title: Git Pages: 1 -->
<svg width="842pt" height="340pt"
 viewBox="0.00 0.00 841.84 339.50" xmlns="http://www.w3.org/2000/svg" xmlns:xlink="http://www.w3.org/1999/xlink">
<g id="graph0" class="graph" transform="scale(1 1) rotate(0) translate(4 335.5)">
<title>Git</title>
<!-- working -->
<g id="node1" class="node">
<title>working</title>
<polygon fill="#e93a1d" stroke="black" stroke-width="0" points="239.98,-331.5 59.98,-331.5 59.98,-251.5 239.98,-251.5 239.98,-331.5"/>
<text text-anchor="middle" x="149.98" y="-297.5" font-family="Menlo, Monaco, Consolas, Lucida Console, Courier New, monospace" font-size="20.00" fill="#ffffff">Working</text>
<text text-anchor="middle" x="149.98" y="-275.5" font-family="Menlo, Monaco, Consolas, Lucida Console, Courier New, monospace" font-size="20.00" fill="#ffffff">Copy</text>
</g>
<!-- working_h -->
<!-- working&#45;&#45;working_h -->
<g id="edge1" class="edge">
<title>working&#45;&#45;working_h</title>
<path fill="none" stroke="#8f8a83" stroke-width="2" d="M149.98,-251.45C149.98,-174.79 149.98,-13.96 149.98,-3.99"/>
</g>
<!-- index -->
<g id="node2" class="node">
<title>index</title>
<polygon fill="#3e8f99" stroke="black" stroke-width="0" points="455.98,-331 275.98,-331 275.98,-252 455.98,-252 455.98,-331"/>
<text text-anchor="middle" x="365.98" y="-286.5" font-family="Menlo, Monaco, Consolas, Lucida Console, Courier New, monospace" font-size="20.00" fill="#ffffff">Index</text>
</g>
<!-- index_h -->
<!-- index&#45;&#45;index_h -->
<g id="edge2" class="edge">
<title>index&#45;&#45;index_h</title>
<path fill="none" stroke="#8f8a83" stroke-width="2" d="M365.98,-251.76C365.98,-175.22 365.98,-13.99 365.98,-3.99"/>
</g>
<!-- repo -->
<g id="node3" class="node">
<title>repo</title>
<polygon fill="#f0efe8" stroke="black" stroke-width="0" points="671.98,-331.5 491.98,-331.5 491.98,-251.5 671.98,-251.5 671.98,-331.5"/>
<text text-anchor="middle" x="581.98" y="-297.5" font-family="Menlo, Monaco, Consolas, Lucida Console, Courier New, monospace" font-size="20.00" fill="#000000">Local</text>
<text text-anchor="middle" x="581.98" y="-275.5" font-family="Menlo, Monaco, Consolas, Lucida Console, Courier New, monospace" font-size="20.00" fill="#000000">History</text>
</g>
<!-- repo_h -->
<!-- repo&#45;&#45;repo_h -->
<g id="edge3" class="edge">
<title>repo&#45;&#45;repo_h</title>
<path fill="none" stroke="#8f8a83" stroke-width="2" d="M581.98,-251.45C581.98,-174.79 581.98,-13.96 581.98,-3.99"/>
</g>
<!-- checkout_repo -->
<g id="node4" class="node">
<title>checkout_repo</title>
<polygon fill="#8f8a83" stroke="#8f8a83" points="582.48,-223 581.48,-223 581.48,-144 582.48,-144 582.48,-223"/>
</g>
<!-- checkout_working -->
<g id="node9" class="node">
<title>checkout_working</title>
<polygon fill="#8f8a83" stroke="#8f8a83" points="149.98,-183.5 203.98,-147.5 203.98,-219.5 149.98,-183.5"/>
</g>
<!-- checkout_repo&#45;&#45;checkout_working -->
<g id="edge4" class="edge">
<title>checkout_repo&#45;&#45;checkout_working</title>
<path fill="none" stroke="#8f8a83" stroke-width="40" d="M581.34,-183.5C565.97,-183.5 279.3,-183.5 203.99,-183.5"/>
<text text-anchor="middle" x="581.34" y="-178.5" font-family="Menlo, Monaco, Consolas, Lucida Console, Courier New, monospace" font-size="20.00" fill="#ffffff">Checkout the project &#160;&#160;&#160;&#160;&#160;&#160;&#160;&#160;&#160;&#160;&#160;&#160;&#160;&#160;&#160;&#160;&#160;&#160;&#160;&#160;&#160;</text>
</g>
<!-- stage_working -->
<g id="node5" class="node">
<title>stage_working</title>
<polygon fill="#8f8a83" stroke="#8f8a83" points="150.48,-151 149.48,-151 149.48,-72 150.48,-72 150.48,-151"/>
</g>
<!-- stage_index -->
<g id="node7" class="node">
<title>stage_index</title>
<polygon fill="#8f8a83" stroke="#8f8a83" points="365.98,-111.5 311.98,-147.5 311.98,-75.5 365.98,-111.5"/>
</g>
<!-- stage_working&#45;&#45;stage_index -->
<g id="edge5" class="edge">
<title>stage_working&#45;&#45;stage_index</title>
<path fill="none" stroke="#8f8a83" stroke-width="40" d="M150.5,-111.5C158.91,-111.5 267.89,-111.5 311.82,-111.5"/>
<text text-anchor="middle" x="150.5" y="-106.5" font-family="Menlo, Monaco, Consolas, Lucida Console, Courier New, monospace" font-size="20.00" fill="#ffffff"> &#160;&#160;&#160;&#160;&#160;&#160;&#160;&#160;&#160;&#160;&#160;&#160;&#160;Stage fixes</text>
</g>
<!-- commit_index -->
<g id="node6" class="node">
<title>commit_index</title>
<polygon fill="#8f8a83" stroke="#8f8a83" points="366.48,-79 365.48,-79 365.48,0 366.48,0 366.48,-79"/>
</g>
<!-- commit_repo -->
<g id="node8" class="node">
<title>commit_repo</title>
<polygon fill="#8f8a83" stroke="#8f8a83" points="581.98,-39.5 527.98,-75.5 527.98,-3.5 581.98,-39.5"/>
</g>
<!-- commit_index&#45;&#45;commit_repo -->
<g id="edge6" class="edge">
<title>commit_index&#45;&#45;commit_repo</title>
<path fill="none" stroke="#8f8a83" stroke-width="40" d="M366.5,-39.5C374.91,-39.5 483.89,-39.5 527.82,-39.5"/>
<text text-anchor="middle" x="366.5" y="-34.5" font-family="Menlo, Monaco, Consolas, Lucida Console, Courier New, monospace" font-size="20.00" fill="#ffffff"> &#160;&#160;&#160;&#160;&#160;&#160;&#160;&#160;Commit</text>
</g>
</g>
</svg>
