<?xml version="1.0" encoding="UTF-8" standalone="no"?>
<!DOCTYPE svg PUBLIC "-//W3C//DTD SVG 1.1//EN"
 "http://www.w3.org/Graphics/SVG/1.1/DTD/svg11.dtd">
<!-- Generated by graphviz version 2.40.1 (20161225.0304)
 -->
<!-- Title: Git Pages: 1 -->
<svg width="573pt" height="440pt"
 viewBox="0.00 0.00 573.40 440.00" xmlns="http://www.w3.org/2000/svg" xmlns:xlink="http://www.w3.org/1999/xlink">
<g id="graph0" class="graph" transform="scale(1 1) rotate(0) translate(4 436)">
<title>Git</title>
<!-- client_a -->
<g id="node1" class="node">
<title>client_a</title>
<polygon fill="#d9d9d9" stroke="#8f8a83" stroke-width="2.1" points="216,-421.2 0,-421.2 0,-241.2 216,-241.2 216,-421.2"/>
<text text-anchor="middle" x="108" y="-381.2" font-family="Menlo, Monaco, Consolas, Lucida Console, Courier New, monospace" font-size="20.00" fill="#000000">Client A</text>
</g>
<!-- client_b -->
<g id="node2" class="node">
<title>client_b</title>
<polygon fill="#d9d9d9" stroke="#8f8a83" stroke-width="2.1" points="216,-190.8 0,-190.8 0,-10.8 216,-10.8 216,-190.8"/>
<text text-anchor="middle" x="108" y="-150.8" font-family="Menlo, Monaco, Consolas, Lucida Console, Courier New, monospace" font-size="20.00" fill="#000000">Client B</text>
</g>
<!-- server -->
<g id="node3" class="node">
<title>server</title>
<polygon fill="#d9d9d9" stroke="#8f8a83" stroke-width="2.1" points="565.4,-432 255.4,-432 255.4,0 565.4,0 565.4,-432"/>
<text text-anchor="middle" x="410.4" y="-392" font-family="Menlo, Monaco, Consolas, Lucida Console, Courier New, monospace" font-size="20.00" fill="#000000">Central VCS Server</text>
</g>
<!-- versions -->
<g id="node4" class="node">
<title>versions</title>
<polygon fill="#ffffff" stroke="#8f8a83" stroke-width="2.1" points="521.2906,-342 299.5093,-342 299.5093,-18 521.2906,-18 521.2906,-342"/>
<text text-anchor="middle" x="410.4" y="-302" font-family="Menlo, Monaco, Consolas, Lucida Console, Courier New, monospace" font-size="20.00" fill="#000000">Version Database</text>
</g>
<!-- version1 -->
<g id="node5" class="node">
<title>version1</title>
<path fill="#f0efe8" stroke="#8f8a83" stroke-width="0" d="M473.9,-100C473.9,-100 346.9,-100 346.9,-100 340.9,-100 334.9,-94 334.9,-88 334.9,-88 334.9,-56 334.9,-56 334.9,-50 340.9,-44 346.9,-44 346.9,-44 473.9,-44 473.9,-44 479.9,-44 485.9,-50 485.9,-56 485.9,-56 485.9,-88 485.9,-88 485.9,-94 479.9,-100 473.9,-100"/>
<text text-anchor="middle" x="410.4" y="-66" font-family="Menlo, Monaco, Consolas, Lucida Console, Courier New, monospace" font-size="20.00" fill="#000000">Version 1</text>
</g>
<!-- version2 -->
<g id="node6" class="node">
<title>version2</title>
<path fill="#f0efe8" stroke="#8f8a83" stroke-width="0" d="M473.9,-186.4C473.9,-186.4 346.9,-186.4 346.9,-186.4 340.9,-186.4 334.9,-180.4 334.9,-174.4 334.9,-174.4 334.9,-142.4 334.9,-142.4 334.9,-136.4 340.9,-130.4 346.9,-130.4 346.9,-130.4 473.9,-130.4 473.9,-130.4 479.9,-130.4 485.9,-136.4 485.9,-142.4 485.9,-142.4 485.9,-174.4 485.9,-174.4 485.9,-180.4 479.9,-186.4 473.9,-186.4"/>
<text text-anchor="middle" x="410.4" y="-152.4" font-family="Menlo, Monaco, Consolas, Lucida Console, Courier New, monospace" font-size="20.00" fill="#000000">Version 2</text>
</g>
<!-- version2&#45;&#45;version1 -->
<g id="edge2" class="edge">
<title>version2&#45;&#45;version1</title>
<path fill="none" stroke="#8f8a83" stroke-width="2" d="M410.4,-130.1094C410.4,-120.4633 410.4,-109.6869 410.4,-100.0591"/>
</g>
<!-- version3 -->
<g id="node7" class="node">
<title>version3</title>
<path fill="#f0efe8" stroke="#8f8a83" stroke-width="0" d="M473.9,-272.8C473.9,-272.8 346.9,-272.8 346.9,-272.8 340.9,-272.8 334.9,-266.8 334.9,-260.8 334.9,-260.8 334.9,-228.8 334.9,-228.8 334.9,-222.8 340.9,-216.8 346.9,-216.8 346.9,-216.8 473.9,-216.8 473.9,-216.8 479.9,-216.8 485.9,-222.8 485.9,-228.8 485.9,-228.8 485.9,-260.8 485.9,-260.8 485.9,-266.8 479.9,-272.8 473.9,-272.8"/>
<text text-anchor="middle" x="410.4" y="-238.8" font-family="Menlo, Monaco, Consolas, Lucida Console, Courier New, monospace" font-size="20.00" fill="#000000">Version 3</text>
</g>
<!-- version3&#45;&#45;version2 -->
<g id="edge1" class="edge">
<title>version3&#45;&#45;version2</title>
<path fill="none" stroke="#8f8a83" stroke-width="2" d="M410.4,-216.5094C410.4,-206.8633 410.4,-196.0869 410.4,-186.4591"/>
</g>
<!-- file_a -->
<g id="node8" class="node">
<title>file_a</title>
<path fill="#3e8f99" stroke="#8f8a83" stroke-width="0" d="M171.5,-337.6C171.5,-337.6 44.5,-337.6 44.5,-337.6 38.5,-337.6 32.5,-331.6 32.5,-325.6 32.5,-325.6 32.5,-293.6 32.5,-293.6 32.5,-287.6 38.5,-281.6 44.5,-281.6 44.5,-281.6 171.5,-281.6 171.5,-281.6 177.5,-281.6 183.5,-287.6 183.5,-293.6 183.5,-293.6 183.5,-325.6 183.5,-325.6 183.5,-331.6 177.5,-337.6 171.5,-337.6"/>
<text text-anchor="middle" x="108" y="-303.6" font-family="Menlo, Monaco, Consolas, Lucida Console, Courier New, monospace" font-size="20.00" fill="#ffffff">File</text>
</g>
<!-- file_a&#45;&#45;versions -->
<g id="edge3" class="edge">
<title>file_a:e&#45;&#45;versions:_</title>
<path fill="none" stroke="#8f8a83" stroke-width="2" d="M192.7927,-304.5667C211.1194,-294.0758 255.3536,-268.7545 299.1898,-243.661"/>
<polygon fill="#8f8a83" stroke="#8f8a83" stroke-width="2" points="190.9399,-301.5944 184,-309.6 194.4175,-307.6695 190.9399,-301.5944"/>
</g>
<!-- file_b -->
<g id="node9" class="node">
<title>file_b</title>
<path fill="#3e8f99" stroke="#8f8a83" stroke-width="0" d="M171.5,-107.2C171.5,-107.2 44.5,-107.2 44.5,-107.2 38.5,-107.2 32.5,-101.2 32.5,-95.2 32.5,-95.2 32.5,-63.2 32.5,-63.2 32.5,-57.2 38.5,-51.2 44.5,-51.2 44.5,-51.2 171.5,-51.2 171.5,-51.2 177.5,-51.2 183.5,-57.2 183.5,-63.2 183.5,-63.2 183.5,-95.2 183.5,-95.2 183.5,-101.2 177.5,-107.2 171.5,-107.2"/>
<text text-anchor="middle" x="108" y="-73.2" font-family="Menlo, Monaco, Consolas, Lucida Console, Courier New, monospace" font-size="20.00" fill="#ffffff">File</text>
</g>
<!-- file_b&#45;&#45;versions -->
<g id="edge4" class="edge">
<title>file_b:e&#45;&#45;versions:_</title>
<path fill="none" stroke="#8f8a83" stroke-width="2" d="M193.3617,-83.3681C212.0221,-91.6763 255.8009,-111.1679 299.1898,-130.4859"/>
<polygon fill="#8f8a83" stroke="#8f8a83" stroke-width="2" points="194.5591,-80.07 184,-79.2 191.7119,-86.4648 194.5591,-80.07"/>
</g>
</g>
</svg>
