<?xml version="1.0" encoding="UTF-8" standalone="no"?>
<!DOCTYPE svg PUBLIC "-//W3C//DTD SVG 1.1//EN"
 "http://www.w3.org/Graphics/SVG/1.1/DTD/svg11.dtd">
<!-- Generated by graphviz version 2.40.1 (20161225.0304)
 -->
<!-- Title: Git Pages: 1 -->
<svg width="858pt" height="900pt"
 viewBox="0.00 0.00 858.00 900.40" xmlns="http://www.w3.org/2000/svg" xmlns:xlink="http://www.w3.org/1999/xlink">
<g id="graph0" class="graph" transform="scale(1 1) rotate(0) translate(4 896.4)">
<title>Git</title>
<!-- computer_a -->
<g id="node1" class="node">
<title>computer_a</title>
<polygon fill="#d9d9d9" stroke="#8f8a83" stroke-width="2.1" points="274,-446 0,-446 0,0 274,0 274,-446"/>
<text text-anchor="middle" x="137" y="-406" font-family="Menlo, Consolas, Courier New, monospace" font-size="20.00" fill="#000000">Computer A</text>
</g>
<!-- computer_b -->
<g id="node2" class="node">
<title>computer_b</title>
<polygon fill="#d9d9d9" stroke="#8f8a83" stroke-width="2.1" points="850,-446 576,-446 576,0 850,0 850,-446"/>
<text text-anchor="middle" x="713" y="-406" font-family="Menlo, Consolas, Courier New, monospace" font-size="20.00" fill="#000000">Computer B</text>
</g>
<!-- computer_a&#45;&#45;computer_b -->
<g id="edge11" class="edge">
<title>computer_a&#45;&#45;computer_b</title>
<path fill="none" stroke="#8f8a83" stroke-width="2" d="M284.4979,-223C370.8032,-223 479.405,-223 565.6796,-223"/>
<polygon fill="#8f8a83" stroke="#8f8a83" stroke-width="2" points="284.2346,-219.5001 274.2346,-223 284.2345,-226.5001 284.2346,-219.5001"/>
<polygon fill="#8f8a83" stroke="#8f8a83" stroke-width="2" points="565.8197,-226.5001 575.8197,-223 565.8197,-219.5001 565.8197,-226.5001"/>
</g>
<!-- server -->
<g id="node3" class="node">
<title>server</title>
<polygon fill="#d9d9d9" stroke="#8f8a83" stroke-width="2.1" points="562,-892.4 288,-892.4 288,-518.4 562,-518.4 562,-892.4"/>
<text text-anchor="middle" x="425" y="-852.4" font-family="Menlo, Consolas, Courier New, monospace" font-size="20.00" fill="#000000">Server</text>
</g>
<!-- computer_a&#45;&#45;server -->
<g id="edge9" class="edge">
<title>computer_a&#45;&#45;server</title>
<path fill="none" stroke="#8f8a83" stroke-width="2" d="M275.4724,-454.9413C286.3371,-473.1396 297.2437,-491.4083 307.9446,-509.3321"/>
<polygon fill="#8f8a83" stroke="#8f8a83" stroke-width="2" points="278.3824,-452.9876 270.2511,-446.1956 272.372,-456.5759 278.3824,-452.9876"/>
<polygon fill="#8f8a83" stroke="#8f8a83" stroke-width="2" points="305.0487,-511.3095 313.1801,-518.1016 311.0591,-507.7212 305.0487,-511.3095"/>
</g>
<!-- computer_b&#45;&#45;server -->
<g id="edge10" class="edge">
<title>computer_b&#45;&#45;server</title>
<path fill="none" stroke="#8f8a83" stroke-width="2" d="M574.5276,-454.9413C563.6629,-473.1396 552.7563,-491.4083 542.0554,-509.3321"/>
<polygon fill="#8f8a83" stroke="#8f8a83" stroke-width="2" points="577.628,-456.5759 579.7489,-446.1956 571.6176,-452.9876 577.628,-456.5759"/>
<polygon fill="#8f8a83" stroke="#8f8a83" stroke-width="2" points="538.9409,-507.7212 536.8199,-518.1016 544.9513,-511.3095 538.9409,-507.7212"/>
</g>
<!-- server_versions -->
<g id="node4" class="node">
<title>server_versions</title>
<polygon fill="#ffffff" stroke="#8f8a83" stroke-width="2.1" points="535.8907,-824.3 314.1093,-824.3 314.1093,-543.3 535.8907,-543.3 535.8907,-824.3"/>
<text text-anchor="middle" x="425" y="-784.3" font-family="Menlo, Consolas, Courier New, monospace" font-size="20.00" fill="#000000">Version Database</text>
</g>
<!-- a_versions -->
<g id="node5" class="node">
<title>a_versions</title>
<polygon fill="#ffffff" stroke="#8f8a83" stroke-width="2.1" points="247.8907,-305.9 26.1093,-305.9 26.1093,-24.9 247.8907,-24.9 247.8907,-305.9"/>
<text text-anchor="middle" x="137" y="-265.9" font-family="Menlo, Consolas, Courier New, monospace" font-size="20.00" fill="#000000">Version Database</text>
</g>
<!-- a_file -->
<g id="node16" class="node">
<title>a_file</title>
<path fill="#3e8f99" stroke="#8f8a83" stroke-width="0" d="M200.5,-395C200.5,-395 73.5,-395 73.5,-395 67.5,-395 61.5,-389 61.5,-383 61.5,-383 61.5,-351 61.5,-351 61.5,-345 67.5,-339 73.5,-339 73.5,-339 200.5,-339 200.5,-339 206.5,-339 212.5,-345 212.5,-351 212.5,-351 212.5,-383 212.5,-383 212.5,-389 206.5,-395 200.5,-395"/>
<text text-anchor="middle" x="137" y="-361" font-family="Menlo, Consolas, Courier New, monospace" font-size="20.00" fill="#ffffff">File</text>
</g>
<!-- a_versions&#45;&#45;a_file -->
<g id="edge7" class="edge">
<title>a_versions&#45;&#45;a_file</title>
<path fill="none" stroke="#8f8a83" stroke-width="2" d="M137,-305.9663C137,-313.9306 137,-321.5004 137,-328.4265"/>
<polygon fill="#8f8a83" stroke="#8f8a83" stroke-width="2" points="133.5001,-328.7445 137,-338.7445 140.5001,-328.7445 133.5001,-328.7445"/>
</g>
<!-- b_versions -->
<g id="node6" class="node">
<title>b_versions</title>
<polygon fill="#ffffff" stroke="#8f8a83" stroke-width="2.1" points="823.8907,-305.9 602.1093,-305.9 602.1093,-24.9 823.8907,-24.9 823.8907,-305.9"/>
<text text-anchor="middle" x="713" y="-265.9" font-family="Menlo, Consolas, Courier New, monospace" font-size="20.00" fill="#000000">Version Database</text>
</g>
<!-- b_file -->
<g id="node17" class="node">
<title>b_file</title>
<path fill="#3e8f99" stroke="#8f8a83" stroke-width="0" d="M776.5,-395C776.5,-395 649.5,-395 649.5,-395 643.5,-395 637.5,-389 637.5,-383 637.5,-383 637.5,-351 637.5,-351 637.5,-345 643.5,-339 649.5,-339 649.5,-339 776.5,-339 776.5,-339 782.5,-339 788.5,-345 788.5,-351 788.5,-351 788.5,-383 788.5,-383 788.5,-389 782.5,-395 776.5,-395"/>
<text text-anchor="middle" x="713" y="-361" font-family="Menlo, Consolas, Courier New, monospace" font-size="20.00" fill="#ffffff">File</text>
</g>
<!-- b_versions&#45;&#45;b_file -->
<g id="edge8" class="edge">
<title>b_versions&#45;&#45;b_file</title>
<path fill="none" stroke="#8f8a83" stroke-width="2" d="M713,-305.9663C713,-313.9306 713,-321.5004 713,-328.4265"/>
<polygon fill="#8f8a83" stroke="#8f8a83" stroke-width="2" points="709.5001,-328.7445 713,-338.7445 716.5001,-328.7445 709.5001,-328.7445"/>
</g>
<!-- server_version1 -->
<g id="node7" class="node">
<title>server_version1</title>
<path fill="#f0efe8" stroke="#8f8a83" stroke-width="0" d="M488.5,-618.2C488.5,-618.2 361.5,-618.2 361.5,-618.2 355.5,-618.2 349.5,-612.2 349.5,-606.2 349.5,-606.2 349.5,-574.2 349.5,-574.2 349.5,-568.2 355.5,-562.2 361.5,-562.2 361.5,-562.2 488.5,-562.2 488.5,-562.2 494.5,-562.2 500.5,-568.2 500.5,-574.2 500.5,-574.2 500.5,-606.2 500.5,-606.2 500.5,-612.2 494.5,-618.2 488.5,-618.2"/>
<text text-anchor="middle" x="425" y="-584.2" font-family="Menlo, Consolas, Courier New, monospace" font-size="20.00" fill="#000000">Version 1</text>
</g>
<!-- server_version2 -->
<g id="node8" class="node">
<title>server_version2</title>
<path fill="#f0efe8" stroke="#8f8a83" stroke-width="0" d="M488.5,-690.2C488.5,-690.2 361.5,-690.2 361.5,-690.2 355.5,-690.2 349.5,-684.2 349.5,-678.2 349.5,-678.2 349.5,-646.2 349.5,-646.2 349.5,-640.2 355.5,-634.2 361.5,-634.2 361.5,-634.2 488.5,-634.2 488.5,-634.2 494.5,-634.2 500.5,-640.2 500.5,-646.2 500.5,-646.2 500.5,-678.2 500.5,-678.2 500.5,-684.2 494.5,-690.2 488.5,-690.2"/>
<text text-anchor="middle" x="425" y="-656.2" font-family="Menlo, Consolas, Courier New, monospace" font-size="20.00" fill="#000000">Version 2</text>
</g>
<!-- server_version2&#45;&#45;server_version1 -->
<g id="edge2" class="edge">
<title>server_version2&#45;&#45;server_version1</title>
<path fill="none" stroke="#8f8a83" stroke-width="2" d="M425,-634.1568C425,-628.9447 425,-623.4984 425,-618.2852"/>
</g>
<!-- server_version3 -->
<g id="node9" class="node">
<title>server_version3</title>
<path fill="#f0efe8" stroke="#8f8a83" stroke-width="0" d="M488.5,-762.2C488.5,-762.2 361.5,-762.2 361.5,-762.2 355.5,-762.2 349.5,-756.2 349.5,-750.2 349.5,-750.2 349.5,-718.2 349.5,-718.2 349.5,-712.2 355.5,-706.2 361.5,-706.2 361.5,-706.2 488.5,-706.2 488.5,-706.2 494.5,-706.2 500.5,-712.2 500.5,-718.2 500.5,-718.2 500.5,-750.2 500.5,-750.2 500.5,-756.2 494.5,-762.2 488.5,-762.2"/>
<text text-anchor="middle" x="425" y="-728.2" font-family="Menlo, Consolas, Courier New, monospace" font-size="20.00" fill="#000000">Version 3</text>
</g>
<!-- server_version3&#45;&#45;server_version2 -->
<g id="edge1" class="edge">
<title>server_version3&#45;&#45;server_version2</title>
<path fill="none" stroke="#8f8a83" stroke-width="2" d="M425,-706.1568C425,-700.9447 425,-695.4984 425,-690.2852"/>
</g>
<!-- a_version1 -->
<g id="node10" class="node">
<title>a_version1</title>
<path fill="#f0efe8" stroke="#8f8a83" stroke-width="0" d="M200.5,-99.8C200.5,-99.8 73.5,-99.8 73.5,-99.8 67.5,-99.8 61.5,-93.8 61.5,-87.8 61.5,-87.8 61.5,-55.8 61.5,-55.8 61.5,-49.8 67.5,-43.8 73.5,-43.8 73.5,-43.8 200.5,-43.8 200.5,-43.8 206.5,-43.8 212.5,-49.8 212.5,-55.8 212.5,-55.8 212.5,-87.8 212.5,-87.8 212.5,-93.8 206.5,-99.8 200.5,-99.8"/>
<text text-anchor="middle" x="137" y="-65.8" font-family="Menlo, Consolas, Courier New, monospace" font-size="20.00" fill="#000000">Version 1</text>
</g>
<!-- a_version2 -->
<g id="node11" class="node">
<title>a_version2</title>
<path fill="#f0efe8" stroke="#8f8a83" stroke-width="0" d="M200.5,-171.8C200.5,-171.8 73.5,-171.8 73.5,-171.8 67.5,-171.8 61.5,-165.8 61.5,-159.8 61.5,-159.8 61.5,-127.8 61.5,-127.8 61.5,-121.8 67.5,-115.8 73.5,-115.8 73.5,-115.8 200.5,-115.8 200.5,-115.8 206.5,-115.8 212.5,-121.8 212.5,-127.8 212.5,-127.8 212.5,-159.8 212.5,-159.8 212.5,-165.8 206.5,-171.8 200.5,-171.8"/>
<text text-anchor="middle" x="137" y="-137.8" font-family="Menlo, Consolas, Courier New, monospace" font-size="20.00" fill="#000000">Version 2</text>
</g>
<!-- a_version2&#45;&#45;a_version1 -->
<g id="edge4" class="edge">
<title>a_version2&#45;&#45;a_version1</title>
<path fill="none" stroke="#8f8a83" stroke-width="2" d="M137,-115.7568C137,-110.5447 137,-105.0984 137,-99.8852"/>
</g>
<!-- a_version3 -->
<g id="node12" class="node">
<title>a_version3</title>
<path fill="#f0efe8" stroke="#8f8a83" stroke-width="0" d="M200.5,-243.8C200.5,-243.8 73.5,-243.8 73.5,-243.8 67.5,-243.8 61.5,-237.8 61.5,-231.8 61.5,-231.8 61.5,-199.8 61.5,-199.8 61.5,-193.8 67.5,-187.8 73.5,-187.8 73.5,-187.8 200.5,-187.8 200.5,-187.8 206.5,-187.8 212.5,-193.8 212.5,-199.8 212.5,-199.8 212.5,-231.8 212.5,-231.8 212.5,-237.8 206.5,-243.8 200.5,-243.8"/>
<text text-anchor="middle" x="137" y="-209.8" font-family="Menlo, Consolas, Courier New, monospace" font-size="20.00" fill="#000000">Version 3</text>
</g>
<!-- a_version3&#45;&#45;a_version2 -->
<g id="edge3" class="edge">
<title>a_version3&#45;&#45;a_version2</title>
<path fill="none" stroke="#8f8a83" stroke-width="2" d="M137,-187.7568C137,-182.5447 137,-177.0984 137,-171.8852"/>
</g>
<!-- b_version1 -->
<g id="node13" class="node">
<title>b_version1</title>
<path fill="#f0efe8" stroke="#8f8a83" stroke-width="0" d="M776.5,-99.8C776.5,-99.8 649.5,-99.8 649.5,-99.8 643.5,-99.8 637.5,-93.8 637.5,-87.8 637.5,-87.8 637.5,-55.8 637.5,-55.8 637.5,-49.8 643.5,-43.8 649.5,-43.8 649.5,-43.8 776.5,-43.8 776.5,-43.8 782.5,-43.8 788.5,-49.8 788.5,-55.8 788.5,-55.8 788.5,-87.8 788.5,-87.8 788.5,-93.8 782.5,-99.8 776.5,-99.8"/>
<text text-anchor="middle" x="713" y="-65.8" font-family="Menlo, Consolas, Courier New, monospace" font-size="20.00" fill="#000000">Version 1</text>
</g>
<!-- b_version2 -->
<g id="node14" class="node">
<title>b_version2</title>
<path fill="#f0efe8" stroke="#8f8a83" stroke-width="0" d="M776.5,-171.8C776.5,-171.8 649.5,-171.8 649.5,-171.8 643.5,-171.8 637.5,-165.8 637.5,-159.8 637.5,-159.8 637.5,-127.8 637.5,-127.8 637.5,-121.8 643.5,-115.8 649.5,-115.8 649.5,-115.8 776.5,-115.8 776.5,-115.8 782.5,-115.8 788.5,-121.8 788.5,-127.8 788.5,-127.8 788.5,-159.8 788.5,-159.8 788.5,-165.8 782.5,-171.8 776.5,-171.8"/>
<text text-anchor="middle" x="713" y="-137.8" font-family="Menlo, Consolas, Courier New, monospace" font-size="20.00" fill="#000000">Version 2</text>
</g>
<!-- b_version2&#45;&#45;b_version1 -->
<g id="edge6" class="edge">
<title>b_version2&#45;&#45;b_version1</title>
<path fill="none" stroke="#8f8a83" stroke-width="2" d="M713,-115.7568C713,-110.5447 713,-105.0984 713,-99.8852"/>
</g>
<!-- b_version3 -->
<g id="node15" class="node">
<title>b_version3</title>
<path fill="#f0efe8" stroke="#8f8a83" stroke-width="0" d="M776.5,-243.8C776.5,-243.8 649.5,-243.8 649.5,-243.8 643.5,-243.8 637.5,-237.8 637.5,-231.8 637.5,-231.8 637.5,-199.8 637.5,-199.8 637.5,-193.8 643.5,-187.8 649.5,-187.8 649.5,-187.8 776.5,-187.8 776.5,-187.8 782.5,-187.8 788.5,-193.8 788.5,-199.8 788.5,-199.8 788.5,-231.8 788.5,-231.8 788.5,-237.8 782.5,-243.8 776.5,-243.8"/>
<text text-anchor="middle" x="713" y="-209.8" font-family="Menlo, Consolas, Courier New, monospace" font-size="20.00" fill="#000000">Version 3</text>
</g>
<!-- b_version3&#45;&#45;b_version2 -->
<g id="edge5" class="edge">
<title>b_version3&#45;&#45;b_version2</title>
<path fill="none" stroke="#8f8a83" stroke-width="2" d="M713,-187.7568C713,-182.5447 713,-177.0984 713,-171.8852"/>
</g>
</g>
</svg>
