<?xml version="1.0" encoding="UTF-8" standalone="no"?>
<!DOCTYPE svg PUBLIC "-//W3C//DTD SVG 1.1//EN"
 "http://www.w3.org/Graphics/SVG/1.1/DTD/svg11.dtd">
<!-- Generated by graphviz version 2.43.0 (0)
 -->
<!-- Title: Git Pages: 1 -->
<svg width="836pt" height="433pt"
 viewBox="0.00 0.00 836.00 432.50" xmlns="http://www.w3.org/2000/svg" xmlns:xlink="http://www.w3.org/1999/xlink">
<g id="graph0" class="graph" transform="scale(1 1) rotate(0) translate(4 428.5)">
<title>Git</title>
<!-- untracked -->
<g id="node1" class="node">
<title>untracked</title>
<polygon fill="#f0efe8" stroke="black" stroke-width="0" points="180,-424.5 0,-424.5 0,-368.5 180,-368.5 180,-424.5"/>
<text text-anchor="middle" x="90" y="-390.5" font-family="Menlo, Monaco, Consolas, Lucida Console, Courier New, monospace" font-size="20.00" fill="#000000">Untracked</text>
</g>
<!-- untracked_h -->
<!-- untracked&#45;&#45;untracked_h -->
<g id="edge1" class="edge">
<title>untracked&#45;&#45;untracked_h</title>
<path fill="none" stroke="#8f8a83" stroke-width="2" d="M90,-368.34C90,-279.99 90,-13.4 90,-0.95"/>
</g>
<!-- unmodified -->
<g id="node2" class="node">
<title>unmodified</title>
<polygon fill="#3e8f99" stroke="black" stroke-width="0" points="399.66,-424.5 212.34,-424.5 212.34,-368.5 399.66,-368.5 399.66,-424.5"/>
<text text-anchor="middle" x="306" y="-390.5" font-family="Menlo, Monaco, Consolas, Lucida Console, Courier New, monospace" font-size="20.00" fill="#ffffff">Unmodified</text>
</g>
<!-- unmodified_h -->
<!-- unmodified&#45;&#45;unmodified_h -->
<g id="edge2" class="edge">
<title>unmodified&#45;&#45;unmodified_h</title>
<path fill="none" stroke="#8f8a83" stroke-width="2" d="M306,-368.34C306,-279.99 306,-13.4 306,-0.95"/>
</g>
<!-- modified -->
<g id="node3" class="node">
<title>modified</title>
<polygon fill="#c8a036" stroke="black" stroke-width="0" points="612,-424.5 432,-424.5 432,-368.5 612,-368.5 612,-424.5"/>
<text text-anchor="middle" x="522" y="-390.5" font-family="Menlo, Monaco, Consolas, Lucida Console, Courier New, monospace" font-size="20.00" fill="#ffffff">Modified</text>
</g>
<!-- modified_h -->
<!-- modified&#45;&#45;modified_h -->
<g id="edge3" class="edge">
<title>modified&#45;&#45;modified_h</title>
<path fill="none" stroke="#8f8a83" stroke-width="2" d="M522,-368.34C522,-279.99 522,-13.4 522,-0.95"/>
</g>
<!-- staged -->
<g id="node4" class="node">
<title>staged</title>
<polygon fill="#e93a1d" stroke="black" stroke-width="0" points="828,-424.5 648,-424.5 648,-368.5 828,-368.5 828,-424.5"/>
<text text-anchor="middle" x="738" y="-390.5" font-family="Menlo, Monaco, Consolas, Lucida Console, Courier New, monospace" font-size="20.00" fill="#ffffff">Staged</text>
</g>
<!-- staged_h -->
<!-- staged&#45;&#45;staged_h -->
<g id="edge4" class="edge">
<title>staged&#45;&#45;staged_h</title>
<path fill="none" stroke="#8f8a83" stroke-width="2" d="M738,-368.34C738,-279.99 738,-13.4 738,-0.95"/>
</g>
<!-- add_untracked -->
<g id="node5" class="node">
<title>add_untracked</title>
<polygon fill="#8f8a83" stroke="#8f8a83" points="90.5,-306.5 89.5,-306.5 89.5,-270.5 90.5,-270.5 90.5,-306.5"/>
</g>
<!-- add_staged -->
<g id="node10" class="node">
<title>add_staged</title>
<polygon fill="#8f8a83" stroke="#8f8a83" points="738,-288.5 684,-324.5 684,-252.5 738,-288.5"/>
</g>
<!-- add_untracked&#45;&#45;add_staged -->
<g id="edge5" class="edge">
<title>add_untracked&#45;&#45;add_staged</title>
<path fill="none" stroke="#8f8a83" stroke-width="40" d="M90.69,-288.5C111.25,-288.5 584.19,-288.5 683.72,-288.5"/>
<text text-anchor="middle" x="90.69" y="-282.5" font-family="Menlo, Monaco, Consolas, Lucida Console, Courier New, monospace" font-size="20.00" fill="#ffffff"> &#160;&#160;&#160;&#160;&#160;&#160;&#160;&#160;&#160;&#160;&#160;Add file</text>
</g>
<!-- edit_unmodified -->
<g id="node6" class="node">
<title>edit_unmodified</title>
<polygon fill="#8f8a83" stroke="#8f8a83" points="306.5,-234.5 305.5,-234.5 305.5,-198.5 306.5,-198.5 306.5,-234.5"/>
</g>
<!-- edit_modified -->
<g id="node11" class="node">
<title>edit_modified</title>
<polygon fill="#8f8a83" stroke="#8f8a83" points="522,-216.5 468,-252.5 468,-180.5 522,-216.5"/>
</g>
<!-- edit_unmodified&#45;&#45;edit_modified -->
<g id="edge6" class="edge">
<title>edit_unmodified&#45;&#45;edit_modified</title>
<path fill="none" stroke="#8f8a83" stroke-width="40" d="M306.52,-216.5C314.93,-216.5 423.91,-216.5 467.83,-216.5"/>
<text text-anchor="middle" x="306.52" y="-210.5" font-family="Menlo, Monaco, Consolas, Lucida Console, Courier New, monospace" font-size="20.00" fill="#ffffff"> &#160;&#160;&#160;&#160;&#160;&#160;&#160;&#160;&#160;&#160;&#160;Edit file</text>
</g>
<!-- stage_modified -->
<g id="node7" class="node">
<title>stage_modified</title>
<polygon fill="#8f8a83" stroke="#8f8a83" points="522.5,-162.5 521.5,-162.5 521.5,-126.5 522.5,-126.5 522.5,-162.5"/>
</g>
<!-- stage_staged -->
<g id="node12" class="node">
<title>stage_staged</title>
<polygon fill="#8f8a83" stroke="#8f8a83" points="738,-144.5 684,-180.5 684,-108.5 738,-144.5"/>
</g>
<!-- stage_modified&#45;&#45;stage_staged -->
<g id="edge7" class="edge">
<title>stage_modified&#45;&#45;stage_staged</title>
<path fill="none" stroke="#8f8a83" stroke-width="40" d="M522.52,-144.5C530.93,-144.5 639.91,-144.5 683.83,-144.5"/>
<text text-anchor="middle" x="522.52" y="-138.5" font-family="Menlo, Monaco, Consolas, Lucida Console, Courier New, monospace" font-size="20.00" fill="#ffffff"> &#160;&#160;&#160;&#160;&#160;&#160;&#160;&#160;&#160;&#160;&#160;&#160;Stage file</text>
</g>
<!-- remove_unmodified -->
<g id="node8" class="node">
<title>remove_unmodified</title>
<polygon fill="#8f8a83" stroke="#8f8a83" points="306.5,-126.5 305.5,-126.5 305.5,-90.5 306.5,-90.5 306.5,-126.5"/>
</g>
<!-- remove_untracked -->
<g id="node13" class="node">
<title>remove_untracked</title>
<polygon fill="#8f8a83" stroke="#8f8a83" points="90,-108.5 144,-72.5 144,-144.5 90,-108.5"/>
</g>
<!-- remove_unmodified&#45;&#45;remove_untracked -->
<g id="edge8" class="edge">
<title>remove_unmodified&#45;&#45;remove_untracked</title>
<path fill="none" stroke="#8f8a83" stroke-width="40" d="M305.48,-108.5C297.07,-108.5 188.09,-108.5 144.17,-108.5"/>
<text text-anchor="middle" x="305.48" y="-102.5" font-family="Menlo, Monaco, Consolas, Lucida Console, Courier New, monospace" font-size="20.00" fill="#ffffff">Remove file &#160;&#160;&#160;&#160;&#160;&#160;&#160;&#160;&#160;&#160;&#160;&#160;</text>
</g>
<!-- commit_staged -->
<g id="node9" class="node">
<title>commit_staged</title>
<polygon fill="#8f8a83" stroke="#8f8a83" points="738.5,-54.5 737.5,-54.5 737.5,-18.5 738.5,-18.5 738.5,-54.5"/>
</g>
<!-- commit_unmodified -->
<g id="node14" class="node">
<title>commit_unmodified</title>
<polygon fill="#8f8a83" stroke="#8f8a83" points="306,-36.5 360,-0.5 360,-72.5 306,-36.5"/>
</g>
<!-- commit_staged&#45;&#45;commit_unmodified -->
<g id="edge9" class="edge">
<title>commit_staged&#45;&#45;commit_unmodified</title>
<path fill="none" stroke="#8f8a83" stroke-width="40" d="M737.36,-36.5C721.99,-36.5 435.32,-36.5 360,-36.5"/>
<text text-anchor="middle" x="737.36" y="-30.5" font-family="Menlo, Monaco, Consolas, Lucida Console, Courier New, monospace" font-size="20.00" fill="#ffffff">Commit &#160;&#160;&#160;&#160;&#160;&#160;&#160;</text>
</g>
</g>
</svg>
