<?xml version="1.0" encoding="UTF-8" standalone="no"?>
<!DOCTYPE svg PUBLIC "-//W3C//DTD SVG 1.1//EN"
 "http://www.w3.org/Graphics/SVG/1.1/DTD/svg11.dtd">
<!-- Generated by graphviz version 2.47.2 (20210527.0053)
 -->
<!-- Title: Git Pages: 1 -->
<svg width="866pt" height="434pt"
 viewBox="0.00 0.00 865.81 433.50" xmlns="http://www.w3.org/2000/svg" xmlns:xlink="http://www.w3.org/1999/xlink">
<g id="graph0" class="graph" transform="scale(1 1) rotate(0) translate(4 429.5)">
<title>Git</title>
<!-- untracked -->
<g id="node1" class="node">
<title>untracked</title>
<polygon fill="#f0efe8" stroke="black" stroke-width="0" points="217.31,-425.5 22.31,-425.5 22.31,-367.5 217.31,-367.5 217.31,-425.5"/>
<text text-anchor="middle" x="119.81" y="-391.5" font-family="Menlo, Monaco, Consolas, Lucida Console, Courier New, monospace" font-size="20.00" fill="#000000">Untracked</text>
</g>
<!-- untracked_h -->
<!-- untracked&#45;&#45;untracked_h -->
<g id="edge1" class="edge">
<title>untracked&#45;&#45;untracked_h</title>
<path fill="none" stroke="#8f8a83" stroke-width="2" d="M119.81,-367.38C119.81,-278.07 119.81,-13.31 119.81,-0.95"/>
</g>
<!-- unmodified -->
<g id="node2" class="node">
<title>unmodified</title>
<polygon fill="#3e8f99" stroke="black" stroke-width="0" points="439.31,-425.5 232.31,-425.5 232.31,-367.5 439.31,-367.5 439.31,-425.5"/>
<text text-anchor="middle" x="335.81" y="-391.5" font-family="Menlo, Monaco, Consolas, Lucida Console, Courier New, monospace" font-size="20.00" fill="#ffffff">Unmodified</text>
</g>
<!-- unmodified_h -->
<!-- unmodified&#45;&#45;unmodified_h -->
<g id="edge2" class="edge">
<title>unmodified&#45;&#45;unmodified_h</title>
<path fill="none" stroke="#8f8a83" stroke-width="2" d="M335.81,-367.38C335.81,-278.07 335.81,-13.31 335.81,-0.95"/>
</g>
<!-- modified -->
<g id="node3" class="node">
<title>modified</title>
<polygon fill="#c8a036" stroke="black" stroke-width="0" points="643.31,-425.5 460.31,-425.5 460.31,-367.5 643.31,-367.5 643.31,-425.5"/>
<text text-anchor="middle" x="551.81" y="-391.5" font-family="Menlo, Monaco, Consolas, Lucida Console, Courier New, monospace" font-size="20.00" fill="#ffffff">Modified</text>
</g>
<!-- modified_h -->
<!-- modified&#45;&#45;modified_h -->
<g id="edge3" class="edge">
<title>modified&#45;&#45;modified_h</title>
<path fill="none" stroke="#8f8a83" stroke-width="2" d="M551.81,-367.38C551.81,-278.07 551.81,-13.31 551.81,-0.95"/>
</g>
<!-- staged -->
<g id="node4" class="node">
<title>staged</title>
<polygon fill="#e93a1d" stroke="black" stroke-width="0" points="857.81,-425.5 677.81,-425.5 677.81,-367.5 857.81,-367.5 857.81,-425.5"/>
<text text-anchor="middle" x="767.81" y="-391.5" font-family="Menlo, Monaco, Consolas, Lucida Console, Courier New, monospace" font-size="20.00" fill="#ffffff">Staged</text>
</g>
<!-- staged_h -->
<!-- staged&#45;&#45;staged_h -->
<g id="edge4" class="edge">
<title>staged&#45;&#45;staged_h</title>
<path fill="none" stroke="#8f8a83" stroke-width="2" d="M767.81,-367.38C767.81,-278.07 767.81,-13.31 767.81,-0.95"/>
</g>
<!-- add_untracked -->
<g id="node5" class="node">
<title>add_untracked</title>
<polygon fill="#8f8a83" stroke="#8f8a83" points="120.31,-306.5 119.31,-306.5 119.31,-270.5 120.31,-270.5 120.31,-306.5"/>
</g>
<!-- add_staged -->
<g id="node10" class="node">
<title>add_staged</title>
<polygon fill="#8f8a83" stroke="#8f8a83" points="767.81,-288.5 713.81,-324.5 713.81,-252.5 767.81,-288.5"/>
</g>
<!-- add_untracked&#45;&#45;add_staged -->
<g id="edge5" class="edge">
<title>add_untracked&#45;&#45;add_staged</title>
<path fill="none" stroke="#8f8a83" stroke-width="40" d="M120.5,-288.5C141.06,-288.5 614,-288.5 713.53,-288.5"/>
<text text-anchor="middle" x="120.5" y="-283.5" font-family="Menlo, Monaco, Consolas, Lucida Console, Courier New, monospace" font-size="20.00" fill="#ffffff"> &#160;&#160;&#160;&#160;&#160;&#160;&#160;&#160;&#160;&#160;&#160;Add file</text>
</g>
<!-- edit_unmodified -->
<g id="node6" class="node">
<title>edit_unmodified</title>
<polygon fill="#8f8a83" stroke="#8f8a83" points="336.31,-234.5 335.31,-234.5 335.31,-198.5 336.31,-198.5 336.31,-234.5"/>
</g>
<!-- edit_modified -->
<g id="node11" class="node">
<title>edit_modified</title>
<polygon fill="#8f8a83" stroke="#8f8a83" points="551.81,-216.5 497.81,-252.5 497.81,-180.5 551.81,-216.5"/>
</g>
<!-- edit_unmodified&#45;&#45;edit_modified -->
<g id="edge6" class="edge">
<title>edit_unmodified&#45;&#45;edit_modified</title>
<path fill="none" stroke="#8f8a83" stroke-width="40" d="M336.33,-216.5C344.74,-216.5 453.72,-216.5 497.64,-216.5"/>
<text text-anchor="middle" x="336.33" y="-211.5" font-family="Menlo, Monaco, Consolas, Lucida Console, Courier New, monospace" font-size="20.00" fill="#ffffff"> &#160;&#160;&#160;&#160;&#160;&#160;&#160;&#160;&#160;&#160;&#160;Edit file</text>
</g>
<!-- stage_modified -->
<g id="node7" class="node">
<title>stage_modified</title>
<polygon fill="#8f8a83" stroke="#8f8a83" points="552.31,-162.5 551.31,-162.5 551.31,-126.5 552.31,-126.5 552.31,-162.5"/>
</g>
<!-- stage_staged -->
<g id="node12" class="node">
<title>stage_staged</title>
<polygon fill="#8f8a83" stroke="#8f8a83" points="767.81,-144.5 713.81,-180.5 713.81,-108.5 767.81,-144.5"/>
</g>
<!-- stage_modified&#45;&#45;stage_staged -->
<g id="edge7" class="edge">
<title>stage_modified&#45;&#45;stage_staged</title>
<path fill="none" stroke="#8f8a83" stroke-width="40" d="M552.33,-144.5C560.74,-144.5 669.72,-144.5 713.64,-144.5"/>
<text text-anchor="middle" x="552.33" y="-139.5" font-family="Menlo, Monaco, Consolas, Lucida Console, Courier New, monospace" font-size="20.00" fill="#ffffff"> &#160;&#160;&#160;&#160;&#160;&#160;&#160;&#160;&#160;&#160;&#160;&#160;Stage file</text>
</g>
<!-- remove_unmodified -->
<g id="node8" class="node">
<title>remove_unmodified</title>
<polygon fill="#8f8a83" stroke="#8f8a83" points="336.31,-126.5 335.31,-126.5 335.31,-90.5 336.31,-90.5 336.31,-126.5"/>
</g>
<!-- remove_untracked -->
<g id="node13" class="node">
<title>remove_untracked</title>
<polygon fill="#8f8a83" stroke="#8f8a83" points="119.81,-108.5 173.81,-72.5 173.81,-144.5 119.81,-108.5"/>
</g>
<!-- remove_unmodified&#45;&#45;remove_untracked -->
<g id="edge8" class="edge">
<title>remove_unmodified&#45;&#45;remove_untracked</title>
<path fill="none" stroke="#8f8a83" stroke-width="40" d="M335.29,-108.5C326.88,-108.5 217.9,-108.5 173.98,-108.5"/>
<text text-anchor="middle" x="335.29" y="-103.5" font-family="Menlo, Monaco, Consolas, Lucida Console, Courier New, monospace" font-size="20.00" fill="#ffffff">Remove file &#160;&#160;&#160;&#160;&#160;&#160;&#160;&#160;&#160;&#160;&#160;&#160;</text>
</g>
<!-- commit_staged -->
<g id="node9" class="node">
<title>commit_staged</title>
<polygon fill="#8f8a83" stroke="#8f8a83" points="768.31,-54.5 767.31,-54.5 767.31,-18.5 768.31,-18.5 768.31,-54.5"/>
</g>
<!-- commit_unmodified -->
<g id="node14" class="node">
<title>commit_unmodified</title>
<polygon fill="#8f8a83" stroke="#8f8a83" points="335.81,-36.5 389.81,-0.5 389.81,-72.5 335.81,-36.5"/>
</g>
<!-- commit_staged&#45;&#45;commit_unmodified -->
<g id="edge9" class="edge">
<title>commit_staged&#45;&#45;commit_unmodified</title>
<path fill="none" stroke="#8f8a83" stroke-width="40" d="M767.17,-36.5C751.8,-36.5 465.13,-36.5 389.81,-36.5"/>
<text text-anchor="middle" x="767.17" y="-31.5" font-family="Menlo, Monaco, Consolas, Lucida Console, Courier New, monospace" font-size="20.00" fill="#ffffff">Commit &#160;&#160;&#160;&#160;&#160;&#160;&#160;</text>
</g>
</g>
</svg>
