<?xml version="1.0" encoding="UTF-8" standalone="no"?>
<!DOCTYPE svg PUBLIC "-//W3C//DTD SVG 1.1//EN"
 "http://www.w3.org/Graphics/SVG/1.1/DTD/svg11.dtd">
<!-- Generated by graphviz version 2.47.2 (20210527.0053)
 -->
<!-- Title: Git Pages: 1 -->
<svg width="637pt" height="372pt"
 viewBox="0.00 0.00 637.00 372.00" xmlns="http://www.w3.org/2000/svg" xmlns:xlink="http://www.w3.org/1999/xlink">
<g id="graph0" class="graph" transform="scale(1 1) rotate(0) translate(4 368)">
<title>Git</title>
<g id="clust1" class="cluster">
<title>cluster_a</title>
</g>
<g id="clust3" class="cluster">
<title>cluster_b</title>
</g>
<g id="clust5" class="cluster">
<title>cluster_c</title>
</g>
<!-- A -->
<g id="node1" class="node">
<title>A</title>
<path fill="#f0efe8" stroke="black" stroke-width="0" d="M155,-164C155,-164 28,-164 28,-164 22,-164 16,-158 16,-152 16,-152 16,-120 16,-120 16,-114 22,-108 28,-108 28,-108 155,-108 155,-108 161,-108 167,-114 167,-120 167,-120 167,-152 167,-152 167,-158 161,-164 155,-164"/>
<text text-anchor="middle" x="91.5" y="-131" font-family="Menlo, Monaco, Consolas, Lucida Console, Courier New, monospace" font-size="20.00">deadbeef</text>
</g>
<!-- B -->
<g id="node2" class="node">
<title>B</title>
<path fill="#f0efe8" stroke="black" stroke-width="0" d="M378,-164C378,-164 251,-164 251,-164 245,-164 239,-158 239,-152 239,-152 239,-120 239,-120 239,-114 245,-108 251,-108 251,-108 378,-108 378,-108 384,-108 390,-114 390,-120 390,-120 390,-152 390,-152 390,-158 384,-164 378,-164"/>
<text text-anchor="middle" x="314.5" y="-131" font-family="Menlo, Monaco, Consolas, Lucida Console, Courier New, monospace" font-size="20.00">0d06f00d</text>
</g>
<!-- A&#45;&gt;B -->
<g id="edge1" class="edge">
<title>A&#45;&gt;B</title>
<path fill="none" stroke="#8f8a83" stroke-width="2" d="M177.2,-136C197.53,-136 219.1,-136 238.94,-136"/>
<polygon fill="#8f8a83" stroke="#8f8a83" stroke-width="2" points="177.01,-132.5 167.01,-136 177.01,-139.5 177.01,-132.5"/>
</g>
<!-- C -->
<g id="node3" class="node">
<title>C</title>
<path fill="#f0efe8" stroke="black" stroke-width="0" d="M601,-164C601,-164 474,-164 474,-164 468,-164 462,-158 462,-152 462,-152 462,-120 462,-120 462,-114 468,-108 474,-108 474,-108 601,-108 601,-108 607,-108 613,-114 613,-120 613,-120 613,-152 613,-152 613,-158 607,-164 601,-164"/>
<text text-anchor="middle" x="537.5" y="-131" font-family="Menlo, Monaco, Consolas, Lucida Console, Courier New, monospace" font-size="20.00">50fac0de</text>
</g>
<!-- B&#45;&gt;C -->
<g id="edge2" class="edge">
<title>B&#45;&gt;C</title>
<path fill="none" stroke="#8f8a83" stroke-width="2" d="M400.2,-136C420.53,-136 442.1,-136 461.94,-136"/>
<polygon fill="#8f8a83" stroke="#8f8a83" stroke-width="2" points="400.01,-132.5 390.01,-136 400.01,-139.5 400.01,-132.5"/>
</g>
<!-- tag -->
<g id="node5" class="node">
<title>tag</title>
<polygon fill="#e93a1d" stroke="black" stroke-width="0" points="390,-256 239,-256 239,-200 390,-200 390,-256"/>
<text text-anchor="middle" x="314.5" y="-223" font-family="Menlo, Monaco, Consolas, Lucida Console, Courier New, monospace" font-size="20.00" fill="#ffffff">v1.0</text>
</g>
<!-- B&#45;&gt;tag -->
<g id="edge5" class="edge">
<title>B&#45;&gt;tag</title>
<path fill="none" stroke="#8f8a83" stroke-width="2" d="M314.5,-174.29C314.5,-182.7 314.5,-191.11 314.5,-199.51"/>
<polygon fill="#8f8a83" stroke="#8f8a83" stroke-width="2" points="318,-174.03 314.5,-164.03 311,-174.03 318,-174.03"/>
</g>
<!-- master -->
<g id="node4" class="node">
<title>master</title>
<polygon fill="#e93a1d" stroke="black" stroke-width="0" points="613,-256 462,-256 462,-200 613,-200 613,-256"/>
<text text-anchor="middle" x="537.5" y="-223" font-family="Menlo, Monaco, Consolas, Lucida Console, Courier New, monospace" font-size="20.00" fill="#ffffff">master</text>
</g>
<!-- C&#45;&gt;master -->
<g id="edge7" class="edge">
<title>C&#45;&gt;master</title>
<path fill="none" stroke="#8f8a83" stroke-width="2" d="M537.5,-174.29C537.5,-182.7 537.5,-191.11 537.5,-199.51"/>
<polygon fill="#8f8a83" stroke="#8f8a83" stroke-width="2" points="541,-174.03 537.5,-164.03 534,-174.03 541,-174.03"/>
</g>
<!-- HEAD -->
<g id="node6" class="node">
<title>HEAD</title>
<polygon fill="#c8a036" stroke="black" stroke-width="0" points="613,-348 462,-348 462,-292 613,-292 613,-348"/>
<text text-anchor="middle" x="537.5" y="-315" font-family="Menlo, Monaco, Consolas, Lucida Console, Courier New, monospace" font-size="20.00" fill="#ffffff">HEAD</text>
</g>
<!-- master&#45;&gt;HEAD -->
<g id="edge8" class="edge">
<title>master&#45;&gt;HEAD</title>
<path fill="none" stroke="#8f8a83" stroke-width="2" d="M537.5,-266.29C537.5,-274.7 537.5,-283.11 537.5,-291.51"/>
<polygon fill="#8f8a83" stroke="#8f8a83" stroke-width="2" points="541,-266.03 537.5,-256.03 534,-266.03 541,-266.03"/>
</g>
<!-- snapshot_a -->
<g id="node7" class="node">
<title>snapshot_a</title>
<polygon fill="#3e8f99" stroke="black" stroke-width="0" points="167,-72 16,-72 16,-16 167,-16 167,-72"/>
<text text-anchor="middle" x="91.5" y="-39" font-family="Menlo, Monaco, Consolas, Lucida Console, Courier New, monospace" font-size="20.00" fill="#ffffff">Snapshot A</text>
</g>
<!-- snapshot_a&#45;&gt;A -->
<g id="edge3" class="edge">
<title>snapshot_a&#45;&gt;A</title>
<path fill="none" stroke="#8f8a83" stroke-width="2" d="M91.5,-82.29C91.5,-90.7 91.5,-99.11 91.5,-107.51"/>
<polygon fill="#8f8a83" stroke="#8f8a83" stroke-width="2" points="95,-82.03 91.5,-72.03 88,-82.03 95,-82.03"/>
</g>
<!-- snapshot_b -->
<g id="node8" class="node">
<title>snapshot_b</title>
<polygon fill="#3e8f99" stroke="black" stroke-width="0" points="390,-72 239,-72 239,-16 390,-16 390,-72"/>
<text text-anchor="middle" x="314.5" y="-39" font-family="Menlo, Monaco, Consolas, Lucida Console, Courier New, monospace" font-size="20.00" fill="#ffffff">Snapshot B</text>
</g>
<!-- snapshot_b&#45;&gt;B -->
<g id="edge4" class="edge">
<title>snapshot_b&#45;&gt;B</title>
<path fill="none" stroke="#8f8a83" stroke-width="2" d="M314.5,-82.29C314.5,-90.7 314.5,-99.11 314.5,-107.51"/>
<polygon fill="#8f8a83" stroke="#8f8a83" stroke-width="2" points="318,-82.03 314.5,-72.03 311,-82.03 318,-82.03"/>
</g>
<!-- snapshot_c -->
<g id="node9" class="node">
<title>snapshot_c</title>
<polygon fill="#3e8f99" stroke="black" stroke-width="0" points="613,-72 462,-72 462,-16 613,-16 613,-72"/>
<text text-anchor="middle" x="537.5" y="-39" font-family="Menlo, Monaco, Consolas, Lucida Console, Courier New, monospace" font-size="20.00" fill="#ffffff">Snapshot C</text>
</g>
<!-- snapshot_c&#45;&gt;C -->
<g id="edge6" class="edge">
<title>snapshot_c&#45;&gt;C</title>
<path fill="none" stroke="#8f8a83" stroke-width="2" d="M537.5,-82.29C537.5,-90.7 537.5,-99.11 537.5,-107.51"/>
<polygon fill="#8f8a83" stroke="#8f8a83" stroke-width="2" points="541,-82.03 537.5,-72.03 534,-82.03 541,-82.03"/>
</g>
</g>
</svg>
