<?xml version="1.0" encoding="UTF-8" standalone="no"?>
<!DOCTYPE svg PUBLIC "-//W3C//DTD SVG 1.1//EN"
 "http://www.w3.org/Graphics/SVG/1.1/DTD/svg11.dtd">
<!-- Generated by graphviz version 2.40.1 (20161225.0304)
 -->
<!-- Title: Git Pages: 1 -->
<svg width="686pt" height="372pt"
 viewBox="0.00 0.00 686.23 372.00" xmlns="http://www.w3.org/2000/svg" xmlns:xlink="http://www.w3.org/1999/xlink">
<g id="graph0" class="graph" transform="scale(1 1) rotate(0) translate(4 368)">
<title>Git</title>
<g id="clust1" class="cluster">
<title>cluster_a</title>
</g>
<g id="clust3" class="cluster">
<title>cluster_b</title>
</g>
<g id="clust5" class="cluster">
<title>cluster_c</title>
</g>
<!-- A -->
<g id="node1" class="node">
<title>A</title>
<path fill="#f0efe8" stroke="#000000" stroke-width="0" d="M162.6572,-164C162.6572,-164 35.6572,-164 35.6572,-164 29.6572,-164 23.6572,-158 23.6572,-152 23.6572,-152 23.6572,-120 23.6572,-120 23.6572,-114 29.6572,-108 35.6572,-108 35.6572,-108 162.6572,-108 162.6572,-108 168.6572,-108 174.6572,-114 174.6572,-120 174.6572,-120 174.6572,-152 174.6572,-152 174.6572,-158 168.6572,-164 162.6572,-164"/>
<text text-anchor="middle" x="99.1572" y="-130" font-family="Menlo, Monaco, Consolas, Lucida Console, Courier New, monospace" font-size="20.00" fill="#000000">deadbeef</text>
</g>
<!-- B -->
<g id="node2" class="node">
<title>B</title>
<path fill="#f0efe8" stroke="#000000" stroke-width="0" d="M401.5186,-164C401.5186,-164 274.5186,-164 274.5186,-164 268.5186,-164 262.5186,-158 262.5186,-152 262.5186,-152 262.5186,-120 262.5186,-120 262.5186,-114 268.5186,-108 274.5186,-108 274.5186,-108 401.5186,-108 401.5186,-108 407.5186,-108 413.5186,-114 413.5186,-120 413.5186,-120 413.5186,-152 413.5186,-152 413.5186,-158 407.5186,-164 401.5186,-164"/>
<text text-anchor="middle" x="338.0186" y="-130" font-family="Menlo, Monaco, Consolas, Lucida Console, Courier New, monospace" font-size="20.00" fill="#000000">0d06f00d</text>
</g>
<!-- A&#45;&gt;B -->
<g id="edge1" class="edge">
<title>A&#45;&gt;B</title>
<path fill="none" stroke="#8f8a83" stroke-width="2" d="M185.0133,-136C210.2124,-136 237.5819,-136 262.1131,-136"/>
<polygon fill="#8f8a83" stroke="#8f8a83" stroke-width="2" points="184.7345,-132.5001 174.7344,-136 184.7344,-139.5001 184.7345,-132.5001"/>
</g>
<!-- C -->
<g id="node3" class="node">
<title>C</title>
<path fill="#f0efe8" stroke="#000000" stroke-width="0" d="M641.4785,-164C641.4785,-164 514.4785,-164 514.4785,-164 508.4785,-164 502.4785,-158 502.4785,-152 502.4785,-152 502.4785,-120 502.4785,-120 502.4785,-114 508.4785,-108 514.4785,-108 514.4785,-108 641.4785,-108 641.4785,-108 647.4785,-108 653.4785,-114 653.4785,-120 653.4785,-120 653.4785,-152 653.4785,-152 653.4785,-158 647.4785,-164 641.4785,-164"/>
<text text-anchor="middle" x="577.9785" y="-130" font-family="Menlo, Monaco, Consolas, Lucida Console, Courier New, monospace" font-size="20.00" fill="#000000">50fac0de</text>
</g>
<!-- B&#45;&gt;C -->
<g id="edge2" class="edge">
<title>B&#45;&gt;C</title>
<path fill="none" stroke="#8f8a83" stroke-width="2" d="M423.7088,-136C449.3926,-136 477.3651,-136 502.3509,-136"/>
<polygon fill="#8f8a83" stroke="#8f8a83" stroke-width="2" points="423.6141,-132.5001 413.614,-136 423.614,-139.5001 423.6141,-132.5001"/>
</g>
<!-- tag -->
<g id="node5" class="node">
<title>tag</title>
<polygon fill="#e93a1d" stroke="#000000" stroke-width="0" points="413.5186,-256 262.5186,-256 262.5186,-200 413.5186,-200 413.5186,-256"/>
<text text-anchor="middle" x="338.0186" y="-222" font-family="Menlo, Monaco, Consolas, Lucida Console, Courier New, monospace" font-size="20.00" fill="#ffffff">v1.0</text>
</g>
<!-- B&#45;&gt;tag -->
<g id="edge5" class="edge">
<title>B&#45;&gt;tag</title>
<path fill="none" stroke="#8f8a83" stroke-width="2" d="M338.0186,-174.288C338.0186,-182.6966 338.0186,-191.1053 338.0186,-199.5139"/>
<polygon fill="#8f8a83" stroke="#8f8a83" stroke-width="2" points="341.5187,-174.0312 338.0186,-164.0313 334.5187,-174.0313 341.5187,-174.0312"/>
</g>
<!-- master -->
<g id="node4" class="node">
<title>master</title>
<polygon fill="#e93a1d" stroke="#000000" stroke-width="0" points="653.4785,-256 502.4785,-256 502.4785,-200 653.4785,-200 653.4785,-256"/>
<text text-anchor="middle" x="577.9785" y="-222" font-family="Menlo, Monaco, Consolas, Lucida Console, Courier New, monospace" font-size="20.00" fill="#ffffff">master</text>
</g>
<!-- C&#45;&gt;master -->
<g id="edge7" class="edge">
<title>C&#45;&gt;master</title>
<path fill="none" stroke="#8f8a83" stroke-width="2" d="M577.9785,-174.288C577.9785,-182.6966 577.9785,-191.1053 577.9785,-199.5139"/>
<polygon fill="#8f8a83" stroke="#8f8a83" stroke-width="2" points="581.4786,-174.0312 577.9785,-164.0313 574.4786,-174.0313 581.4786,-174.0312"/>
</g>
<!-- HEAD -->
<g id="node6" class="node">
<title>HEAD</title>
<polygon fill="#c8a036" stroke="#000000" stroke-width="0" points="653.4785,-348 502.4785,-348 502.4785,-292 653.4785,-292 653.4785,-348"/>
<text text-anchor="middle" x="577.9785" y="-314" font-family="Menlo, Monaco, Consolas, Lucida Console, Courier New, monospace" font-size="20.00" fill="#ffffff">HEAD</text>
</g>
<!-- master&#45;&gt;HEAD -->
<g id="edge8" class="edge">
<title>master&#45;&gt;HEAD</title>
<path fill="none" stroke="#8f8a83" stroke-width="2" d="M577.9785,-266.288C577.9785,-274.6966 577.9785,-283.1053 577.9785,-291.5139"/>
<polygon fill="#8f8a83" stroke="#8f8a83" stroke-width="2" points="581.4786,-266.0312 577.9785,-256.0313 574.4786,-266.0313 581.4786,-266.0312"/>
</g>
<!-- snapshot_a -->
<g id="node7" class="node">
<title>snapshot_a</title>
<polygon fill="#3e8f99" stroke="#000000" stroke-width="0" points="182.472,-72 15.8425,-72 15.8425,-16 182.472,-16 182.472,-72"/>
<text text-anchor="middle" x="99.1572" y="-38" font-family="Menlo, Monaco, Consolas, Lucida Console, Courier New, monospace" font-size="20.00" fill="#ffffff">Snapshot A</text>
</g>
<!-- snapshot_a&#45;&gt;A -->
<g id="edge3" class="edge">
<title>snapshot_a&#45;&gt;A</title>
<path fill="none" stroke="#8f8a83" stroke-width="2" d="M99.1572,-82.288C99.1572,-90.6966 99.1572,-99.1053 99.1572,-107.5139"/>
<polygon fill="#8f8a83" stroke="#8f8a83" stroke-width="2" points="102.6573,-82.0312 99.1572,-72.0313 95.6573,-82.0313 102.6573,-82.0312"/>
</g>
<!-- snapshot_b -->
<g id="node8" class="node">
<title>snapshot_b</title>
<polygon fill="#3e8f99" stroke="#000000" stroke-width="0" points="421.9273,-72 254.1099,-72 254.1099,-16 421.9273,-16 421.9273,-72"/>
<text text-anchor="middle" x="338.0186" y="-38" font-family="Menlo, Monaco, Consolas, Lucida Console, Courier New, monospace" font-size="20.00" fill="#ffffff">Snapshot B</text>
</g>
<!-- snapshot_b&#45;&gt;B -->
<g id="edge4" class="edge">
<title>snapshot_b&#45;&gt;B</title>
<path fill="none" stroke="#8f8a83" stroke-width="2" d="M338.0186,-82.288C338.0186,-90.6966 338.0186,-99.1053 338.0186,-107.5139"/>
<polygon fill="#8f8a83" stroke="#8f8a83" stroke-width="2" points="341.5187,-82.0312 338.0186,-72.0313 334.5187,-82.0313 341.5187,-82.0312"/>
</g>
<!-- snapshot_c -->
<g id="node9" class="node">
<title>snapshot_c</title>
<polygon fill="#3e8f99" stroke="#000000" stroke-width="0" points="661.9909,-72 493.9661,-72 493.9661,-16 661.9909,-16 661.9909,-72"/>
<text text-anchor="middle" x="577.9785" y="-38" font-family="Menlo, Monaco, Consolas, Lucida Console, Courier New, monospace" font-size="20.00" fill="#ffffff">Snapshot C</text>
</g>
<!-- snapshot_c&#45;&gt;C -->
<g id="edge6" class="edge">
<title>snapshot_c&#45;&gt;C</title>
<path fill="none" stroke="#8f8a83" stroke-width="2" d="M577.9785,-82.288C577.9785,-90.6966 577.9785,-99.1053 577.9785,-107.5139"/>
<polygon fill="#8f8a83" stroke="#8f8a83" stroke-width="2" points="581.4786,-82.0312 577.9785,-72.0313 574.4786,-82.0313 581.4786,-82.0312"/>
</g>
</g>
</svg>
