<?xml version="1.0" encoding="UTF-8" standalone="no"?>
<!DOCTYPE svg PUBLIC "-//W3C//DTD SVG 1.1//EN"
 "http://www.w3.org/Graphics/SVG/1.1/DTD/svg11.dtd">
<!-- Generated by graphviz version 2.43.0 (0)
 -->
<!-- Title: Git Pages: 1 -->
<svg width="686pt" height="372pt"
 viewBox="0.00 0.00 686.23 372.00" xmlns="http://www.w3.org/2000/svg" xmlns:xlink="http://www.w3.org/1999/xlink">
<g id="graph0" class="graph" transform="scale(1 1) rotate(0) translate(4 368)">
<title>Git</title>
<g id="clust1" class="cluster">
<title>cluster_a</title>
</g>
<g id="clust3" class="cluster">
<title>cluster_b</title>
</g>
<g id="clust5" class="cluster">
<title>cluster_c</title>
</g>
<!-- A -->
<g id="node1" class="node">
<title>A</title>
<path fill="#f0efe8" stroke="black" stroke-width="0" d="M162.66,-164C162.66,-164 35.66,-164 35.66,-164 29.66,-164 23.66,-158 23.66,-152 23.66,-152 23.66,-120 23.66,-120 23.66,-114 29.66,-108 35.66,-108 35.66,-108 162.66,-108 162.66,-108 168.66,-108 174.66,-114 174.66,-120 174.66,-120 174.66,-152 174.66,-152 174.66,-158 168.66,-164 162.66,-164"/>
<text text-anchor="middle" x="99.16" y="-130" font-family="Menlo, Monaco, Consolas, Lucida Console, Courier New, monospace" font-size="20.00">deadbeef</text>
</g>
<!-- B -->
<g id="node2" class="node">
<title>B</title>
<path fill="#f0efe8" stroke="black" stroke-width="0" d="M401.52,-164C401.52,-164 274.52,-164 274.52,-164 268.52,-164 262.52,-158 262.52,-152 262.52,-152 262.52,-120 262.52,-120 262.52,-114 268.52,-108 274.52,-108 274.52,-108 401.52,-108 401.52,-108 407.52,-108 413.52,-114 413.52,-120 413.52,-120 413.52,-152 413.52,-152 413.52,-158 407.52,-164 401.52,-164"/>
<text text-anchor="middle" x="338.02" y="-130" font-family="Menlo, Monaco, Consolas, Lucida Console, Courier New, monospace" font-size="20.00">0d06f00d</text>
</g>
<!-- A&#45;&gt;B -->
<g id="edge1" class="edge">
<title>A&#45;&gt;B</title>
<path fill="none" stroke="#8f8a83" stroke-width="2" d="M185.08,-136C210.34,-136 237.81,-136 262.37,-136"/>
<polygon fill="#8f8a83" stroke="#8f8a83" stroke-width="2" points="184.78,-132.5 174.78,-136 184.78,-139.5 184.78,-132.5"/>
</g>
<!-- C -->
<g id="node3" class="node">
<title>C</title>
<path fill="#f0efe8" stroke="black" stroke-width="0" d="M641.48,-164C641.48,-164 514.48,-164 514.48,-164 508.48,-164 502.48,-158 502.48,-152 502.48,-152 502.48,-120 502.48,-120 502.48,-114 508.48,-108 514.48,-108 514.48,-108 641.48,-108 641.48,-108 647.48,-108 653.48,-114 653.48,-120 653.48,-120 653.48,-152 653.48,-152 653.48,-158 647.48,-164 641.48,-164"/>
<text text-anchor="middle" x="577.98" y="-130" font-family="Menlo, Monaco, Consolas, Lucida Console, Courier New, monospace" font-size="20.00">50fac0de</text>
</g>
<!-- B&#45;&gt;C -->
<g id="edge2" class="edge">
<title>B&#45;&gt;C</title>
<path fill="none" stroke="#8f8a83" stroke-width="2" d="M423.72,-136C449.34,-136 477.28,-136 502.2,-136"/>
<polygon fill="#8f8a83" stroke="#8f8a83" stroke-width="2" points="423.66,-132.5 413.66,-136 423.66,-139.5 423.66,-132.5"/>
</g>
<!-- tag -->
<g id="node5" class="node">
<title>tag</title>
<polygon fill="#e93a1d" stroke="black" stroke-width="0" points="413.52,-256 262.52,-256 262.52,-200 413.52,-200 413.52,-256"/>
<text text-anchor="middle" x="338.02" y="-222" font-family="Menlo, Monaco, Consolas, Lucida Console, Courier New, monospace" font-size="20.00" fill="#ffffff">v1.0</text>
</g>
<!-- B&#45;&gt;tag -->
<g id="edge5" class="edge">
<title>B&#45;&gt;tag</title>
<path fill="none" stroke="#8f8a83" stroke-width="2" d="M338.02,-174.29C338.02,-182.7 338.02,-191.11 338.02,-199.51"/>
<polygon fill="#8f8a83" stroke="#8f8a83" stroke-width="2" points="341.52,-174.03 338.02,-164.03 334.52,-174.03 341.52,-174.03"/>
</g>
<!-- master -->
<g id="node4" class="node">
<title>master</title>
<polygon fill="#e93a1d" stroke="black" stroke-width="0" points="653.48,-256 502.48,-256 502.48,-200 653.48,-200 653.48,-256"/>
<text text-anchor="middle" x="577.98" y="-222" font-family="Menlo, Monaco, Consolas, Lucida Console, Courier New, monospace" font-size="20.00" fill="#ffffff">master</text>
</g>
<!-- C&#45;&gt;master -->
<g id="edge7" class="edge">
<title>C&#45;&gt;master</title>
<path fill="none" stroke="#8f8a83" stroke-width="2" d="M577.98,-174.29C577.98,-182.7 577.98,-191.11 577.98,-199.51"/>
<polygon fill="#8f8a83" stroke="#8f8a83" stroke-width="2" points="581.48,-174.03 577.98,-164.03 574.48,-174.03 581.48,-174.03"/>
</g>
<!-- HEAD -->
<g id="node6" class="node">
<title>HEAD</title>
<polygon fill="#c8a036" stroke="black" stroke-width="0" points="653.48,-348 502.48,-348 502.48,-292 653.48,-292 653.48,-348"/>
<text text-anchor="middle" x="577.98" y="-314" font-family="Menlo, Monaco, Consolas, Lucida Console, Courier New, monospace" font-size="20.00" fill="#ffffff">HEAD</text>
</g>
<!-- master&#45;&gt;HEAD -->
<g id="edge8" class="edge">
<title>master&#45;&gt;HEAD</title>
<path fill="none" stroke="#8f8a83" stroke-width="2" d="M577.98,-266.29C577.98,-274.7 577.98,-283.11 577.98,-291.51"/>
<polygon fill="#8f8a83" stroke="#8f8a83" stroke-width="2" points="581.48,-266.03 577.98,-256.03 574.48,-266.03 581.48,-266.03"/>
</g>
<!-- snapshot_a -->
<g id="node7" class="node">
<title>snapshot_a</title>
<polygon fill="#3e8f99" stroke="black" stroke-width="0" points="182.47,-72 15.84,-72 15.84,-16 182.47,-16 182.47,-72"/>
<text text-anchor="middle" x="99.16" y="-38" font-family="Menlo, Monaco, Consolas, Lucida Console, Courier New, monospace" font-size="20.00" fill="#ffffff">Snapshot A</text>
</g>
<!-- snapshot_a&#45;&gt;A -->
<g id="edge3" class="edge">
<title>snapshot_a&#45;&gt;A</title>
<path fill="none" stroke="#8f8a83" stroke-width="2" d="M99.16,-82.29C99.16,-90.7 99.16,-99.11 99.16,-107.51"/>
<polygon fill="#8f8a83" stroke="#8f8a83" stroke-width="2" points="102.66,-82.03 99.16,-72.03 95.66,-82.03 102.66,-82.03"/>
</g>
<!-- snapshot_b -->
<g id="node8" class="node">
<title>snapshot_b</title>
<polygon fill="#3e8f99" stroke="black" stroke-width="0" points="421.93,-72 254.11,-72 254.11,-16 421.93,-16 421.93,-72"/>
<text text-anchor="middle" x="338.02" y="-38" font-family="Menlo, Monaco, Consolas, Lucida Console, Courier New, monospace" font-size="20.00" fill="#ffffff">Snapshot B</text>
</g>
<!-- snapshot_b&#45;&gt;B -->
<g id="edge4" class="edge">
<title>snapshot_b&#45;&gt;B</title>
<path fill="none" stroke="#8f8a83" stroke-width="2" d="M338.02,-82.29C338.02,-90.7 338.02,-99.11 338.02,-107.51"/>
<polygon fill="#8f8a83" stroke="#8f8a83" stroke-width="2" points="341.52,-82.03 338.02,-72.03 334.52,-82.03 341.52,-82.03"/>
</g>
<!-- snapshot_c -->
<g id="node9" class="node">
<title>snapshot_c</title>
<polygon fill="#3e8f99" stroke="black" stroke-width="0" points="661.99,-72 493.97,-72 493.97,-16 661.99,-16 661.99,-72"/>
<text text-anchor="middle" x="577.98" y="-38" font-family="Menlo, Monaco, Consolas, Lucida Console, Courier New, monospace" font-size="20.00" fill="#ffffff">Snapshot C</text>
</g>
<!-- snapshot_c&#45;&gt;C -->
<g id="edge6" class="edge">
<title>snapshot_c&#45;&gt;C</title>
<path fill="none" stroke="#8f8a83" stroke-width="2" d="M577.98,-82.29C577.98,-90.7 577.98,-99.11 577.98,-107.51"/>
<polygon fill="#8f8a83" stroke="#8f8a83" stroke-width="2" points="581.48,-82.03 577.98,-72.03 574.48,-82.03 581.48,-82.03"/>
</g>
</g>
</svg>
