<?xml version="1.0" encoding="UTF-8" standalone="no"?>
<!DOCTYPE svg PUBLIC "-//W3C//DTD SVG 1.1//EN"
 "http://www.w3.org/Graphics/SVG/1.1/DTD/svg11.dtd">
<!-- Generated by graphviz version 2.47.2 (20210527.0053)
 -->
<!-- Title: Git Pages: 1 -->
<svg width="932pt" height="192pt"
 viewBox="0.00 0.00 932.00 192.00" xmlns="http://www.w3.org/2000/svg" xmlns:xlink="http://www.w3.org/1999/xlink">
<g id="graph0" class="graph" transform="scale(1 1) rotate(0) translate(4 188)">
<title>Git</title>
<!-- commit -->
<g id="node1" class="node">
<title>commit</title>
<polygon fill="none" stroke="black" stroke-width="0" points="260,-184 0,-184 0,0 260,0 260,-184"/>
<polygon fill="#f0efe8" stroke="transparent" points="0,0 0,-184 260,-184 260,0 0,0"/>
<polygon fill="white" stroke="transparent" points="0,-140 0,-184 262,-184 262,-140 0,-140"/>
<polygon fill="none" stroke="white" points="0,-140 0,-184 262,-184 262,-140 0,-140"/>
<text text-anchor="start" x="82.5" y="-157" font-family="Menlo, Monaco, Consolas, Lucida Console, Courier New, monospace" font-size="20.00">b160ba26</text>
<polyline fill="none" stroke="white" points="0,-96 262,-96 "/>
<text text-anchor="start" x="52" y="-114" font-family="Menlo, Monaco, Consolas, Lucida Console, Courier New, monospace" font-weight="bold" text-decoration="underline" font-size="20.00" fill="#000000">commit</text>
<text text-anchor="start" x="125" y="-114" font-family="Menlo, Monaco, Consolas, Lucida Console, Courier New, monospace" font-size="20.00" fill="#000000"> &#160;&#160;size</text>
<text text-anchor="start" x="10" y="-71" font-family="Menlo, Monaco, Consolas, Lucida Console, Courier New, monospace" font-weight="bold" font-size="20.00" fill="#000000">tree</text>
<text text-anchor="start" x="59" y="-71" font-family="Menlo, Monaco, Consolas, Lucida Console, Courier New, monospace" font-size="20.00" fill="#000000"> &#160;&#160;&#160;&#160;&#160;82ad2</text>
<text text-anchor="start" x="10" y="-51" font-family="Menlo, Monaco, Consolas, Lucida Console, Courier New, monospace" font-weight="bold" font-size="20.00" fill="#000000">author </text>
<text text-anchor="start" x="95" y="-51" font-family="Menlo, Monaco, Consolas, Lucida Console, Courier New, monospace" font-size="20.00" fill="#000000"> &#160;&#160;Alex</text>
<text text-anchor="start" x="10" y="-31" font-family="Menlo, Monaco, Consolas, Lucida Console, Courier New, monospace" font-weight="bold" font-size="20.00" fill="#000000">date </text>
<text text-anchor="start" x="71" y="-31" font-family="Menlo, Monaco, Consolas, Lucida Console, Courier New, monospace" font-size="20.00" fill="#000000"> &#160;&#160;&#160;&#160;2020&#45;02&#45;27</text>
<text text-anchor="start" x="10" y="-11" font-family="Menlo, Monaco, Consolas, Lucida Console, Courier New, monospace" font-weight="bold" font-size="20.00" fill="#000000">message </text>
<text text-anchor="start" x="107" y="-11" font-family="Menlo, Monaco, Consolas, Lucida Console, Courier New, monospace" font-size="20.00" fill="#000000"> &#160;my first…</text>
</g>
<!-- root_tree -->
<g id="node2" class="node">
<title>root_tree</title>
<polygon fill="none" stroke="black" stroke-width="0" points="592,-174 332,-174 332,-10 592,-10 592,-174"/>
<polygon fill="#3e8f99" stroke="transparent" points="332,-10 332,-174 592,-174 592,-10 332,-10"/>
<polygon fill="white" stroke="transparent" points="332,-130 332,-174 606,-174 606,-130 332,-130"/>
<polygon fill="none" stroke="white" points="332,-130 332,-174 606,-174 606,-130 332,-130"/>
<text text-anchor="start" x="438.5" y="-147" font-family="Menlo, Monaco, Consolas, Lucida Console, Courier New, monospace" font-size="20.00">82ad2</text>
<polyline fill="none" stroke="white" points="332,-86 606,-86 "/>
<text text-anchor="start" x="402" y="-104" font-family="Menlo, Monaco, Consolas, Lucida Console, Courier New, monospace" font-weight="bold" text-decoration="underline" font-size="20.00" fill="#ffffff">tree</text>
<text text-anchor="start" x="451" y="-104" font-family="Menlo, Monaco, Consolas, Lucida Console, Courier New, monospace" font-size="20.00" fill="#ffffff"> &#160;&#160;size</text>
<text text-anchor="start" x="342" y="-61" font-family="Menlo, Monaco, Consolas, Lucida Console, Courier New, monospace" font-weight="bold" font-size="20.00" fill="#ffffff">blob</text>
<text text-anchor="start" x="391" y="-61" font-family="Menlo, Monaco, Consolas, Lucida Console, Courier New, monospace" font-size="20.00" fill="#ffffff"> &#160;4b5fa hello.txt</text>
</g>
<!-- commit&#45;&gt;root_tree -->
<g id="edge1" class="edge">
<title>commit&#45;&gt;root_tree</title>
<path fill="none" stroke="#8f8a83" stroke-width="2" d="M260,-92C280.28,-92 301.31,-92 321.8,-92"/>
<polygon fill="#8f8a83" stroke="#8f8a83" stroke-width="2" points="321.81,-95.5 331.81,-92 321.81,-88.5 321.81,-95.5"/>
</g>
<!-- hello_blob -->
<g id="node3" class="node">
<title>hello_blob</title>
<polygon fill="none" stroke="black" stroke-width="0" points="924,-174 664,-174 664,-10 924,-10 924,-174"/>
<polygon fill="#c8a036" stroke="transparent" points="664,-10 664,-174 924,-174 924,-10 664,-10"/>
<polygon fill="white" stroke="transparent" points="664,-130 664,-174 924,-174 924,-130 664,-130"/>
<polygon fill="none" stroke="white" points="664,-130 664,-174 924,-174 924,-130 664,-130"/>
<text text-anchor="start" x="763.5" y="-147" font-family="Menlo, Monaco, Consolas, Lucida Console, Courier New, monospace" font-size="20.00">4b5fa</text>
<polyline fill="none" stroke="white" points="664,-86 924,-86 "/>
<text text-anchor="start" x="727" y="-104" font-family="Menlo, Monaco, Consolas, Lucida Console, Courier New, monospace" font-weight="bold" text-decoration="underline" font-size="20.00" fill="#ffffff">blob</text>
<text text-anchor="start" x="776" y="-104" font-family="Menlo, Monaco, Consolas, Lucida Console, Courier New, monospace" font-size="20.00" fill="#ffffff"> &#160;&#160;size</text>
<text text-anchor="start" x="674" y="-60" font-family="Menlo, Monaco, Consolas, Lucida Console, Courier New, monospace" font-size="20.00" fill="#ffffff">hello, world</text>
</g>
<!-- root_tree&#45;&gt;hello_blob -->
<g id="edge2" class="edge">
<title>root_tree&#45;&gt;hello_blob</title>
<path fill="none" stroke="#8f8a83" stroke-width="2" d="M592,-92C612.28,-92 633.31,-92 653.8,-92"/>
<polygon fill="#8f8a83" stroke="#8f8a83" stroke-width="2" points="653.81,-95.5 663.81,-92 653.81,-88.5 653.81,-95.5"/>
</g>
</g>
</svg>
