<?xml version="1.0" encoding="UTF-8" standalone="no"?>
<!DOCTYPE svg PUBLIC "-//W3C//DTD SVG 1.1//EN"
 "http://www.w3.org/Graphics/SVG/1.1/DTD/svg11.dtd">
<!-- Generated by graphviz version 2.43.0 (0)
 -->
<!-- Title: Git Pages: 1 -->
<svg width="932pt" height="572pt"
 viewBox="0.00 0.00 932.00 572.00" xmlns="http://www.w3.org/2000/svg" xmlns:xlink="http://www.w3.org/1999/xlink">
<g id="graph0" class="graph" transform="scale(1 1) rotate(0) translate(4 568)">
<title>Git</title>
<!-- commit -->
<g id="node1" class="node">
<title>commit</title>
<polygon fill="none" stroke="black" stroke-width="0" points="260,-364 0,-364 0,-200 260,-200 260,-364"/>
<polygon fill="#f0efe8" stroke="transparent" points="0,-200 0,-364 260,-364 260,-200 0,-200"/>
<polygon fill="white" stroke="transparent" points="0,-322 0,-364 260,-364 260,-322 0,-322"/>
<polygon fill="none" stroke="white" points="0,-322 0,-364 260,-364 260,-322 0,-322"/>
<text text-anchor="start" x="88.85" y="-337" font-family="Menlo, Monaco, Consolas, Lucida Console, Courier New, monospace" font-size="20.00">50fac0de</text>
<polyline fill="none" stroke="white" points="0,-280 260,-280 "/>
<text text-anchor="start" x="71.66" y="-296" font-family="Menlo, Monaco, Consolas, Lucida Console, Courier New, monospace" font-weight="bold" text-decoration="underline" font-size="20.00" fill="#000000">commit</text>
<text text-anchor="start" x="136.1" y="-296" font-family="Menlo, Monaco, Consolas, Lucida Console, Courier New, monospace" font-size="20.00" fill="#000000"> &#160;&#160;size</text>
<text text-anchor="start" x="62.73" y="-255" font-family="Menlo, Monaco, Consolas, Lucida Console, Courier New, monospace" font-weight="bold" font-size="20.00" fill="#000000"> &#160;&#160;&#160;tree</text>
<text text-anchor="start" x="119.42" y="-255" font-family="Menlo, Monaco, Consolas, Lucida Console, Courier New, monospace" font-size="20.00" fill="#000000"> &#160;&#160;&#160;05a2d</text>
<text text-anchor="start" x="64.97" y="-235" font-family="Menlo, Monaco, Consolas, Lucida Console, Courier New, monospace" font-size="20.00" fill="#000000"> &#160;</text>
<text text-anchor="start" x="76.08" y="-235" font-family="Menlo, Monaco, Consolas, Lucida Console, Courier New, monospace" font-weight="bold" font-size="20.00" fill="#000000">author</text>
<text text-anchor="start" x="132.79" y="-235" font-family="Menlo, Monaco, Consolas, Lucida Console, Courier New, monospace" font-size="20.00" fill="#000000"> &#160;&#160;Scott</text>
<text text-anchor="start" x="32.37" y="-215" font-family="Menlo, Monaco, Consolas, Lucida Console, Courier New, monospace" font-size="20.00" fill="#000000"> </text>
<text text-anchor="start" x="37.92" y="-215" font-family="Menlo, Monaco, Consolas, Lucida Console, Courier New, monospace" font-weight="bold" font-size="20.00" fill="#000000"> &#160;&#160;message</text>
<text text-anchor="start" x="135.75" y="-215" font-family="Menlo, Monaco, Consolas, Lucida Console, Courier New, monospace" font-size="20.00" fill="#000000"> &#160;&#160;💩 Fix…</text>
</g>
<!-- root_tree -->
<g id="node2" class="node">
<title>root_tree</title>
<polygon fill="none" stroke="black" stroke-width="0" points="592,-364 332,-364 332,-200 592,-200 592,-364"/>
<polygon fill="#3e8f99" stroke="transparent" points="332,-200 332,-364 592,-364 592,-200 332,-200"/>
<polygon fill="white" stroke="transparent" points="332,-322 332,-364 592,-364 592,-322 332,-322"/>
<polygon fill="none" stroke="white" points="332,-322 332,-364 592,-364 592,-322 332,-322"/>
<text text-anchor="start" x="434.19" y="-337" font-family="Menlo, Monaco, Consolas, Lucida Console, Courier New, monospace" font-size="20.00">05a2d</text>
<polyline fill="none" stroke="white" points="332,-280 592,-280 "/>
<text text-anchor="start" x="418.65" y="-296" font-family="Menlo, Monaco, Consolas, Lucida Console, Courier New, monospace" font-weight="bold" text-decoration="underline" font-size="20.00" fill="#ffffff">tree</text>
<text text-anchor="start" x="453.11" y="-296" font-family="Menlo, Monaco, Consolas, Lucida Console, Courier New, monospace" font-size="20.00" fill="#ffffff"> &#160;&#160;size</text>
<text text-anchor="start" x="342" y="-255" font-family="Menlo, Monaco, Consolas, Lucida Console, Courier New, monospace" font-weight="bold" font-size="20.00" fill="#ffffff">blob</text>
<text text-anchor="start" x="379.81" y="-255" font-family="Menlo, Monaco, Consolas, Lucida Console, Courier New, monospace" font-size="20.00" fill="#ffffff"> &#160;&#160;5b1d3 README.md</text>
<text text-anchor="start" x="342" y="-235" font-family="Menlo, Monaco, Consolas, Lucida Console, Courier New, monospace" font-weight="bold" font-size="20.00" fill="#ffffff">blob</text>
<text text-anchor="start" x="379.81" y="-235" font-family="Menlo, Monaco, Consolas, Lucida Console, Courier New, monospace" font-size="20.00" fill="#ffffff"> &#160;&#160;911e7 LICENSE</text>
<text text-anchor="start" x="342" y="-215" font-family="Menlo, Monaco, Consolas, Lucida Console, Courier New, monospace" font-weight="bold" font-size="20.00" fill="#ffffff">blob</text>
<text text-anchor="start" x="379.81" y="-215" font-family="Menlo, Monaco, Consolas, Lucida Console, Courier New, monospace" font-size="20.00" fill="#ffffff"> &#160;&#160;fa49b test.rb &#160;&#160;&#160;&#160;&#160;&#160;&#160;</text>
</g>
<!-- commit&#45;&gt;root_tree -->
<g id="edge1" class="edge">
<title>commit&#45;&gt;root_tree</title>
<path fill="none" stroke="#8f8a83" stroke-width="2" d="M260,-282C280.28,-282 301.31,-282 321.8,-282"/>
<polygon fill="#8f8a83" stroke="#8f8a83" stroke-width="2" points="321.81,-285.5 331.81,-282 321.81,-278.5 321.81,-285.5"/>
</g>
<!-- readme_blob -->
<g id="node3" class="node">
<title>readme_blob</title>
<polygon fill="none" stroke="black" stroke-width="0" points="924,-564 664,-564 664,-400 924,-400 924,-564"/>
<polygon fill="#c8a036" stroke="transparent" points="664,-400 664,-564 924,-564 924,-400 664,-400"/>
<polygon fill="white" stroke="transparent" points="664,-522 664,-564 924,-564 924,-522 664,-522"/>
<polygon fill="none" stroke="white" points="664,-522 664,-564 924,-564 924,-522 664,-522"/>
<text text-anchor="start" x="766.19" y="-537" font-family="Menlo, Monaco, Consolas, Lucida Console, Courier New, monospace" font-size="20.00">5b1d3</text>
<polyline fill="none" stroke="white" points="664,-480 924,-480 "/>
<text text-anchor="start" x="748.98" y="-496" font-family="Menlo, Monaco, Consolas, Lucida Console, Courier New, monospace" font-weight="bold" text-decoration="underline" font-size="20.00" fill="#ffffff">blob</text>
<text text-anchor="start" x="786.79" y="-496" font-family="Menlo, Monaco, Consolas, Lucida Console, Courier New, monospace" font-size="20.00" fill="#ffffff"> &#160;&#160;size</text>
<text text-anchor="start" x="674" y="-459.8" font-family="Menlo, Monaco, Consolas, Lucida Console, Courier New, monospace" font-size="14.00" fill="#ffffff">## Testing library</text>
<text text-anchor="start" x="674" y="-431.8" font-family="Menlo, Monaco, Consolas, Lucida Console, Courier New, monospace" font-size="14.00" fill="#ffffff">This library is used to</text>
<text text-anchor="start" x="674" y="-413" font-family="Menlo, Monaco, Consolas, Lucida Console, Courier New, monospace" font-size="14.00" fill="#ffffff">test Ruby projects.</text>
<text text-anchor="start" x="789.94" y="-413" font-family="Menlo, Monaco, Consolas, Lucida Console, Courier New, monospace" font-size="20.00" fill="#ffffff"> &#160;&#160;&#160;&#160;&#160;&#160;&#160;</text>
</g>
<!-- root_tree&#45;&gt;readme_blob -->
<g id="edge2" class="edge">
<title>root_tree:ne&#45;&gt;readme_blob:sw</title>
<path fill="none" stroke="#8f8a83" stroke-width="2" d="M592,-322C623.08,-353.08 630.4,-364.69 657.96,-392.88"/>
<polygon fill="#8f8a83" stroke="#8f8a83" stroke-width="2" points="655.48,-395.35 665,-400 660.46,-390.43 655.48,-395.35"/>
</g>
<!-- license_blob -->
<g id="node4" class="node">
<title>license_blob</title>
<polygon fill="none" stroke="black" stroke-width="0" points="924,-364 664,-364 664,-200 924,-200 924,-364"/>
<polygon fill="#c8a036" stroke="transparent" points="664,-200 664,-364 924,-364 924,-200 664,-200"/>
<polygon fill="white" stroke="transparent" points="664,-322 664,-364 924,-364 924,-322 664,-322"/>
<polygon fill="none" stroke="white" points="664,-322 664,-364 924,-364 924,-322 664,-322"/>
<text text-anchor="start" x="766.93" y="-337" font-family="Menlo, Monaco, Consolas, Lucida Console, Courier New, monospace" font-size="20.00">911e7</text>
<polyline fill="none" stroke="white" points="664,-280 924,-280 "/>
<text text-anchor="start" x="748.98" y="-296" font-family="Menlo, Monaco, Consolas, Lucida Console, Courier New, monospace" font-weight="bold" text-decoration="underline" font-size="20.00" fill="#ffffff">blob</text>
<text text-anchor="start" x="786.79" y="-296" font-family="Menlo, Monaco, Consolas, Lucida Console, Courier New, monospace" font-size="20.00" fill="#ffffff"> &#160;&#160;size</text>
<text text-anchor="start" x="674" y="-259.8" font-family="Menlo, Monaco, Consolas, Lucida Console, Courier New, monospace" font-size="14.00" fill="#ffffff">The MIT License</text>
<text text-anchor="start" x="674" y="-227" font-family="Menlo, Monaco, Consolas, Lucida Console, Courier New, monospace" font-size="14.00" fill="#ffffff">Copyright (c) 2017 Scott</text>
<text text-anchor="start" x="824.96" y="-227" font-family="Menlo, Monaco, Consolas, Lucida Console, Courier New, monospace" font-size="20.00" fill="#ffffff"> &#160;&#160;&#160;&#160;&#160;&#160;&#160;</text>
</g>
<!-- root_tree&#45;&gt;license_blob -->
<g id="edge3" class="edge">
<title>root_tree:e&#45;&gt;license_blob</title>
<path fill="none" stroke="#8f8a83" stroke-width="2" d="M592,-282C611.94,-282 633,-282 653.68,-282"/>
<polygon fill="#8f8a83" stroke="#8f8a83" stroke-width="2" points="653.79,-285.5 663.79,-282 653.79,-278.5 653.79,-285.5"/>
</g>
<!-- testrb_blob -->
<g id="node5" class="node">
<title>testrb_blob</title>
<polygon fill="none" stroke="black" stroke-width="0" points="924,-164 664,-164 664,0 924,0 924,-164"/>
<polygon fill="#c8a036" stroke="transparent" points="664,0 664,-164 924,-164 924,0 664,0"/>
<polygon fill="white" stroke="transparent" points="664,-122 664,-164 924,-164 924,-122 664,-122"/>
<polygon fill="none" stroke="white" points="664,-122 664,-164 924,-164 924,-122 664,-122"/>
<text text-anchor="start" x="768.98" y="-137" font-family="Menlo, Monaco, Consolas, Lucida Console, Courier New, monospace" font-size="20.00">fa49b</text>
<polyline fill="none" stroke="white" points="664,-80 924,-80 "/>
<text text-anchor="start" x="748.98" y="-96" font-family="Menlo, Monaco, Consolas, Lucida Console, Courier New, monospace" font-weight="bold" text-decoration="underline" font-size="20.00" fill="#ffffff">blob</text>
<text text-anchor="start" x="786.79" y="-96" font-family="Menlo, Monaco, Consolas, Lucida Console, Courier New, monospace" font-size="20.00" fill="#ffffff"> &#160;&#160;size</text>
<text text-anchor="start" x="674" y="-59.8" font-family="Menlo, Monaco, Consolas, Lucida Console, Courier New, monospace" font-size="14.00" fill="#ffffff">require &#39;logger&#39;</text>
<text text-anchor="start" x="674" y="-45.8" font-family="Menlo, Monaco, Consolas, Lucida Console, Courier New, monospace" font-size="14.00" fill="#ffffff">require &#39;test/unit&#39;</text>
<text text-anchor="start" x="674" y="-13" font-family="Menlo, Monaco, Consolas, Lucida Console, Courier New, monospace" font-size="14.00" fill="#ffffff">class Test::Unit::TestCase</text>
<text text-anchor="start" x="834.03" y="-13" font-family="Menlo, Monaco, Consolas, Lucida Console, Courier New, monospace" font-size="20.00" fill="#ffffff"> &#160;&#160;&#160;&#160;&#160;&#160;&#160;</text>
</g>
<!-- root_tree&#45;&gt;testrb_blob -->
<g id="edge4" class="edge">
<title>root_tree:se&#45;&gt;testrb_blob:nw</title>
<path fill="none" stroke="#8f8a83" stroke-width="2" d="M592,-200C622.75,-169.25 629.64,-157.26 656.67,-129.44"/>
<polygon fill="#8f8a83" stroke="#8f8a83" stroke-width="2" points="659.47,-131.58 664,-122 654.49,-126.66 659.47,-131.58"/>
</g>
</g>
</svg>
