<?xml version="1.0" encoding="UTF-8" standalone="no"?>
<!DOCTYPE svg PUBLIC "-//W3C//DTD SVG 1.1//EN"
 "http://www.w3.org/Graphics/SVG/1.1/DTD/svg11.dtd">
<!-- Generated by graphviz version 2.43.0 (0)
 -->
<!-- Title: Git Pages: 1 -->
<svg width="1264pt" height="772pt"
 viewBox="0.00 0.00 1264.00 772.00" xmlns="http://www.w3.org/2000/svg" xmlns:xlink="http://www.w3.org/1999/xlink">
<g id="graph0" class="graph" transform="scale(1 1) rotate(0) translate(4 768)">
<title>Git</title>
<!-- commit -->
<g id="node1" class="node">
<title>commit</title>
<polygon fill="none" stroke="black" stroke-width="0" points="260,-364 0,-364 0,-200 260,-200 260,-364"/>
<polygon fill="#f0efe8" stroke="transparent" points="0,-200 0,-364 260,-364 260,-200 0,-200"/>
<polygon fill="white" stroke="transparent" points="0,-322 0,-364 260,-364 260,-322 0,-322"/>
<polygon fill="none" stroke="white" points="0,-322 0,-364 260,-364 260,-322 0,-322"/>
<text text-anchor="start" x="88.85" y="-337" font-family="Menlo, Monaco, Consolas, Lucida Console, Courier New, monospace" font-size="20.00">50fac0de</text>
<polyline fill="none" stroke="white" points="0,-280 260,-280 "/>
<text text-anchor="start" x="71.66" y="-296" font-family="Menlo, Monaco, Consolas, Lucida Console, Courier New, monospace" font-weight="bold" text-decoration="underline" font-size="20.00" fill="#000000">commit</text>
<text text-anchor="start" x="136.1" y="-296" font-family="Menlo, Monaco, Consolas, Lucida Console, Courier New, monospace" font-size="20.00" fill="#000000"> &#160;&#160;size</text>
<text text-anchor="start" x="62.73" y="-255" font-family="Menlo, Monaco, Consolas, Lucida Console, Courier New, monospace" font-weight="bold" font-size="20.00" fill="#000000"> &#160;&#160;&#160;tree</text>
<text text-anchor="start" x="119.42" y="-255" font-family="Menlo, Monaco, Consolas, Lucida Console, Courier New, monospace" font-size="20.00" fill="#000000"> &#160;&#160;&#160;05a2d</text>
<text text-anchor="start" x="64.97" y="-235" font-family="Menlo, Monaco, Consolas, Lucida Console, Courier New, monospace" font-size="20.00" fill="#000000"> &#160;</text>
<text text-anchor="start" x="76.08" y="-235" font-family="Menlo, Monaco, Consolas, Lucida Console, Courier New, monospace" font-weight="bold" font-size="20.00" fill="#000000">author</text>
<text text-anchor="start" x="132.79" y="-235" font-family="Menlo, Monaco, Consolas, Lucida Console, Courier New, monospace" font-size="20.00" fill="#000000"> &#160;&#160;Scott</text>
<text text-anchor="start" x="32.37" y="-215" font-family="Menlo, Monaco, Consolas, Lucida Console, Courier New, monospace" font-size="20.00" fill="#000000"> </text>
<text text-anchor="start" x="37.92" y="-215" font-family="Menlo, Monaco, Consolas, Lucida Console, Courier New, monospace" font-weight="bold" font-size="20.00" fill="#000000"> &#160;&#160;message</text>
<text text-anchor="start" x="135.75" y="-215" font-family="Menlo, Monaco, Consolas, Lucida Console, Courier New, monospace" font-size="20.00" fill="#000000"> &#160;&#160;💩 Fix…</text>
</g>
<!-- root_tree -->
<g id="node2" class="node">
<title>root_tree</title>
<polygon fill="none" stroke="black" stroke-width="0" points="592,-364 332,-364 332,-200 592,-200 592,-364"/>
<polygon fill="#3e8f99" stroke="transparent" points="332,-200 332,-364 592,-364 592,-200 332,-200"/>
<polygon fill="white" stroke="transparent" points="332,-322 332,-364 631,-364 631,-322 332,-322"/>
<polygon fill="none" stroke="white" points="332,-322 332,-364 631,-364 631,-322 332,-322"/>
<text text-anchor="start" x="453.69" y="-337" font-family="Menlo, Monaco, Consolas, Lucida Console, Courier New, monospace" font-size="20.00">05a2d</text>
<polyline fill="none" stroke="white" points="332,-280 631,-280 "/>
<text text-anchor="start" x="438.15" y="-296" font-family="Menlo, Monaco, Consolas, Lucida Console, Courier New, monospace" font-weight="bold" text-decoration="underline" font-size="20.00" fill="#ffffff">tree</text>
<text text-anchor="start" x="472.61" y="-296" font-family="Menlo, Monaco, Consolas, Lucida Console, Courier New, monospace" font-size="20.00" fill="#ffffff"> &#160;&#160;size</text>
<text text-anchor="start" x="342" y="-255" font-family="Menlo, Monaco, Consolas, Lucida Console, Courier New, monospace" font-weight="bold" font-size="20.00" fill="#ffffff">tree</text>
<text text-anchor="start" x="376.46" y="-255" font-family="Menlo, Monaco, Consolas, Lucida Console, Courier New, monospace" font-size="20.00" fill="#ffffff"> &#160;&#160;94cbf doc/</text>
<text text-anchor="start" x="342" y="-235" font-family="Menlo, Monaco, Consolas, Lucida Console, Courier New, monospace" font-weight="bold" font-size="20.00" fill="#ffffff">tree</text>
<text text-anchor="start" x="376.46" y="-235" font-family="Menlo, Monaco, Consolas, Lucida Console, Courier New, monospace" font-size="20.00" fill="#ffffff"> &#160;&#160;2734a lib/</text>
<text text-anchor="start" x="342" y="-215" font-family="Menlo, Monaco, Consolas, Lucida Console, Courier New, monospace" font-weight="bold" font-size="20.00" fill="#ffffff">blob</text>
<text text-anchor="start" x="379.81" y="-215" font-family="Menlo, Monaco, Consolas, Lucida Console, Courier New, monospace" font-size="20.00" fill="#ffffff"> &#160;&#160;5b1d3 README.md &#160;&#160;&#160;&#160;&#160;&#160;&#160;</text>
</g>
<!-- commit&#45;&gt;root_tree -->
<g id="edge1" class="edge">
<title>commit&#45;&gt;root_tree</title>
<path fill="none" stroke="#8f8a83" stroke-width="2" d="M260,-282C280.28,-282 301.31,-282 321.8,-282"/>
<polygon fill="#8f8a83" stroke="#8f8a83" stroke-width="2" points="321.81,-285.5 331.81,-282 321.81,-278.5 321.81,-285.5"/>
</g>
<!-- lib_tree -->
<g id="node3" class="node">
<title>lib_tree</title>
<polygon fill="none" stroke="black" stroke-width="0" points="924,-364 664,-364 664,-200 924,-200 924,-364"/>
<polygon fill="#3e8f99" stroke="transparent" points="664,-200 664,-364 924,-364 924,-200 664,-200"/>
<polygon fill="white" stroke="transparent" points="664,-322 664,-364 924,-364 924,-322 664,-322"/>
<polygon fill="none" stroke="white" points="664,-322 664,-364 924,-364 924,-322 664,-322"/>
<text text-anchor="start" x="766.19" y="-337" font-family="Menlo, Monaco, Consolas, Lucida Console, Courier New, monospace" font-size="20.00">2734a</text>
<polyline fill="none" stroke="white" points="664,-280 924,-280 "/>
<text text-anchor="start" x="750.65" y="-296" font-family="Menlo, Monaco, Consolas, Lucida Console, Courier New, monospace" font-weight="bold" text-decoration="underline" font-size="20.00" fill="#ffffff">tree</text>
<text text-anchor="start" x="785.11" y="-296" font-family="Menlo, Monaco, Consolas, Lucida Console, Courier New, monospace" font-size="20.00" fill="#ffffff"> &#160;&#160;size</text>
<text text-anchor="start" x="674" y="-255" font-family="Menlo, Monaco, Consolas, Lucida Console, Courier New, monospace" font-weight="bold" font-size="20.00" fill="#ffffff">blob</text>
<text text-anchor="start" x="711.81" y="-255" font-family="Menlo, Monaco, Consolas, Lucida Console, Courier New, monospace" font-size="20.00" fill="#ffffff"> &#160;&#160;fa49b test.rb &#160;&#160;&#160;&#160;&#160;&#160;&#160;</text>
</g>
<!-- root_tree&#45;&gt;lib_tree -->
<g id="edge3" class="edge">
<title>root_tree:e&#45;&gt;lib_tree</title>
<path fill="none" stroke="#8f8a83" stroke-width="2" d="M592,-282C611.94,-282 633,-282 653.68,-282"/>
<polygon fill="#8f8a83" stroke="#8f8a83" stroke-width="2" points="653.79,-285.5 663.79,-282 653.79,-278.5 653.79,-285.5"/>
</g>
<!-- doc_tree -->
<g id="node4" class="node">
<title>doc_tree</title>
<polygon fill="none" stroke="black" stroke-width="0" points="924,-564 664,-564 664,-400 924,-400 924,-564"/>
<polygon fill="#3e8f99" stroke="transparent" points="664,-400 664,-564 924,-564 924,-400 664,-400"/>
<polygon fill="white" stroke="transparent" points="664,-522 664,-564 928,-564 928,-522 664,-522"/>
<polygon fill="none" stroke="white" points="664,-522 664,-564 928,-564 928,-522 664,-522"/>
<text text-anchor="start" x="771.54" y="-537" font-family="Menlo, Monaco, Consolas, Lucida Console, Courier New, monospace" font-size="20.00">94cbf</text>
<polyline fill="none" stroke="white" points="664,-480 928,-480 "/>
<text text-anchor="start" x="752.65" y="-496" font-family="Menlo, Monaco, Consolas, Lucida Console, Courier New, monospace" font-weight="bold" text-decoration="underline" font-size="20.00" fill="#ffffff">tree</text>
<text text-anchor="start" x="787.11" y="-496" font-family="Menlo, Monaco, Consolas, Lucida Console, Courier New, monospace" font-size="20.00" fill="#ffffff"> &#160;&#160;size</text>
<text text-anchor="start" x="674" y="-455" font-family="Menlo, Monaco, Consolas, Lucida Console, Courier New, monospace" font-weight="bold" font-size="20.00" fill="#ffffff">blob</text>
<text text-anchor="start" x="711.81" y="-455" font-family="Menlo, Monaco, Consolas, Lucida Console, Courier New, monospace" font-size="20.00" fill="#ffffff"> &#160;&#160;df25f faq.md</text>
<text text-anchor="start" x="674" y="-435" font-family="Menlo, Monaco, Consolas, Lucida Console, Courier New, monospace" font-weight="bold" font-size="20.00" fill="#ffffff">blob</text>
<text text-anchor="start" x="711.81" y="-435" font-family="Menlo, Monaco, Consolas, Lucida Console, Courier New, monospace" font-size="20.00" fill="#ffffff"> &#160;&#160;911e7 LICENSE &#160;&#160;&#160;&#160;&#160;&#160;&#160;</text>
</g>
<!-- root_tree&#45;&gt;doc_tree -->
<g id="edge2" class="edge">
<title>root_tree:ne&#45;&gt;doc_tree:sw</title>
<path fill="none" stroke="#8f8a83" stroke-width="2" d="M592,-322C623.08,-353.08 630.4,-364.69 657.96,-392.88"/>
<polygon fill="#8f8a83" stroke="#8f8a83" stroke-width="2" points="655.48,-395.35 665,-400 660.46,-390.43 655.48,-395.35"/>
</g>
<!-- readme_blob -->
<g id="node5" class="node">
<title>readme_blob</title>
<polygon fill="none" stroke="black" stroke-width="0" points="924,-164 664,-164 664,0 924,0 924,-164"/>
<polygon fill="#c8a036" stroke="transparent" points="664,0 664,-164 924,-164 924,0 664,0"/>
<polygon fill="white" stroke="transparent" points="664,-122 664,-164 924,-164 924,-122 664,-122"/>
<polygon fill="none" stroke="white" points="664,-122 664,-164 924,-164 924,-122 664,-122"/>
<text text-anchor="start" x="766.19" y="-137" font-family="Menlo, Monaco, Consolas, Lucida Console, Courier New, monospace" font-size="20.00">5b1d3</text>
<polyline fill="none" stroke="white" points="664,-80 924,-80 "/>
<text text-anchor="start" x="748.98" y="-96" font-family="Menlo, Monaco, Consolas, Lucida Console, Courier New, monospace" font-weight="bold" text-decoration="underline" font-size="20.00" fill="#ffffff">blob</text>
<text text-anchor="start" x="786.79" y="-96" font-family="Menlo, Monaco, Consolas, Lucida Console, Courier New, monospace" font-size="20.00" fill="#ffffff"> &#160;&#160;size</text>
<text text-anchor="start" x="674" y="-59.8" font-family="Menlo, Monaco, Consolas, Lucida Console, Courier New, monospace" font-size="14.00" fill="#ffffff">## Testing library</text>
<text text-anchor="start" x="674" y="-31.8" font-family="Menlo, Monaco, Consolas, Lucida Console, Courier New, monospace" font-size="14.00" fill="#ffffff">This library is used to</text>
<text text-anchor="start" x="674" y="-13" font-family="Menlo, Monaco, Consolas, Lucida Console, Courier New, monospace" font-size="14.00" fill="#ffffff">test Ruby projects.</text>
<text text-anchor="start" x="789.94" y="-13" font-family="Menlo, Monaco, Consolas, Lucida Console, Courier New, monospace" font-size="20.00" fill="#ffffff"> &#160;&#160;&#160;&#160;&#160;&#160;&#160;</text>
</g>
<!-- root_tree&#45;&gt;readme_blob -->
<g id="edge4" class="edge">
<title>root_tree:se&#45;&gt;readme_blob:nw</title>
<path fill="none" stroke="#8f8a83" stroke-width="2" d="M592,-200C622.75,-169.25 629.64,-157.26 656.67,-129.44"/>
<polygon fill="#8f8a83" stroke="#8f8a83" stroke-width="2" points="659.47,-131.58 664,-122 654.49,-126.66 659.47,-131.58"/>
</g>
<!-- testrb_blob -->
<g id="node7" class="node">
<title>testrb_blob</title>
<polygon fill="none" stroke="black" stroke-width="0" points="1256,-364 996,-364 996,-200 1256,-200 1256,-364"/>
<polygon fill="#c8a036" stroke="transparent" points="996,-200 996,-364 1256,-364 1256,-200 996,-200"/>
<polygon fill="white" stroke="transparent" points="996,-322 996,-364 1256,-364 1256,-322 996,-322"/>
<polygon fill="none" stroke="white" points="996,-322 996,-364 1256,-364 1256,-322 996,-322"/>
<text text-anchor="start" x="1100.98" y="-337" font-family="Menlo, Monaco, Consolas, Lucida Console, Courier New, monospace" font-size="20.00">fa49b</text>
<polyline fill="none" stroke="white" points="996,-280 1256,-280 "/>
<text text-anchor="start" x="1080.98" y="-296" font-family="Menlo, Monaco, Consolas, Lucida Console, Courier New, monospace" font-weight="bold" text-decoration="underline" font-size="20.00" fill="#ffffff">blob</text>
<text text-anchor="start" x="1118.79" y="-296" font-family="Menlo, Monaco, Consolas, Lucida Console, Courier New, monospace" font-size="20.00" fill="#ffffff"> &#160;&#160;size</text>
<text text-anchor="start" x="1006" y="-259.8" font-family="Menlo, Monaco, Consolas, Lucida Console, Courier New, monospace" font-size="14.00" fill="#ffffff">require &#39;logger&#39;</text>
<text text-anchor="start" x="1006" y="-245.8" font-family="Menlo, Monaco, Consolas, Lucida Console, Courier New, monospace" font-size="14.00" fill="#ffffff">require &#39;test/unit&#39;</text>
<text text-anchor="start" x="1006" y="-213" font-family="Menlo, Monaco, Consolas, Lucida Console, Courier New, monospace" font-size="14.00" fill="#ffffff">class Test::Unit::TestCase</text>
<text text-anchor="start" x="1166.03" y="-213" font-family="Menlo, Monaco, Consolas, Lucida Console, Courier New, monospace" font-size="20.00" fill="#ffffff"> &#160;&#160;&#160;&#160;&#160;&#160;&#160;</text>
</g>
<!-- lib_tree&#45;&gt;testrb_blob -->
<g id="edge7" class="edge">
<title>lib_tree:e&#45;&gt;testrb_blob</title>
<path fill="none" stroke="#8f8a83" stroke-width="2" d="M924,-282C943.94,-282 965,-282 985.68,-282"/>
<polygon fill="#8f8a83" stroke="#8f8a83" stroke-width="2" points="985.79,-285.5 995.79,-282 985.79,-278.5 985.79,-285.5"/>
</g>
<!-- license_blob -->
<g id="node6" class="node">
<title>license_blob</title>
<polygon fill="none" stroke="black" stroke-width="0" points="1256,-564 996,-564 996,-400 1256,-400 1256,-564"/>
<polygon fill="#c8a036" stroke="transparent" points="996,-400 996,-564 1256,-564 1256,-400 996,-400"/>
<polygon fill="white" stroke="transparent" points="996,-522 996,-564 1256,-564 1256,-522 996,-522"/>
<polygon fill="none" stroke="white" points="996,-522 996,-564 1256,-564 1256,-522 996,-522"/>
<text text-anchor="start" x="1098.93" y="-537" font-family="Menlo, Monaco, Consolas, Lucida Console, Courier New, monospace" font-size="20.00">911e7</text>
<polyline fill="none" stroke="white" points="996,-480 1256,-480 "/>
<text text-anchor="start" x="1080.98" y="-496" font-family="Menlo, Monaco, Consolas, Lucida Console, Courier New, monospace" font-weight="bold" text-decoration="underline" font-size="20.00" fill="#ffffff">blob</text>
<text text-anchor="start" x="1118.79" y="-496" font-family="Menlo, Monaco, Consolas, Lucida Console, Courier New, monospace" font-size="20.00" fill="#ffffff"> &#160;&#160;size</text>
<text text-anchor="start" x="1006" y="-459.8" font-family="Menlo, Monaco, Consolas, Lucida Console, Courier New, monospace" font-size="14.00" fill="#ffffff">The MIT License</text>
<text text-anchor="start" x="1006" y="-427" font-family="Menlo, Monaco, Consolas, Lucida Console, Courier New, monospace" font-size="14.00" fill="#ffffff">Copyright (c) 2017 Scott</text>
<text text-anchor="start" x="1156.96" y="-427" font-family="Menlo, Monaco, Consolas, Lucida Console, Courier New, monospace" font-size="20.00" fill="#ffffff"> &#160;&#160;&#160;&#160;&#160;&#160;&#160;</text>
</g>
<!-- doc_tree&#45;&gt;license_blob -->
<g id="edge6" class="edge">
<title>doc_tree:e&#45;&gt;license_blob</title>
<path fill="none" stroke="#8f8a83" stroke-width="2" d="M924,-482C943.94,-482 965,-482 985.68,-482"/>
<polygon fill="#8f8a83" stroke="#8f8a83" stroke-width="2" points="985.79,-485.5 995.79,-482 985.79,-478.5 985.79,-485.5"/>
</g>
<!-- faq_blob -->
<g id="node8" class="node">
<title>faq_blob</title>
<polygon fill="none" stroke="black" stroke-width="0" points="1256,-764 996,-764 996,-600 1256,-600 1256,-764"/>
<polygon fill="#c8a036" stroke="transparent" points="996,-600 996,-764 1256,-764 1256,-600 996,-600"/>
<polygon fill="white" stroke="transparent" points="996,-722 996,-764 1256,-764 1256,-722 996,-722"/>
<polygon fill="none" stroke="white" points="996,-722 996,-764 1256,-764 1256,-722 996,-722"/>
<text text-anchor="start" x="1103.76" y="-737" font-family="Menlo, Monaco, Consolas, Lucida Console, Courier New, monospace" font-size="20.00">df25f</text>
<polyline fill="none" stroke="white" points="996,-680 1256,-680 "/>
<text text-anchor="start" x="1080.98" y="-696" font-family="Menlo, Monaco, Consolas, Lucida Console, Courier New, monospace" font-weight="bold" text-decoration="underline" font-size="20.00" fill="#ffffff">blob</text>
<text text-anchor="start" x="1118.79" y="-696" font-family="Menlo, Monaco, Consolas, Lucida Console, Courier New, monospace" font-size="20.00" fill="#ffffff"> &#160;&#160;size</text>
<text text-anchor="start" x="1006" y="-659.8" font-family="Menlo, Monaco, Consolas, Lucida Console, Courier New, monospace" font-size="14.00" fill="#ffffff"># FAQ</text>
<text text-anchor="start" x="1006" y="-627" font-family="Menlo, Monaco, Consolas, Lucida Console, Courier New, monospace" font-size="14.00" fill="#ffffff">## Installation</text>
<text text-anchor="start" x="1092.39" y="-627" font-family="Menlo, Monaco, Consolas, Lucida Console, Courier New, monospace" font-size="20.00" fill="#ffffff"> &#160;&#160;&#160;&#160;&#160;&#160;&#160;</text>
</g>
<!-- doc_tree&#45;&gt;faq_blob -->
<g id="edge5" class="edge">
<title>doc_tree:ne&#45;&gt;faq_blob:sw</title>
<path fill="none" stroke="#8f8a83" stroke-width="2" d="M924,-522C955.08,-553.08 962.4,-564.69 989.96,-592.88"/>
<polygon fill="#8f8a83" stroke="#8f8a83" stroke-width="2" points="987.48,-595.35 997,-600 992.46,-590.43 987.48,-595.35"/>
</g>
</g>
</svg>
