<?xml version="1.0" encoding="UTF-8" standalone="no"?>
<!DOCTYPE svg PUBLIC "-//W3C//DTD SVG 1.1//EN"
 "http://www.w3.org/Graphics/SVG/1.1/DTD/svg11.dtd">
<!-- Generated by graphviz version 2.47.2 (20210527.0053)
 -->
<!-- Title: Git Pages: 1 -->
<svg width="932pt" height="572pt"
 viewBox="0.00 0.00 932.00 572.00" xmlns="http://www.w3.org/2000/svg" xmlns:xlink="http://www.w3.org/1999/xlink">
<g id="graph0" class="graph" transform="scale(1 1) rotate(0) translate(4 568)">
<title>Git</title>
<!-- commit -->
<g id="node1" class="node">
<title>commit</title>
<polygon fill="none" stroke="black" stroke-width="0" points="260,-374 0,-374 0,-190 260,-190 260,-374"/>
<polygon fill="#f0efe8" stroke="transparent" points="0,-190 0,-374 260,-374 260,-190 0,-190"/>
<polygon fill="white" stroke="transparent" points="0,-330 0,-374 262,-374 262,-330 0,-330"/>
<polygon fill="none" stroke="white" points="0,-330 0,-374 262,-374 262,-330 0,-330"/>
<text text-anchor="start" x="82.5" y="-347" font-family="Menlo, Monaco, Consolas, Lucida Console, Courier New, monospace" font-size="20.00">50fac0de</text>
<polyline fill="none" stroke="white" points="0,-286 262,-286 "/>
<text text-anchor="start" x="52" y="-304" font-family="Menlo, Monaco, Consolas, Lucida Console, Courier New, monospace" font-weight="bold" text-decoration="underline" font-size="20.00" fill="#000000">commit</text>
<text text-anchor="start" x="125" y="-304" font-family="Menlo, Monaco, Consolas, Lucida Console, Courier New, monospace" font-size="20.00" fill="#000000"> &#160;&#160;size</text>
<text text-anchor="start" x="10" y="-261" font-family="Menlo, Monaco, Consolas, Lucida Console, Courier New, monospace" font-weight="bold" font-size="20.00" fill="#000000">tree</text>
<text text-anchor="start" x="59" y="-261" font-family="Menlo, Monaco, Consolas, Lucida Console, Courier New, monospace" font-size="20.00" fill="#000000"> &#160;&#160;&#160;&#160;&#160;05a2d</text>
<text text-anchor="start" x="10" y="-241" font-family="Menlo, Monaco, Consolas, Lucida Console, Courier New, monospace" font-weight="bold" font-size="20.00" fill="#000000">author</text>
<text text-anchor="start" x="83" y="-241" font-family="Menlo, Monaco, Consolas, Lucida Console, Courier New, monospace" font-size="20.00" fill="#000000"> &#160;&#160;&#160;Scott</text>
<text text-anchor="start" x="10" y="-221" font-family="Menlo, Monaco, Consolas, Lucida Console, Courier New, monospace" font-weight="bold" font-size="20.00" fill="#000000">date </text>
<text text-anchor="start" x="71" y="-221" font-family="Menlo, Monaco, Consolas, Lucida Console, Courier New, monospace" font-size="20.00" fill="#000000"> &#160;&#160;&#160;&#160;2007&#45;01&#45;23</text>
<text text-anchor="start" x="10" y="-201" font-family="Menlo, Monaco, Consolas, Lucida Console, Courier New, monospace" font-weight="bold" font-size="20.00" fill="#000000">message &#160;</text>
<text text-anchor="start" x="119" y="-201" font-family="Menlo, Monaco, Consolas, Lucida Console, Courier New, monospace" font-size="20.00" fill="#000000"> 💩 Fix…</text>
</g>
<!-- root_tree -->
<g id="node2" class="node">
<title>root_tree</title>
<polygon fill="none" stroke="black" stroke-width="0" points="592,-364 332,-364 332,-200 592,-200 592,-364"/>
<polygon fill="#3e8f99" stroke="transparent" points="332,-200 332,-364 592,-364 592,-200 332,-200"/>
<polygon fill="white" stroke="transparent" points="332,-320 332,-364 606,-364 606,-320 332,-320"/>
<polygon fill="none" stroke="white" points="332,-320 332,-364 606,-364 606,-320 332,-320"/>
<text text-anchor="start" x="438.5" y="-337" font-family="Menlo, Monaco, Consolas, Lucida Console, Courier New, monospace" font-size="20.00">05a2d</text>
<polyline fill="none" stroke="white" points="332,-276 606,-276 "/>
<text text-anchor="start" x="402" y="-294" font-family="Menlo, Monaco, Consolas, Lucida Console, Courier New, monospace" font-weight="bold" text-decoration="underline" font-size="20.00" fill="#ffffff">tree</text>
<text text-anchor="start" x="451" y="-294" font-family="Menlo, Monaco, Consolas, Lucida Console, Courier New, monospace" font-size="20.00" fill="#ffffff"> &#160;&#160;size</text>
<text text-anchor="start" x="342" y="-251" font-family="Menlo, Monaco, Consolas, Lucida Console, Courier New, monospace" font-weight="bold" font-size="20.00" fill="#ffffff">blob</text>
<text text-anchor="start" x="391" y="-251" font-family="Menlo, Monaco, Consolas, Lucida Console, Courier New, monospace" font-size="20.00" fill="#ffffff"> &#160;5b1d3 README.md</text>
<text text-anchor="start" x="342" y="-231" font-family="Menlo, Monaco, Consolas, Lucida Console, Courier New, monospace" font-weight="bold" font-size="20.00" fill="#ffffff">blob</text>
<text text-anchor="start" x="391" y="-231" font-family="Menlo, Monaco, Consolas, Lucida Console, Courier New, monospace" font-size="20.00" fill="#ffffff"> &#160;911e7 LICENSE</text>
<text text-anchor="start" x="342" y="-211" font-family="Menlo, Monaco, Consolas, Lucida Console, Courier New, monospace" font-weight="bold" font-size="20.00" fill="#ffffff">blob</text>
<text text-anchor="start" x="391" y="-211" font-family="Menlo, Monaco, Consolas, Lucida Console, Courier New, monospace" font-size="20.00" fill="#ffffff"> &#160;fa49b test.rb</text>
</g>
<!-- commit&#45;&gt;root_tree -->
<g id="edge1" class="edge">
<title>commit&#45;&gt;root_tree</title>
<path fill="none" stroke="#8f8a83" stroke-width="2" d="M260,-282C280.28,-282 301.31,-282 321.8,-282"/>
<polygon fill="#8f8a83" stroke="#8f8a83" stroke-width="2" points="321.81,-285.5 331.81,-282 321.81,-278.5 321.81,-285.5"/>
</g>
<!-- readme_blob -->
<g id="node3" class="node">
<title>readme_blob</title>
<polygon fill="none" stroke="black" stroke-width="0" points="924,-564 664,-564 664,-400 924,-400 924,-564"/>
<polygon fill="#c8a036" stroke="transparent" points="664,-400 664,-564 924,-564 924,-400 664,-400"/>
<polygon fill="white" stroke="transparent" points="664,-520 664,-564 924,-564 924,-520 664,-520"/>
<polygon fill="none" stroke="white" points="664,-520 664,-564 924,-564 924,-520 664,-520"/>
<text text-anchor="start" x="763.5" y="-537" font-family="Menlo, Monaco, Consolas, Lucida Console, Courier New, monospace" font-size="20.00">5b1d3</text>
<polyline fill="none" stroke="white" points="664,-476 924,-476 "/>
<text text-anchor="start" x="727" y="-494" font-family="Menlo, Monaco, Consolas, Lucida Console, Courier New, monospace" font-weight="bold" text-decoration="underline" font-size="20.00" fill="#ffffff">blob</text>
<text text-anchor="start" x="776" y="-494" font-family="Menlo, Monaco, Consolas, Lucida Console, Courier New, monospace" font-size="20.00" fill="#ffffff"> &#160;&#160;size</text>
<text text-anchor="start" x="674" y="-454.8" font-family="Menlo, Monaco, Consolas, Lucida Console, Courier New, monospace" font-size="14.00" fill="#ffffff">## Testing library</text>
<text text-anchor="start" x="674" y="-423" font-family="Menlo, Monaco, Consolas, Lucida Console, Courier New, monospace" font-size="14.00" fill="#ffffff">This library is used to</text>
<text text-anchor="start" x="674" y="-408" font-family="Menlo, Monaco, Consolas, Lucida Console, Courier New, monospace" font-size="14.00" fill="#ffffff">test Ruby projects.</text>
</g>
<!-- root_tree&#45;&gt;readme_blob -->
<g id="edge2" class="edge">
<title>root_tree:ne&#45;&gt;readme_blob:sw</title>
<path fill="none" stroke="#8f8a83" stroke-width="2" d="M592,-320C623.51,-351.51 630.07,-364.07 657.88,-392.77"/>
<polygon fill="#8f8a83" stroke="#8f8a83" stroke-width="2" points="655.49,-395.33 665,-400 660.48,-390.42 655.49,-395.33"/>
</g>
<!-- license_blob -->
<g id="node4" class="node">
<title>license_blob</title>
<polygon fill="none" stroke="black" stroke-width="0" points="924,-364 664,-364 664,-200 924,-200 924,-364"/>
<polygon fill="#c8a036" stroke="transparent" points="664,-200 664,-364 924,-364 924,-200 664,-200"/>
<polygon fill="white" stroke="transparent" points="664,-320 664,-364 924,-364 924,-320 664,-320"/>
<polygon fill="none" stroke="white" points="664,-320 664,-364 924,-364 924,-320 664,-320"/>
<text text-anchor="start" x="763.5" y="-337" font-family="Menlo, Monaco, Consolas, Lucida Console, Courier New, monospace" font-size="20.00">911e7</text>
<polyline fill="none" stroke="white" points="664,-276 924,-276 "/>
<text text-anchor="start" x="727" y="-294" font-family="Menlo, Monaco, Consolas, Lucida Console, Courier New, monospace" font-weight="bold" text-decoration="underline" font-size="20.00" fill="#ffffff">blob</text>
<text text-anchor="start" x="776" y="-294" font-family="Menlo, Monaco, Consolas, Lucida Console, Courier New, monospace" font-size="20.00" fill="#ffffff"> &#160;&#160;size</text>
<text text-anchor="start" x="674" y="-254.8" font-family="Menlo, Monaco, Consolas, Lucida Console, Courier New, monospace" font-size="14.00" fill="#ffffff">The MIT License</text>
<text text-anchor="start" x="674" y="-223" font-family="Menlo, Monaco, Consolas, Lucida Console, Courier New, monospace" font-size="14.00" fill="#ffffff">Copyright (c) 2017 Scott</text>
</g>
<!-- root_tree&#45;&gt;license_blob -->
<g id="edge3" class="edge">
<title>root_tree:e&#45;&gt;license_blob</title>
<path fill="none" stroke="#8f8a83" stroke-width="2" d="M592,-282C611.94,-282 633,-282 653.68,-282"/>
<polygon fill="#8f8a83" stroke="#8f8a83" stroke-width="2" points="653.79,-285.5 663.79,-282 653.79,-278.5 653.79,-285.5"/>
</g>
<!-- testrb_blob -->
<g id="node5" class="node">
<title>testrb_blob</title>
<polygon fill="none" stroke="black" stroke-width="0" points="924,-164 664,-164 664,0 924,0 924,-164"/>
<polygon fill="#c8a036" stroke="transparent" points="664,0 664,-164 924,-164 924,0 664,0"/>
<polygon fill="white" stroke="transparent" points="664,-120 664,-164 924,-164 924,-120 664,-120"/>
<polygon fill="none" stroke="white" points="664,-120 664,-164 924,-164 924,-120 664,-120"/>
<text text-anchor="start" x="763.5" y="-137" font-family="Menlo, Monaco, Consolas, Lucida Console, Courier New, monospace" font-size="20.00">fa49b</text>
<polyline fill="none" stroke="white" points="664,-76 924,-76 "/>
<text text-anchor="start" x="727" y="-94" font-family="Menlo, Monaco, Consolas, Lucida Console, Courier New, monospace" font-weight="bold" text-decoration="underline" font-size="20.00" fill="#ffffff">blob</text>
<text text-anchor="start" x="776" y="-94" font-family="Menlo, Monaco, Consolas, Lucida Console, Courier New, monospace" font-size="20.00" fill="#ffffff"> &#160;&#160;size</text>
<text text-anchor="start" x="674" y="-54.8" font-family="Menlo, Monaco, Consolas, Lucida Console, Courier New, monospace" font-size="14.00" fill="#ffffff">require &#39;logger&#39;</text>
<text text-anchor="start" x="674" y="-39.8" font-family="Menlo, Monaco, Consolas, Lucida Console, Courier New, monospace" font-size="14.00" fill="#ffffff">require &#39;test/unit&#39;</text>
<text text-anchor="start" x="674" y="-8" font-family="Menlo, Monaco, Consolas, Lucida Console, Courier New, monospace" font-size="14.00" fill="#ffffff">class Test::Unit::TestCase</text>
</g>
<!-- root_tree&#45;&gt;testrb_blob -->
<g id="edge4" class="edge">
<title>root_tree:se&#45;&gt;testrb_blob:nw</title>
<path fill="none" stroke="#8f8a83" stroke-width="2" d="M592,-196C622.33,-165.67 629.97,-154.63 656.75,-127.32"/>
<polygon fill="#8f8a83" stroke="#8f8a83" stroke-width="2" points="659.45,-129.57 664,-120 654.48,-124.64 659.45,-129.57"/>
</g>
</g>
</svg>
