<?xml version="1.0" encoding="UTF-8" standalone="no"?>
<!DOCTYPE svg PUBLIC "-//W3C//DTD SVG 1.1//EN"
 "http://www.w3.org/Graphics/SVG/1.1/DTD/svg11.dtd">
<!-- Generated by graphviz version 2.43.0 (0)
 -->
<!-- Title: Git Pages: 1 -->
<svg width="932pt" height="192pt"
 viewBox="0.00 0.00 932.00 192.00" xmlns="http://www.w3.org/2000/svg" xmlns:xlink="http://www.w3.org/1999/xlink">
<g id="graph0" class="graph" transform="scale(1 1) rotate(0) translate(4 188)">
<title>Git</title>
<!-- commit -->
<g id="node1" class="node">
<title>commit</title>
<polygon fill="none" stroke="black" stroke-width="0" points="260,-184 0,-184 0,0 260,0 260,-184"/>
<polygon fill="#f0efe8" stroke="transparent" points="0,0 0,-184 260,-184 260,0 0,0"/>
<polygon fill="white" stroke="transparent" points="0,-142 0,-184 260,-184 260,-142 0,-142"/>
<polygon fill="none" stroke="white" points="0,-142 0,-184 260,-184 260,-142 0,-142"/>
<text text-anchor="start" x="85.51" y="-157" font-family="Menlo, Monaco, Consolas, Lucida Console, Courier New, monospace" font-size="20.00">b160ba26</text>
<polyline fill="none" stroke="white" points="0,-100 260,-100 "/>
<text text-anchor="start" x="71.66" y="-116" font-family="Menlo, Monaco, Consolas, Lucida Console, Courier New, monospace" font-weight="bold" text-decoration="underline" font-size="20.00" fill="#000000">commit</text>
<text text-anchor="start" x="136.1" y="-116" font-family="Menlo, Monaco, Consolas, Lucida Console, Courier New, monospace" font-size="20.00" fill="#000000"> &#160;&#160;size</text>
<text text-anchor="start" x="10" y="-75" font-family="Menlo, Monaco, Consolas, Lucida Console, Courier New, monospace" font-weight="bold" font-size="20.00" fill="#000000">tree</text>
<text text-anchor="start" x="44.46" y="-75" font-family="Menlo, Monaco, Consolas, Lucida Console, Courier New, monospace" font-size="20.00" fill="#000000"> &#160;&#160;&#160;&#160;&#160;82ad2</text>
<text text-anchor="start" x="10" y="-55" font-family="Menlo, Monaco, Consolas, Lucida Console, Courier New, monospace" font-weight="bold" font-size="20.00" fill="#000000">author</text>
<text text-anchor="start" x="66.71" y="-55" font-family="Menlo, Monaco, Consolas, Lucida Console, Courier New, monospace" font-size="20.00" fill="#000000"> &#160;&#160;&#160;Alex</text>
<text text-anchor="start" x="10" y="-35" font-family="Menlo, Monaco, Consolas, Lucida Console, Courier New, monospace" font-weight="bold" font-size="20.00" fill="#000000">date </text>
<text text-anchor="start" x="54.48" y="-35" font-family="Menlo, Monaco, Consolas, Lucida Console, Courier New, monospace" font-size="20.00" fill="#000000"> &#160;&#160;&#160;&#160;2020&#45;02&#45;27</text>
<text text-anchor="start" x="10" y="-15" font-family="Menlo, Monaco, Consolas, Lucida Console, Courier New, monospace" font-weight="bold" font-size="20.00" fill="#000000">message &#160;</text>
<text text-anchor="start" x="102.27" y="-15" font-family="Menlo, Monaco, Consolas, Lucida Console, Courier New, monospace" font-size="20.00" fill="#000000"> my first…</text>
</g>
<!-- root_tree -->
<g id="node2" class="node">
<title>root_tree</title>
<polygon fill="none" stroke="black" stroke-width="0" points="592,-174 332,-174 332,-10 592,-10 592,-174"/>
<polygon fill="#3e8f99" stroke="transparent" points="332,-10 332,-174 592,-174 592,-10 332,-10"/>
<polygon fill="white" stroke="transparent" points="332,-132 332,-174 592,-174 592,-132 332,-132"/>
<polygon fill="none" stroke="white" points="332,-132 332,-174 592,-174 592,-132 332,-132"/>
<text text-anchor="start" x="434.19" y="-147" font-family="Menlo, Monaco, Consolas, Lucida Console, Courier New, monospace" font-size="20.00">82ad2</text>
<polyline fill="none" stroke="white" points="332,-90 592,-90 "/>
<text text-anchor="start" x="418.65" y="-106" font-family="Menlo, Monaco, Consolas, Lucida Console, Courier New, monospace" font-weight="bold" text-decoration="underline" font-size="20.00" fill="#ffffff">tree</text>
<text text-anchor="start" x="453.11" y="-106" font-family="Menlo, Monaco, Consolas, Lucida Console, Courier New, monospace" font-size="20.00" fill="#ffffff"> &#160;&#160;size</text>
<text text-anchor="start" x="342" y="-65" font-family="Menlo, Monaco, Consolas, Lucida Console, Courier New, monospace" font-weight="bold" font-size="20.00" fill="#ffffff">blob</text>
<text text-anchor="start" x="379.81" y="-65" font-family="Menlo, Monaco, Consolas, Lucida Console, Courier New, monospace" font-size="20.00" fill="#ffffff"> &#160;&#160;4b5fa hello.txt &#160;&#160;&#160;&#160;&#160;&#160;&#160;</text>
</g>
<!-- commit&#45;&gt;root_tree -->
<g id="edge1" class="edge">
<title>commit&#45;&gt;root_tree</title>
<path fill="none" stroke="#8f8a83" stroke-width="2" d="M260,-92C280.28,-92 301.31,-92 321.8,-92"/>
<polygon fill="#8f8a83" stroke="#8f8a83" stroke-width="2" points="321.81,-95.5 331.81,-92 321.81,-88.5 321.81,-95.5"/>
</g>
<!-- hello_blob -->
<g id="node3" class="node">
<title>hello_blob</title>
<polygon fill="none" stroke="black" stroke-width="0" points="924,-174 664,-174 664,-10 924,-10 924,-174"/>
<polygon fill="#c8a036" stroke="transparent" points="664,-10 664,-174 924,-174 924,-10 664,-10"/>
<polygon fill="white" stroke="transparent" points="664,-132 664,-174 924,-174 924,-132 664,-132"/>
<polygon fill="none" stroke="white" points="664,-132 664,-174 924,-174 924,-132 664,-132"/>
<text text-anchor="start" x="768.98" y="-147" font-family="Menlo, Monaco, Consolas, Lucida Console, Courier New, monospace" font-size="20.00">4b5fa</text>
<polyline fill="none" stroke="white" points="664,-90 924,-90 "/>
<text text-anchor="start" x="748.98" y="-106" font-family="Menlo, Monaco, Consolas, Lucida Console, Courier New, monospace" font-weight="bold" text-decoration="underline" font-size="20.00" fill="#ffffff">blob</text>
<text text-anchor="start" x="786.79" y="-106" font-family="Menlo, Monaco, Consolas, Lucida Console, Courier New, monospace" font-size="20.00" fill="#ffffff"> &#160;&#160;size</text>
<text text-anchor="start" x="674" y="-64" font-family="Menlo, Monaco, Consolas, Lucida Console, Courier New, monospace" font-size="20.00" fill="#ffffff">hello, world &#160;&#160;&#160;&#160;&#160;&#160;&#160;</text>
</g>
<!-- root_tree&#45;&gt;hello_blob -->
<g id="edge2" class="edge">
<title>root_tree&#45;&gt;hello_blob</title>
<path fill="none" stroke="#8f8a83" stroke-width="2" d="M592,-92C612.28,-92 633.31,-92 653.8,-92"/>
<polygon fill="#8f8a83" stroke="#8f8a83" stroke-width="2" points="653.81,-95.5 663.81,-92 653.81,-88.5 653.81,-95.5"/>
</g>
</g>
</svg>
