<?xml version="1.0" encoding="UTF-8" standalone="no"?>
<!DOCTYPE svg PUBLIC "-//W3C//DTD SVG 1.1//EN"
 "http://www.w3.org/Graphics/SVG/1.1/DTD/svg11.dtd">
<!-- Generated by graphviz version 2.40.1 (20161225.0304)
 -->
<!-- Title: Git Pages: 1 -->
<svg width="932pt" height="572pt"
 viewBox="0.00 0.00 932.00 572.00" xmlns="http://www.w3.org/2000/svg" xmlns:xlink="http://www.w3.org/1999/xlink">
<g id="graph0" class="graph" transform="scale(1 1) rotate(0) translate(4 568)">
<title>Git</title>
<!-- commit -->
<g id="node1" class="node">
<title>commit</title>
<polygon fill="none" stroke="#000000" stroke-width="0" points="260,-364 0,-364 0,-200 260,-200 260,-364"/>
<polygon fill="#f0efe8" stroke="transparent" points="0,-200 0,-364 260,-364 260,-200 0,-200"/>
<polygon fill="#ffffff" stroke="transparent" points="0,-322 0,-364 260,-364 260,-322 0,-322"/>
<polygon fill="none" stroke="#ffffff" points="0,-322 0,-364 260,-364 260,-322 0,-322"/>
<text text-anchor="start" x="106.6602" y="-337" font-family="Menlo, Consolas, Courier New, monospace" font-size="20.00" fill="#000000">caccf</text>
<polyline fill="none" stroke="#ffffff" points="0,-280 260,-280 "/>
<text text-anchor="start" x="71.6602" y="-296" font-family="Menlo, Consolas, Courier New, monospace" font-weight="bold" text-decoration="underline" font-size="20.00" fill="#000000">commit</text>
<text text-anchor="start" x="136.1035" y="-296" font-family="Menlo, Consolas, Courier New, monospace" font-size="20.00" fill="#000000"> &#160;&#160;size</text>
<text text-anchor="start" x="62.7344" y="-255" font-family="Menlo, Consolas, Courier New, monospace" font-weight="bold" font-size="20.00" fill="#000000"> &#160;&#160;&#160;tree</text>
<text text-anchor="start" x="119.4238" y="-255" font-family="Menlo, Consolas, Courier New, monospace" font-size="20.00" fill="#000000"> &#160;&#160;&#160;05a2d</text>
<text text-anchor="start" x="64.9658" y="-235" font-family="Menlo, Consolas, Courier New, monospace" font-size="20.00" fill="#000000"> &#160;</text>
<text text-anchor="start" x="76.0791" y="-235" font-family="Menlo, Consolas, Courier New, monospace" font-weight="bold" font-size="20.00" fill="#000000">author</text>
<text text-anchor="start" x="132.7881" y="-235" font-family="Menlo, Consolas, Courier New, monospace" font-size="20.00" fill="#000000"> &#160;&#160;Scott</text>
<text text-anchor="start" x="32.3672" y="-215" font-family="Menlo, Consolas, Courier New, monospace" font-size="20.00" fill="#000000"> </text>
<text text-anchor="start" x="37.9238" y="-215" font-family="Menlo, Consolas, Courier New, monospace" font-weight="bold" font-size="20.00" fill="#000000"> &#160;&#160;message</text>
<text text-anchor="start" x="135.7461" y="-215" font-family="Menlo, Consolas, Courier New, monospace" font-size="20.00" fill="#000000"> &#160;&#160;💩 Fix…</text>
</g>
<!-- tree -->
<g id="node2" class="node">
<title>tree</title>
<polygon fill="none" stroke="#000000" stroke-width="0" points="592,-364 332,-364 332,-200 592,-200 592,-364"/>
<polygon fill="#3e8f99" stroke="transparent" points="332,-200 332,-364 592,-364 592,-200 332,-200"/>
<polygon fill="#ffffff" stroke="transparent" points="332,-322 332,-364 592,-364 592,-322 332,-322"/>
<polygon fill="none" stroke="#ffffff" points="332,-322 332,-364 592,-364 592,-322 332,-322"/>
<text text-anchor="start" x="434.1924" y="-337" font-family="Menlo, Consolas, Courier New, monospace" font-size="20.00" fill="#000000">05a2d</text>
<polyline fill="none" stroke="#ffffff" points="332,-280 592,-280 "/>
<text text-anchor="start" x="418.6504" y="-296" font-family="Menlo, Consolas, Courier New, monospace" font-weight="bold" text-decoration="underline" font-size="20.00" fill="#ffffff">tree</text>
<text text-anchor="start" x="453.1133" y="-296" font-family="Menlo, Consolas, Courier New, monospace" font-size="20.00" fill="#ffffff"> &#160;&#160;size</text>
<text text-anchor="start" x="342" y="-255" font-family="Menlo, Consolas, Courier New, monospace" font-weight="bold" font-size="20.00" fill="#ffffff">blob</text>
<text text-anchor="start" x="379.8125" y="-255" font-family="Menlo, Consolas, Courier New, monospace" font-size="20.00" fill="#ffffff"> &#160;&#160;5b1d3 README.md</text>
<text text-anchor="start" x="342" y="-235" font-family="Menlo, Consolas, Courier New, monospace" font-weight="bold" font-size="20.00" fill="#ffffff">blob</text>
<text text-anchor="start" x="379.8125" y="-235" font-family="Menlo, Consolas, Courier New, monospace" font-size="20.00" fill="#ffffff"> &#160;&#160;911e7 LICENSE</text>
<text text-anchor="start" x="342" y="-215" font-family="Menlo, Consolas, Courier New, monospace" font-weight="bold" font-size="20.00" fill="#ffffff">blob</text>
<text text-anchor="start" x="379.8125" y="-215" font-family="Menlo, Consolas, Courier New, monospace" font-size="20.00" fill="#ffffff"> &#160;&#160;fa49b test.rb &#160;&#160;&#160;&#160;&#160;&#160;&#160;</text>
</g>
<!-- commit&#45;&gt;tree -->
<g id="edge1" class="edge">
<title>commit&#45;&gt;tree</title>
<path fill="none" stroke="#8f8a83" stroke-width="2" d="M260.2623,-282C280.3876,-282 301.2485,-282 321.5846,-282"/>
<polygon fill="#8f8a83" stroke="#8f8a83" stroke-width="2" points="321.841,-285.5001 331.8409,-282 321.8409,-278.5001 321.841,-285.5001"/>
</g>
<!-- blob1 -->
<g id="node3" class="node">
<title>blob1</title>
<polygon fill="none" stroke="#000000" stroke-width="0" points="924,-564 664,-564 664,-400 924,-400 924,-564"/>
<polygon fill="#c8a036" stroke="transparent" points="664,-400 664,-564 924,-564 924,-400 664,-400"/>
<polygon fill="#ffffff" stroke="transparent" points="664,-522 664,-564 924,-564 924,-522 664,-522"/>
<polygon fill="none" stroke="#ffffff" points="664,-522 664,-564 924,-564 924,-522 664,-522"/>
<text text-anchor="start" x="766.1924" y="-537" font-family="Menlo, Consolas, Courier New, monospace" font-size="20.00" fill="#000000">5b1d3</text>
<polyline fill="none" stroke="#ffffff" points="664,-480 924,-480 "/>
<text text-anchor="start" x="748.9756" y="-496" font-family="Menlo, Consolas, Courier New, monospace" font-weight="bold" text-decoration="underline" font-size="20.00" fill="#ffffff">blob</text>
<text text-anchor="start" x="786.7881" y="-496" font-family="Menlo, Consolas, Courier New, monospace" font-size="20.00" fill="#ffffff"> &#160;&#160;size</text>
<text text-anchor="start" x="674" y="-459.8" font-family="Menlo, Consolas, Courier New, monospace" font-size="14.00" fill="#ffffff">## Testing library</text>
<text text-anchor="start" x="674" y="-431.8" font-family="Menlo, Consolas, Courier New, monospace" font-size="14.00" fill="#ffffff">This library is used to</text>
<text text-anchor="start" x="674" y="-413" font-family="Menlo, Consolas, Courier New, monospace" font-size="14.00" fill="#ffffff">test Ruby projects.</text>
<text text-anchor="start" x="789.9375" y="-413" font-family="Menlo, Consolas, Courier New, monospace" font-size="20.00" fill="#ffffff"> &#160;&#160;&#160;&#160;&#160;&#160;&#160;</text>
</g>
<!-- tree&#45;&gt;blob1 -->
<g id="edge2" class="edge">
<title>tree:ne&#45;&gt;blob1:sw</title>
<path fill="none" stroke="#8f8a83" stroke-width="2" d="M592,-322C622.7537,-352.7537 629.6436,-364.7427 656.6686,-392.5645"/>
<polygon fill="#8f8a83" stroke="#8f8a83" stroke-width="2" points="654.4867,-395.3366 664,-400 659.4712,-390.4218 654.4867,-395.3366"/>
</g>
<!-- blob2 -->
<g id="node4" class="node">
<title>blob2</title>
<polygon fill="none" stroke="#000000" stroke-width="0" points="924,-364 664,-364 664,-200 924,-200 924,-364"/>
<polygon fill="#c8a036" stroke="transparent" points="664,-200 664,-364 924,-364 924,-200 664,-200"/>
<polygon fill="#ffffff" stroke="transparent" points="664,-322 664,-364 924,-364 924,-322 664,-322"/>
<polygon fill="none" stroke="#ffffff" points="664,-322 664,-364 924,-364 924,-322 664,-322"/>
<text text-anchor="start" x="766.9297" y="-337" font-family="Menlo, Consolas, Courier New, monospace" font-size="20.00" fill="#000000">911e7</text>
<polyline fill="none" stroke="#ffffff" points="664,-280 924,-280 "/>
<text text-anchor="start" x="748.9756" y="-296" font-family="Menlo, Consolas, Courier New, monospace" font-weight="bold" text-decoration="underline" font-size="20.00" fill="#ffffff">blob</text>
<text text-anchor="start" x="786.7881" y="-296" font-family="Menlo, Consolas, Courier New, monospace" font-size="20.00" fill="#ffffff"> &#160;&#160;size</text>
<text text-anchor="start" x="674" y="-259.8" font-family="Menlo, Consolas, Courier New, monospace" font-size="14.00" fill="#ffffff">The MIT License</text>
<text text-anchor="start" x="674" y="-227" font-family="Menlo, Consolas, Courier New, monospace" font-size="14.00" fill="#ffffff">Copyright (c) 2017 Scott</text>
<text text-anchor="start" x="824.958" y="-227" font-family="Menlo, Consolas, Courier New, monospace" font-size="20.00" fill="#ffffff"> &#160;&#160;&#160;&#160;&#160;&#160;&#160;</text>
</g>
<!-- tree&#45;&gt;blob2 -->
<g id="edge3" class="edge">
<title>tree:e&#45;&gt;blob2</title>
<path fill="none" stroke="#8f8a83" stroke-width="2" d="M592,-282C611.9663,-282 633.0427,-282 653.7479,-282"/>
<polygon fill="#8f8a83" stroke="#8f8a83" stroke-width="2" points="653.876,-285.5001 663.876,-282 653.8759,-278.5001 653.876,-285.5001"/>
</g>
<!-- blob3 -->
<g id="node5" class="node">
<title>blob3</title>
<polygon fill="none" stroke="#000000" stroke-width="0" points="924,-164 664,-164 664,0 924,0 924,-164"/>
<polygon fill="#c8a036" stroke="transparent" points="664,0 664,-164 924,-164 924,0 664,0"/>
<polygon fill="#ffffff" stroke="transparent" points="664,-122 664,-164 924,-164 924,-122 664,-122"/>
<polygon fill="none" stroke="#ffffff" points="664,-122 664,-164 924,-164 924,-122 664,-122"/>
<text text-anchor="start" x="768.9756" y="-137" font-family="Menlo, Consolas, Courier New, monospace" font-size="20.00" fill="#000000">fa49b</text>
<polyline fill="none" stroke="#ffffff" points="664,-80 924,-80 "/>
<text text-anchor="start" x="748.9756" y="-96" font-family="Menlo, Consolas, Courier New, monospace" font-weight="bold" text-decoration="underline" font-size="20.00" fill="#ffffff">blob</text>
<text text-anchor="start" x="786.7881" y="-96" font-family="Menlo, Consolas, Courier New, monospace" font-size="20.00" fill="#ffffff"> &#160;&#160;size</text>
<text text-anchor="start" x="674" y="-59.8" font-family="Menlo, Consolas, Courier New, monospace" font-size="14.00" fill="#ffffff">require &#39;logger&#39;</text>
<text text-anchor="start" x="674" y="-45.8" font-family="Menlo, Consolas, Courier New, monospace" font-size="14.00" fill="#ffffff">require &#39;test/unit&#39;</text>
<text text-anchor="start" x="674" y="-13" font-family="Menlo, Consolas, Courier New, monospace" font-size="14.00" fill="#ffffff">class Test::Unit::TestCase</text>
<text text-anchor="start" x="834.0293" y="-13" font-family="Menlo, Consolas, Courier New, monospace" font-size="20.00" fill="#ffffff"> &#160;&#160;&#160;&#160;&#160;&#160;&#160;</text>
</g>
<!-- tree&#45;&gt;blob3 -->
<g id="edge4" class="edge">
<title>tree:se&#45;&gt;blob3:nw</title>
<path fill="none" stroke="#8f8a83" stroke-width="2" d="M592,-200C622.7537,-169.2463 629.6436,-157.2573 656.6686,-129.4355"/>
<polygon fill="#8f8a83" stroke="#8f8a83" stroke-width="2" points="659.4712,-131.5782 664,-122 654.4867,-126.6634 659.4712,-131.5782"/>
</g>
</g>
</svg>
