<?xml version="1.0" encoding="UTF-8" standalone="no"?>
<!DOCTYPE svg PUBLIC "-//W3C//DTD SVG 1.1//EN"
 "http://www.w3.org/Graphics/SVG/1.1/DTD/svg11.dtd">
<!-- Generated by graphviz version 2.40.1 (20161225.0304)
 -->
<!-- Title: Git Pages: 1 -->
<svg width="1051pt" height="340pt"
 viewBox="0.00 0.00 1051.00 340.00" xmlns="http://www.w3.org/2000/svg" xmlns:xlink="http://www.w3.org/1999/xlink">
<g id="graph0" class="graph" transform="scale(1 1) rotate(0) translate(4 336)">
<title>Git</title>
<!-- file_c_1 -->
<!-- file_c_2 -->
<g id="node2" class="node">
<title>file_c_2</title>
<polygon fill="#c8a036" stroke="#000000" stroke-width="0" points="374,-56 223,-56 223,0 374,0 374,-56"/>
<text text-anchor="middle" x="298.5" y="-22" font-family="Menlo, Monaco, Consolas, Lucida Console, Courier New, monospace" font-size="20.00" fill="#ffffff">File C</text>
</g>
<!-- file_c_1&#45;&gt;file_c_2 -->
<!-- file_c_3 -->
<!-- file_c_2&#45;&gt;file_c_3 -->
<g id="edge2" class="edge">
<title>file_c_2&#45;&gt;file_c_3</title>
<path fill="none" stroke="#8f8a83" stroke-width="2" d="M374.3088,-28C435.9265,-28 513.8009,-28 520.9662,-28"/>
</g>
<!-- file_c_4 -->
<g id="node4" class="node">
<title>file_c_4</title>
<polygon fill="#c8a036" stroke="#000000" stroke-width="0" points="820,-56 669,-56 669,0 820,0 820,-56"/>
<text text-anchor="middle" x="744.5" y="-22" font-family="Menlo, Monaco, Consolas, Lucida Console, Courier New, monospace" font-size="20.00" fill="#ffffff">Δ1</text>
</g>
<!-- file_c_3&#45;&gt;file_c_4 -->
<g id="edge3" class="edge">
<title>file_c_3&#45;&gt;file_c_4</title>
<path fill="none" stroke="#8f8a83" stroke-width="2" d="M522.1397,-28C529.5175,-28 599.3166,-28 658.7724,-28"/>
<polygon fill="#8f8a83" stroke="#8f8a83" stroke-width="2" points="658.9732,-31.5001 668.9732,-28 658.9732,-24.5001 658.9732,-31.5001"/>
</g>
<!-- file_b_1 -->
<g id="node5" class="node">
<title>file_b_1</title>
<polygon fill="#c8a036" stroke="#000000" stroke-width="0" points="151,-148 0,-148 0,-92 151,-92 151,-148"/>
<text text-anchor="middle" x="75.5" y="-114" font-family="Menlo, Monaco, Consolas, Lucida Console, Courier New, monospace" font-size="20.00" fill="#ffffff">File B</text>
</g>
<!-- file_b_2 -->
<!-- file_b_1&#45;&gt;file_b_2 -->
<g id="edge4" class="edge">
<title>file_b_1&#45;&gt;file_b_2</title>
<path fill="none" stroke="#8f8a83" stroke-width="2" d="M151.3088,-120C212.9265,-120 290.8009,-120 297.9662,-120"/>
</g>
<!-- file_b_3 -->
<!-- file_b_2&#45;&gt;file_b_3 -->
<g id="edge5" class="edge">
<title>file_b_2&#45;&gt;file_b_3</title>
<path fill="none" stroke="#8f8a83" stroke-width="2" d="M299.1397,-120C311.811,-120 508.6116,-120 520.8992,-120"/>
</g>
<!-- file_b_4 -->
<g id="node8" class="node">
<title>file_b_4</title>
<polygon fill="#c8a036" stroke="#000000" stroke-width="0" points="820,-148 669,-148 669,-92 820,-92 820,-148"/>
<text text-anchor="middle" x="744.5" y="-114" font-family="Menlo, Monaco, Consolas, Lucida Console, Courier New, monospace" font-size="20.00" fill="#ffffff">Δ1</text>
</g>
<!-- file_b_3&#45;&gt;file_b_4 -->
<g id="edge6" class="edge">
<title>file_b_3&#45;&gt;file_b_4</title>
<path fill="none" stroke="#8f8a83" stroke-width="2" d="M522.1397,-120C529.5175,-120 599.3166,-120 658.7724,-120"/>
<polygon fill="#8f8a83" stroke="#8f8a83" stroke-width="2" points="658.9732,-123.5001 668.9732,-120 658.9732,-116.5001 658.9732,-123.5001"/>
</g>
<!-- file_b_5 -->
<g id="node9" class="node">
<title>file_b_5</title>
<polygon fill="#c8a036" stroke="#000000" stroke-width="0" points="1043,-148 892,-148 892,-92 1043,-92 1043,-148"/>
<text text-anchor="middle" x="967.5" y="-114" font-family="Menlo, Monaco, Consolas, Lucida Console, Courier New, monospace" font-size="20.00" fill="#ffffff">Δ2</text>
</g>
<!-- file_b_4&#45;&gt;file_b_5 -->
<g id="edge7" class="edge">
<title>file_b_4&#45;&gt;file_b_5</title>
<path fill="none" stroke="#8f8a83" stroke-width="2" d="M820.3088,-120C840.0758,-120 861.5158,-120 881.7577,-120"/>
<polygon fill="#8f8a83" stroke="#8f8a83" stroke-width="2" points="881.9009,-123.5001 891.9009,-120 881.9009,-116.5001 881.9009,-123.5001"/>
</g>
<!-- file_a_1 -->
<g id="node10" class="node">
<title>file_a_1</title>
<polygon fill="#c8a036" stroke="#000000" stroke-width="0" points="151,-240 0,-240 0,-184 151,-184 151,-240"/>
<text text-anchor="middle" x="75.5" y="-206" font-family="Menlo, Monaco, Consolas, Lucida Console, Courier New, monospace" font-size="20.00" fill="#ffffff">File A</text>
</g>
<!-- file_a_2 -->
<g id="node11" class="node">
<title>file_a_2</title>
<polygon fill="#c8a036" stroke="#000000" stroke-width="0" points="374,-240 223,-240 223,-184 374,-184 374,-240"/>
<text text-anchor="middle" x="298.5" y="-206" font-family="Menlo, Monaco, Consolas, Lucida Console, Courier New, monospace" font-size="20.00" fill="#ffffff">Δ1</text>
</g>
<!-- file_a_1&#45;&gt;file_a_2 -->
<g id="edge8" class="edge">
<title>file_a_1&#45;&gt;file_a_2</title>
<path fill="none" stroke="#8f8a83" stroke-width="2" d="M151.3088,-212C171.0758,-212 192.5158,-212 212.7577,-212"/>
<polygon fill="#8f8a83" stroke="#8f8a83" stroke-width="2" points="212.9009,-215.5001 222.9009,-212 212.9009,-208.5001 212.9009,-215.5001"/>
</g>
<!-- file_a_3 -->
<!-- file_a_2&#45;&gt;file_a_3 -->
<g id="edge9" class="edge">
<title>file_a_2&#45;&gt;file_a_3</title>
<path fill="none" stroke="#8f8a83" stroke-width="2" d="M374.3088,-212C435.9265,-212 513.8009,-212 520.9662,-212"/>
</g>
<!-- file_a_4 -->
<g id="node13" class="node">
<title>file_a_4</title>
<polygon fill="#c8a036" stroke="#000000" stroke-width="0" points="820,-240 669,-240 669,-184 820,-184 820,-240"/>
<text text-anchor="middle" x="744.5" y="-206" font-family="Menlo, Monaco, Consolas, Lucida Console, Courier New, monospace" font-size="20.00" fill="#ffffff">Δ2</text>
</g>
<!-- file_a_3&#45;&gt;file_a_4 -->
<g id="edge10" class="edge">
<title>file_a_3&#45;&gt;file_a_4</title>
<path fill="none" stroke="#8f8a83" stroke-width="2" d="M522.1397,-212C529.5175,-212 599.3166,-212 658.7724,-212"/>
<polygon fill="#8f8a83" stroke="#8f8a83" stroke-width="2" points="658.9732,-215.5001 668.9732,-212 658.9732,-208.5001 658.9732,-215.5001"/>
</g>
<!-- version_1 -->
<g id="node14" class="node">
<title>version_1</title>
<path fill="#f0efe8" stroke="#000000" stroke-width="0" d="M139,-332C139,-332 12,-332 12,-332 6,-332 0,-326 0,-320 0,-320 0,-288 0,-288 0,-282 6,-276 12,-276 12,-276 139,-276 139,-276 145,-276 151,-282 151,-288 151,-288 151,-320 151,-320 151,-326 145,-332 139,-332"/>
<text text-anchor="middle" x="75.5" y="-298" font-family="Menlo, Monaco, Consolas, Lucida Console, Courier New, monospace" font-size="20.00" fill="#000000">Version 1</text>
</g>
<!-- version_2 -->
<g id="node15" class="node">
<title>version_2</title>
<path fill="#f0efe8" stroke="#000000" stroke-width="0" d="M362,-332C362,-332 235,-332 235,-332 229,-332 223,-326 223,-320 223,-320 223,-288 223,-288 223,-282 229,-276 235,-276 235,-276 362,-276 362,-276 368,-276 374,-282 374,-288 374,-288 374,-320 374,-320 374,-326 368,-332 362,-332"/>
<text text-anchor="middle" x="298.5" y="-298" font-family="Menlo, Monaco, Consolas, Lucida Console, Courier New, monospace" font-size="20.00" fill="#000000">Version 2</text>
</g>
<!-- version_1&#45;&gt;version_2 -->
<!-- version_3 -->
<g id="node16" class="node">
<title>version_3</title>
<path fill="#f0efe8" stroke="#000000" stroke-width="0" d="M585,-332C585,-332 458,-332 458,-332 452,-332 446,-326 446,-320 446,-320 446,-288 446,-288 446,-282 452,-276 458,-276 458,-276 585,-276 585,-276 591,-276 597,-282 597,-288 597,-288 597,-320 597,-320 597,-326 591,-332 585,-332"/>
<text text-anchor="middle" x="521.5" y="-298" font-family="Menlo, Monaco, Consolas, Lucida Console, Courier New, monospace" font-size="20.00" fill="#000000">Version 3</text>
</g>
<!-- version_2&#45;&gt;version_3 -->
<!-- version_4 -->
<g id="node17" class="node">
<title>version_4</title>
<path fill="#f0efe8" stroke="#000000" stroke-width="0" d="M808,-332C808,-332 681,-332 681,-332 675,-332 669,-326 669,-320 669,-320 669,-288 669,-288 669,-282 675,-276 681,-276 681,-276 808,-276 808,-276 814,-276 820,-282 820,-288 820,-288 820,-320 820,-320 820,-326 814,-332 808,-332"/>
<text text-anchor="middle" x="744.5" y="-298" font-family="Menlo, Monaco, Consolas, Lucida Console, Courier New, monospace" font-size="20.00" fill="#000000">Version 4</text>
</g>
<!-- version_3&#45;&gt;version_4 -->
<!-- version_5 -->
<g id="node18" class="node">
<title>version_5</title>
<path fill="#f0efe8" stroke="#000000" stroke-width="0" d="M1031,-332C1031,-332 904,-332 904,-332 898,-332 892,-326 892,-320 892,-320 892,-288 892,-288 892,-282 898,-276 904,-276 904,-276 1031,-276 1031,-276 1037,-276 1043,-282 1043,-288 1043,-288 1043,-320 1043,-320 1043,-326 1037,-332 1031,-332"/>
<text text-anchor="middle" x="967.5" y="-298" font-family="Menlo, Monaco, Consolas, Lucida Console, Courier New, monospace" font-size="20.00" fill="#000000">Version 5</text>
</g>
<!-- version_4&#45;&gt;version_5 -->
</g>
</svg>
