<?xml version="1.0" encoding="UTF-8" standalone="no"?>
<!DOCTYPE svg PUBLIC "-//W3C//DTD SVG 1.1//EN"
 "http://www.w3.org/Graphics/SVG/1.1/DTD/svg11.dtd">
<!-- Generated by graphviz version 2.40.1 (20161225.0304)
 -->
<!-- Title: Git Pages: 1 -->
<svg width="1051pt" height="340pt"
 viewBox="0.00 0.00 1051.00 340.00" xmlns="http://www.w3.org/2000/svg" xmlns:xlink="http://www.w3.org/1999/xlink">
<g id="graph0" class="graph" transform="scale(1 1) rotate(0) translate(4 336)">
<title>Git</title>
<!-- file_c_1 -->
<!-- file_c_2 -->
<g id="node2" class="node">
<title>file_c_2</title>
<polygon fill="#c8a036" stroke="#8f8a83" stroke-width="0" points="374,-56 223,-56 223,0 374,0 374,-56"/>
<text text-anchor="middle" x="298.5" y="-22" font-family="Menlo, Monaco, Consolas, Lucida Console, Courier New, monospace" font-size="20.00" fill="#ffffff">File C</text>
</g>
<!-- file_c_1&#45;&gt;file_c_2 -->
<!-- file_c_3 -->
<g id="node3" class="node">
<title>file_c_3</title>
<polygon fill="#c8a036" fill-opacity="0.501961" stroke="#8f8a83" stroke-width="2" stroke-dasharray="5,2" points="597,-56 446,-56 446,0 597,0 597,-56"/>
<text text-anchor="middle" x="521.5" y="-22" font-family="Menlo, Monaco, Consolas, Lucida Console, Courier New, monospace" font-size="20.00" fill="#ffffff">C</text>
</g>
<!-- file_c_2&#45;&gt;file_c_3 -->
<!-- file_c_4 -->
<g id="node4" class="node">
<title>file_c_4</title>
<polygon fill="#c8a036" stroke="#8f8a83" stroke-width="0" points="820,-56 669,-56 669,0 820,0 820,-56"/>
<text text-anchor="middle" x="744.5" y="-22" font-family="Menlo, Monaco, Consolas, Lucida Console, Courier New, monospace" font-size="20.00" fill="#ffffff">C1</text>
</g>
<!-- file_c_3&#45;&gt;file_c_4 -->
<!-- file_c_5 -->
<g id="node5" class="node">
<title>file_c_5</title>
<polygon fill="#c8a036" fill-opacity="0.501961" stroke="#8f8a83" stroke-width="2" stroke-dasharray="5,2" points="1043,-56 892,-56 892,0 1043,0 1043,-56"/>
<text text-anchor="middle" x="967.5" y="-22" font-family="Menlo, Monaco, Consolas, Lucida Console, Courier New, monospace" font-size="20.00" fill="#ffffff">C1</text>
</g>
<!-- file_c_4&#45;&gt;file_c_5 -->
<!-- file_b_1 -->
<g id="node6" class="node">
<title>file_b_1</title>
<polygon fill="#c8a036" stroke="#8f8a83" stroke-width="0" points="151,-148 0,-148 0,-92 151,-92 151,-148"/>
<text text-anchor="middle" x="75.5" y="-114" font-family="Menlo, Monaco, Consolas, Lucida Console, Courier New, monospace" font-size="20.00" fill="#ffffff">File B</text>
</g>
<!-- file_b_2 -->
<g id="node7" class="node">
<title>file_b_2</title>
<polygon fill="#c8a036" fill-opacity="0.501961" stroke="#8f8a83" stroke-width="2" stroke-dasharray="5,2" points="374,-148 223,-148 223,-92 374,-92 374,-148"/>
<text text-anchor="middle" x="298.5" y="-114" font-family="Menlo, Monaco, Consolas, Lucida Console, Courier New, monospace" font-size="20.00" fill="#ffffff">B</text>
</g>
<!-- file_b_1&#45;&gt;file_b_2 -->
<!-- file_b_2&#45;&gt;file_c_2 -->
<g id="edge21" class="edge">
<title>file_b_2&#45;&gt;file_c_2</title>
<path fill="none" stroke="#8f8a83" stroke-width="2" d="M298.5,-91.5139C298.5,-79.6864 298.5,-67.8588 298.5,-56.0313"/>
</g>
<!-- file_b_3 -->
<g id="node8" class="node">
<title>file_b_3</title>
<polygon fill="#c8a036" fill-opacity="0.501961" stroke="#8f8a83" stroke-width="2" stroke-dasharray="5,2" points="597,-148 446,-148 446,-92 597,-92 597,-148"/>
<text text-anchor="middle" x="521.5" y="-114" font-family="Menlo, Monaco, Consolas, Lucida Console, Courier New, monospace" font-size="20.00" fill="#ffffff">B</text>
</g>
<!-- file_b_2&#45;&gt;file_b_3 -->
<!-- file_b_3&#45;&gt;file_c_3 -->
<g id="edge24" class="edge">
<title>file_b_3&#45;&gt;file_c_3</title>
<path fill="none" stroke="#8f8a83" stroke-width="2" d="M521.5,-91.5139C521.5,-79.6864 521.5,-67.8588 521.5,-56.0313"/>
</g>
<!-- file_b_4 -->
<g id="node9" class="node">
<title>file_b_4</title>
<polygon fill="#c8a036" stroke="#8f8a83" stroke-width="0" points="820,-148 669,-148 669,-92 820,-92 820,-148"/>
<text text-anchor="middle" x="744.5" y="-114" font-family="Menlo, Monaco, Consolas, Lucida Console, Courier New, monospace" font-size="20.00" fill="#ffffff">B1</text>
</g>
<!-- file_b_3&#45;&gt;file_b_4 -->
<!-- file_b_4&#45;&gt;file_c_4 -->
<g id="edge27" class="edge">
<title>file_b_4&#45;&gt;file_c_4</title>
<path fill="none" stroke="#8f8a83" stroke-width="2" d="M744.5,-91.5139C744.5,-79.6864 744.5,-67.8588 744.5,-56.0313"/>
</g>
<!-- file_b_5 -->
<g id="node10" class="node">
<title>file_b_5</title>
<polygon fill="#c8a036" stroke="#8f8a83" stroke-width="0" points="1043,-148 892,-148 892,-92 1043,-92 1043,-148"/>
<text text-anchor="middle" x="967.5" y="-114" font-family="Menlo, Monaco, Consolas, Lucida Console, Courier New, monospace" font-size="20.00" fill="#ffffff">B2</text>
</g>
<!-- file_b_4&#45;&gt;file_b_5 -->
<!-- file_b_5&#45;&gt;file_c_5 -->
<g id="edge30" class="edge">
<title>file_b_5&#45;&gt;file_c_5</title>
<path fill="none" stroke="#8f8a83" stroke-width="2" d="M967.5,-91.5139C967.5,-79.6864 967.5,-67.8588 967.5,-56.0313"/>
</g>
<!-- file_a_1 -->
<g id="node11" class="node">
<title>file_a_1</title>
<polygon fill="#c8a036" stroke="#8f8a83" stroke-width="0" points="151,-240 0,-240 0,-184 151,-184 151,-240"/>
<text text-anchor="middle" x="75.5" y="-206" font-family="Menlo, Monaco, Consolas, Lucida Console, Courier New, monospace" font-size="20.00" fill="#ffffff">File A</text>
</g>
<!-- file_a_1&#45;&gt;file_b_1 -->
<g id="edge18" class="edge">
<title>file_a_1&#45;&gt;file_b_1</title>
<path fill="none" stroke="#8f8a83" stroke-width="2" d="M75.5,-183.5139C75.5,-171.6864 75.5,-159.8588 75.5,-148.0313"/>
</g>
<!-- file_a_2 -->
<g id="node12" class="node">
<title>file_a_2</title>
<polygon fill="#c8a036" stroke="#8f8a83" stroke-width="0" points="374,-240 223,-240 223,-184 374,-184 374,-240"/>
<text text-anchor="middle" x="298.5" y="-206" font-family="Menlo, Monaco, Consolas, Lucida Console, Courier New, monospace" font-size="20.00" fill="#ffffff">A1</text>
</g>
<!-- file_a_1&#45;&gt;file_a_2 -->
<!-- file_a_2&#45;&gt;file_b_2 -->
<g id="edge20" class="edge">
<title>file_a_2&#45;&gt;file_b_2</title>
<path fill="none" stroke="#8f8a83" stroke-width="2" d="M298.5,-183.5139C298.5,-171.6864 298.5,-159.8588 298.5,-148.0313"/>
</g>
<!-- file_a_3 -->
<g id="node13" class="node">
<title>file_a_3</title>
<polygon fill="#c8a036" fill-opacity="0.501961" stroke="#8f8a83" stroke-width="2" stroke-dasharray="5,2" points="597,-240 446,-240 446,-184 597,-184 597,-240"/>
<text text-anchor="middle" x="521.5" y="-206" font-family="Menlo, Monaco, Consolas, Lucida Console, Courier New, monospace" font-size="20.00" fill="#ffffff">A1</text>
</g>
<!-- file_a_2&#45;&gt;file_a_3 -->
<!-- file_a_3&#45;&gt;file_b_3 -->
<g id="edge23" class="edge">
<title>file_a_3&#45;&gt;file_b_3</title>
<path fill="none" stroke="#8f8a83" stroke-width="2" d="M521.5,-183.5139C521.5,-171.6864 521.5,-159.8588 521.5,-148.0313"/>
</g>
<!-- file_a_4 -->
<g id="node14" class="node">
<title>file_a_4</title>
<polygon fill="#c8a036" stroke="#8f8a83" stroke-width="0" points="820,-240 669,-240 669,-184 820,-184 820,-240"/>
<text text-anchor="middle" x="744.5" y="-206" font-family="Menlo, Monaco, Consolas, Lucida Console, Courier New, monospace" font-size="20.00" fill="#ffffff">A2</text>
</g>
<!-- file_a_3&#45;&gt;file_a_4 -->
<!-- file_a_4&#45;&gt;file_b_4 -->
<g id="edge26" class="edge">
<title>file_a_4&#45;&gt;file_b_4</title>
<path fill="none" stroke="#8f8a83" stroke-width="2" d="M744.5,-183.5139C744.5,-171.6864 744.5,-159.8588 744.5,-148.0313"/>
</g>
<!-- file_a_5 -->
<g id="node15" class="node">
<title>file_a_5</title>
<polygon fill="#c8a036" fill-opacity="0.501961" stroke="#8f8a83" stroke-width="2" stroke-dasharray="5,2" points="1043,-240 892,-240 892,-184 1043,-184 1043,-240"/>
<text text-anchor="middle" x="967.5" y="-206" font-family="Menlo, Monaco, Consolas, Lucida Console, Courier New, monospace" font-size="20.00" fill="#ffffff">A2</text>
</g>
<!-- file_a_4&#45;&gt;file_a_5 -->
<!-- file_a_5&#45;&gt;file_b_5 -->
<g id="edge29" class="edge">
<title>file_a_5&#45;&gt;file_b_5</title>
<path fill="none" stroke="#8f8a83" stroke-width="2" d="M967.5,-183.5139C967.5,-171.6864 967.5,-159.8588 967.5,-148.0313"/>
</g>
<!-- version_1 -->
<g id="node16" class="node">
<title>version_1</title>
<path fill="#f0efe8" stroke="#8f8a83" stroke-width="0" d="M139,-332C139,-332 12,-332 12,-332 6,-332 0,-326 0,-320 0,-320 0,-288 0,-288 0,-282 6,-276 12,-276 12,-276 139,-276 139,-276 145,-276 151,-282 151,-288 151,-288 151,-320 151,-320 151,-326 145,-332 139,-332"/>
<text text-anchor="middle" x="75.5" y="-298" font-family="Menlo, Monaco, Consolas, Lucida Console, Courier New, monospace" font-size="20.00" fill="#000000">Version 1</text>
</g>
<!-- version_1&#45;&gt;file_a_1 -->
<g id="edge17" class="edge">
<title>version_1&#45;&gt;file_a_1</title>
<path fill="none" stroke="#8f8a83" stroke-width="2" d="M75.5,-275.5139C75.5,-263.6864 75.5,-251.8588 75.5,-240.0313"/>
</g>
<!-- version_2 -->
<g id="node17" class="node">
<title>version_2</title>
<path fill="#f0efe8" stroke="#8f8a83" stroke-width="0" d="M362,-332C362,-332 235,-332 235,-332 229,-332 223,-326 223,-320 223,-320 223,-288 223,-288 223,-282 229,-276 235,-276 235,-276 362,-276 362,-276 368,-276 374,-282 374,-288 374,-288 374,-320 374,-320 374,-326 368,-332 362,-332"/>
<text text-anchor="middle" x="298.5" y="-298" font-family="Menlo, Monaco, Consolas, Lucida Console, Courier New, monospace" font-size="20.00" fill="#000000">Version 2</text>
</g>
<!-- version_1&#45;&gt;version_2 -->
<!-- version_2&#45;&gt;file_a_2 -->
<g id="edge19" class="edge">
<title>version_2&#45;&gt;file_a_2</title>
<path fill="none" stroke="#8f8a83" stroke-width="2" d="M298.5,-275.5139C298.5,-263.6864 298.5,-251.8588 298.5,-240.0313"/>
</g>
<!-- version_3 -->
<g id="node18" class="node">
<title>version_3</title>
<path fill="#f0efe8" stroke="#8f8a83" stroke-width="0" d="M585,-332C585,-332 458,-332 458,-332 452,-332 446,-326 446,-320 446,-320 446,-288 446,-288 446,-282 452,-276 458,-276 458,-276 585,-276 585,-276 591,-276 597,-282 597,-288 597,-288 597,-320 597,-320 597,-326 591,-332 585,-332"/>
<text text-anchor="middle" x="521.5" y="-298" font-family="Menlo, Monaco, Consolas, Lucida Console, Courier New, monospace" font-size="20.00" fill="#000000">Version 3</text>
</g>
<!-- version_2&#45;&gt;version_3 -->
<!-- version_3&#45;&gt;file_a_3 -->
<g id="edge22" class="edge">
<title>version_3&#45;&gt;file_a_3</title>
<path fill="none" stroke="#8f8a83" stroke-width="2" d="M521.5,-275.5139C521.5,-263.6864 521.5,-251.8588 521.5,-240.0313"/>
</g>
<!-- version_4 -->
<g id="node19" class="node">
<title>version_4</title>
<path fill="#f0efe8" stroke="#8f8a83" stroke-width="0" d="M808,-332C808,-332 681,-332 681,-332 675,-332 669,-326 669,-320 669,-320 669,-288 669,-288 669,-282 675,-276 681,-276 681,-276 808,-276 808,-276 814,-276 820,-282 820,-288 820,-288 820,-320 820,-320 820,-326 814,-332 808,-332"/>
<text text-anchor="middle" x="744.5" y="-298" font-family="Menlo, Monaco, Consolas, Lucida Console, Courier New, monospace" font-size="20.00" fill="#000000">Version 4</text>
</g>
<!-- version_3&#45;&gt;version_4 -->
<!-- version_4&#45;&gt;file_a_4 -->
<g id="edge25" class="edge">
<title>version_4&#45;&gt;file_a_4</title>
<path fill="none" stroke="#8f8a83" stroke-width="2" d="M744.5,-275.5139C744.5,-263.6864 744.5,-251.8588 744.5,-240.0313"/>
</g>
<!-- version_5 -->
<g id="node20" class="node">
<title>version_5</title>
<path fill="#f0efe8" stroke="#8f8a83" stroke-width="0" d="M1031,-332C1031,-332 904,-332 904,-332 898,-332 892,-326 892,-320 892,-320 892,-288 892,-288 892,-282 898,-276 904,-276 904,-276 1031,-276 1031,-276 1037,-276 1043,-282 1043,-288 1043,-288 1043,-320 1043,-320 1043,-326 1037,-332 1031,-332"/>
<text text-anchor="middle" x="967.5" y="-298" font-family="Menlo, Monaco, Consolas, Lucida Console, Courier New, monospace" font-size="20.00" fill="#000000">Version 5</text>
</g>
<!-- version_4&#45;&gt;version_5 -->
<!-- version_5&#45;&gt;file_a_5 -->
<g id="edge28" class="edge">
<title>version_5&#45;&gt;file_a_5</title>
<path fill="none" stroke="#8f8a83" stroke-width="2" d="M967.5,-275.5139C967.5,-263.6864 967.5,-251.8588 967.5,-240.0313"/>
</g>
</g>
</svg>
